<svg width="472" height="332" viewBox="0 0 472 332" fill="none" xmlns="http://www.w3.org/2000/svg">
<path d="M55.9919 315H453.871C486.85 287.533 469.878 204.885 442.333 188.13C412.681 170.095 459.766 107.723 414.089 87.4783C384.266 74.2601 336.835 88.667 343.215 53.3024C352.061 4.26174 248.654 -8.30375 172.47 4.91627C90.1059 19.2076 165.32 89.4745 74.7439 103.632C28.1693 110.911 37.1689 173.194 41.5123 186.065C45.2945 197.274 70.3183 215.055 35.5412 239.541C-15.4561 275.445 54.79 314.339 55.9919 315Z" fill="#C6963C"/>
<path d="M28.1877 319.008C35.0336 323.958 43.4227 326 51.8706 326H418.733C430.451 326 442.637 322.216 447.8 311.696C464.949 276.757 449.065 213.208 425.333 198.727C395.681 180.635 442.766 118.065 397.089 97.756C367.266 84.4959 319.835 98.9485 326.215 63.4716C335.061 14.2753 231.654 1.66988 155.47 14.9319C73.1059 29.2686 148.32 99.7585 57.7439 113.961C11.1693 121.263 20.1689 183.743 24.5123 196.656C28.2945 207.9 53.3183 225.738 18.5412 250.301C-19.7566 277.35 10.3228 306.091 28.1877 319.008Z" fill="#F7BC4B"/>
<path d="M173.79 178.732C173.777 181.404 173.061 183.909 171.819 186.071C171.662 186.344 171.517 186.64 171.386 186.956C168.639 193.557 173.634 200.817 180.783 200.85L215.943 201.018L216.11 165.857C216.144 158.709 223.403 153.713 230.003 156.46C230.319 156.592 230.616 156.735 230.889 156.892C233.052 158.135 235.556 158.851 238.228 158.864C246.697 158.904 253.548 151.876 253.193 143.318C252.871 135.574 246.541 129.31 238.794 129.057C236.039 128.967 233.445 129.627 231.198 130.848C230.918 131 230.616 131.139 230.293 131.266C223.56 133.929 216.285 128.784 216.319 121.543L216.485 86.6861L136.372 86.3068C117.474 86.2171 102.08 101.464 101.991 120.363L101.611 200.476L136.654 200.641C143.838 200.676 148.934 193.44 146.258 186.772C146.131 186.454 145.991 186.155 145.837 185.879C144.518 183.502 143.831 180.728 144.001 177.782C144.438 170.192 150.635 164.09 158.23 163.767C166.793 163.404 173.83 170.26 173.79 178.732Z" fill="#339E7D"/>
<path d="M247.044 159.505C244.371 159.505 241.865 158.8 239.696 157.569C239.423 157.413 239.125 157.27 238.809 157.14C232.195 154.424 224.959 159.455 224.959 166.605V201.764H260.119C267.268 201.764 272.298 209.001 269.582 215.614C269.452 215.93 269.31 216.228 269.154 216.502C267.922 218.67 267.218 221.177 267.218 223.849C267.218 232.317 274.278 239.136 282.834 238.74C290.576 238.382 296.81 232.022 297.027 224.275C297.103 221.519 296.432 218.928 295.2 216.687C295.047 216.407 294.906 216.105 294.777 215.783C292.083 209.062 297.194 201.764 304.435 201.764H339.293V121.65C339.293 102.752 323.971 87.4307 305.073 87.4307H224.959V122.474C224.959 129.658 232.219 134.72 238.873 132.014C239.191 131.884 239.49 131.743 239.764 131.588C242.136 130.257 244.907 129.556 247.853 129.711C255.444 130.112 261.576 136.281 261.934 143.875C262.339 152.436 255.517 159.505 247.044 159.505Z" fill="#5142AD"/>
<path d="M287.005 48.8578C287.28 48.8773 288.024 49.153 289.061 51.2647C290.387 53.9609 292.198 62.0423 292.198 62.0423L286.002 64.1402L285.265 62.4422L284.355 49.5165C284.355 49.5165 286.93 48.8528 287.005 48.8578Z" fill="#DE5A44"/>
<path d="M278.805 47.688C280.557 47.6899 284.895 48.2018 286.908 48.8446C286.908 48.8446 288.388 61.5578 285.577 71.2169C284.948 73.3796 286.097 80.18 286.097 80.18L267.932 79.9399C267.932 79.9399 270.083 63.4991 269.273 60.8431C268.463 58.187 268.443 48.9315 268.443 48.9315C268.443 48.9315 268.567 48.9119 272.525 48.228C274.37 47.9094 276.933 47.6852 278.805 47.688Z" fill="#F47B60"/>
<path d="M276.098 103.893C276.098 103.893 276.498 108.532 277.237 109.816C277.976 111.101 277.198 113.284 277.16 113.584C277.121 113.884 275.605 114.312 273.194 114.055C270.783 113.798 270.82 113.241 271.015 112.343C271.21 111.443 272.492 110.287 272.571 109.431C272.648 108.575 271.833 105.492 271.833 105.492L276.098 103.893Z" fill="#F7A896"/>
<path d="M284.048 76.3505C284.048 76.3505 296.588 75.6545 299.388 77.3501C302.188 79.0458 297.398 87.3689 297.398 87.3689C297.398 87.3689 288.673 86.9681 271.581 87.9547C267.534 88.1883 267.185 77.4006 267.942 76.5084C268.699 75.6152 284.048 76.3505 284.048 76.3505Z" fill="#E19C48"/>
<path d="M272.959 114.447C270.47 114.242 270.748 113.015 270.925 112.085C271.037 111.503 271.734 110.802 272.142 110.145C272.369 110.317 272.736 110.621 273.821 110.913C274.949 111.217 276.468 110.527 277.436 110.093C277.815 111.381 277.872 113.035 277.845 113.287C277.812 113.596 275.448 114.652 272.959 114.447Z" fill="#DE5A44"/>
<path d="M274.764 85.4537C275.174 89.2557 277.201 108.182 277.201 108.182L271.431 108.758C271.431 108.758 264.945 83.9625 265.398 80.2045C265.851 76.4465 268.507 76.1924 268.507 76.1924C268.507 76.1924 273.678 75.3892 274.764 85.4537Z" fill="#F7CE85"/>
<path d="M268.155 50.3504C269.838 49.6728 271.034 64.9523 271.414 71.2437C274.428 71.4612 279.663 71.0489 280.965 70.9196C281.578 70.8582 282.98 70.306 283.589 70.2119C284.213 70.1148 284.779 70.0582 285.087 70.105C285.201 70.1219 288.365 71.3283 288.641 71.603C288.982 71.9434 289.901 72.8017 289.759 73.1854C289.616 73.5692 288.005 72.1677 288.005 72.1677L287.223 71.7528C288.206 72.6676 290.065 73.8584 289.812 74.314C289.566 74.7591 287.885 73.5453 286.687 72.7198C287.719 73.6072 289.011 75.2088 288.729 75.4698C288.475 75.7039 287.003 73.8505 285.466 73.3425C284.896 73.1543 284.346 73.7263 283.904 73.8041C283.578 73.8615 283.077 73.9791 282.755 73.8961L281.094 73.4677C280.532 73.5316 280.526 73.8645 279.961 73.9995C279.305 74.1554 278.227 74.3288 277.394 74.5544C272.589 75.8507 270.99 76.4375 269.51 76.472C265.028 76.5766 264.178 51.9521 268.155 50.3504Z" fill="#F7A896"/>
<path d="M265.277 64.7912C264.804 58.3488 264.66 50.3968 268.244 48.954C269.657 48.3847 272.25 51.5429 272.114 64.7583C270.187 64.9642 267.357 65.16 265.277 64.7912Z" fill="#DE5A44"/>
<path d="M294.106 107.769C294.106 107.769 293.681 109.402 294.631 110.422C295.581 111.443 299.362 112.307 299.88 112.86C300.397 113.412 300.385 113.905 300.385 113.905L289.894 114.119L289.857 110.949L290.231 108.653L294.106 107.769Z" fill="#F7A896"/>
<path d="M295.384 111.053C295.384 111.053 292.69 112.143 291.387 111.498C290.086 110.852 290.125 110.674 289.749 110.914C289.371 111.155 289.237 114.124 289.237 114.124L301.031 114.471C301.851 114.452 302.266 113.847 301.599 113.33C301.142 112.975 300.613 112.738 300.313 112.566C299.391 112.037 295.384 111.053 295.384 111.053Z" fill="#DE5A44"/>
<path d="M293.054 79.4199C293.824 77.6951 295.613 75.4318 298.888 76.6907C302.012 77.8924 302.917 81.007 302.018 84.2404C301.119 87.4738 295.146 106.498 294.985 109.097L289.857 109.253C289.857 109.253 290.43 94.2901 290.572 90.6739C290.709 87.1933 291.722 82.4049 293.054 79.4199Z" fill="#F7CE85"/>
<path d="M301.451 61.939H284.3C283.847 61.939 283.437 62.2146 283.265 62.6359L277.983 75.5593H268.528C268.263 75.5593 268.049 75.7751 268.049 76.0404C268.049 76.3057 268.263 76.5206 268.528 76.5206H295.44C296.18 76.5206 296.851 76.0834 297.154 75.406L302.471 63.5216C302.803 62.7788 302.262 61.939 301.451 61.939Z" fill="black"/>
<path d="M292.216 69.4651C292.1 70.0453 291.596 70.4339 291.089 70.3321C290.582 70.2303 290.265 69.6772 290.381 69.0971C290.497 68.5169 291.002 68.1282 291.509 68.2301C292.015 68.3319 292.332 68.885 292.216 69.4651Z" fill="white"/>
<path d="M283.313 32.2811C282.801 32.0951 282.296 31.8858 281.81 31.6377C281.261 31.3564 280.549 31.0253 280.096 30.9444C279.143 30.7739 277.498 30.8326 276.566 31.7962C275.406 32.9954 273.42 31.9423 273.67 38.3778C273.954 45.6616 278.018 44.9608 278.119 44.8399C278.22 44.7189 281.837 40.2732 281.837 40.2732C281.837 40.2732 282.999 42.9859 283.001 42.8878C283.004 42.7926 289.471 34.52 283.313 32.2811Z" fill="#1A383F"/>
<path d="M279.926 45.4206L280.213 48.0282C280.213 48.0282 280.906 51.7912 279.882 52.4882C278.859 53.1861 275.713 47.813 275.713 47.813L276.217 41.2358L279.926 45.4206Z" fill="#F7A896"/>
<path d="M276.054 43.368C276.831 45.6341 278.777 47.0619 280.17 47.6317L279.926 45.4204L276.217 41.2366L276.054 43.368Z" fill="#F47B60"/>
<path d="M279.991 34.1566C282.131 33.864 284.002 35.6236 283.898 37.7565C283.852 38.6843 283.749 39.8406 283.526 41.0838C282.99 44.0726 280.881 46.6648 279.533 46.3971C278.185 46.1284 274.841 43.4588 275.543 39.2039C275.977 36.5771 277.745 34.4645 279.991 34.1566Z" fill="#F7A896"/>
<path d="M276.471 39.7353C276.341 40.392 275.801 40.8388 275.266 40.7316C274.731 40.6253 274.401 40.0063 274.53 39.3496C274.661 38.6921 275.201 38.2461 275.736 38.3524C276.271 38.4596 276.6 39.0787 276.471 39.7353Z" fill="#F7A896"/>
<path d="M275.735 38.3523C275.735 38.3523 277.361 38.7978 277.993 37.7597C278.625 36.7226 280.852 34.5032 283.589 35.5108C286.327 36.5183 281.215 33.1634 280.995 33.1581C280.773 33.1528 278.125 33.0707 278.125 33.0707C278.125 33.0707 276.041 34.702 275.963 34.8852C275.885 35.0674 275.248 37.066 275.248 37.066L275.735 38.3523Z" fill="#1A383F"/>
<path d="M278.617 43.0581L281.581 43.6992C281.581 43.6992 281.271 44.8131 279.959 44.5696C278.359 44.2724 278.617 43.0581 278.617 43.0581Z" fill="white"/>
<path d="M157.757 45.848C158.647 43.7352 159.551 41.6188 161.839 40.5572C163.69 39.6982 165.618 40.0353 167.253 41.2773C171.887 44.7964 167.816 48.6288 173.078 55.2844C174.712 57.3532 176.695 59.0275 177.669 61.4463C179.033 64.832 177.382 66.4478 174.741 68.0533C162.104 75.7377 155.576 59.8036 155.83 56.1678C156.02 53.4631 157.184 47.2083 157.757 45.848Z" fill="#1F4163"/>
<path d="M143.171 86.4197C143.706 86.3612 145.038 85.5 145.498 85.4378C145.853 85.3894 146.621 85.3111 146.948 85.2773C147.417 83.8107 149.828 75.804 150.167 73.4399C150.536 70.8789 152.889 59.8334 152.889 59.8334L157.56 60.9158C157.56 60.9158 155.193 69.3857 154.453 73.5125C153.818 77.0568 149.52 84.8889 148.982 85.7114C148.98 85.7319 148.979 85.7515 148.976 85.7729C148.84 87.0281 148.254 86.5791 148.254 86.5791L147.256 86.7838C147.256 86.7838 143.754 86.9517 143.522 87.0248C143.291 87.0979 142.636 86.4782 143.171 86.4197Z" fill="#F7A896"/>
<path d="M157.139 53.4745C153.772 54.5087 151.616 63.5163 151.616 63.5163C151.616 63.5163 156.804 65.1272 158.166 64.3999C158.166 64.3999 159.882 57.7022 160.419 57.9531L157.139 53.4745Z" fill="#719CD0"/>
<path d="M130.937 102.567C129.875 105.241 129.306 107.825 129.253 108.139C129.229 108.289 129.43 109.023 129.408 109.18C127.317 111.942 124.364 112.507 121.839 112.647C123.144 111.411 125.05 110.251 125.147 109.855C125.301 109.224 126.121 106.418 126.563 102.519C128.121 103.269 129.195 102.71 130.937 102.567Z" fill="#F7A896"/>
<path d="M160.119 72.6028L164.552 85.322C164.552 85.322 157.303 86.6434 154.593 87.1249C151.883 87.6054 136.75 88.1799 136.365 88.4458C136.08 88.6432 132.898 98.7317 131.47 104.296C129.885 104.636 127.176 104.202 125.736 103.697C126.561 95.7281 129.449 83.1116 130.357 81.7416C131.838 79.5098 160.119 72.6028 160.119 72.6028Z" fill="#306D5B"/>
<path d="M142.167 108.093C141.602 110.915 141.504 113.559 141.508 113.876C141.51 114.028 141.84 114.715 141.846 114.873C140.283 117.965 137.479 119.05 135.018 119.639C136.081 118.189 137.749 116.706 137.774 116.299C137.813 115.652 138.117 112.744 137.855 108.829C139.522 109.287 140.479 108.546 142.167 108.093Z" fill="#F7A896"/>
<path d="M165.347 73.2689L167.066 76.2713C169.684 80.8417 167.588 86.6702 162.659 88.528C162.632 88.538 162.606 88.5481 162.581 88.5581C160.005 89.5284 145.236 92.8709 144.907 93.2032C144.662 93.4503 143.386 103.952 143.004 109.684C141.508 110.309 138.766 110.38 137.258 110.147C136.606 102.162 137.127 89.2299 137.769 87.716C138.814 85.2501 165.347 73.2689 165.347 73.2689Z" fill="#3C8572"/>
<path d="M141.387 114.056C141.811 113.654 143.064 116.143 143.384 116.677C143.743 117.279 143.595 117.7 143.54 117.786C143.394 118.011 135.479 121.886 133.608 122.061C133.431 122.077 133.137 121.944 133.067 121.871C132.394 121.177 136.079 116.714 137.618 116.208C138.613 115.881 139.478 115.865 141.387 114.056Z" fill="#1F4163"/>
<path d="M129.027 108.249C129.504 107.911 130.392 110.552 130.632 111.128C130.903 111.774 130.697 112.17 130.63 112.247C130.454 112.449 122.068 115.161 120.19 115.069C120.013 115.06 119.741 114.887 119.681 114.804C119.113 114.021 123.395 110.126 124.991 109.845C126.023 109.663 126.88 109.769 129.027 108.249Z" fill="#1F4163"/>
<path d="M160.235 53.4823C160.149 53.4824 160.025 53.4513 159.899 53.4108C159.281 53.2937 157.929 53.1191 156.87 53.5528C155.584 54.0814 153.55 59.1136 153.618 64.2995C153.658 65.0922 153.7 65.8027 153.735 66.2982C154.022 70.2174 155.075 77.5766 155.135 77.6164C156.654 78.6147 165.913 74.8887 166.555 74.0569C167.196 73.2249 167.668 63.0495 167.981 62.5452L168.672 53.6967C167.605 53.3679 161.874 53.4867 160.235 53.4823Z" fill="#A0C4F9"/>
<path d="M164.074 50.2876C164.074 50.2876 163.421 53.3484 163.517 54.5612C163.612 55.775 162.966 59.6684 160.402 59.6324C157.837 59.5954 160.01 54.6594 160.274 53.4768C160.539 52.2943 160.666 48.6198 160.666 48.6198L164.074 50.2876Z" fill="#F7A896"/>
<path d="M160.577 50.4627C160.637 49.4585 160.666 48.6199 160.666 48.6199L164.074 50.2877C164.074 50.2877 163.94 50.9131 163.803 51.7112C162.292 51.985 161.212 51.4065 160.577 50.4627Z" fill="#F47B60"/>
<path d="M165.492 41.8362C165.492 41.8362 166.804 42.5967 167.257 44.1986C167.711 45.8014 167.081 49.9016 163.639 50.8281C160.198 51.7545 158.778 48.4709 159.532 45.939C160.285 43.4081 161.88 40.215 165.492 41.8362Z" fill="#F7A896"/>
<path d="M159.122 44.9452C159.176 45.6302 159.543 46.1596 159.942 46.128C160.341 46.0964 160.62 45.5158 160.567 44.8318C160.513 44.1467 160.144 43.6164 159.746 43.648C159.347 43.6796 159.068 44.2601 159.122 44.9452Z" fill="#F7A896"/>
<path d="M165.094 41.6218C165.094 41.6218 165.627 46.22 167.094 47.076C168.561 47.932 167.901 49.9545 167.901 49.9545C167.901 49.9545 169.336 45.2567 168.193 43.7173C167.05 42.1779 165.094 41.6218 165.094 41.6218Z" fill="#1F4163"/>
<path d="M166.202 47.7159C165.789 48.306 165.777 49.0103 166.175 49.2899C166.574 49.5694 167.232 49.3176 167.646 48.7284C168.059 48.1383 168.072 47.434 167.673 47.1545C167.274 46.8749 166.616 47.1258 166.202 47.7159Z" fill="#F7A896"/>
<path d="M161.207 48.1317L163.606 48.786C163.606 48.786 163.3 49.6968 162.236 49.44C160.938 49.1273 161.207 48.1317 161.207 48.1317Z" fill="white"/>
<path d="M172.257 86.7184C172.373 86.7192 182.67 86.7619 182.67 86.7619C182.67 86.7619 178.242 89.5932 178.154 89.5884C178.067 89.5837 174.831 88.0975 174.687 88.0896C174.541 88.0817 172.257 86.7184 172.257 86.7184Z" fill="#59C2A9"/>
<path d="M182.872 86.6203C182.832 86.5098 182.736 86.5052 182.638 86.4996C181.685 86.4437 180.732 86.3729 179.79 86.2042C179.633 86.1764 179.478 86.1365 179.335 86.0745C179.075 85.9615 178.815 85.957 178.547 86.0232C178.402 86.0593 178.256 86.0636 178.107 86.0585C177.628 86.0431 176.272 85.5384 175.572 85.3952C175.412 85.3627 175.289 85.2377 175.253 85.0787C174.638 82.3229 173.328 76.1427 173.192 74.1191C173.02 71.531 171.566 59.8418 171.566 59.8418L166.759 61.0378C166.759 61.0378 168.479 69.683 168.904 73.8634C169.233 77.0924 172.254 84.0089 173.206 86.0003C173.657 87.4748 174.761 87.5471 175.017 87.5852C175.163 87.608 175.295 87.6837 175.388 87.7985C175.557 88.0061 175.751 88.1882 175.976 88.3385C176.142 88.4507 176.268 88.5926 176.375 88.7582C176.569 89.06 176.741 89.3751 176.911 89.6902C177.025 89.8991 177.147 89.967 177.325 89.9244C177.516 89.8774 177.61 89.7399 177.613 89.5091C177.618 89.1691 177.517 88.8569 177.354 88.5607C177.202 88.2844 177.218 88.126 177.412 87.881C177.523 87.7402 177.638 87.6051 177.782 87.4942C177.928 87.3815 178.081 87.297 178.274 87.3296C178.615 87.4243 178.958 87.5041 179.309 87.5523L179.596 87.6202C179.605 87.6224 179.752 87.6574 179.752 87.6574C179.776 87.6646 180.283 87.7359 180.455 87.7408C180.595 87.7448 180.821 87.7605 181.013 87.7753C181.187 87.7886 181.557 87.7074 181.57 87.7078C181.739 87.7089 181.892 87.6515 182.021 87.542C182.074 87.4968 182.125 87.4459 182.101 87.3667C182.079 87.2932 182.023 87.2608 181.95 87.2456C181.835 87.2218 181.245 87.1323 181.253 87.1072C181.428 87.1122 181.98 87.1156 182.155 87.1159C182.393 87.1161 182.601 87.0369 182.769 86.8669C182.835 86.7987 182.912 86.7317 182.872 86.6203Z" fill="#F7A896"/>
<path d="M168.764 53.6864C171.126 53.3015 172.877 63.8705 172.877 63.8705C172.877 63.8705 167.619 65.2362 166.292 64.4459C166.292 64.4459 164.893 57.675 164.344 57.9005L168.764 53.6864Z" fill="#A0C4F9"/>
<path d="M331.944 257.227C333.859 257.499 333.751 257.813 333.997 257.841C334.289 257.875 337.701 256.079 337.701 256.079C337.701 256.079 347.797 250.853 348.333 250.55L355.511 241.155L361.23 243.66C361.23 243.66 353.146 253.659 352.631 254.103C352.115 254.546 337.6 259.95 336.339 260.469C336.339 260.469 335.081 261.666 334.265 262.39C333.45 263.113 332.347 263.413 332.084 263.579C332.047 263.604 331.141 264.104 329.854 264.41C328.745 264.674 329.658 263.899 329.658 263.899C329.658 263.899 331.612 263.03 331.512 262.882C331.435 262.767 330.398 263.308 329.174 263.612C328.86 263.69 328.549 263.766 328.264 263.834C327.512 264.011 327.173 263.586 327.925 263.271C328.191 263.16 328.637 262.986 328.974 262.91C329.338 262.826 329.641 262.63 329.934 262.511C330.518 262.276 330.945 262.112 330.921 262.092C330.89 262.067 330.971 261.935 330.634 262.008C330.229 262.095 329.417 262.476 328.809 262.557C328.465 262.603 327.752 262.743 327.752 262.743C327.752 262.743 326.491 262.888 326.478 262.711C326.452 262.324 327.228 262.093 327.705 262.094C328.004 261.934 328.758 261.808 328.758 261.808C328.758 261.808 330.213 261.201 330.123 260.986C330.088 260.9 329.204 261.05 328.262 261.133C327.268 261.22 326.546 261.234 326.489 261.042C326.399 260.738 327.19 260.607 327.19 260.607C327.19 260.607 327.887 260.491 328.115 260.435C328.381 260.368 329.163 260.107 329.163 260.107C329.163 260.107 331.843 259.065 331.742 258.868C331.641 258.671 331.187 258.262 330.997 258.266C330.806 258.271 330.469 258.467 330.279 258.472C330.089 258.477 329.68 258.448 329.646 258.209C329.614 257.97 330.66 257.454 330.66 257.454C330.66 257.454 331.391 257.148 331.944 257.227Z" fill="#F8A897"/>
<path d="M350.494 246.934C350.494 246.934 352.344 248.586 353.112 249.129C353.751 249.579 356.857 251.042 356.857 251.042C356.857 251.042 359.893 246.304 361.218 243.929C362.827 241.048 363.92 236.776 363.533 236.663C362.447 236.348 360.955 236.163 359.585 236.807C354.843 239.033 350.494 246.934 350.494 246.934Z" fill="#3F5B8F"/>
<path d="M333.775 259.646C332.961 259.798 332.121 259.666 331.739 258.928C331.682 259.818 333.039 260.22 333.775 259.646Z" fill="#FE8D66"/>
<path d="M380.648 318.983C380.648 318.983 380.852 322.591 380.853 322.599C380.927 323.057 381.223 324.188 381.223 324.605C381.223 326.169 374.282 323.277 375.838 322.584C375.979 322.52 376.715 322.046 376.762 321.514C376.833 320.694 377.015 319.034 377.015 319.034L380.648 318.983Z" fill="#F7A896"/>
<path d="M375.771 322.599C375.771 322.599 377.4 323.077 378.234 323.197C379.068 323.316 380.169 322.31 380.759 322.582C381.409 322.882 381.383 325.576 381.383 325.576C381.383 325.576 372.645 326.344 370.188 325.55C369.215 325.235 372.44 323.713 375.771 322.599Z" fill="#F7CE85"/>
<path d="M392.205 318.796C392.205 318.796 392.409 322.404 392.41 322.412C392.485 322.87 392.78 324.001 392.78 324.418C392.78 325.982 385.84 323.089 387.395 322.396C387.536 322.333 388.492 321.505 388.538 320.972C388.609 320.152 388.572 318.847 388.572 318.847L392.205 318.796Z" fill="#F7A896"/>
<path d="M387.411 322.382C387.411 322.382 389.041 322.86 389.875 322.98C390.709 323.1 391.81 322.093 392.4 322.364C393.049 322.664 393.076 325.36 393.076 325.36C393.076 325.36 384.4 325.716 381.83 325.333C380.818 325.183 384.081 323.497 387.411 322.382Z" fill="#F7CE85"/>
<path d="M390.147 261.497C390.147 261.497 391.323 267.582 390.844 272.196C390.364 276.811 390.327 293.203 390.327 293.203L392.537 319.421L387.816 319.531C387.816 319.531 382.67 293.317 382.765 293.989C382.861 294.663 381.041 275.531 381.041 275.531L387.175 260.92L390.147 261.497Z" fill="#3F5B8F"/>
<path d="M388.501 257.566C388.501 257.566 393.829 263.178 391.847 269.309C391.051 271.771 383.625 295.293 383.53 297.216C383.433 299.138 381.018 320.389 381.018 320.389L375.972 320.238L374.88 296.61L376.322 264.775L379.385 259.407L388.501 257.566Z" fill="#4F75B9"/>
<path d="M356.064 239.403C357.801 237.45 361.588 234.665 361.588 234.665C361.588 234.665 363.843 232.725 364.764 232.403C366.12 231.93 368.44 230.672 371.822 235.756C374.242 239.393 389.5 258.22 391.995 258.847L375.747 266.697C375.287 262.978 367.214 255.983 366.052 254.676C363.453 251.755 354.419 241.253 356.064 239.403Z" fill="#F47B60"/>
<path d="M356.728 231.523L361.839 234.421C361.839 234.421 362.042 238.747 360.4 239.894C359.022 240.857 357.932 238.607 357.932 238.607C357.932 238.607 356.011 236.021 354.568 235.227C353.124 234.433 356.728 231.523 356.728 231.523Z" fill="#F7A896"/>
<path d="M357.607 233.416C357.429 234.322 357.004 235.633 356.335 236.718C355.768 236.121 355.133 235.537 354.569 235.227C353.903 234.86 354.313 234.044 354.946 233.27C355.842 232.31 356.729 231.523 356.729 231.523L357.711 232.08C357.78 232.448 357.666 233.114 357.607 233.416Z" fill="#F47B60"/>
<path d="M353.983 224.121C354.067 224.014 358.307 229.144 357.827 231.585C357.346 234.026 354.857 236.281 353.098 235.695C351.151 235.047 347.465 228.989 348.715 226.006C349.965 223.022 353.983 224.121 353.983 224.121Z" fill="#F7A896"/>
<path d="M349.397 222.548C351.199 221.512 354.159 221.181 356.39 222.309C359.132 223.697 359.802 227.275 358.98 229.474C358.158 231.674 359.152 232.897 359.152 232.897L357.695 232.074C357.695 232.074 356.833 230.769 356.708 229.721C356.584 228.673 355.056 228.88 354.301 228.414C353.721 228.056 352.97 226.875 352.03 226.27C352.03 226.27 349.682 226.015 348.537 226.678C346.587 227.809 346.814 224.032 349.397 222.548Z" fill="#1F4163"/>
<path d="M355.486 229.272C355.483 230.051 355.859 230.683 356.327 230.684C356.795 230.686 357.175 230.055 357.178 229.277C357.181 228.499 356.804 227.867 356.337 227.865C355.869 227.864 355.488 228.494 355.486 229.272Z" fill="#F7A896"/>
<path d="M351.277 233.694L353.461 232.014C353.461 232.014 354.056 232.897 353.118 233.664C351.974 234.6 351.277 233.694 351.277 233.694Z" fill="white"/>
<path d="M345.486 265.888C346.049 265.088 346.305 263.925 347.081 263.047C347.342 262.751 347.754 262.42 348.224 262.091C351.928 259.987 361.576 254.567 361.955 254.141C362.403 253.637 369.08 242.861 369.08 242.861L363.227 241.456L357.358 251.512C356.875 251.886 347.681 258.5 347.681 258.5C347.681 258.5 345.852 259.89 344.853 260.539C344.35 260.825 343.861 261.009 343.435 261.151C342.899 261.33 341.874 261.824 341.666 262.002C341.424 262.21 340.939 262.653 340.652 262.924C340.363 263.195 340.014 263.501 339.879 263.663C339.797 263.762 339.543 263.894 339.357 263.984C339.08 264.118 339.111 264.527 339.405 264.614C339.683 264.697 340.062 264.526 340.297 264.419C340.96 264.118 341.776 263.292 341.818 263.396C341.859 263.498 341.018 265.28 340.935 265.49C340.852 265.7 339.885 267.776 339.832 268.241C339.777 268.706 340.057 268.816 340.267 268.649C340.449 268.504 341.995 265.736 341.995 265.736C341.995 265.736 342.193 265.383 342.266 265.587C342.338 265.791 340.939 268.309 340.801 268.723C340.662 269.137 340.764 269.479 341.15 269.338C341.62 269.167 342.948 266.389 342.948 266.389C342.948 266.389 343.121 266.043 343.234 266.166C343.347 266.288 342.121 268.41 342.104 268.657C342.088 268.902 342.307 269.147 342.633 268.946C343.017 268.708 344.182 266.217 344.182 266.217C344.182 266.217 344.323 266.053 344.366 266.171C344.408 266.287 343.492 268.171 343.555 268.448C343.608 268.682 343.818 268.639 343.818 268.639C344.284 268.644 344.922 266.688 345.486 265.888Z" fill="#F8A897"/>
<path d="M367.438 248.548C367.438 248.548 365.527 247.934 364.303 247.368C363.484 246.989 359.906 245.195 359.906 245.195C359.906 245.195 361.473 238.684 362.525 236.345C366.385 227.76 370.721 233.704 371.307 235.088C372.618 238.184 367.438 248.548 367.438 248.548Z" fill="#3F5B8F"/>
<path d="M271.022 233.428C271.012 230.756 271.705 228.246 272.928 226.073C273.083 225.798 273.224 225.5 273.353 225.183C276.043 218.56 270.985 211.343 263.836 211.371L228.676 211.508L228.814 246.667C228.841 253.817 221.625 258.875 215 256.184C214.683 256.056 214.386 255.915 214.111 255.76C211.938 254.537 209.429 253.843 206.757 253.853C198.289 253.886 191.497 260.973 191.926 269.527C192.315 277.267 198.698 283.478 206.447 283.663C209.202 283.729 211.792 283.047 214.028 281.807C214.306 281.652 214.608 281.511 214.93 281.38C221.64 278.66 228.957 283.742 228.986 290.983L229.123 325.839L309.237 325.527C328.134 325.454 343.395 310.074 343.321 291.175L343.009 211.062L307.966 211.199C300.782 211.227 295.749 218.506 298.482 225.15C298.612 225.468 298.755 225.765 298.911 226.04C300.25 228.406 300.961 231.174 300.817 234.121C300.445 241.714 294.3 247.87 286.708 248.257C278.148 248.695 271.055 241.901 271.022 233.428Z" fill="#E8465A"/>
<path d="M106.686 239.266C104.175 232.18 101.071 232.359 101.071 232.359L103.917 247.505C105.361 247.076 107.234 246.15 108.677 245.708C108.146 243.462 107.305 241.011 106.686 239.266Z" fill="#F7CE85"/>
<path d="M119.499 263.032L110.595 256.878C110.595 256.878 109.442 250.8 108.029 245.426C106.598 245.904 105.342 247.103 103.909 247.568L106.666 259.623L118.206 264.906L121.58 268.847L122.107 264.614L119.499 263.032Z" fill="#F49185"/>
<path d="M81.8376 314.397C81.8376 314.397 81.3069 318.088 80.3932 319.279C80.0868 319.679 79.5263 320.185 79.1591 320.908C78.5864 322.032 78.9031 323.707 79.3254 324.629C79.5421 325.102 79.3095 325.101 79.8037 325.254C81.2639 325.705 82.8185 324.945 83.4407 323.542C83.7883 322.758 84.0928 321.713 84.1545 320.397C84.3105 317.045 85.3503 315.341 85.3503 315.341L81.8376 314.397Z" fill="#F7A896"/>
<path d="M97.8188 316.085C97.8188 316.085 98.1467 320.247 97.8805 321.6C97.7385 322.324 96.9444 323.815 97.3087 324.497C97.6721 325.179 98.0888 325.349 98.0888 325.349L107.522 325.501C108.036 325.51 107.696 325.178 107.282 324.873C106.603 324.373 106.056 324.043 103.89 322.993C103.748 322.924 103.235 322.596 103.049 322.483C102.579 322.195 102.106 321.742 101.7 321.288C101.022 320.532 100.963 316.867 100.963 316.867L97.8188 316.085Z" fill="#F7A896"/>
<path d="M105.192 260.759C105.192 260.759 106.38 267.518 105.6 271.948C104.82 276.378 101.076 317.446 101.076 317.446L96.9164 317.679C96.9164 317.679 96.0438 300.526 96.1998 298.14C96.3549 295.754 97.5909 291.762 97.5909 291.762L97.1761 277.911L102.426 259.717L105.192 260.759Z" fill="#3F5B8F"/>
<path d="M92.9635 259.338C92.9635 259.338 89.688 264.279 88.9079 268.369C88.1278 272.458 89.4806 285.028 87.9802 290.386C87.1674 293.287 84.091 297.768 83.6229 301.517C83.1549 305.265 81.3191 315.085 81.3191 315.085L85.4774 315.911L95.1402 291.387L102.722 269.22L104.662 257.805L92.9635 259.338Z" fill="#4F75B9"/>
<path d="M83.725 322.805C81.4585 323.219 79.9506 321.89 79.1659 320.895C78.5904 322.022 78.3092 323.704 78.7333 324.63C79.1061 325.445 80.1963 325.422 81.0549 325.454C81.963 325.488 82.6665 324.982 83.1168 324.19C83.327 323.82 83.5437 323.359 83.725 322.805Z" fill="#F47B60"/>
<path d="M103.049 322.482C100.554 323.124 98.7102 322.687 97.6778 322.271C97.4125 323.026 97.0594 323.974 97.2462 324.52C97.476 325.19 97.8021 325.342 98.0898 325.349C100.368 325.409 106.436 325.49 108.174 325.514C108.417 325.516 108.551 325.232 108.395 325.045C107.964 324.53 103.235 322.596 103.049 322.482Z" fill="#F47B60"/>
<path d="M105.993 226.147C106.16 223.406 105.811 220.688 104.639 218.11C103.63 215.892 101.053 214.594 98.6798 214.544C91.1449 214.387 89.9912 224.366 85.1191 228.128C83.6304 229.278 81.9732 230.206 80.5612 231.449C75.3485 236.041 77.4841 244.773 82.1054 248.979C85.312 251.898 90.4091 253.621 94.474 251.469C96.5967 250.345 98.2282 248.439 99.4048 246.34C101.075 243.36 102.182 239.905 103.391 236.72C104.678 233.328 105.771 229.791 105.993 226.147Z" fill="#1F4163"/>
<path d="M96.3279 231.146C96.3279 231.146 91.9981 230.765 90.2375 232.598C88.477 234.43 93.6427 249.387 93.8975 251.778C94.1523 254.171 92.0989 260.466 92.0989 260.466C92.0989 260.466 102.235 262.765 105.192 260.904C105.192 260.904 105.915 243.762 105.644 242.051C105.372 240.339 102.94 233.35 102.333 232.653C101.725 231.956 96.3279 231.146 96.3279 231.146Z" fill="#F7CE85"/>
<path d="M97.721 225.392C97.721 225.392 97.6986 225.52 97.6584 225.738C97.465 226.783 96.7204 230.25 96.2169 231.203C95.6096 232.355 98.2993 236.03 100.888 235.581C101.658 235.448 100.235 232.206 100.304 231.862C100.435 231.205 100.612 230.307 100.794 229.388C100.896 228.87 100.999 228.344 101.097 227.849C101.374 226.444 101.6 225.295 101.6 225.295L97.721 225.392Z" fill="#F7A896"/>
<path d="M97.6592 225.739C97.6993 225.521 97.7208 225.393 97.7208 225.393L101.601 225.296C101.601 225.296 101.375 226.445 101.098 227.85C101.001 228.341 100.898 228.864 100.796 229.381C100.198 229.292 99.5716 229 98.9438 228.449C98.2599 227.849 97.8115 227.128 97.5405 226.358C97.5882 226.113 97.6293 225.902 97.6592 225.739Z" fill="#F47B60"/>
<path d="M100.33 216.556C100.33 216.556 98.5027 216.344 97.3573 217.83C96.211 219.315 94.9759 223.909 97.8226 226.407C100.669 228.904 103.481 226.077 103.898 223.08C104.315 220.082 104.477 216.448 100.33 216.556Z" fill="#F7A896"/>
<path d="M104.741 223.035C104.401 223.697 103.831 224.065 103.466 223.855C103.103 223.645 103.083 222.937 103.424 222.276C103.764 221.613 104.333 221.247 104.698 221.456C105.061 221.667 105.081 222.373 104.741 223.035Z" fill="#F7A896"/>
<path d="M96.805 221.733C96.947 222.508 96.6602 223.22 96.166 223.322C95.6709 223.424 95.1552 222.877 95.0132 222.102C94.8711 221.325 95.158 220.615 95.6522 220.513C96.1464 220.411 96.663 220.957 96.805 221.733Z" fill="#F7A896"/>
<path d="M99.6574 224.42L101.863 224.521C101.863 224.521 101.773 225.356 100.803 225.34C99.6191 225.321 99.6574 224.42 99.6574 224.42Z" fill="white"/>
<path d="M111.694 242.059C111.84 241.608 109.66 241.3 109.534 240.851C109.407 240.402 112.263 240.298 112.355 239.899C112.526 239.164 109.221 239.821 109.279 239.477C109.336 239.134 112.711 238.289 112.33 237.711C111.949 237.134 108.921 238.952 108.818 238.557C108.716 238.161 111.785 237.118 111.71 236.247C111.668 235.782 106.688 238.695 106.097 238.456C105.506 238.215 106.668 235.995 106.194 235.68C105.721 235.367 104.497 240.179 104.179 240.345C103.863 240.513 97.1351 244.568 94.7226 245.245C94.4089 244.44 93.7447 243.358 93.4667 242.596C92.1282 243.598 91.1283 244.108 89.7448 245.025C90.8239 247.552 92.3394 250.31 93.0569 250.614C95.2396 251.538 103.427 244.412 105.066 243.185C106.706 241.959 107.67 242.321 108.79 241.92C109.909 241.517 111.549 242.509 111.694 242.059Z" fill="#F7A896"/>
<path d="M89.4601 246.193C89.4601 246.193 87.5898 237.933 87.9149 235.537C88.2391 233.141 91.0867 230.908 93.0598 231.737C95.032 232.566 95.927 244.095 95.927 244.095L89.4601 246.193Z" fill="#F7CE85"/>
<path d="M100.537 216.066C100.537 216.066 98.095 220.434 96.3479 220.636C94.6 220.838 94.3711 223.159 94.3711 223.159C94.3711 223.159 94.9952 217.81 96.7254 216.779C98.4547 215.747 100.537 216.066 100.537 216.066Z" fill="#1F4163"/>
<path d="M228.26 249.662C228.353 250.06 228.41 250.193 228.541 250.464C229.383 252.212 231.418 254.75 231.418 254.75L233.293 251.067C233.293 251.067 233.084 249.869 232.701 248.151C231.062 248.488 229.508 248.649 228.26 249.662Z" fill="#F8A897"/>
<path d="M238.004 246.826C238.004 246.826 228.489 250.446 228.191 250.356C227.998 250.298 224.624 244.054 224.831 238.327C224.928 235.683 227.811 232.62 230.847 233.381C232.376 233.764 232.333 234.193 234.473 237.607C236.612 241.021 238.004 246.826 238.004 246.826Z" fill="#1F4163"/>
<path d="M245.793 318.834C245.793 318.834 245.571 322.506 245.57 322.514C245.488 322.98 245.167 324.132 245.167 324.555C245.167 326.147 252.727 323.203 251.032 322.498C250.879 322.434 250.075 321.951 250.025 321.409C249.948 320.574 249.751 318.885 249.751 318.885L245.793 318.834Z" fill="#F7A896"/>
<path d="M251.014 322.482C251.014 322.482 249.239 322.969 248.329 323.091C247.42 323.213 246.222 322.187 245.579 322.464C244.871 322.769 244.899 325.513 244.899 325.513C244.899 325.513 254.417 326.294 257.094 325.486C258.154 325.166 254.642 323.616 251.014 322.482Z" fill="#DE5A44"/>
<path d="M230.326 318.834C230.326 318.834 230.104 322.506 230.102 322.514C230.02 322.98 229.699 324.132 229.699 324.555C229.699 326.147 237.261 323.203 235.566 322.498C235.413 322.434 234.371 321.591 234.321 321.049C234.243 320.214 234.284 318.885 234.284 318.885L230.326 318.834Z" fill="#F7A896"/>
<path d="M235.547 322.482C235.547 322.482 233.772 322.97 232.863 323.092C231.954 323.214 230.755 322.187 230.112 322.464C229.404 322.769 229.376 325.514 229.376 325.514C229.376 325.514 238.937 326.425 241.627 325.487C242.67 325.123 239.175 323.616 235.547 322.482Z" fill="#DE5A44"/>
<path d="M232.56 251.836L239.916 243.048C239.951 242.969 240.024 242.807 240.136 242.56C240.542 241.662 241.386 239.796 242.14 237.933L242.148 237.913C242.389 237.26 242.884 236.126 243.362 235.03C243.893 233.809 244.55 232.297 244.589 232.034C244.576 231.987 244.551 231.904 244.518 231.793C244.323 231.141 244.11 229.611 244.044 228.948C244.003 228.526 244.007 227.507 244.502 227.546C245.281 227.606 244.831 228.589 245.142 229.248C245.307 228.836 245.638 228.018 245.844 227.182L246.127 225.215C246.164 225.068 246.09 223.964 246.636 224.006L246.662 224.009C247.15 224.084 247.049 225.242 247.101 227.22C247.183 226.998 247.27 226.732 247.338 226.486C247.343 226.351 247.485 225.769 247.583 225.463C247.526 224.909 247.651 224.051 248.227 224.177C248.515 224.241 248.398 225.442 248.398 225.442C248.382 225.607 248.266 226.878 248.256 227.129C248.349 226.707 248.722 224.905 249.18 224.94C249.558 224.97 249.551 225.462 249.512 225.849C249.49 226.078 249.1 228.032 249.069 228.26C249.27 227.974 249.616 226.253 249.793 226.267C250.532 226.324 250.073 228.774 249.753 229.397C249.722 229.461 249.685 229.588 249.642 229.735C249.516 230.169 249.304 230.894 248.867 231.525C248.342 232.282 247.605 233.494 247.493 233.68C247.39 234.067 247.059 235.467 246.642 237.227C246.463 237.981 246.267 238.806 246.064 239.662L246.057 239.661C246.017 239.846 245.832 240.431 245.135 242.626C244.18 245.631 244.095 245.757 244.059 245.811C243.704 246.34 235.795 255.508 235.459 255.897L235.262 256.128L232.56 251.836Z" fill="#F7A896"/>
<path d="M246.583 231.098C246.583 231.098 246.152 229.679 245.192 229.602C245.192 229.602 245.743 229.45 246.175 229.85C246.606 230.248 246.583 231.098 246.583 231.098Z" fill="#F47B60"/>
<path d="M231.911 227.325L230.82 232.703C230.82 232.703 233.97 235.465 235.896 234.994C237.512 234.599 236.509 232.465 236.509 232.465C236.509 232.465 235.782 229.538 236.108 228.033C236.435 226.529 231.911 227.325 231.911 227.325Z" fill="#F7A896"/>
<path d="M232.456 228.988C233.257 229.41 234.852 230.007 236.105 230.188C236.017 229.425 235.982 228.62 236.111 228.033C236.261 227.338 235.378 227.135 234.384 227.116C233.08 227.171 231.912 227.325 231.912 227.325L231.702 228.358C231.939 228.629 232.189 228.848 232.456 228.988Z" fill="#FE8D66"/>
<path d="M228.062 220.9C227.928 220.895 229.091 227.007 231.251 228.142C233.411 229.278 236.722 228.878 237.409 227.275C238.169 225.502 235.947 219.222 232.879 218.303C229.813 217.386 228.062 220.9 228.062 220.9Z" fill="#F7A896"/>
<path d="M230.854 215.451C229.049 216.39 228.176 217.862 227.878 218.467C227.035 218.823 225.997 219.63 225.418 221.895C224.706 224.68 226.713 226.937 228.909 227.684C231.106 228.431 231.386 229.919 231.386 229.919L231.708 228.345C231.708 228.345 231.271 226.944 230.556 226.222C229.842 225.5 230.983 224.541 231.115 223.724C231.217 223.096 230.804 221.847 230.949 220.815C230.949 220.815 232.266 218.995 233.504 218.584C235.616 217.884 233.17 214.245 230.854 215.451Z" fill="#1F4163"/>
<path d="M231.391 224.79C231.649 225.502 231.501 226.19 231.061 226.329C230.621 226.467 230.054 226.004 229.796 225.292C229.538 224.582 229.686 223.892 230.126 223.754C230.566 223.616 231.133 224.079 231.391 224.79Z" fill="#F7A896"/>
<path d="M239.166 253.149L251.826 250.139C251.826 250.139 250.105 246.575 249.584 246.613C249.063 246.65 240.185 251.31 240.185 251.31L239.561 252.827L239.166 253.149Z" fill="#F8A897"/>
<path d="M232.038 260.914C232.038 260.914 230.757 267.108 231.278 271.805C231.8 276.501 231.841 293.186 231.841 293.186L229.849 319.881L234.577 319.984C234.577 319.984 240.183 293.302 240.079 293.987C239.974 294.671 241.958 275.2 241.958 275.2L235.275 260.327L232.038 260.914Z" fill="#244F5D"/>
<path d="M233.291 260.619C233.291 260.619 232.455 266.198 233.5 268.644C234.543 271.09 242.456 295.092 242.561 297.049C242.665 299.005 245.296 320.635 245.296 320.635L250.794 320.482L251.983 296.432L249.493 266.207L247.075 258.566L233.291 260.619Z" fill="#1F4163"/>
<path d="M230.819 232.775C230.819 232.775 232.156 233.691 233.422 233.613C234.689 233.534 236.498 232.401 236.498 232.401L236.266 231.554C236.266 231.554 233.004 231.015 232.921 231.065C232.838 231.115 230.819 232.775 230.819 232.775Z" fill="#F7A896"/>
<path d="M244.908 246.417C244.908 246.417 249.722 251.048 251.923 250.286C254.123 249.525 255.056 246.858 249.743 242.891C244.988 239.342 244.908 246.417 244.908 246.417Z" fill="#F8A897"/>
<path d="M248.193 251.973C247.547 248.033 242.551 235.718 242.176 233.46C241.994 232.361 239.174 232.282 236.485 232.374C233.643 232.47 230.817 232.776 230.817 232.776C230.817 232.776 228.297 233.14 227.172 234.155C226.046 235.168 225.697 238.028 227.182 243.497C228.354 247.813 229.864 250.2 230.574 253.342C230.71 254.394 230.824 255.431 230.978 256.643C231.171 261.324 230.766 267.494 230.766 267.494C230.766 267.494 244.389 270.594 249.588 266.387C249.588 266.387 248.856 256.009 248.193 251.973Z" fill="#3F5B8F"/>
<path d="M251.731 243.78C251.731 243.78 246.218 248.028 245.905 248.018C245.703 248.011 238.433 242.278 236.864 237.715C235.996 235.193 238.084 232.473 240.363 232.559C241.943 232.618 242.631 233.049 245.674 235.795C248.716 238.539 251.731 243.78 251.731 243.78Z" fill="#4F75B9"/>
<path d="M197.218 253.11C199.891 253.11 202.396 253.815 204.565 255.047C204.838 255.203 205.136 255.345 205.452 255.475C212.066 258.191 219.303 253.16 219.303 246.011V210.851H184.142C176.993 210.851 171.963 203.616 174.679 197.003C174.809 196.685 174.952 196.387 175.108 196.114C176.34 193.945 177.043 191.439 177.043 188.766C177.043 180.298 169.983 173.479 161.427 173.875C153.685 174.234 147.451 180.593 147.234 188.34C147.157 191.096 147.829 193.688 149.06 195.93C149.215 196.209 149.355 196.51 149.484 196.832C152.178 203.553 147.068 210.851 139.826 210.851H104.969V290.965C104.969 309.863 120.289 325.184 139.187 325.184H219.303V290.141C219.303 282.957 212.042 277.895 205.388 280.602C205.07 280.732 204.771 280.873 204.496 281.027C202.125 282.358 199.354 283.06 196.408 282.905C188.817 282.503 182.686 276.334 182.328 268.741C181.923 260.179 188.745 253.11 197.218 253.11Z" fill="#40D790"/>
</svg>
