<svg width="60" height="60" viewBox="0 0 60 60" fill="none" xmlns="http://www.w3.org/2000/svg">
<g clip-path="url(#clip0_14_60)">
<path d="M51 0H9C4.02944 0 0 4.02944 0 9V51C0 55.9706 4.02944 60 9 60H51C55.9706 60 60 55.9706 60 51V9C60 4.02944 55.9706 0 51 0Z" fill="white"/>
<path d="M46.6321 27.1932C46.6321 22.7729 44.8761 18.5336 41.7505 15.408C38.6249 12.2823 34.3856 10.5264 29.9653 10.5264C25.545 10.5264 21.3057 12.2823 18.1801 15.408C15.0545 18.5336 13.2985 22.7729 13.2985 27.1932H7.71851C7.71851 39.4992 17.6941 49.476 30.0001 49.476C42.3061 49.476 52.2805 39.4992 52.2805 27.1932H46.6321ZM29.9665 38.6292C27.7047 38.6292 25.4936 37.9585 23.613 36.7019C21.7324 35.4452 20.2666 33.6592 19.401 31.5695C18.5355 29.4799 18.309 27.1805 18.7502 24.9621C19.1915 22.7437 20.2807 20.706 21.88 19.1067C23.4794 17.5073 25.5171 16.4182 27.7355 15.9769C29.9538 15.5356 32.2532 15.7621 34.3429 16.6277C36.4325 17.4932 38.2186 18.959 39.4752 20.8397C40.7318 22.7203 41.4025 24.9313 41.4025 27.1932C41.4025 28.695 41.1067 30.1821 40.532 31.5695C39.9573 32.957 39.1149 34.2177 38.053 35.2796C36.991 36.3416 35.7304 37.1839 34.3429 37.7587C32.9554 38.3334 31.4683 38.6292 29.9665 38.6292Z" fill="#652CD0"/>
</g>
<defs>
<clipPath id="clip0_14_60">
<rect width="60" height="60" fill="white"/>
</clipPath>
</defs>
</svg>
