<svg width="219" height="159" viewBox="0 0 219 159" fill="none" xmlns="http://www.w3.org/2000/svg">
<path d="M120.303 96.087C103.698 94.3699 86.8701 94.8253 70.3823 97.4378C67.3689 97.9154 64.0218 98.6849 62.3791 101.256C67.5534 102.205 72.8047 102.732 78.0643 102.828C69.579 104.511 60.4016 105.918 52.4919 109.422C53.9419 109.972 56.2714 111.741 57.7214 112.291C36.5406 118.482 14.0496 125.51 0 142.526C22.4256 150.364 46.8009 149.726 70.5458 148.997C61.1737 150.004 55.9727 151.304 49.6573 152.419C90.5884 159.019 132.502 161.986 173.36 154.95C175.563 154.57 178.249 153.657 178.5 151.436C178.771 149.041 175.988 147.588 173.695 146.844C165.658 144.236 158.096 143.514 150.152 142.321C163.499 142.286 176.879 142.249 190.138 140.727C195.673 140.091 201.401 139.11 205.941 135.88C206.641 135.382 207.377 134.662 207.239 133.814C207.106 132.998 206.242 132.546 205.482 132.22C202.554 130.965 199.626 129.711 196.698 128.456C203.403 127.946 209.986 125.897 215.797 122.512C211.59 118.792 205.756 117.664 200.218 116.732C184.437 114.076 168.582 111.856 152.679 110.077C160.914 109.559 169.118 108.553 177.234 107.063C163.741 101.105 149.726 96.3297 135.402 92.8102L120.303 96.087Z" fill="#F7BC4B"/>
<g opacity="0.2">
<path d="M200.658 137.061C198.997 138.722 174.762 138.39 169.452 138.722C164.142 139.054 146.545 137.061 139.242 137.726C131.939 138.39 104.054 139.054 104.054 139.054C104.054 139.054 130.61 146.025 129.614 146.69C129.197 146.968 120.808 147.481 111.161 147.987C97.6625 148.698 81.7003 149.389 81.7003 149.389C81.7003 149.389 58.2414 145.029 47.6167 146.025C36.9919 147.022 20.0645 144.365 20.0645 144.365C20.0645 144.365 40.3134 133.075 46.9524 129.093C47.4081 128.819 47.9605 128.514 48.594 128.182C57.1292 123.694 80.1515 114.487 80.1515 114.487L61.2271 110.501C61.2271 110.501 89.8377 102.271 105.383 101.209C105.383 101.209 111.026 100.213 119.704 101.46C128.382 102.708 155.432 108.516 155.432 108.516L141.235 111.498C141.235 111.498 176.091 120.462 178.802 119.948C181.514 119.434 202.319 135.401 200.658 137.061Z" fill="black"/>
</g>
<path d="M134.173 116.401C130.454 116.205 124.78 118.246 124.78 118.246C124.78 118.246 127.967 120.259 134.005 120.427C140.044 120.594 145.243 118.917 145.243 118.917C145.243 118.917 140.547 116.736 134.173 116.401Z" fill="#F7BC4B"/>
<path d="M94.5265 118.959C90.3246 118.758 88.1528 120.971 88.1528 120.971C88.1528 120.971 92.8492 122.313 96.2038 121.81C99.5584 121.307 101.571 119.294 94.5265 118.959Z" fill="#F7BC4B"/>
<path d="M114.381 124.664C111.291 124.532 109.967 126.487 114.009 126.382C118.052 126.277 118.427 124.836 114.381 124.664Z" fill="#F7BC4B"/>
<g opacity="0.3">
<path d="M111.16 147.987C97.6624 148.698 81.6998 149.389 81.6998 149.389C81.6998 149.389 58.2413 145.029 47.6165 146.025C36.9918 147.022 20.064 144.365 20.064 144.365C20.064 144.365 40.3133 133.075 46.9522 129.093C47.408 128.819 47.9603 128.514 48.5938 128.182C57.0559 129.584 68.0008 131.341 69.3718 131.268C71.6428 131.148 109.38 140.942 110.214 142.016C110.658 142.584 110.967 145.43 111.16 147.987Z" fill="black"/>
</g>
<g opacity="0.3">
<path d="M150.139 132.229L166.424 120.85L168.098 127.437L171.891 139.147L184.958 125.964L162.376 115.311L147.827 121.995L150.139 132.229Z" fill="black"/>
</g>
<g opacity="0.3">
<path d="M74.5239 108.4C74.5239 108.4 80.1536 110.547 81.1358 110.547C82.118 110.547 88.1204 110.438 88.1204 110.438L83.8434 111.962C83.8434 111.962 89.3209 115.131 90.5214 115.131C91.7219 115.131 105.146 115.567 105.146 115.567C105.146 115.567 112.458 116.767 113.003 116.658C113.549 116.549 124.135 113.275 124.135 113.275L126.318 108.364C126.318 108.364 131.338 108.692 132.648 108.473C133.957 108.255 139.414 106.182 139.414 106.182C139.414 106.182 114.277 99.5122 107.225 99.5122C100.173 99.5122 74.5239 108.4 74.5239 108.4Z" fill="black"/>
</g>
<path d="M130.256 92.008C129.844 89.6566 130.384 87.2466 131.057 84.9561C131.354 83.9427 131.684 82.9245 132.253 82.0347C132.825 81.1405 133.615 80.4108 134.396 79.6924C135.713 78.481 137.03 77.27 138.347 76.0586C136.009 80.4296 133.671 84.7998 131.333 89.1708C133.357 87.3988 135.478 85.7365 137.683 84.1941C137.157 87.2571 135.101 90.0184 132.318 91.4015C133.33 90.8642 134.342 90.3265 135.353 89.7892C137.292 88.7597 139.315 87.7065 141.508 87.6205C140.914 90.2153 139.046 92.4149 136.742 93.7473C134.437 95.0796 131.732 95.6042 129.07 95.6121L130.256 92.008Z" fill="#363E4F"/>
<path d="M82.007 97.437C82.4939 94.3838 81.6729 91.1907 79.9979 88.5917C78.3228 85.9927 75.8366 83.9705 73.0655 82.5987C75.7881 85.4442 77.9982 88.7789 79.5583 92.395C75.5318 88.6736 70.3523 86.2174 64.9229 85.4551C67.8446 89.8054 72.3745 93.0484 77.4342 94.4123C74.6387 94.0433 71.7718 93.6774 69.0233 94.3067C72.2877 96.6517 76.0222 99.1166 79.9904 98.4763L82.007 97.437Z" fill="#363E4F"/>
<path d="M127.213 102.632C127.209 102.628 127.205 102.628 127.205 102.628L131.685 108.832L124.622 110.901L115.148 107.453L117.213 113.139L111.009 116.068L104.292 115.895L101.881 109.692C101.881 109.692 89.8189 112.621 88.7864 112.793C88.4486 112.848 87.7659 112.487 87.0001 111.969C85.4059 110.901 83.443 109.177 83.443 109.177L85.5118 104.006L81.0323 105.73L80.4589 105.714L73.9688 105.557L74.8284 104.352L80.345 91.9485C80.345 91.9485 79.3084 61.2803 79.3084 60.5893C79.3084 60.5893 93.2663 50.0784 104.81 50.2512C116.353 50.424 128.584 56.4546 128.584 56.4546L129.962 89.3611L140.299 103.665L134.096 104.006L127.213 102.632Z" fill="#ED4A2F"/>
<g opacity="0.3">
<path d="M87.001 111.969L88.7872 112.793C88.4495 112.848 87.7667 112.487 87.001 111.969Z" fill="black"/>
</g>
<g opacity="0.3">
<path d="M88.9718 93.5778C88.9718 94.1902 85.5124 104.006 85.5124 104.006L81.0329 105.73L80.4595 105.714L80.5496 105.675C80.5496 105.675 85.7559 96.7934 86.0621 95.4151C86.3683 94.0369 88.2061 82.5487 88.2061 81.63C88.2061 80.7113 89.1248 69.6864 89.1248 69.6864C89.1248 69.6864 88.9718 92.9653 88.9718 93.5778Z" fill="black"/>
</g>
<g opacity="0.3">
<path d="M98.7753 104.144C98.7753 104.603 101.881 109.691 101.881 109.691C101.881 109.691 89.8192 112.621 88.7866 112.793C88.7866 112.793 94.1774 107.972 94.3307 106.9C94.484 105.828 97.5504 83.3145 97.5504 83.3145C97.5504 83.3145 98.7753 103.684 98.7753 104.144Z" fill="black"/>
</g>
<g opacity="0.3">
<path d="M115.926 93.4244L124.623 110.9L115.149 107.453L111.639 94.3435L111.179 82.0895L113.476 91.8895V67.6957L115.926 93.4244Z" fill="black"/>
</g>
<g opacity="0.3">
<path d="M140.299 103.665L134.096 104.006L127.213 102.632C127.209 102.628 127.205 102.628 127.205 102.628L123.734 98.7843L122.203 87.7552L121.131 69.0739L124.653 92.6552L131.084 100.469L140.299 103.665Z" fill="black"/>
</g>
<g opacity="0.3">
<path d="M128.584 56.4548C128.584 56.4548 121.737 62.9961 115.737 65.293C109.734 67.5861 101.614 67.9393 101.614 67.9393C84.3151 64.4096 79.3091 60.5895 79.3091 60.5895C79.3091 60.5895 93.267 50.0785 104.811 50.2514C116.354 50.4242 128.584 56.4548 128.584 56.4548Z" fill="black"/>
</g>
<path d="M206.078 116.409C205.779 117.811 204.044 120.693 202.371 123.249C200.66 125.86 199.007 128.129 199.007 128.129L189.509 126.716L190.922 132.17L187.691 132.574L183.855 131.164C183.851 131.16 183.851 131.16 183.851 131.16C183.851 131.16 183.851 131.156 183.847 131.152L180.011 125.502L151.318 120.449L143.638 112.165L142.488 107.394L142.225 106.307C142.225 106.307 144.042 100.849 144.851 100.04C145.66 99.2356 151.318 95.5958 151.318 95.5958L196.984 101.458C196.984 101.458 202.642 105.093 203.047 105.902C203.451 106.711 206.686 113.582 206.078 116.409Z" fill="#ED4A2F"/>
<g opacity="0.3">
<path d="M183.847 131.152L180.011 125.502L177.93 125.137L167.376 123.276L160.921 122.141L151.318 120.45L149.7 118.706L143.638 112.165L142.487 107.394C145.365 108.313 149.032 109.444 149.72 109.444C149.877 109.444 150.438 109.503 151.294 109.601C152.708 109.762 154.922 110.041 157.427 110.363C160.419 110.748 163.823 111.191 166.756 111.58C170.78 112.11 173.929 112.534 173.929 112.534L168.005 114.077L176.085 115.263L177.663 115.494L184.617 114.077L179.98 117.297C179.98 117.297 180.753 120.646 180.624 121.804C180.498 122.943 183.73 130.862 183.847 131.152Z" fill="black"/>
</g>
<g opacity="0.3">
<path d="M176.085 115.263C175.676 116.672 175.35 117.835 175.35 117.835L177.93 125.138L167.376 123.277L166.756 111.58L166.552 107.724L186.529 97.9754L187.864 100.496C187.864 100.496 178.087 109.511 177.612 110.461C177.337 111.007 176.634 113.359 176.085 115.263Z" fill="black"/>
</g>
<g opacity="0.3">
<path d="M156.804 115.098L160.923 122.141L151.319 120.449L149.701 118.706L151.295 109.601L152.52 102.612L170.715 102.255L157.636 108.796L157.428 110.363L156.804 115.098Z" fill="black"/>
</g>
<g opacity="0.3">
<path d="M199.005 128.13L189.508 126.716L188.22 121.29L194.326 122.134L199.005 128.13Z" fill="black"/>
</g>
<g opacity="0.3">
<path d="M187.588 129.191C187.078 128.851 184.019 130.55 184.019 130.55L183.847 131.152L187.69 132.574L190.922 132.17C190.922 132.17 188.947 129.956 188.607 129.446C188.267 128.936 187.588 129.191 187.588 129.191Z" fill="black"/>
</g>
<g opacity="0.3">
<path d="M206.077 116.409C205.779 117.811 204.044 120.693 202.371 123.249C200.659 125.86 199.006 128.129 199.006 128.129L194.326 122.134L191.954 119.099C191.954 119.099 191.31 113.307 192.469 109.699C193.631 106.095 196.984 101.458 196.984 101.458C196.984 101.458 202.642 105.093 203.046 105.902C203.451 106.711 206.686 113.582 206.077 116.409Z" fill="black"/>
</g>
<path d="M203.492 115.713C203.229 117.146 202.628 118.481 201.902 119.671C201.156 120.857 200.292 121.921 199.448 122.958L199.44 122.969C199.177 123.291 198.706 123.338 198.384 123.079C198.29 123 198.219 122.907 198.172 122.801C197.642 121.619 196.986 120.464 196.362 119.224C195.742 117.991 195.251 116.605 195.122 115.176C195.047 114.457 195.11 113.719 195.232 113.032C195.349 112.341 195.545 111.669 195.789 111.022C196.028 110.37 196.323 109.741 196.68 109.156C197.033 108.568 197.466 108.014 197.984 107.574C197.152 108.646 196.72 109.934 196.402 111.206C196.119 112.49 195.946 113.817 196.189 115.034C196.393 116.294 196.924 117.453 197.56 118.599C198.007 119.416 198.522 120.229 198.993 121.089C199.558 120.354 200.1 119.612 200.567 118.847C201.246 117.771 201.769 116.632 202.008 115.431C202.252 114.233 202.22 113.024 201.765 111.901C201.408 110.994 200.854 110.122 200.238 109.263C199.766 110.13 199.476 111.112 199.362 112.121C199.224 113.409 199.378 114.751 199.876 116.008C199.138 114.873 198.742 113.495 198.718 112.097C198.683 110.696 199.036 109.27 199.747 108.01C199.888 107.759 200.202 107.668 200.453 107.81C200.508 107.841 200.56 107.881 200.595 107.928L200.626 107.959C201.486 108.98 202.409 110.04 203.014 111.379C203.626 112.718 203.767 114.296 203.492 115.713Z" fill="black"/>
<path d="M124.756 99.9717C126.385 100.203 128.014 100.435 129.643 100.666C129.866 100.698 130.133 100.765 130.198 100.981C130.301 101.322 129.815 101.514 129.459 101.532C128.699 101.572 127.929 101.592 127.185 101.432C126.441 101.271 125.715 100.912 125.248 100.311L124.756 99.9717Z" fill="#F7BC4B"/>
<path d="M125.539 99.3131C127.234 98.2358 129.097 97.4223 131.039 96.9106C131.344 96.8302 131.781 96.8305 131.851 97.1383C131.901 97.3622 131.695 97.5557 131.506 97.685C130.395 98.4436 129.081 98.902 127.739 98.9986C126.987 99.0527 125.539 99.3131 125.539 99.3131Z" fill="#F7BC4B"/>
<path d="M127.131 93.0284C126.252 95.4861 124.658 97.6139 123.437 99.9266C124.112 96.6404 124.98 93.264 127.28 90.8533C127.571 91.5405 127.383 92.3258 127.131 93.0284Z" fill="#F7BC4B"/>
<path d="M119.747 108.489L119.385 108.336C121.426 103.503 124.268 99.0997 127.831 95.248L128.12 95.5148C124.587 99.3326 121.77 103.698 119.747 108.489Z" fill="#363E4F"/>
<path d="M118.99 110.866C118.679 104.973 119.71 99.0129 121.983 93.567C122.366 93.7274 122.396 94.2497 122.361 94.6634C121.961 99.3361 121.014 103.961 119.546 108.415C121.632 105.366 123.882 102.174 127.244 100.641C125.307 104.534 121.776 107.358 119.133 110.811" fill="#65A9DF"/>
<path d="M127.361 96.1249C127.815 94.6873 128.306 92.8552 129.243 91.6739C130.424 90.183 131.024 88.9524 133.251 87.8158C133.493 89.0095 132.801 90.1822 132.065 91.1524C130.907 92.6771 129.695 94.315 128.201 95.5128L127.361 96.1249Z" fill="#F7BC4B"/>
<path d="M92.7689 109.803C91.721 103.516 88.641 98.4342 88.6099 98.3835L88.9446 98.1783C88.9762 98.2298 92.0952 103.373 93.1563 109.739L92.7689 109.803Z" fill="#363E4F"/>
<path d="M93.5963 111.976C93.9138 112.093 95.779 103.371 94.0641 101.448C92.3492 99.5239 92.9583 109.677 92.9583 109.677C92.9583 109.677 90.9338 103.345 88.9379 103.29C86.942 103.234 91.4614 109.636 91.4614 109.636C91.4614 109.636 88.3337 108.523 85.0283 103.613C85.0283 103.613 85.8737 109.13 93.5963 111.976Z" fill="#65A9DF"/>
<path d="M87.8975 97.7932C87.8975 97.7932 85.6543 95.0579 87.3504 94.0182C89.0465 92.9785 88.8823 97.0275 88.8823 97.0275C88.8823 97.0275 89.5387 94.675 91.5083 95.2221C93.4779 95.7691 89.8671 97.8481 89.8671 97.8481C89.8671 97.8481 92.4386 97.1917 92.548 99.1064C92.6573 101.021 89.5387 99.3251 89.5387 99.3251C89.5387 99.3251 90.3044 101.459 88.3897 101.842C86.4749 102.225 88.2803 99.2158 88.2803 99.2158C88.2803 99.2158 85.2714 100.255 84.943 98.7236C84.6146 97.1917 87.8975 97.7932 87.8975 97.7932Z" fill="#F7BC4B"/>
<path d="M107.31 16.5393C110.228 13.0689 109.865 7.68843 105.999 5.76505C103.776 4.66126 101.899 4.90937 100.704 5.31864C100.772 4.05579 100.641 2.0478 99.0837 2.31341C97.2131 2.63016 96.7971 4.84485 96.71 5.58975C96.7797 4.52494 96.8724 0.361573 93.8776 1.36072C91.4523 2.17434 90.849 6.9248 92.5018 10.436C92.5014 10.4398 92.5047 10.4442 92.5073 10.4524C92.9851 11.4563 93.6431 12.3564 94.4985 13.0362C94.3719 15.6789 95.9085 17.5626 95.9085 17.5626C95.7718 17.5748 95.6346 17.5948 95.4925 17.6231C92.464 18.286 88.6196 23.5192 93.5847 26.9376C93.8787 27.1403 94.1897 27.3231 94.5212 27.4863L94.5242 27.4903C97.8304 29.1389 102.778 28.9 106.308 27.3188C108.644 26.2721 110.362 24.6411 110.58 22.5869C111.163 17.1046 107.31 16.5393 107.31 16.5393Z" fill="#363E4F"/>
<g opacity="0.3">
<path d="M108.705 23.1267C108.546 24.6136 107.648 26.0669 106.365 27.254C102.831 28.8358 97.8791 29.0748 94.5701 27.4256L94.5671 27.4216C92.0808 24.491 92.103 20.712 95.5998 17.6011C95.5797 17.5843 95.5592 17.5717 95.5391 17.5549C95.6813 17.5265 95.819 17.5066 95.9558 17.4944C95.9558 17.4944 94.4178 15.61 94.5447 12.9663C93.6885 12.2863 93.0299 11.3858 92.5517 10.3816C92.5492 10.3734 92.5458 10.3694 92.5462 10.3656C91.9459 8.37557 91.4021 5.36797 93.3936 4.68672C96.3797 3.65861 96.5425 9.23359 96.5425 9.23359C96.5425 9.23359 96.8506 5.25682 98.4303 5.00409C100.01 4.75136 99.8631 7.31786 99.8631 7.31786C99.8631 7.31786 103.394 4.2927 106.765 8.24769C110.141 12.2028 104.696 18.3365 104.696 18.3365C104.696 18.3365 109.213 18.4688 108.705 23.1267Z" fill="black"/>
</g>
<path d="M121.824 54.637C121.824 54.637 120.403 58.1942 118.389 59.4976C116.374 60.801 109.264 64.8297 98.8356 64.0012C88.4073 63.169 85.6787 56.4154 85.6787 56.4154C85.6787 56.4154 85.6825 56.4117 85.6904 56.4038C85.9575 56.2035 90.3443 49.0584 101.53 48.2968C113.078 47.5115 117.611 50.7091 121.824 54.637Z" fill="#363E4F"/>
<g opacity="0.5">
<path d="M121.824 54.637C121.824 54.637 120.403 58.1942 118.389 59.4976C116.374 60.801 109.264 64.8297 98.8356 64.0012C88.4073 63.169 85.6787 56.4154 85.6787 56.4154C85.6787 56.4154 85.6825 56.4117 85.6904 56.4038C85.9575 56.2035 90.3443 49.0584 101.53 48.2968C113.078 47.5115 117.611 50.7091 121.824 54.637Z" fill="black"/>
</g>
<path d="M87.2975 33.554C87.2975 33.554 86.8515 38.625 93.0944 39.3513C93.0944 39.3513 94.5737 32.0514 87.2975 33.554Z" fill="#363E4F"/>
<path d="M88.8728 32.5738L85.9169 36.6637C85.9169 36.6637 83.851 39.4904 86.7033 41.6678C89.5555 43.8452 93.9663 36.8324 94.2966 35.697C94.6269 34.5615 92.0583 29.492 88.8728 32.5738Z" fill="#FFB68D"/>
<g opacity="0.3">
<path d="M88.8728 32.5738L85.9169 36.6637C85.9169 36.6637 83.851 39.4904 86.7033 41.6678C89.5555 43.8452 93.9663 36.8324 94.2966 35.697C94.6269 34.5615 92.0583 29.492 88.8728 32.5738Z" fill="black"/>
</g>
<path d="M97.8595 30.7573C95.8925 35.1076 93.097 39.352 93.097 39.352C92.7791 37.6518 92.0017 36.4385 91.1142 35.5747C89.4061 33.9098 87.2979 33.5528 87.2979 33.5528C87.2979 33.5528 93.2774 24.7816 96.2025 23.8509C96.6658 23.7017 97.1216 23.7844 97.518 24.0669C98.7117 24.8954 99.3395 27.4906 97.8595 30.7573Z" fill="#65A9DF"/>
<g opacity="0.3">
<path d="M97.8589 30.7574C95.8919 35.1077 93.0961 39.352 93.0961 39.352C92.7782 37.6518 92.0008 36.4389 91.1133 35.5751L92.2285 34.4873C92.2285 34.4873 91.867 32.4497 92.9469 31.4916C94.0226 30.5334 97.4975 26.1046 97.4975 24.067C97.4975 24.067 97.5057 24.067 97.5174 24.067C98.7111 24.8955 99.339 27.4907 97.8589 30.7574Z" fill="black"/>
</g>
<path d="M118.849 32.9194C118.849 32.9194 119.108 37.2419 113.402 38.4521C113.402 38.4521 110.809 32.3141 118.849 32.9194Z" fill="#363E4F"/>
<path d="M119.123 40.8948C118.584 40.9106 118.015 40.7731 117.465 40.4394C115.043 38.971 112.02 35.9441 112.02 35.9441L116.602 31.7936C116.602 31.7936 117.642 32.7401 118.793 33.9534C119.849 35.0566 120.995 36.3837 121.529 37.4162C122.397 39.0849 120.944 40.8553 119.123 40.8948Z" fill="#FFB68D"/>
<g opacity="0.3">
<path d="M119.123 40.8948C118.584 40.9106 118.015 40.7731 117.465 40.4394C115.043 38.971 112.02 35.9441 112.02 35.9441L116.602 31.7936C116.602 31.7936 117.642 32.7401 118.793 33.9534C117.764 34.2281 116.806 34.7819 116.064 35.5514C116.959 37.4008 117.862 39.2656 119.118 40.891L119.123 40.8948Z" fill="black"/>
</g>
<path d="M118.849 32.9205C118.849 32.9205 116.775 32.8814 115.169 34.4794C114.341 35.2921 113.638 36.5448 113.403 38.4528C113.403 38.4528 107.957 33.6982 106.661 30.0663C105.361 26.4344 106.013 23.1321 108.283 23.7055C108.338 23.7171 108.397 23.737 108.456 23.7607C111.027 24.6914 118.849 32.9205 118.849 32.9205Z" fill="#65A9DF"/>
<g opacity="0.3">
<path d="M115.169 34.4794C114.341 35.2921 113.638 36.5448 113.403 38.4528C113.403 38.4528 107.957 33.6982 106.661 30.0663C105.361 26.4344 106.013 23.1321 108.283 23.7055C108.338 23.7171 108.396 23.737 108.455 23.7607C108.946 24.8169 109.637 26.2105 109.936 26.9368C110.203 27.5767 110.466 28.2211 110.819 28.8178C111.208 29.4776 112.111 31.0714 112.598 31.6602C113.513 32.7713 114.329 33.6392 115.169 34.4794Z" fill="black"/>
</g>
<path d="M118.32 62.4244C118.3 62.474 118.275 62.5213 118.245 62.5653C116.307 65.4254 113.011 65.0786 108.761 59.7217C108.761 59.7217 108.097 58.9601 107.179 57.908C105.415 55.888 102.708 52.8055 101.957 52.0423C101.916 52.0014 101.884 51.9601 101.857 51.9097C101.539 51.3303 99.7837 47.6225 105.541 45.3399C111.8 42.8623 115.015 49.9021 115.015 49.9021C115.015 49.9021 115.934 51.6651 116.841 53.9346C117.977 56.7924 119.09 60.4581 118.32 62.4244Z" fill="#363E4F"/>
<g opacity="0.3">
<path d="M116.841 53.9346C115.055 53.6204 113.178 53.8008 111.49 54.4801C109.766 55.1753 108.258 56.3923 107.178 57.908C105.368 55.8351 102.565 52.6428 101.902 51.9871C101.902 51.9871 99.2826 47.8213 105.541 45.3399C111.8 42.8623 115.016 49.9021 115.016 49.9021C115.016 49.9021 115.934 51.6651 116.841 53.9346Z" fill="black"/>
</g>
<path d="M116.763 61.7091C115.953 63.5941 113.062 67.5355 108.932 71.6738C108.797 71.8066 108.658 71.9435 108.523 72.0763C103.802 76.7243 99.1344 80.9757 99.1344 80.9757C99.1344 80.9757 96.5337 84.2532 94.1858 86.8254C92.4312 88.7466 90.8131 90.2733 90.5148 89.7609C89.8081 88.5676 92.1841 83.5878 92.6881 82.8978C93.1884 82.2077 94.3641 81.1874 94.3641 81.1874L92.8402 80.6708C92.8402 80.6708 93.6127 78.5792 94.0346 78.5918C94.3122 78.6001 95.5577 78.7418 96.3567 78.8382C96.7603 78.8826 97.0526 78.9195 97.0526 78.9195C97.0526 78.9195 99.1098 75.7103 101.36 72.092C102.309 70.5615 103.292 68.9596 104.165 67.4955C105.199 65.7621 106.278 64.614 106.777 63.6221C108.703 59.8049 110.341 57.9241 110.341 57.9241C112.378 54.8835 115.756 55.1375 116.759 57.8743C117.119 58.8476 117.175 60.1382 116.763 61.7091Z" fill="#FFB68D"/>
<path d="M118.154 61.7259C117.275 63.6341 113.204 67.9222 109.038 72.0155C108.651 72.1446 108.17 72.3046 107.782 72.4337C106.911 72.2542 106.228 71.9859 105.696 71.6577C104.234 70.7597 103.925 69.3959 104.061 68.1114C104.072 68.0068 104.109 67.9038 104.164 67.8125C105.175 66.1289 106.036 64.6417 106.528 63.6721C108.478 59.8381 109.642 58.1005 109.642 58.1005C111.508 55.3399 115.393 55.1753 117.3 57.1535C118.24 58.1279 118.702 59.6208 118.204 61.5829C118.191 61.6321 118.175 61.6796 118.154 61.7259Z" fill="#363E4F"/>
<path d="M94.0352 86.2008C92.3491 88.1041 90.794 89.6164 90.5062 89.1084C89.8246 87.9252 92.1048 82.9906 92.5889 82.307C93.0694 81.6232 94.1995 80.613 94.1995 80.613L92.7325 80.0997C92.7325 80.0997 93.4732 78.027 93.8791 78.0397C94.1463 78.0481 95.345 78.1895 96.114 78.2855C95.3676 79.6314 94.0769 82.1381 93.7659 83.9168C93.5026 85.4257 93.5473 86.2053 94.0352 86.2008Z" fill="#363E4F"/>
<g opacity="0.4">
<path d="M118.262 61.2166C117.447 63.1053 113.275 67.5094 109.038 71.6817C108.902 71.8148 108.763 71.952 108.627 72.085C103.879 76.7423 99.1849 81.0022 99.1849 81.0022C99.1849 81.0022 96.5693 84.2862 94.208 86.8635C92.4434 88.7885 90.816 90.3183 90.5161 89.8049C89.8056 88.6093 92.1959 83.6197 92.7029 82.9284C93.206 82.2369 94.388 81.2146 94.388 81.2146L92.8558 80.6971C92.8558 80.6971 93.6329 78.6014 94.057 78.614C94.3363 78.6223 95.5889 78.7646 96.3924 78.8611C96.7982 78.9056 97.0919 78.9421 97.0919 78.9421C97.0919 78.9421 99.161 75.7265 101.424 72.1011C101.534 73.2951 101.5 74.5169 101.324 75.7344C102.833 74.2213 104.342 72.7085 105.851 71.1915C107.786 69.2472 109.724 67.303 111.658 65.3587C113.814 63.1951 116.091 60.8172 116.912 57.855C116.962 57.6749 117.005 57.4943 117.044 57.3139L117.383 56.7226C118.329 57.7074 118.788 59.2223 118.262 61.2166Z" fill="black"/>
</g>
<path d="M104.936 48.4768C104.814 49.4782 104.516 50.2436 104.516 50.2436L99.6986 62.1286C98.6071 64.7238 96.7066 65.9881 94.8613 66.2158C92.3059 66.5281 89.8663 64.847 89.8321 61.9595C89.8317 61.9234 89.8336 61.8896 89.8385 61.8539C89.9707 60.8897 90.4573 58.3437 91.1629 55.7444C91.6732 53.8518 92.3052 51.9321 92.9962 50.5813C93.0984 50.3811 93.2006 50.1928 93.3065 50.02C95.886 45.7599 97.0049 43.1804 101.826 43.9657C104.85 44.4564 105.14 46.7965 104.936 48.4768Z" fill="#363E4F"/>
<g opacity="0.3">
<path d="M104.936 48.4768C104.814 49.4782 104.516 50.2436 104.516 50.2436L99.6983 62.1286C98.6067 64.7238 96.7063 65.9882 94.861 66.2159V66.149C94.8689 65.6973 95.0301 65.2697 95.1909 64.8497C96.0743 62.5212 96.9576 60.1969 97.8451 57.8684C98.0691 57.2797 98.2806 56.5729 97.9116 56.0585C97.676 55.7327 97.268 55.5873 96.8791 55.4814C95.0064 54.9906 92.9846 55.0887 91.1626 55.7444C91.6729 53.8518 92.3048 51.9321 92.9958 50.5813C93.7969 49.5958 94.755 48.732 95.8308 48.0489C96.7378 47.4717 97.7467 47.0084 98.8187 46.9141C99.9925 46.8082 101.159 47.1497 102.282 47.5071C103.173 47.7937 104.076 48.1 104.936 48.4768Z" fill="black"/>
</g>
<path d="M105.4 91.1252C105.586 92.6574 105.723 95.5012 104.904 96.458L104.9 96.4584C104.751 96.6384 104.567 96.7503 104.347 96.7776C102.921 96.9559 101.346 94.6223 100.913 92.1457C100.801 91.5067 100.682 90.6107 100.568 89.6296C100.241 86.8053 99.946 83.2921 99.946 83.2921C99.946 83.2921 95.895 75.3848 93.0312 69.3839C91.4856 66.1517 90.2886 63.4724 90.2518 62.8725C89.8458 61.7585 90.1021 60.5522 90.3529 59.6505C91.3181 56.1408 95.7424 55.6081 98.2994 62.5417C98.2994 62.5417 98.9738 63.2773 99.4409 65.403C99.5115 65.7284 99.6297 66.3664 99.778 67.2143C100.591 71.8838 102.304 82.8806 102.304 82.8806C102.304 82.8806 103.456 85.4564 104.357 87.81C104.881 89.171 105.317 90.4586 105.4 91.1252Z" fill="#FFB68D"/>
<path d="M100.521 67.3214C100.54 67.4227 100.539 67.5277 100.514 67.6226C100.126 69.1144 99.2823 70.6039 97.4715 70.8952C95.8494 71.1558 94.4859 70.5535 93.4505 69.7674C93.3666 69.7036 93.2978 69.6173 93.2482 69.5196C91.6201 66.3093 90.3686 63.6655 90.3282 63.0667C87.5064 56.5086 95.8437 53.4183 99.3221 62.1991C99.3335 62.2285 99.343 62.256 99.351 62.2862C99.4144 62.5216 99.7329 63.7184 100.185 65.6417C100.256 65.9513 100.374 66.5401 100.521 67.3214Z" fill="#363E4F"/>
<path d="M105.358 90.8044C105.592 92.6339 105.761 96.3238 104.261 96.5022C102.761 96.6806 101.098 94.3265 100.637 91.8292C100.518 91.1849 100.391 90.2818 100.27 89.2925C100.652 90.5475 101.388 92.0731 102.688 91.7641C104.078 91.4321 104.282 89.0834 104.254 87.461C104.808 88.8336 105.27 90.1323 105.358 90.8044Z" fill="#363E4F"/>
<g opacity="0.3">
<path d="M104.727 96.4607C104.578 96.6406 104.394 96.7525 104.175 96.7798C102.752 96.9581 101.181 94.6251 100.748 92.1491C100.637 91.5103 100.518 90.6145 100.405 89.6336C100.078 86.81 99.7847 83.2976 99.7847 83.2976C99.7847 83.2976 95.7433 75.3923 92.8864 69.3929C91.3444 66.1616 90.1504 63.4833 90.1136 62.8835C89.7086 61.7698 89.6871 60.7129 89.9374 59.8114C92.3384 69.1152 100.63 81.8781 100.63 81.8781C100.63 81.8781 101.099 89.7403 102.92 94.1412C103.349 95.1791 103.995 95.9241 104.727 96.4607Z" fill="black"/>
</g>
<path d="M121.825 54.6372C119.913 54.6608 118.476 54.2644 117.102 53.8444C115.268 53.283 113.552 52.6702 110.984 52.9294C109.618 53.0669 108.456 53.691 107.093 54.2408C106.006 54.6845 104.793 55.0768 103.242 55.1437C102.892 55.1594 101.875 54.6962 100.799 54.1975C99.5471 53.6163 98.2158 52.9847 97.7762 52.9963C95.22 53.0553 92.5384 53.7301 90.3516 54.4606H90.3478C87.741 55.336 85.8363 56.2942 85.6909 56.4043C85.9265 56.0744 91.404 48.4927 91.6396 48.1433C91.6907 48.0647 91.8947 47.621 92.1814 46.977C92.1814 46.9732 92.1814 46.9695 92.1852 46.9695C93.0411 45.0457 94.6196 41.3627 95.0908 40.2633C95.1772 40.0592 95.2279 39.945 95.2279 39.945C95.2279 39.945 94.2818 35.2535 94.0346 33.1607C93.9955 32.8428 93.9718 32.5835 93.9718 32.4107C93.9718 31.1072 95.9152 24.7663 96.3863 23.816C96.3863 23.816 100.866 22.5911 102.272 22.7677C103.673 22.9406 108.558 23.7176 108.558 23.7176C108.558 23.7176 111.53 30.789 111.648 31.7351C111.667 31.8922 111.671 32.2063 111.664 32.6147C111.64 34.4641 111.404 38.3 111.365 38.9752C111.361 39.0421 111.357 39.0774 111.357 39.0774L115.15 47.8055L115.755 48.4221L121.825 54.6372Z" fill="#F7BC4B"/>
<g opacity="0.3">
<path d="M111.663 32.6144C111.639 34.4638 111.404 38.2997 111.365 38.9749C105.915 38.7983 100.446 39.2304 95.0904 40.2629C95.1768 40.0589 95.2275 39.9447 95.2275 39.9447C95.2275 39.9447 94.2814 35.2532 94.0342 33.1603C97.9328 34.6836 102.362 34.6836 106.492 33.8393C108.228 33.4861 109.935 32.9875 111.663 32.6144Z" fill="black"/>
</g>
<g opacity="0.3">
<path d="M91.6401 48.1433C91.6912 48.0648 91.8952 47.621 92.1819 46.977C91.5026 49.4505 90.8901 51.9476 90.3521 54.4606H90.3483C87.7414 55.3361 85.8368 56.2942 85.6914 56.4043C85.927 56.0744 91.4045 48.4927 91.6401 48.1433Z" fill="black"/>
</g>
<g opacity="0.3">
<path d="M103.771 44.8683C104.694 48.0527 105.801 51.1856 107.093 54.2404C106.005 54.6842 104.792 55.0768 103.241 55.1437C102.892 55.1595 101.875 54.6958 100.799 54.1972C101.651 51.0406 102.519 47.8837 103.771 44.8683Z" fill="black"/>
</g>
<g opacity="0.3">
<path d="M121.824 54.6371C119.911 54.6608 118.475 54.2644 117.101 53.8443C117.038 53.6557 116.975 53.4712 116.912 53.2826C116.39 51.7003 116.005 50.0711 115.754 48.422L121.824 54.6371Z" fill="black"/>
</g>
<path d="M104.854 23.8626C104.854 23.8626 103.204 24.4359 101.43 24.4987C99.6552 24.5614 98.7681 23.9922 98.7681 23.9922C99.2118 23.7998 100.036 23.4816 100.036 23.4816L99.8596 20.9216L99.7179 18.8528L103.268 18.2205L103.57 23.2539L103.585 23.5484L104.854 23.8626Z" fill="#FFB68D"/>
<g opacity="0.4">
<path d="M103.57 23.2543C102.66 23.0228 101.811 22.5517 101.057 21.9783C100.633 21.6525 100.237 21.2952 99.8599 20.9221L99.7183 18.8529L103.268 18.2209L103.57 23.2543Z" fill="black"/>
</g>
<path d="M87.9427 26.6955L83.6017 28.1197C83.2174 26.6429 84.4433 24.4119 84.4433 24.4119L87.383 23.5472C87.383 23.5472 89.2189 19.8658 90.1932 18.6293C90.4638 18.2836 90.6701 18.1307 90.7486 18.2995C90.9887 18.804 89.7122 22.2495 88.8021 24.568C88.4781 25.3975 88.1949 26.083 88.0494 26.4376C87.9819 26.6036 87.9427 26.6955 87.9427 26.6955Z" fill="#FFB68D"/>
<g opacity="0.3">
<path d="M87.9555 26.691L83.6041 28.1177C83.2191 26.6388 84.448 24.4049 84.448 24.4049L87.3949 23.5382C87.3949 23.5382 89.2355 19.8518 90.2122 18.6134C90.3291 18.7045 90.2355 19.1061 89.8449 19.9497C88.8994 21.9952 88.1888 23.3916 88.8172 24.5603C88.4924 25.3911 88.2084 26.0775 88.0625 26.4327C87.9948 26.5989 87.9555 26.691 87.9555 26.691Z" fill="black"/>
</g>
<path d="M84.7995 24.4348C84.7995 24.4348 85.6773 22.9939 85.0335 22.7166C84.3897 22.4392 83.2033 24.3511 83.439 24.9996C83.6746 25.648 84.103 25.5989 84.7995 24.4348Z" fill="#FFB68D"/>
<path d="M86.0051 24.2201C86.0051 24.2201 87.0044 22.5805 86.272 22.2652C85.5395 21.95 84.1897 24.1252 84.4577 24.8626C84.7256 25.6001 85.2127 25.5446 86.0051 24.2201Z" fill="#FFB68D"/>
<path d="M87.2483 23.7833C87.2483 23.7833 88.2476 22.1437 87.5151 21.8285C86.7827 21.5132 85.4329 23.6884 85.7008 24.4259C85.9688 25.1633 86.4559 25.1078 87.2483 23.7833Z" fill="#FFB68D"/>
<path d="M87.7358 17.0204L89.0859 18.5517L91.736 27.6871C91.736 27.6871 91.3975 28.9123 90.3352 28.1597L87.6 19.186L87.7358 17.0204Z" fill="#363E4F"/>
<path d="M88.8965 41.4546C87.836 42.2771 86.4102 42.336 85.3881 41.3802C83.4698 39.5844 85.1512 30.1469 85.1512 30.1469C85.1512 30.1469 83.5697 27.6551 84.6747 26.7908C85.1682 26.4067 85.9774 26.1055 86.7222 25.8835C87.6466 25.6132 88.4736 25.4709 88.4736 25.4709C88.4736 25.4709 90.2349 21.8013 90.7564 22.1868C91.2779 22.5724 89.7372 26.45 89.5921 26.8494C89.4499 27.2506 87.6493 29.0554 87.6493 29.0554L90.3488 37.7098C90.4862 39.4325 89.8291 40.7366 88.8965 41.4546Z" fill="#FFB68D"/>
<g opacity="0.3">
<path d="M89.0658 41.4225C87.9885 42.2554 86.5405 42.3158 85.5028 41.3484C83.5551 39.5309 85.2658 29.9765 85.2658 29.9765C85.2658 29.9765 83.6601 27.4543 84.7825 26.5791C85.2839 26.1902 86.1055 25.8855 86.8621 25.6606C86.6616 26.1321 86.4922 26.608 86.4563 27.0895C86.4091 27.7238 86.7034 40.5105 89.0542 41.4208C89.0571 41.4225 89.0606 41.4241 89.0658 41.4225Z" fill="black"/>
</g>
<path d="M97.1135 15.6567C97.1135 15.6567 96.7513 13.7955 95.4958 14.9034C94.2403 16.0113 94.7395 19.2502 96.8584 18.5801L97.1135 15.6567Z" fill="#FFB68D"/>
<path d="M106.475 15.5616C106.475 15.5616 107.2 13.6256 108.247 14.5652C109.294 15.5048 108.163 18.8551 106.164 18.4833L106.475 15.5616Z" fill="#FFB68D"/>
<path d="M101.249 22.0724C99.6788 22.2171 98.6412 21.8948 97.9769 21.2163C96.6529 19.8717 96.8117 17.1315 97.166 13.9393C97.6997 9.14699 99.6916 7.91869 102.287 7.62452C103.833 7.44714 104.825 7.89908 105.439 8.67026C106.386 9.84573 106.433 11.7752 106.224 13.3219C105.879 15.8756 105.955 21.6384 101.249 22.0724Z" fill="#FFB68D"/>
<g opacity="0.3">
<path d="M101.56 22.0716C100.032 22.2148 99.0204 21.894 98.3718 21.2192C99.7229 21.2673 101.232 20.5734 102.584 19.7316C102.969 19.4917 103.358 19.2315 103.663 18.8405C104.16 18.2063 104.353 17.3438 104.507 16.5336C105 13.9416 105.372 11.3393 105.61 8.75094C106.535 9.9198 106.585 11.8378 106.384 13.3752C106.055 15.9136 106.142 21.6421 101.56 22.0716Z" fill="black"/>
</g>
<path d="M100.561 14.6561C100.498 15.0156 100.264 15.304 100.04 15.3003C99.8157 15.2965 99.6854 15.002 99.749 14.6426C99.8126 14.2832 100.046 13.9948 100.27 13.9985C100.495 14.0022 100.625 14.2967 100.561 14.6561Z" fill="#363E4F"/>
<path d="M98.9529 12.9024C98.9529 12.9024 99.5328 11.4966 100.577 12.089C100.577 12.089 99.3633 12.3847 98.9529 12.9024Z" fill="#363E4F"/>
<path d="M103.715 14.8782C103.651 15.2376 103.782 15.5321 104.006 15.5358C104.23 15.5396 104.463 15.2511 104.527 14.8917C104.591 14.5323 104.46 14.2378 104.236 14.2341C104.012 14.2303 103.778 14.5188 103.715 14.8782Z" fill="#363E4F"/>
<path d="M105.401 13.2207C105.401 13.2207 105.359 11.8054 104.096 12.3623C104.096 12.3623 105.19 12.6935 105.401 13.2207Z" fill="#363E4F"/>
<path d="M96.2609 13.6807C96.2609 13.6807 96.6708 8.63643 101.401 8.4672C106.132 8.29796 106.607 14.1342 106.607 14.1342C106.607 14.1342 107.811 6.71201 101.709 7.04578C95.6072 7.37954 96.2609 13.6807 96.2609 13.6807Z" fill="#F7BC4B"/>
<path d="M110.493 39.1526C110.092 39.5574 100.035 39.7381 99.6297 39.2785C99.2285 38.8152 99.6056 23.1929 100.083 23.0708C100.239 23.0312 101.594 23.0302 103.32 23.0564C105.02 23.0826 107.079 23.1322 108.708 23.198C110.305 23.2596 111.484 23.3332 111.504 23.408C111.563 23.6358 110.891 38.7477 110.493 39.1526Z" fill="#ED4A2F"/>
<path d="M108.732 23.2011L108.625 24.8546L103.276 24.7677L103.332 23.0593C105.035 23.0855 107.1 23.1353 108.732 23.2011Z" fill="#65A9DF"/>
<path d="M105.231 23.9076C105.232 24.0331 105.131 24.1346 105.005 24.1347C104.88 24.1348 104.778 24.0334 104.777 23.9079C104.777 23.7824 104.878 23.6809 105.003 23.6808C105.129 23.6807 105.231 23.7821 105.231 23.9076Z" fill="#363E4F"/>
<path d="M107.392 24.0011C107.393 24.1266 107.292 24.2281 107.166 24.2282C107.041 24.2283 106.939 24.1269 106.938 24.0015C106.938 23.876 107.039 23.7744 107.164 23.7743C107.29 23.7743 107.392 23.8756 107.392 24.0011Z" fill="#363E4F"/>
<path d="M119.676 40.691C116.178 42.9134 110.925 37.7225 110.925 37.7225C110.925 37.7225 109.037 38.9624 108.538 38.6094C108.036 38.2547 107.767 36.8752 107.767 36.8752C107.767 36.8752 104.937 36.2758 104.566 35.8553C104.523 35.806 104.503 35.7483 104.509 35.6902C104.532 35.2564 105.839 34.6707 108.098 35.3548C107.874 35.2827 105.967 34.6391 105.279 33.9974C104.55 33.3119 105.553 32.8401 108.596 34.0239C108.596 34.0239 106.471 32.8808 105.894 32.2491C105.312 31.6193 106.502 30.8461 109.349 32.6038C109.349 32.6038 108.006 31.5534 107.251 30.7001C106.492 29.845 107.247 29.1385 109.35 30.4907C111.453 31.8371 111.795 32.5548 111.756 33.2515C111.719 33.9441 111.767 34.8275 111.767 34.8275C112.122 35.0233 115.76 34.3865 118.698 34.3383C120.421 34.3104 121.665 35.7364 121.688 37.3705C121.709 38.5209 121.122 39.7713 119.676 40.691Z" fill="#FFB68D"/>
<g opacity="0.3">
<path d="M119.808 40.6696C116.292 42.9056 111.009 37.6766 111.009 37.6766C111.009 37.6766 109.111 38.9246 108.609 38.5689C108.104 38.2116 107.834 36.8226 107.834 36.8226C107.834 36.8226 104.987 36.2179 104.614 35.7944C104.571 35.7447 104.551 35.6864 104.557 35.6279C106.169 35.6116 107.743 35.8323 109.215 36.2806C109.971 37.7111 111.343 36.6744 111.483 36.7365C112.793 37.3272 114.407 37.1524 115.891 37.3285C117.088 37.4698 118.218 37.8371 119.442 37.864C120.225 37.8794 121.076 37.7206 121.83 37.327C121.851 38.4853 121.262 39.7443 119.808 40.6696Z" fill="black"/>
</g>
<path d="M60.1951 115.334C58.0436 115.593 55.676 114.27 53.5046 112.629C50.5953 110.43 42.2242 106.88 41.0188 102.624C39.8097 98.3681 40.3357 95.3569 44.2581 95.7612C44.6312 95.8003 45.22 96.0595 45.9583 96.468C45.9545 96.4717 45.9583 96.4717 45.9583 96.4717C50.1399 98.8077 58.9972 106.083 58.9972 106.083C61.4827 107.858 62.637 109.845 62.7587 111.549C62.8842 113.28 61.9306 114.721 60.1951 115.334Z" fill="#6E4834"/>
<g opacity="0.3">
<path d="M60.1951 115.334C58.0436 115.593 55.676 114.27 53.5046 112.629C50.5953 110.43 42.2242 106.88 41.0188 102.624C39.8097 98.3681 40.3357 95.3569 44.2581 95.7612C44.6312 95.8003 45.22 96.0595 45.9583 96.468C45.9545 96.4717 45.9583 96.4717 45.9583 96.4717C47.2813 99.7775 49.6172 105.212 52.6367 107.78C55.2045 109.966 59.2527 112.079 62.7587 111.549C62.8842 113.28 61.9306 114.721 60.1951 115.334Z" fill="black"/>
</g>
<path d="M55.1345 119.753C55.6169 119.914 64.1372 124.576 64.1372 124.576C64.1372 124.576 64.4821 134.485 54.8365 141.076C45.1909 147.667 35.8433 138.08 35.8433 138.08L55.1345 119.753Z" fill="#363E4F"/>
<path d="M74.9758 94.1987C72.7446 97.3269 70.8031 99.9515 68.9172 100.372C68.9172 100.372 64.7918 112.608 62.1707 114.591C61.5049 115.092 60.8063 115.361 60.0856 115.444C58.0603 115.604 56.3944 113.549 56.994 110.5C57.2498 109.2 57.9176 107.716 59.1484 106.149L64.613 98.2409C64.613 98.2409 63.7384 96.4976 63.6307 95.2864C63.5231 94.0714 63.5188 91.5081 63.9005 90.0823C64.2821 88.6607 65.5771 89.7354 65.5429 91.0879C65.5086 92.4444 65.904 93.2272 65.904 93.2272C65.904 93.2272 68.1387 89.9613 68.7174 89.1082C69.2924 88.2592 71.2358 85.5595 72.2009 85.8481C73.1659 86.1366 69.6375 91.1789 69.6993 91.4672C69.7613 91.7513 72.7965 87.0617 73.9851 86.7128C75.1737 86.3639 74.5062 88.1388 73.9203 89.2795C73.3948 90.3102 71.9227 92.448 71.6514 92.8373C71.8579 92.5662 72.7442 91.4033 74.1115 89.9193C75.6841 88.2156 76.5051 88.7204 75.7773 89.9985C75.0734 91.2374 72.901 93.873 72.7663 94.038C72.8683 93.9596 73.8802 93.1521 74.9534 92.349C75.5212 91.9257 76.0865 91.6054 76.228 91.7835C76.3735 91.9616 76.095 92.6346 74.9758 94.1987Z" fill="#6E4834"/>
<g opacity="0.3">
<path d="M75.0535 94.1756C72.8129 97.3072 70.8632 99.9347 68.9694 100.356C68.9694 100.356 64.8264 112.606 62.1943 114.59C61.5257 115.092 60.8242 115.361 60.1004 115.444C58.0667 115.604 56.3938 113.547 56.996 110.494C60.594 111.361 65.2281 103.772 66.3509 101.192C67.5599 98.4145 67.5373 98.2984 67.5373 98.2984C67.5373 98.2984 69.4598 98.3607 71.9902 95.9767C73.7773 94.288 75.4752 92.6026 76.311 91.7578C76.4571 91.9361 76.1775 92.6098 75.0535 94.1756Z" fill="black"/>
</g>
<path d="M88.0838 132.071C87.8929 135.099 85.7099 137.938 81.2781 137.765C81.2123 137.762 81.1473 137.745 81.0842 137.727C78.7944 137.062 58.8791 140.496 51.4357 140.654C46.7085 140.752 42.2951 134.557 44.0228 129.437C45.0594 126.37 48.2945 123.689 54.9733 122.97C56.2155 122.833 76.1278 124.021 83.7489 125.415C83.7812 125.421 83.8124 125.429 83.8436 125.439C86.7804 126.39 88.2597 129.311 88.0838 132.071Z" fill="#363E4F"/>
<g opacity="0.4">
<path d="M88.0834 132.071C87.8911 135.122 85.6768 137.98 81.1774 137.761C79.4106 136.956 58.9937 140.493 51.4357 140.654C46.7085 140.752 42.2951 134.557 44.0228 129.437C53.2614 128.494 62.9161 130.536 71.7621 127.658C72.822 127.312 73.8937 126.892 75.0088 126.936C75.9786 126.971 76.8977 127.352 77.7889 127.725C81.2243 129.174 84.6518 130.619 88.0834 132.071Z" fill="black"/>
</g>
<path d="M108.35 132.454C108.35 132.454 112.358 138.48 104.331 143.385C104.331 143.385 97.705 133.823 108.35 132.454Z" fill="#363E4F"/>
<g opacity="0.6">
<path d="M108.35 132.454C108.35 132.454 112.358 138.48 104.331 143.385C104.331 143.385 97.705 133.823 108.35 132.454Z" fill="black"/>
</g>
<path d="M121.853 129.892L115.61 139.406L111.543 145.597C111.543 145.597 110.762 145.421 109.674 145.044C108.492 144.632 105.779 143.163 104.476 142.245C101.971 140.478 104.33 134.635 104.33 134.635C104.739 134.608 105.496 134.416 106.454 134.113C109.093 133.285 113.243 131.624 115.685 130.363C118.221 129.048 118.775 128.27 120.192 128.887C120.636 129.079 121.158 129.405 121.853 129.892Z" fill="#363E4F"/>
<path d="M107.658 132.994C107.541 133.485 108.7 136.424 109.034 136.752C109.367 137.081 109.861 136.747 109.755 136.073C109.648 135.399 108.755 133.33 108.51 132.95C108.266 132.569 107.781 132.471 107.658 132.994Z" fill="#65A9DF"/>
<path d="M110.32 131.976C110.204 132.467 111.363 135.405 111.696 135.734C112.029 136.063 112.524 135.729 112.417 135.054C112.31 134.38 111.417 132.312 111.173 131.931C110.928 131.551 110.444 131.453 110.32 131.976Z" fill="#65A9DF"/>
<path d="M121.853 129.891L111.543 145.597C111.543 145.597 110.761 145.421 109.674 145.046C111.386 142.323 118.002 132.229 120.193 128.885C120.633 129.08 121.157 129.406 121.853 129.891Z" fill="#65A9DF"/>
<g opacity="0.3">
<path d="M115.611 139.406L111.543 145.597C111.543 145.597 110.762 145.421 109.674 145.044C108.492 144.632 105.779 143.163 104.476 142.244C101.971 140.478 104.33 134.635 104.33 134.635C104.739 134.608 105.496 134.416 106.454 134.113C107.342 135.409 108.469 136.532 109.772 137.399C111.503 138.55 113.538 139.237 115.611 139.406Z" fill="black"/>
</g>
<path d="M108.351 132.452C108.351 132.452 106.412 132.382 105.214 135.475C104.586 137.093 104.166 139.574 104.331 143.387V143.387C104.319 143.384 82.9511 138.561 81.181 137.761C76.1751 135.923 75.3582 130.827 77.9497 127.792C79.1667 126.355 81.1453 125.381 83.7992 125.424C83.7999 125.424 83.8003 125.424 83.8011 125.424C84.0088 125.463 84.2087 125.503 84.397 125.542C91.4722 126.987 108.351 132.452 108.351 132.452Z" fill="#363E4F"/>
<g opacity="0.4">
<path d="M104.33 143.387C104.33 143.387 82.9519 138.562 81.181 137.761C76.1751 135.923 75.3582 130.827 77.9497 127.792C81.5226 129.295 85.0876 130.803 88.6567 132.311C92.0452 133.744 95.4847 135.197 99.1282 135.703C101.143 135.982 103.243 135.942 105.214 135.475C104.586 137.093 104.165 139.574 104.33 143.387Z" fill="black"/>
</g>
<path d="M57.6689 119.331C57.6689 119.331 51.571 123.732 47.1696 128.644C46.9104 128.93 46.6477 129.233 46.3768 129.543C42.0107 134.553 36.1214 142.323 35.4853 141.683C34.8059 141.008 28.0332 132.539 25.9993 125.766C24.4366 120.552 21.8685 111.125 21.5427 105.667C21.4446 104.038 21.5465 102.761 21.9354 102.059C23.6314 99.008 27.6011 95.5215 31.5903 94.1001C38.7008 91.5597 44.119 94.7753 44.967 95.4546C45.8151 96.1298 49.71 112.558 51.571 114.756C53.4321 116.959 57.6689 119.331 57.6689 119.331Z" fill="#F7BC4B"/>
<g opacity="0.3">
<path d="M46.3761 129.543C42.01 134.553 36.1207 142.323 35.4845 141.683C34.8052 141.008 28.0325 132.538 25.9986 125.765C24.4359 120.551 21.8678 111.124 21.542 105.667C26.0377 101.195 28.9903 101.945 31.9507 112.628C35.1625 124.242 37.5064 121.031 39.9799 120.414C42.4496 119.794 38.1267 125.726 38.2485 126.217C38.374 126.712 39.9799 124.364 41.9548 126.959C42.9362 128.243 44.3385 129.378 46.3761 129.543Z" fill="black"/>
</g>
<path d="M38.0992 94.0689C38.0992 94.0689 36.9017 94.9481 34.6676 95.9063C32.4334 96.8644 28.998 95.9063 28.998 95.9063L30.5961 94.3082L29.7717 91.1047L29.1589 88.7214L34.6676 88.0811L36.0341 92.8793L36.2618 93.6725L38.0992 94.0689Z" fill="#6E4834"/>
<g opacity="0.4">
<path d="M36.0345 92.8792C34.1381 92.9187 31.8607 92.4704 29.772 91.1043L29.1592 88.7213L34.6679 88.0811L36.0345 92.8792Z" fill="black"/>
</g>
<path d="M28.522 122.016C27.9764 127.933 25.2985 140.701 25.2985 140.701C25.2985 140.701 25.7539 141.534 26.0564 142.401C26.2567 142.979 26.3859 143.571 26.2683 143.948C25.9737 144.894 24.0229 146.901 22.7232 147.729C21.7023 148.377 21.082 148.079 20.8934 147.604C20.8423 147.478 20.8227 147.333 20.8344 147.195C20.8892 146.575 21.8748 145.676 21.9533 145.605C21.9496 145.605 21.9496 145.605 21.9458 145.609C21.8831 145.652 21.5179 145.888 21.0035 146.214C19.8375 146.952 17.8935 148.138 16.9395 148.495C15.9381 148.868 15.4989 148.42 15.432 147.981C15.4004 147.796 15.4358 147.612 15.5222 147.49C15.7814 147.129 17.1675 146.178 17.5091 145.947C17.5128 145.943 17.517 145.939 17.5207 145.939C17.5365 145.931 17.5482 145.923 17.5561 145.915L14.3995 147.49C13.1667 148.04 12.393 147.529 12.1063 147.27C12.0199 147.191 12.0842 146.982 12.0842 146.982C10.7672 147.127 11.0933 146.253 11.0933 146.253C11.0933 146.253 10.0161 146.486 10.0751 145.598C10.1341 144.715 13.3234 143.458 14.0301 143.175C14.7132 142.904 19.6452 139.892 19.9905 139.932C20.0063 139.932 20.01 139.936 20.01 139.947C19.9826 139.696 19.3976 128.353 19.7549 123.155C19.8372 121.125 20.6262 119.809 21.6982 119.075C24.3408 117.261 28.7144 118.95 28.522 122.016Z" fill="#6E4834"/>
<g opacity="0.3">
<path d="M22.4645 139.979L20.0105 139.947C19.9831 139.696 19.3981 128.353 19.7554 123.154C19.8377 121.125 20.6271 119.809 21.6991 119.075C21.8246 122.428 21.9779 125.44 21.911 127.34C21.7186 132.598 22.4645 139.979 22.4645 139.979Z" fill="black"/>
</g>
<g opacity="0.3">
<path d="M17.5692 145.908L14.4006 147.49C13.1678 148.04 12.3941 147.529 12.1074 147.27C14.2788 146.862 19.1356 144.53 19.3006 144.451L17.5887 145.896C17.5887 145.896 17.5808 145.9 17.5692 145.908Z" fill="black"/>
</g>
<g opacity="0.3">
<path d="M21.0036 146.214C19.8377 146.952 17.8936 148.138 16.9396 148.495C15.9382 148.868 15.499 148.42 15.4321 147.981C16.249 147.796 17.5915 147.329 18.6909 146.716C20.4343 145.747 23.2099 143.78 23.3828 143.658L21.9576 145.601C21.9576 145.601 21.9576 145.601 21.9538 145.605C21.9501 145.605 21.9497 145.605 21.9459 145.609C21.8753 145.644 21.412 145.88 21.0036 146.214Z" fill="black"/>
</g>
<g opacity="0.3">
<path d="M26.269 143.948C25.9744 144.894 24.0232 146.901 22.7235 147.729C21.7026 148.377 21.0827 148.079 20.894 147.604C21.6557 147.439 23.0534 146.327 23.9251 145.409C25.111 144.16 25.6013 143.567 26.0097 142.464C26.0176 142.44 26.0334 142.417 26.0571 142.401C26.2573 142.978 26.3866 143.571 26.269 143.948Z" fill="black"/>
</g>
<path d="M28.5214 122.016C27.9991 126.367 24.3439 127.8 21.9215 126.712C20.6887 126.162 19.7734 124.961 19.7539 123.155C20.115 117.925 19.9662 103.57 22.962 101.69C23.0131 101.658 23.0638 101.631 23.1149 101.607C24.4146 100.999 26.9861 100.803 28.5999 103.221C30.2137 105.64 29.1654 114.996 28.5214 122.016Z" fill="#6E4834"/>
<g opacity="0.3">
<path d="M22.7696 102.393C20.6534 108.097 21.9884 121.058 21.9215 126.712C20.6887 126.162 19.7734 124.961 19.7539 123.155C20.115 117.925 19.9662 103.571 22.962 101.69C22.9304 101.898 22.8677 102.13 22.7696 102.393Z" fill="black"/>
</g>
<path d="M35.9604 90.0422C34.5302 91.1107 32.623 91.5128 30.6303 91.4113C26.5671 91.1977 26.1294 86.8066 26.1294 86.8066C24.0379 78.6143 27.3819 75.3324 30.4211 74.1612C30.7183 74.0466 31.0048 73.9521 31.284 73.8817C36.7964 72.46 38.4873 79.3104 38.445 84.3904C38.422 87.1092 37.4495 88.934 35.9604 90.0422Z" fill="#6E4834"/>
<g opacity="0.3">
<path d="M35.8088 89.9599C34.397 91.0233 32.5139 91.4233 30.5457 91.3219C26.5324 91.1086 26.0966 86.7374 26.0966 86.7374C24.0251 78.582 27.3256 75.3157 30.3265 74.1503C30.62 74.0362 30.9032 73.9422 31.179 73.8722C28.4303 79.5221 29.6774 86.2593 30.7731 88.5071C31.5177 90.0291 33.6174 90.5393 35.8088 89.9599Z" fill="black"/>
</g>
<path d="M35.9127 74.4058C35.3673 75.3715 32.4675 77.7492 26.7812 79.1402C26.7812 79.1402 27.784 82.5153 26.3042 83.9351L25.2708 85.2163C25.1284 85.393 25.063 85.6277 25.098 85.8362L25.392 87.5805C25.3924 87.5821 25.3931 87.5841 25.3914 87.584C25.339 87.5841 23.6682 87.5576 23.1202 83.0441C22.877 81.0172 22.9651 79.176 23.6827 77.5786C24.5835 75.5636 26.4871 73.9381 29.9846 72.8257C34.2809 71.4609 35.7429 72.2331 36.0531 73.1783C36.1956 73.6134 36.0928 74.0867 35.9127 74.4058Z" fill="#363E4F"/>
<g opacity="0.3">
<path d="M36.0179 74.3671C35.4683 75.3357 32.5474 77.7201 26.8208 79.1156C26.8208 79.1156 27.8294 82.5004 26.3387 83.9244L25.0665 85.4945L25.4196 87.584C25.4196 87.584 23.692 87.63 23.1328 83.0311C22.8886 80.9983 22.978 79.1518 23.7011 77.5497C26.4718 78.657 33.9212 75.5066 36.1599 73.1357C36.3032 73.572 36.1994 74.0471 36.0179 74.3671Z" fill="black"/>
</g>
<path d="M31.6088 82.0214C30.9486 82.3131 30.9922 83.9265 31.8662 83.5553C32.7401 83.1841 32.3307 81.7025 31.6088 82.0214Z" fill="#363E4F"/>
<path d="M30.2165 81.1964C30.2165 81.1964 30.535 80.1621 31.629 79.952C31.629 79.952 30.7097 79.3645 30.2165 81.1964Z" fill="#363E4F"/>
<path d="M36.2467 81.004C36.9189 80.8925 37.1084 82.4612 36.2207 82.623C35.333 82.7849 35.5117 81.1259 36.2467 81.004Z" fill="#363E4F"/>
<path d="M36.8451 79.6805C36.8451 79.6805 36.3611 78.8254 35.2118 79.2935C35.2118 79.2935 36.0612 78.1219 36.8451 79.6805Z" fill="#363E4F"/>
<path d="M26.1781 84.7344L27.0175 87.8155C27.0175 87.8155 24.4503 89.703 23.1426 87.3668C21.8348 85.0306 24.0304 81.9095 26.1781 84.7344Z" fill="#6E4834"/>
<g opacity="0.3">
<path d="M26.201 84.731L27.043 87.8188C27.043 87.8188 24.7039 89.5414 23.3919 87.2005C22.0799 84.8597 24.5452 82.9419 26.201 84.731Z" fill="black"/>
</g>
<path d="M70.0811 123.351C69.3706 124.969 68.3655 126.724 67.0305 128.596C67.0305 128.596 57.8662 140.811 51.9179 143.866C45.9695 146.921 40.9872 144.832 36.4877 140.171C36.1815 139.854 40.2925 135.004 45.3612 129.558C50.7482 123.779 57.2068 117.332 60.5989 114.929C64.0463 112.495 66.3906 111.639 68.1926 111.816C71.3338 113.037 72.7902 117.21 70.0811 123.351Z" fill="#363E4F"/>
<g opacity="0.3">
<path d="M70.0811 123.351C69.3706 124.969 68.3655 126.724 67.0305 128.597C67.0305 128.597 57.8666 140.811 51.9182 143.866C45.9699 146.921 40.9872 144.832 36.4877 140.172C36.1815 139.854 40.2925 135.004 45.3612 129.559C45.5419 132.704 46.5429 135.802 48.2627 138.44C47.811 135.48 48.1488 132.405 49.2366 129.614C49.8885 131.282 50.921 132.802 52.2323 134.023C52.2402 132.46 52.2481 130.901 52.256 129.343C57.4074 127.136 62.0365 123.724 65.6722 119.46C67.2939 120.587 68.7344 121.914 70.0811 123.351Z" fill="black"/>
</g>
<path d="M100.052 147.227H81.2647C81.2647 147.227 80.9818 146.477 80.6992 145.362C80.3967 144.145 80.0868 142.492 80.1416 140.898C80.2438 137.835 86.4709 135.181 86.4709 135.181C86.6043 135.357 86.8324 135.593 87.1424 135.88C88.9602 137.537 93.4755 140.756 96.271 142.327C98.764 143.728 99.7142 143.764 99.9814 145.287C100.06 145.762 100.076 146.379 100.052 147.227Z" fill="#363E4F"/>
<path d="M89.6668 137.062C89.1922 137.235 87.3718 139.817 87.2801 140.276C87.1884 140.735 87.7389 140.965 88.2439 140.505C88.7489 140.046 89.9881 138.164 90.1718 137.751C90.3555 137.338 90.1718 136.879 89.6668 137.062Z" fill="#65A9DF"/>
<path d="M91.9798 138.729C91.5052 138.902 89.6848 141.483 89.5931 141.942C89.5014 142.402 90.0519 142.631 90.5569 142.172C91.0619 141.713 92.301 139.831 92.4848 139.418C92.6685 139.005 92.4848 138.545 91.9798 138.729Z" fill="#65A9DF"/>
<path d="M100.051 147.227H81.2634C81.2634 147.227 80.9808 146.477 80.6982 145.362C83.9138 145.299 95.9829 145.291 99.98 145.287C100.059 145.762 100.074 146.379 100.051 147.227Z" fill="#65A9DF"/>
<g opacity="0.4">
<path d="M86.2271 147.227H81.2643C81.2643 147.227 80.9818 146.477 80.6992 145.362C80.3967 144.145 80.0868 142.492 80.1416 140.898C80.2438 137.835 86.4706 135.181 86.4706 135.181C86.6039 135.357 86.832 135.593 87.142 135.88C86.1722 140.285 86.1369 144.683 86.2271 147.227Z" fill="black"/>
</g>
<path d="M87.3538 134.781C87.5717 135.075 87.4857 135.493 87.1685 135.677C86.5046 136.062 85.4086 136.757 84.4813 137.631C84.2182 137.874 83.9706 138.13 83.7508 138.401C82.6322 139.771 80.1636 142.199 79.1052 143.225C78.8403 143.482 78.4116 143.45 78.1873 143.157L67.0327 128.597C65.2149 126.202 64.0448 123.928 63.4166 121.871C61.6517 116.135 64.0572 112.076 68.1272 111.819C68.1719 111.817 68.2181 111.818 68.2625 111.822C69.8688 112.001 71.0414 113.009 72.1762 114.45C74.3344 117.177 85.0918 131.721 87.3538 134.781Z" fill="#363E4F"/>
<g opacity="0.3">
<path d="M84.4802 137.631C84.2172 137.874 83.9696 138.13 83.7498 138.401C82.3051 140.172 78.6063 143.705 78.6063 143.705L67.0316 128.597C65.2138 126.202 64.0438 123.928 63.4155 121.871C64.2046 121.105 64.9587 120.3 65.6733 119.46C70.0864 122.519 73.1449 127.109 76.6825 131.145C78.9046 133.685 81.516 136.104 84.4802 137.631Z" fill="black"/>
</g>
<path d="M164.532 72.7486C164.206 75.7718 161.198 84.9241 159.765 88.713C158.336 92.502 157.15 93.9508 154.37 94.1902C153.341 94.2766 152.435 93.1933 152.058 91.7994C151.795 90.81 151.791 89.667 152.199 88.6698C153.181 86.2628 154.621 73.4674 158.187 70.244C159.631 68.9405 160.998 68.6065 162.093 68.8736C163.703 69.2663 164.724 70.9503 164.532 72.7486Z" fill="#DB8752"/>
<g opacity="0.4">
<path d="M164.533 72.7491C164.207 75.7723 161.199 84.9245 159.766 88.7135C158.337 92.5025 157.151 93.9513 154.372 94.1906C153.343 94.2771 152.436 93.1934 152.059 91.7994C152.876 91.7093 153.677 91.5011 154.372 91.1006C157.399 89.365 161.989 74.0213 162.016 70.8448C162.024 70.099 162.051 69.443 162.095 68.8737C163.704 69.2664 164.725 70.9508 164.533 72.7491Z" fill="black"/>
</g>
<path d="M173.807 102.895C170.328 104.923 156.832 105.643 156.241 105.674C156.226 105.675 156.213 105.676 156.198 105.678C153.629 106.039 151.501 105.779 149.907 105.062C146.656 103.596 145.65 100.21 147.731 96.2407C147.76 96.1863 147.796 96.1344 147.839 96.0897C148.685 95.1928 149.763 94.5116 151.199 94.1708C152.746 93.8018 157.631 93.1777 162.582 92.6006C167.863 91.9814 173.221 91.4136 174.687 91.2596C174.931 91.234 175.165 91.3542 175.285 91.5677C176.172 93.1428 179.373 99.6483 173.807 102.895Z" fill="#363E4F"/>
<g opacity="0.3">
<path d="M173.807 102.895C170.25 104.968 156.222 105.675 156.222 105.675C153.642 106.04 151.506 105.781 149.908 105.062C149.959 103.841 149.99 102.624 150.006 101.403C150.01 101.097 150.022 100.763 150.222 100.535C150.438 100.288 150.796 100.245 151.121 100.217C154.42 99.9428 157.737 99.9071 161.039 100.119C161.071 98.4936 160.866 96.8644 160.438 95.2979C162.237 96.4248 163.878 97.8026 165.303 99.3732C164.965 96.9388 164.019 94.5949 162.582 92.6005C168.778 91.8742 175.08 91.2181 175.08 91.2181C175.08 91.2181 180.168 99.1846 173.807 102.895Z" fill="black"/>
</g>
<path d="M150.138 132.228C150.162 132.385 148.352 132.817 145.882 133.324C140.668 134.388 132.509 135.778 132.415 135.585C132.363 135.483 132.199 135.094 132.179 134.541C132.14 133.591 132.509 132.142 134.519 130.78C137.715 128.62 140.786 122.974 141.092 122.927C141.858 122.817 142.698 122.876 143.546 123.033C146.479 123.583 149.443 125.326 149.443 125.326C149.443 125.326 149.781 128.781 149.989 130.807C150.063 131.545 150.118 132.099 150.138 132.228Z" fill="#65A9DF"/>
<g opacity="0.3">
<path d="M149.99 130.808C150.063 131.547 150.121 132.1 150.14 132.229C150.21 132.717 132.555 135.868 132.416 135.586C132.363 135.483 132.2 135.094 132.18 134.54C136.338 133.816 145.855 131.724 149.99 130.808Z" fill="black"/>
</g>
<g opacity="0.3">
<path d="M150.138 132.228C150.161 132.386 148.351 132.817 145.882 133.324C146.22 129.767 145.383 126.092 143.545 123.033C146.478 123.583 149.443 125.326 149.443 125.326C149.443 125.326 149.78 128.781 149.989 130.807C150.063 131.545 150.118 132.099 150.138 132.228Z" fill="black"/>
</g>
<path d="M156.323 105.533C156.323 105.533 150.677 127.088 150.21 127.155C149.727 127.226 148.416 126.103 146.437 124.91C145.793 124.521 144.87 124.278 143.944 124.089C142.031 123.708 140.108 123.582 140.575 122.962C141.262 122.043 144.246 104.042 145.278 100.936C145.866 99.1643 146.576 97.4877 147.724 96.2144C147.758 96.1764 147.796 96.1418 147.838 96.1118C151.242 93.6466 156.346 94.1591 156.896 99.9815C157.038 101.474 156.881 103.311 156.323 105.533Z" fill="#363E4F"/>
<g opacity="0.3">
<path d="M156.322 105.533C156.322 105.533 150.676 127.089 150.209 127.156C149.726 127.226 148.415 126.103 146.436 124.909C145.792 124.521 144.869 124.278 143.942 124.089C144.213 123.429 144.445 122.758 144.634 122.071C145.902 122.134 147.162 122.369 148.367 122.766C147.354 121.239 146.055 119.904 144.555 118.855C145.867 118.502 147.315 118.694 148.489 119.377C149.427 113.433 149.934 107.418 150.005 101.403C150.008 101.097 150.02 100.763 150.221 100.535C150.437 100.288 150.794 100.244 151.12 100.217C153.04 100.056 154.967 99.9777 156.895 99.9815C157.037 101.474 156.88 103.311 156.322 105.533Z" fill="black"/>
</g>
<path d="M187.863 100.496C186.074 102.281 174.668 109.699 173.685 111.112C173.654 111.157 173.619 111.202 173.576 111.236C171.168 113.157 168.964 113.987 167.093 114.069C162.872 114.258 160.371 110.63 161.188 107.163C161.608 105.369 167.466 100.194 171.549 96.8602C173.332 95.4034 174.777 94.2961 175.283 93.9782C182.708 89.2785 188.923 92.0075 189.379 93.3737C189.83 94.7361 189.681 98.678 187.863 100.496Z" fill="#363E4F"/>
<g opacity="0.3">
<path d="M187.863 100.496C186.041 102.314 174.25 109.97 173.642 111.183C171.207 113.142 168.981 113.987 167.093 114.069C167.093 113.535 167.088 113.005 167.088 112.471C167.088 112.067 167.089 111.655 167.238 111.278C167.383 110.901 167.666 110.598 167.944 110.308C170.799 107.312 173.995 104.646 177.45 102.369C176.292 102.125 175.133 101.882 173.979 101.638C177.089 100.213 180.45 99.3457 183.862 99.0827C179.971 97.5042 175.75 96.7463 171.549 96.8602C173.331 95.4034 174.776 94.2961 175.283 93.9782C182.707 89.2785 188.923 92.0075 189.378 93.3737C189.83 94.7361 189.68 98.6784 187.863 100.496Z" fill="black"/>
</g>
<path d="M173.644 111.057C173.644 111.122 173.636 111.191 173.615 111.253C173.038 112.964 173.011 130.682 173.011 132.174C173.011 133.69 171.644 134.294 171.189 134.447C170.734 134.596 167.553 131.109 165.127 129.9C163.066 128.868 161.224 130.356 160.718 130.175H160.714C160.627 130.14 160.58 130.057 160.58 129.9C160.58 128.846 160.58 110.07 161.173 107.233C161.184 107.185 161.199 107.139 161.22 107.094C163.272 102.617 169.636 101.908 172.371 106.154C173.156 107.37 173.643 108.997 173.644 111.057Z" fill="#363E4F"/>
<g opacity="0.3">
<path d="M173.641 111.183C173.037 112.397 173.009 130.658 173.009 132.173C173.009 133.689 171.643 134.293 171.187 134.447C170.732 134.596 167.552 131.109 165.125 129.9C163.064 128.868 161.222 130.356 160.716 130.175C161.788 128.675 162.644 126.948 164.32 126.288C166.456 125.444 168.784 126.767 170.697 128.035C168.953 125.817 166.48 124.183 163.755 123.449C164.481 122.412 166.095 122.149 167.116 122.899C167.108 119.425 167.1 115.946 167.088 112.471C167.088 112.067 167.088 111.655 167.238 111.278C167.383 110.901 167.665 110.598 167.944 110.308C169.338 108.843 170.818 107.457 172.369 106.154C173.17 107.394 173.661 109.063 173.641 111.183Z" fill="black"/>
</g>
<path d="M171.909 137.392C171.909 138.408 171.889 139.147 171.889 139.147L166.043 139.544L155.548 140.254C155.548 140.254 154.994 139.7 154.994 138.683C154.994 138.487 155.026 138.326 155.096 138.169C155.379 137.513 156.322 137.007 158.41 134.993C160.994 132.5 162.061 128.825 162.654 128.53C162.984 128.365 163.322 128.239 163.664 128.157C167.484 127.203 171.63 131.11 171.799 133.144C171.901 134.381 171.917 136.108 171.909 137.392Z" fill="#65A9DF"/>
<g opacity="0.3">
<path d="M171.908 137.392C171.908 138.408 171.889 139.147 171.889 139.147L155.548 140.254C155.548 140.254 154.994 139.7 154.994 138.683C154.994 138.487 155.025 138.326 155.096 138.169L171.908 137.392Z" fill="black"/>
</g>
<g opacity="0.3">
<path d="M171.908 137.392C171.908 138.408 171.888 139.147 171.888 139.147L166.042 139.543C167.13 136.049 166.51 132.048 164.374 129.068C164.15 128.758 163.91 128.455 163.663 128.157C167.483 127.203 171.63 131.109 171.798 133.143C171.9 134.38 171.916 136.108 171.908 137.392Z" fill="black"/>
</g>
<path d="M189.301 97.7282C189.097 97.6102 188.877 97.4806 188.637 97.3393C186.246 95.9611 182.147 93.8607 175.296 95.133C167.766 96.527 166.56 92.2274 166.458 91.7878C166.356 91.3519 166.619 90.4802 167.023 89.2316C167.424 87.9868 166.242 83.8721 164.142 80.7782C162.041 77.6844 158.743 74.4057 158.523 72.9531C158.303 71.5042 159.116 67.8919 163.521 66.6042C165.48 66.0308 167.475 65.5912 169.442 65.4578C173.109 65.2065 176.682 66.0117 179.772 68.9642C189.89 78.6309 191.566 91.5796 189.301 97.7282Z" fill="#F7BC4B"/>
<g opacity="0.3">
<path d="M188.637 97.3393C186.246 95.9611 182.147 93.8603 175.296 95.1326C167.765 96.5266 166.56 92.227 166.458 91.7874C166.355 91.3515 166.619 90.4802 167.023 89.2316C167.424 87.9868 166.242 83.872 164.141 80.7782C162.041 77.6844 158.743 74.4057 158.523 72.9531C158.303 71.5042 159.116 67.8919 163.521 66.6042C165.48 66.0308 167.475 65.5912 169.442 65.4578C169.775 67.2129 169.249 69.0818 168.609 70.7858C167.871 72.7412 166.96 74.7119 166.996 76.8048C167.031 78.7759 167.906 80.6249 168.821 82.3721C169.54 83.7383 170.294 85.0891 171.083 86.4162C171.381 86.9148 171.719 87.445 172.257 87.661C172.932 87.9319 173.701 87.6215 174.302 87.2094C176.929 85.4111 177.773 81.952 178.115 78.7875C178.362 76.4907 178.452 74.1742 178.382 71.8657C181.052 76.8089 182.206 82.5607 181.645 88.1517C183.211 87.4213 184.687 86.4988 186.034 85.4152C185.245 87.1977 184.181 88.8543 182.889 90.3111H186.572C186.548 90.9393 185.645 91.0573 185.233 91.5285C184.609 92.2469 185.339 93.3148 186.034 93.9625C186.623 94.5081 187.212 95.0582 187.797 95.6079C188.095 95.8826 188.398 96.1692 188.539 96.5461C188.633 96.8012 188.645 97.0684 188.637 97.3393Z" fill="black"/>
</g>
<path d="M161.893 66.029L163.545 69.0785C163.545 69.0785 162.952 69.7879 163.014 70.0592C163.077 70.3305 165.973 69.756 167.485 68.9297C168.998 68.1035 170.107 66.7644 170.107 66.7644L168.304 66.3296L166.194 62.9371L161.893 66.029Z" fill="#DB8752"/>
<g opacity="0.4">
<path d="M161.893 66.029L163.545 69.0785C163.545 69.0785 162.952 69.7879 163.014 70.0592C163.077 70.3305 165.973 69.756 167.485 68.9297C168.998 68.1035 170.107 66.7644 170.107 66.7644L168.304 66.3296L166.194 62.9371L161.893 66.029Z" fill="black"/>
</g>
<path d="M169.542 66.7455C169.539 66.7571 168.07 70.9271 165.675 73.7421C165.62 73.809 165.526 73.8285 165.443 73.7932C165.408 73.7774 163.398 72.8313 162.404 69.3486C162.373 69.2427 162.432 69.1367 162.538 69.1051C162.644 69.0736 162.75 69.1367 162.781 69.2389C163.582 72.046 165.043 73.1022 165.479 73.3615C167.462 70.9782 168.804 67.6056 169.107 66.7966C169.15 66.679 169.173 66.6159 169.173 66.6159C169.209 66.5137 169.322 66.4588 169.424 66.4941C169.527 66.5294 169.581 66.6433 169.542 66.7455Z" fill="#363E4F"/>
<path d="M165.992 74.3121C165.992 74.7735 165.755 75.1474 165.464 75.1474C165.172 75.1474 164.936 74.7735 164.936 74.3121C164.936 73.8507 165.172 73.4769 165.464 73.4769C165.755 73.4769 165.992 73.8507 165.992 74.3121Z" fill="#65A9DF"/>
<path d="M167.716 64.9355C167.578 67.8881 164.186 70.3932 160.86 70.5581C160.739 70.566 160.621 70.5698 160.499 70.5698C157.06 70.566 156.691 69.0386 155.678 65.3203C154.669 61.6061 153.357 57.4087 153.75 56.9966C156.031 54.6016 159.282 53.7536 161.956 53.879C164.328 53.9929 166.243 54.8729 166.616 56.1252C167.41 58.7832 167.716 64.9355 167.716 64.9355Z" fill="#DB8752"/>
<g opacity="0.1">
<path d="M167.716 64.9355C167.578 67.8881 164.186 70.3932 160.86 70.5581C160.739 70.566 160.621 70.5698 160.499 70.5698C157.06 70.566 156.691 69.0386 155.678 65.3203C154.669 61.6061 153.357 57.4087 153.75 56.9966C156.031 54.6016 159.282 53.7536 161.956 53.879C164.328 53.9929 166.243 54.8729 166.616 56.1252C167.41 58.7832 167.716 64.9355 167.716 64.9355Z" fill="black"/>
</g>
<g opacity="0.3">
<path d="M167.717 64.9356C167.579 67.8881 164.187 70.3932 160.862 70.5582C163.155 69.6906 164.313 67.2483 164.038 63.9031C163.806 61.1192 162.829 57.0789 161.957 53.8791C164.329 53.9929 166.245 54.8725 166.618 56.1249C167.411 58.7829 167.717 64.9356 167.717 64.9356Z" fill="black"/>
</g>
<path d="M169.589 56.6277C169.461 59.3589 168.431 62.4603 168.353 62.6917C168.351 62.6992 168.343 62.7026 168.335 62.6989C168.134 62.5985 165.749 61.3856 165.023 59.9608C164.303 58.5496 164.285 56.4281 164.285 56.2234C164.285 56.2147 164.277 56.2102 164.269 56.2128C163.974 56.3139 159.61 57.7981 158.745 57.7034C157.87 57.6132 159.2 56.3331 159.263 56.2741C159.052 56.3447 151.505 58.9129 150.566 58.3395C150.347 58.2061 150.217 57.8327 150.217 57.3145C150.214 55.5752 151.682 52.1752 156.26 50.5223C162.002 48.4474 164.736 51.3884 164.915 51.5909C164.922 51.598 164.931 51.6006 164.94 51.5988C165.161 51.5514 167.818 51.0438 169.146 53.624C169.546 54.3976 169.648 55.4813 169.589 56.6277Z" fill="#363E4F"/>
<g opacity="0.3">
<path d="M169.589 56.6276C169.456 59.4663 168.348 62.7055 168.348 62.7055C168.348 62.7055 165.781 61.449 165.023 59.9611C164.265 58.4769 164.285 56.2075 164.285 56.2075C164.285 56.2075 159.64 57.8014 158.745 57.7033C157.869 57.6131 159.2 56.3334 159.263 56.2744C159.051 56.345 151.504 58.9128 150.566 58.3394C150.346 58.206 150.217 57.8329 150.217 57.3148C154.32 57.2167 163.287 52.8033 163.287 52.8033L162.954 54.3269L166.621 53.4236C166.621 53.4236 166.44 56.7061 169.589 56.6276Z" fill="black"/>
</g>
<path d="M166.893 61.9856C166.893 61.9856 167.239 58.1155 169.654 58.6269C172.07 59.1383 171.252 64.0443 167.34 64.1938L166.893 61.9856Z" fill="#DB8752"/>
<g opacity="0.3">
<path d="M166.893 61.9856C166.893 61.9856 167.107 58.876 169.542 59.2818C171.333 59.5801 170.906 63.9282 167.34 64.1938L166.893 61.9856Z" fill="black"/>
</g>
<path d="M156.695 61.656C156.258 61.9315 156.685 63.2007 157.281 63.0095C157.877 62.8182 157.579 61.0996 156.695 61.656Z" fill="#363E4F"/>
<path d="M155.827 60.5127C155.827 60.5127 156.281 59.7308 157.183 59.7928C157.183 59.7928 156.233 59.0924 155.827 60.5127Z" fill="#363E4F"/>
<path d="M161.101 60.9527C161.501 60.958 162.135 62.1198 161.267 62.5004C160.399 62.881 160.02 60.9381 161.101 60.9527Z" fill="#363E4F"/>
<path d="M161.608 59.6992C161.608 59.6992 160.9 58.9771 160.102 59.4076C160.102 59.4076 160.805 58.4597 161.608 59.6992Z" fill="#363E4F"/>
<path d="M177.978 85.4847C176.691 90.8513 175.982 93.4958 172.394 92.6012C172.227 92.5576 172.068 92.5095 171.92 92.4531C168.909 91.2932 169.905 87.1462 170.23 86.4206C170.574 85.6549 170.22 69.2028 174.019 68.4573C175.087 68.245 175.938 68.5614 176.605 69.2433C179.374 72.0606 179.014 81.167 177.978 85.4847Z" fill="#DB8752"/>
<g opacity="0.3">
<path d="M177.977 85.4846C176.69 90.8513 175.981 93.4958 172.393 92.6011C172.226 92.5575 172.066 92.5094 171.918 92.4531C172.017 91.309 172.236 90.293 172.589 89.5779C174.714 85.2671 176.743 75.1672 176.604 69.2429C179.373 72.0602 179.013 81.167 177.977 85.4846Z" fill="black"/>
</g>
<path d="M158.004 76.42C158.004 76.42 158.848 86.2633 158.621 88.6624C158.393 91.0615 156.724 94.8343 154.258 94.0373C153.308 93.7311 152.621 93.1303 152.162 92.4119C151.42 91.2655 151.263 89.8245 151.545 88.7999C152.009 87.1275 155.004 76.1375 155.004 76.1375C155.004 76.1375 154.031 73.8838 153.626 73.2635C153.218 72.6394 154.054 69.7728 154.631 69.4429C155.208 69.113 156.543 68.516 156.543 68.516L158.797 69.981C158.797 69.981 159.339 70.9902 159.822 71.9638C160.234 72.7844 160.603 73.5851 160.58 73.7384C160.525 74.0762 158.004 76.42 158.004 76.42Z" fill="#DB8752"/>
<g opacity="0.3">
<path d="M158.004 76.4199C158.004 76.4199 158.848 86.2632 158.621 88.6623C158.393 91.0614 156.724 94.8342 154.259 94.0372C153.308 93.731 152.622 93.1302 152.162 92.4118C153.207 92.1172 154.635 91.3319 155.173 89.2C156.069 85.674 156.167 75.6936 156.167 75.6936C156.167 75.6936 158.849 73.3614 158.947 72.0696C158.947 72.0696 159.296 72.0264 159.822 71.9637C160.234 72.7843 160.603 73.585 160.58 73.7383C160.525 74.0761 158.004 76.4199 158.004 76.4199Z" fill="black"/>
</g>
<g opacity="0.3">
<path d="M154.899 71.7277C155.261 72.1654 155.713 71.8656 155.965 71.5466C156.217 71.2276 156.564 69.9088 156.564 69.9088L158.535 70.8218C158.535 70.8218 158.883 72.0448 158.536 72.5164C158.189 72.9879 157.118 72.5836 157.118 72.5836C157.118 72.5836 155.861 73.0698 155.528 72.7557C155.195 72.4416 154.899 71.7277 154.899 71.7277Z" fill="black"/>
</g>
<path d="M171.815 93.2325C168.026 93.0126 166.546 91.3714 164.43 87.4607C162.317 83.55 159.671 77.3428 159.671 77.3428C159.671 77.3428 158.269 76.7815 157.786 75.7448C157.299 74.7044 156.679 71.3118 156.679 71.3118C156.679 71.3118 154.732 70.3657 154.437 69.447C154.158 68.5753 157.331 70.0986 157.645 70.2519C157.374 70.0557 154.838 68.2571 155.014 67.6683C155.199 67.0517 158.615 69.3839 158.615 69.3839C158.615 69.3839 156.428 66.6827 156.608 66.396C156.777 66.1251 160.024 68.1864 160.421 68.4378C160.177 68.2571 158.866 67.2678 158.685 66.4903C158.489 65.6344 162.18 67.7389 162.541 68.2296C162.902 68.7245 162.804 75.1872 162.804 75.1872C163.742 76.4005 172.353 86.5105 173.927 88.568C174.029 88.7014 174.123 88.8348 174.21 88.9723C175.497 90.9746 175.364 93.4406 171.815 93.2325Z" fill="#DB8752"/>
<g opacity="0.3">
<path d="M171.814 93.2325C168.026 93.0127 166.545 91.3715 164.429 87.4608C162.317 83.5501 159.671 77.3429 159.671 77.3429C159.671 77.3429 158.269 76.7815 157.786 75.7448C157.299 74.7044 156.679 71.3119 156.679 71.3119C156.679 71.3119 154.731 70.3658 154.437 69.4471L157.994 71.5321C157.994 71.5321 159.038 71.9206 159.427 71.8578C159.816 71.7909 160.271 71.0098 160.271 71.0098C160.271 71.0098 160.923 71.2059 160.99 71.0098C161.053 70.8136 161.445 69.8397 161.445 69.8397L161.901 69.9025L162.289 75.2384C162.289 75.2384 161.575 77.0599 162.356 79.4669C163.067 81.6537 168.614 91.5871 174.209 88.9724C175.497 90.9747 175.364 93.4407 171.814 93.2325Z" fill="black"/>
</g>
<path d="M64.3608 58.7641C64.2075 59.7144 63.9997 60.6879 63.4696 61.4928C62.8924 62.3682 61.9813 62.9653 61.0979 63.5345C56.9948 66.1846 52.8842 68.8388 48.5144 71.0219C48.1255 71.218 47.7253 71.4104 47.3169 71.5558L44.2268 77.0292L43.948 71.1632C43.5084 70.8806 43.0921 70.5312 42.6957 70.1896C38.785 66.758 35.3613 62.7767 32.55 58.3989C32.2084 57.865 31.8707 57.3194 31.6666 56.7186C31.109 55.1089 31.5528 53.3302 32.1495 51.7359C33.2763 48.6932 34.9491 45.8582 37.0574 43.3964C37.6228 42.7366 38.2274 42.0967 38.9616 41.6413C40.3357 40.7854 42.0201 40.6441 43.6339 40.5618C46.2333 40.4284 60.3325 42.4345 61.8246 43.0549C62.3232 43.263 62.8376 43.4791 63.1987 43.8755C63.603 44.3151 63.7679 44.9197 63.9013 45.5009C64.9222 49.8354 65.0792 54.3669 64.3608 58.7641Z" fill="#ED4A2F"/>
<path d="M40.8087 63.1854C41.3291 61.2518 42.5108 59.5414 43.9559 58.1553C45.401 56.7692 47.1061 55.6837 48.8495 54.6989C50.4055 53.8201 52.0136 53.0088 53.7285 52.5061C54.2421 52.3554 54.7715 52.2326 55.3066 52.2495C55.9724 52.2709 56.6115 52.5076 57.2262 52.7646C57.9909 53.084 58.7604 53.4526 59.3289 54.0553C60.5425 55.3418 60.5286 57.4501 59.6915 59.0083C58.8543 60.5665 57.36 61.6617 55.8184 62.5286C54.8031 63.0993 53.7255 63.6013 52.5723 63.7666C51.4192 63.932 50.1732 63.7257 49.2617 63.0005C48.8942 62.7082 48.5918 62.3426 48.3171 61.9616C46.8393 59.9119 46.1141 57.3317 46.3076 54.8124C46.5011 52.2931 47.6115 49.8538 49.3849 48.054C50.5892 46.8317 52.2222 45.869 53.9314 46.0193C55.5411 46.1606 56.8922 47.2386 58.1359 48.2704C58.5068 48.5781 58.899 48.9189 59.0121 49.3871C59.0997 49.7497 59.0039 50.1296 59.0189 50.5023C59.0535 51.3567 59.6671 52.1661 59.4762 52.9998C59.3792 53.4225 59.0873 53.7712 58.7905 54.0872C56.725 56.2868 53.9385 57.798 50.9683 58.3297C50.2052 58.4665 49.4323 58.5401 48.6605 58.6137C46.385 58.8305 44.0359 59.0402 41.8574 58.3485C41.0214 58.0832 40.2075 57.6733 39.6221 57.0199C39.0367 56.3664 38.7113 55.4399 38.9285 54.59C39.0856 53.9756 39.5011 53.4594 39.9573 53.0186C40.6794 52.3205 41.5316 51.758 42.4574 51.3684C43.0951 51.1001 43.7646 50.9137 44.4376 50.754C46.1175 50.355 47.8591 50.1149 49.5724 50.3298C51.2858 50.5447 52.9785 51.2493 54.1542 52.514C54.5938 52.9867 54.9542 53.5277 55.2765 54.0868C55.6241 54.6899 55.9345 55.3324 56.0194 56.0234C56.1084 56.7463 55.9439 57.4801 55.6823 58.1598C54.4973 61.2402 51.3193 63.2823 48.0421 63.6704C46.9832 63.7959 45.7636 63.7073 45.076 62.8923C44.4537 62.1547 44.4842 61.0854 44.5473 60.1227C44.6198 59.0169 44.7062 57.8649 45.268 56.9098C45.5441 56.4401 45.9244 56.0396 46.3264 55.6717C47.1271 54.9394 48.0492 54.3085 49.0941 54.0154C50.1391 53.7224 51.32 53.7998 52.2293 54.3919C53.1386 54.9841 53.7026 56.1384 53.4441 57.1923C53.2596 57.9438 52.7102 58.5487 52.1346 59.0658C51.2039 59.9018 50.0436 60.6318 48.7958 60.5417C47.7076 60.4631 46.7578 59.771 46.0033 58.9827C44.7228 57.6447 43.8187 55.9494 43.4212 54.1402C43.2052 53.1573 43.1428 52.1003 43.5249 51.1692C43.8826 50.2979 44.5898 49.6257 45.2826 48.9877C46.6638 47.7154 48.1781 46.4135 50.0335 46.1227" stroke="#F7BC4B" stroke-miterlimit="10"/>
<path d="M211.616 136.032L211.035 134.305C211.554 133.18 211.999 132.113 212.377 131.096C216.101 121.155 213.62 116.295 213.397 113.52C213.148 110.467 217.629 111.661 217.244 119.929C217.24 119.982 217.239 120.039 217.236 120.092C216.786 128.301 211.616 136.032 211.616 136.032Z" fill="#A36140"/>
<g opacity="0.3">
<path d="M211.705 136.035L211.103 134.303C211.647 133.173 212.114 132.101 212.512 131.079C213.12 130.563 213.922 129.593 214.891 127.767C216.33 125.049 217.195 121.874 217.614 120.025C217.124 128.267 211.705 136.035 211.705 136.035Z" fill="black"/>
</g>
<path d="M193.502 124.71C193.365 124.989 191.405 138.632 191.056 139.123C190.812 139.465 189.179 139.638 188.162 139.449C187.715 139.37 187.389 139.221 187.346 138.986C187.204 138.212 188.394 137.442 188.327 136.814C188.272 136.316 187.907 126.053 187.895 121.541C187.895 120.363 187.915 119.578 187.974 119.46C187.974 119.46 193.643 124.431 193.502 124.71Z" fill="#A36140"/>
<g opacity="0.4">
<path d="M193.502 124.71C193.365 124.989 191.405 138.632 191.056 139.123C190.812 139.465 189.179 139.638 188.162 139.449C188.881 139.072 189.529 138.593 189.933 137.898C190.404 137.089 190.467 136.12 190.51 135.185C190.632 132.727 190.703 130.25 190.326 127.819C189.98 125.582 189.231 123.367 187.896 121.541C187.896 120.363 187.915 119.578 187.974 119.46C187.974 119.46 193.644 124.431 193.502 124.71Z" fill="black"/>
</g>
<path d="M208.967 138.079C203.788 139.206 198.052 138.676 195.111 134.302C192.174 129.928 187.486 119.064 187.486 119.064L197.007 115.153L198.609 114.493C198.609 114.493 204.208 122.578 207.569 126.418C209.096 128.169 210.596 130.509 211.291 132.645C212.116 135.201 211.79 137.466 208.967 138.079Z" fill="#A36140"/>
<g opacity="0.3">
<path d="M208.967 138.079C203.788 139.205 198.052 138.676 195.111 134.302C192.174 129.928 187.486 119.064 187.486 119.064L197.007 115.153C197.172 116.814 194.22 117.484 194.381 119.145C194.491 120.26 194.601 121.383 194.939 122.451C195.995 125.812 202.217 129.095 205.39 130.63C207.262 131.537 209.254 132.264 211.291 132.645C212.116 135.201 211.79 137.466 208.967 138.079Z" fill="black"/>
</g>
<path d="M191.243 104.704C191.243 104.704 190.137 100.04 188.826 99.5509C187.515 99.0615 187.057 105.92 187.057 105.92L191.243 104.704Z" fill="#A36140"/>
<g opacity="0.3">
<path d="M190.629 104.752C190.629 104.752 190.101 100.787 188.798 100.298C187.494 99.8101 187.076 105.868 187.076 105.868L190.629 104.752Z" fill="black"/>
</g>
<path d="M196.514 114.441C196.514 114.441 194.168 117.909 189.981 119.169C185.793 120.428 182.537 120.174 181.977 117.762C181.62 116.219 181.825 114.987 182.155 114.145C182.343 113.672 182.572 113.32 182.758 113.11C183.277 112.528 186.09 111.806 186.09 111.806C186.09 111.806 187.117 106.624 187.819 105.578C188.52 104.528 192.693 103.137 196.137 104.555C196.137 104.555 197.544 99.6701 197.99 98.8131C198.433 97.9516 199.829 100.48 199.27 103.783C199.051 105.077 198.58 106.989 198.088 108.841C197.328 111.716 196.514 114.441 196.514 114.441Z" fill="#A36140"/>
<g opacity="0.3">
<path d="M197.924 114.105C197.924 114.105 195.353 117.769 190.796 119.102C186.238 120.435 182.701 120.171 182.109 117.625C181.731 115.996 181.961 114.696 182.324 113.806C182.594 114.762 183.382 115.306 184.203 115.607C185.599 116.122 187.22 116.143 188.878 115.678C190.453 115.235 192.035 114.367 193.595 113.502C194.281 113.123 194.968 112.744 195.632 112.273C197.128 111.221 198.449 109.775 199.67 108.193C198.826 111.229 197.924 114.105 197.924 114.105Z" fill="black"/>
</g>
<path d="M183.219 111.89C181.977 111.956 181.399 111.955 181.382 112.85C181.364 113.745 182.175 114.916 183.398 113.962C184.62 113.007 185.156 111.786 183.219 111.89Z" fill="#363E4F"/>
<path d="M192.519 110.689C192.398 111.141 192.105 111.496 191.865 111.482C191.625 111.468 191.529 111.09 191.651 110.638C191.772 110.185 192.065 109.83 192.305 109.845C192.546 109.859 192.641 110.237 192.519 110.689Z" fill="#363E4F"/>
<path d="M192.114 107.653C192.114 107.653 193.67 107.109 193.802 108.78C193.802 108.78 193.263 107.86 192.114 107.653Z" fill="#363E4F"/>
<path d="M187.352 110.173C187.265 110.625 187.395 110.976 187.643 110.957C187.891 110.939 188.163 110.557 188.25 110.105C188.338 109.652 188.208 109.301 187.96 109.32C187.712 109.339 187.44 109.72 187.352 110.173Z" fill="#363E4F"/>
<path d="M188.413 107.01C188.413 107.01 187.148 106.507 186.194 108.15C186.194 108.15 187.178 107.236 188.413 107.01Z" fill="#363E4F"/>
<path d="M187.673 119.766C187.673 119.766 194.259 119.433 199.002 113.686C199.002 113.686 199.304 116.894 194.475 119.22C189.645 121.546 187.673 119.766 187.673 119.766Z" fill="#F7BC4B"/>
<path d="M190.538 119.101C190.538 119.101 189.177 121.604 189.075 121.78C188.974 121.955 190.48 122.059 190.48 122.059C190.48 122.059 191.267 118.48 190.538 119.101Z" fill="#F7BC4B"/>
<path d="M191.322 118.953C190.814 119.375 191.479 121.886 191.479 121.886L192.982 121.012C192.982 121.012 191.926 118.453 191.322 118.953Z" fill="#F7BC4B"/>
<path d="M199.941 124.78C199.87 125.829 198.68 138.844 197.703 139.194C197.106 139.406 195.74 139.488 194.774 139.382C194.146 139.312 193.686 139.162 193.714 138.915C193.784 138.283 194.833 137.513 194.833 136.744C194.833 135.974 194.334 119.951 194.499 119.955C199.944 120.104 200.008 123.76 199.941 124.78Z" fill="#A36140"/>
<g opacity="0.3">
<path d="M199.94 124.78C199.87 125.829 198.68 138.844 197.702 139.194C197.106 139.406 195.739 139.488 194.773 139.382C195.001 139.151 195.217 138.911 195.433 138.668C196.026 137.996 196.587 137.266 196.878 136.418C197.105 135.746 197.157 135.032 197.204 134.329C197.353 132.068 197.502 129.802 197.404 127.541C197.341 126.131 197.18 124.709 196.713 123.379C196.304 122.228 195.465 120.842 194.499 119.955C199.944 120.104 200.007 123.76 199.94 124.78Z" fill="black"/>
</g>
<path d="M209.949 136.956C209.949 136.956 210.577 139.053 208.268 139.402C206.199 139.72 201.217 139.638 200.247 138.907C200.243 138.911 200.243 138.907 200.243 138.907C200.133 138.825 200.074 138.735 200.082 138.632C200.149 137.655 202.599 137.442 202.599 137.442C202.599 137.442 199.941 135.625 200.011 131.145C200.031 129.9 200.337 128.966 200.773 128.271C201.892 126.469 203.859 126.249 203.859 126.249C203.859 126.249 206.8 125.408 209.175 129.256C209.961 130.529 210.314 131.801 210.428 132.931C210.667 135.228 209.949 136.956 209.949 136.956Z" fill="#A36140"/>
<g opacity="0.3">
<path d="M200.011 131.145C200.03 129.9 200.337 128.966 200.773 128.271C200.997 133.65 206.202 137.128 206.202 137.128L202.598 137.442C202.598 137.442 199.94 135.625 200.011 131.145Z" fill="black"/>
</g>
<g opacity="0.3">
<path d="M209.949 136.956C209.949 136.956 210.577 139.053 208.268 139.402C206.199 139.72 201.216 139.638 200.247 138.907C202.504 139.292 207.341 138.915 208.433 138.271C209.897 137.399 207.997 135.554 207.997 135.554C207.997 135.554 209.804 135.291 210.428 132.931C210.667 135.228 209.949 136.956 209.949 136.956Z" fill="black"/>
</g>
</svg>
