<svg width="826" height="572" viewBox="0 0 826 572" fill="none" xmlns="http://www.w3.org/2000/svg">
<path d="M630 351C616.029 385.037 615.405 478.057 570.277 471.695C517.174 464.207 145.194 439.611 36.7265 472.458C19.162 485.445 -4.21594 516.135 2.03531 571" stroke="#5E28B8" stroke-width="2" stroke-dasharray="12 12"/>
<path d="M613.176 206.452C577.265 202.739 540.871 203.724 505.213 209.374C498.696 210.406 491.458 212.071 487.905 217.63C499.095 219.684 510.452 220.822 521.827 221.03C503.476 224.672 483.628 227.714 466.522 235.291C469.658 236.48 474.696 240.307 477.832 241.496C432.025 254.885 383.385 270.084 353 306.884C401.499 323.834 454.215 322.455 505.567 320.879C485.298 323.056 474.05 325.868 460.392 328.279C548.912 342.553 639.557 348.971 727.92 333.753C732.684 332.932 738.493 330.958 739.036 326.154C739.621 320.973 733.602 317.831 728.644 316.222C711.263 310.582 694.908 309.022 677.729 306.441C706.593 306.364 735.53 306.285 764.205 302.993C776.175 301.619 788.564 299.496 798.381 292.511C799.895 291.434 801.487 289.877 801.188 288.043C800.901 286.278 799.033 285.301 797.389 284.597C791.057 281.882 784.724 279.169 778.392 276.455C792.892 275.352 807.13 270.921 819.696 263.601C810.598 255.555 797.981 253.116 786.004 251.1C751.875 245.355 717.587 240.555 683.193 236.707C701.002 235.588 718.745 233.411 736.297 230.19C707.116 217.305 676.806 206.977 645.829 199.366L613.176 206.452Z" fill="#F7BC4B"/>
<g opacity="0.2">
<path d="M786.956 295.066C783.364 298.658 730.952 297.939 719.467 298.657C707.983 299.375 669.928 295.066 654.134 296.503C638.339 297.939 578.034 299.375 578.034 299.375C578.034 299.375 635.466 314.452 633.311 315.889C632.409 316.49 614.267 317.6 593.403 318.695C564.211 320.231 529.69 321.727 529.69 321.727C529.69 321.727 478.956 312.297 455.978 314.452C433.001 316.607 396.392 310.861 396.392 310.861C396.392 310.861 440.184 286.445 454.542 277.834C455.528 277.241 456.722 276.582 458.092 275.864C476.551 266.158 526.341 246.245 526.341 246.245L485.413 237.625C485.413 237.625 547.288 219.827 580.907 217.53C580.907 217.53 593.111 215.375 611.879 218.072C630.646 220.77 689.148 233.332 689.148 233.332L658.444 239.78C658.444 239.78 733.825 259.166 739.689 258.056C745.553 256.945 790.548 291.474 786.956 295.066Z" fill="black"/>
</g>
<path d="M643.171 250.384C635.128 249.961 622.857 254.375 622.857 254.375C622.857 254.375 629.75 258.728 642.809 259.091C655.868 259.453 667.113 255.826 667.113 255.826C667.113 255.826 656.955 251.11 643.171 250.384Z" fill="#F7BC4B"/>
<path d="M557.429 255.916C548.342 255.483 543.645 260.269 543.645 260.269C543.645 260.269 553.801 263.171 561.056 262.083C568.311 260.995 572.664 256.642 557.429 255.916Z" fill="#F7BC4B"/>
<path d="M600.367 268.254C593.686 267.97 590.821 272.196 599.564 271.97C608.308 271.743 609.119 268.627 600.367 268.254Z" fill="#F7BC4B"/>
<g opacity="0.3">
<path d="M593.403 318.695C564.211 320.231 529.689 321.726 529.689 321.726C529.689 321.726 478.956 312.297 455.979 314.452C433.001 316.607 396.392 310.86 396.392 310.86C396.392 310.86 440.184 286.445 454.542 277.834C455.528 277.241 456.722 276.582 458.092 275.863C476.393 278.895 500.063 282.695 503.028 282.536C507.939 282.277 589.553 303.459 591.357 305.782C592.317 307.009 592.985 313.165 593.403 318.695Z" fill="black"/>
</g>
<g opacity="0.3">
<path d="M677.701 284.614L712.919 260.007L716.539 274.251L724.743 299.576L753.003 271.065L704.165 248.028L672.7 262.483L677.701 284.614Z" fill="black"/>
</g>
<g opacity="0.3">
<path d="M514.17 233.082C514.17 233.082 526.346 237.724 528.47 237.724C530.594 237.724 543.575 237.488 543.575 237.488L534.325 240.784C534.325 240.784 546.171 247.637 548.768 247.637C551.364 247.637 580.395 248.581 580.395 248.581C580.395 248.581 596.209 251.177 597.389 250.941C598.568 250.706 621.463 243.625 621.463 243.625L626.183 233.004C626.183 233.004 637.041 233.712 639.873 233.24C642.705 232.767 654.506 228.284 654.506 228.284C654.506 228.284 600.142 213.86 584.892 213.86C569.641 213.86 514.17 233.082 514.17 233.082Z" fill="black"/>
</g>
<path d="M634.699 197.631C633.808 192.545 634.977 187.333 636.432 182.38C637.076 180.188 637.789 177.986 639.019 176.062C640.256 174.128 641.965 172.55 643.654 170.996C646.502 168.376 649.351 165.757 652.199 163.137C647.142 172.59 642.085 182.042 637.028 191.495C641.407 187.662 645.994 184.068 650.761 180.732C649.624 187.356 645.179 193.328 639.16 196.319C641.348 195.157 643.536 193.994 645.724 192.832C649.916 190.606 654.292 188.328 659.034 188.142C657.75 193.754 653.71 198.511 648.727 201.392C643.743 204.274 637.892 205.408 632.136 205.425L634.699 197.631Z" fill="#363E4F"/>
<path d="M530.353 209.372C531.407 202.769 529.631 195.863 526.008 190.242C522.386 184.622 517.009 180.248 511.016 177.282C516.904 183.435 521.684 190.647 525.058 198.468C516.35 190.42 505.148 185.108 493.406 183.459C499.725 192.867 509.522 199.881 520.464 202.83C514.418 202.032 508.218 201.241 502.274 202.602C509.334 207.674 517.41 213.004 525.992 211.619L530.353 209.372Z" fill="#363E4F"/>
<path d="M628.119 220.607C628.111 220.599 628.102 220.599 628.102 220.599L637.791 234.014L622.515 238.489L602.025 231.034L606.492 243.329L593.076 249.664L578.548 249.291L573.333 235.875C573.333 235.875 547.248 242.209 545.015 242.583C544.285 242.701 542.808 241.919 541.152 240.799C537.704 238.489 533.459 234.762 533.459 234.762L537.933 223.579L528.246 227.306L527.005 227.272L512.969 226.933L514.829 224.326L526.759 197.502C526.759 197.502 524.517 131.177 524.517 129.683C524.517 129.683 554.704 106.951 579.668 107.325C604.633 107.699 631.083 120.741 631.083 120.741L634.064 191.906L656.421 222.84L643.005 223.579L628.119 220.607Z" fill="#ED4A2F"/>
<g opacity="0.3">
<path d="M541.154 240.799L545.017 242.583C544.286 242.701 542.81 241.919 541.154 240.799Z" fill="black"/>
</g>
<g opacity="0.3">
<path d="M545.417 201.026C545.417 202.35 537.935 223.578 537.935 223.578L528.247 227.306L527.007 227.272L527.202 227.187C527.202 227.187 538.462 207.98 539.124 204.999C539.786 202.019 543.761 177.173 543.761 175.187C543.761 173.2 545.748 149.357 545.748 149.357C545.748 149.357 545.417 199.701 545.417 201.026Z" fill="black"/>
</g>
<g opacity="0.3">
<path d="M566.618 223.876C566.618 224.87 573.335 235.874 573.335 235.874C573.335 235.874 547.249 242.209 545.016 242.583C545.016 242.583 556.674 232.155 557.006 229.837C557.337 227.519 563.969 178.829 563.969 178.829C563.969 178.829 566.618 222.882 566.618 223.876Z" fill="black"/>
</g>
<g opacity="0.3">
<path d="M603.709 200.694L622.518 238.489L602.028 231.034L594.437 202.682L593.443 176.18L598.41 197.375V145.051L603.709 200.694Z" fill="black"/>
</g>
<g opacity="0.3">
<path d="M656.42 222.84L643.004 223.579L628.119 220.607C628.111 220.598 628.102 220.598 628.102 220.598L620.596 212.286L617.284 188.433L614.967 148.032L622.583 199.031L636.491 215.928L656.42 222.84Z" fill="black"/>
</g>
<g opacity="0.3">
<path d="M631.085 120.741C631.085 120.741 616.276 134.888 603.301 139.855C590.318 144.814 572.758 145.578 572.758 145.578C535.345 137.945 524.519 129.683 524.519 129.683C524.519 129.683 554.705 106.951 579.67 107.325C604.635 107.699 631.085 120.741 631.085 120.741Z" fill="black"/>
</g>
<path d="M798.677 250.402C798.032 253.433 794.279 259.666 790.662 265.194C786.959 270.841 783.385 275.749 783.385 275.749L762.844 272.692L765.901 284.487L758.913 285.361L750.617 282.312C750.609 282.304 750.608 282.304 750.608 282.304C750.608 282.304 750.608 282.295 750.6 282.287L742.304 270.068L680.25 259.14L663.64 241.223L661.153 230.906L660.584 228.554C660.584 228.554 664.515 216.752 666.264 215.002C668.014 213.262 680.25 205.39 680.25 205.39L779.011 218.067C779.011 218.067 791.248 225.93 792.122 227.68C792.996 229.429 799.994 244.288 798.677 250.402Z" fill="#ED4A2F"/>
<g opacity="0.3">
<path d="M750.599 282.287L742.303 270.068L737.802 269.278L714.978 265.253L701.019 262.799L680.249 259.14L676.75 255.37L663.64 241.223L661.152 230.907C667.375 232.893 675.306 235.339 676.793 235.339C677.132 235.339 678.347 235.467 680.198 235.679C683.255 236.027 688.044 236.63 693.461 237.326C699.932 238.158 707.293 239.117 713.637 239.958C722.34 241.105 729.15 242.021 729.15 242.021L716.337 245.359L733.812 247.923L737.226 248.424L752.263 245.359L742.235 252.322C742.235 252.322 743.908 259.564 743.628 262.07C743.357 264.532 750.345 281.659 750.599 282.287Z" fill="black"/>
</g>
<g opacity="0.3">
<path d="M733.812 247.923C732.929 250.971 732.224 253.485 732.224 253.485L737.803 269.279L714.978 265.254L713.637 239.959L713.196 231.62L756.399 210.536L759.286 215.988C759.286 215.988 738.142 235.484 737.115 237.539C736.521 238.719 735.001 243.805 733.812 247.923Z" fill="black"/>
</g>
<g opacity="0.3">
<path d="M692.113 247.566L701.021 262.799L680.251 259.14L676.753 255.37L680.201 235.679L682.85 220.564L722.198 219.792L693.914 233.937L693.464 237.326L692.113 247.566Z" fill="black"/>
</g>
<g opacity="0.3">
<path d="M783.382 275.75L762.842 272.693L760.057 260.957L773.261 262.783L783.382 275.75Z" fill="black"/>
</g>
<g opacity="0.3">
<path d="M758.689 278.045C757.587 277.311 750.972 280.985 750.972 280.985L750.599 282.287L758.912 285.361L765.9 284.487C765.9 284.487 761.629 279.7 760.894 278.597C760.159 277.494 758.689 278.045 758.689 278.045Z" fill="black"/>
</g>
<g opacity="0.3">
<path d="M798.676 250.402C798.031 253.433 794.278 259.666 790.661 265.194C786.958 270.841 783.383 275.749 783.383 275.749L773.261 262.782L768.133 256.219C768.133 256.219 766.74 243.694 769.245 235.891C771.759 228.096 779.01 218.067 779.01 218.067C779.01 218.067 791.246 225.93 792.121 227.68C792.995 229.429 799.992 244.288 798.676 250.402Z" fill="black"/>
</g>
<path d="M793.086 248.897C792.517 251.997 791.218 254.884 789.647 257.456C788.034 260.021 786.166 262.322 784.34 264.564L784.323 264.589C783.754 265.286 782.736 265.387 782.039 264.827C781.835 264.657 781.682 264.454 781.58 264.225C780.434 261.669 779.016 259.172 777.666 256.489C776.324 253.823 775.263 250.826 774.983 247.735C774.821 246.181 774.958 244.584 775.221 243.098C775.475 241.604 775.899 240.151 776.426 238.75C776.944 237.341 777.581 235.982 778.354 234.717C779.117 233.443 780.053 232.246 781.173 231.295C779.373 233.613 778.439 236.398 777.751 239.149C777.14 241.926 776.766 244.796 777.292 247.428C777.734 250.154 778.88 252.66 780.256 255.139C781.224 256.906 782.336 258.663 783.355 260.522C784.578 258.935 785.75 257.33 786.76 255.674C788.229 253.347 789.359 250.885 789.877 248.286C790.404 245.697 790.335 243.082 789.35 240.653C788.578 238.691 787.381 236.806 786.047 234.947C785.028 236.823 784.399 238.945 784.153 241.128C783.856 243.913 784.187 246.817 785.265 249.534C783.67 247.08 782.812 244.1 782.761 241.077C782.685 238.046 783.449 234.963 784.986 232.238C785.291 231.694 785.97 231.499 786.514 231.804C786.632 231.873 786.744 231.958 786.82 232.06L786.887 232.127C788.747 234.335 790.743 236.628 792.051 239.523C793.375 242.419 793.68 245.832 793.086 248.897Z" fill="black"/>
<path d="M622.805 214.854C626.328 215.354 629.852 215.855 633.375 216.356C633.857 216.424 634.433 216.57 634.574 217.035C634.796 217.773 633.746 218.188 632.976 218.228C631.332 218.314 629.666 218.358 628.057 218.011C626.448 217.664 624.88 216.887 623.87 215.586L622.805 214.854Z" fill="#F7BC4B"/>
<path d="M624.498 213.429C628.164 211.099 632.193 209.34 636.394 208.233C637.053 208.06 637.998 208.06 638.149 208.726C638.258 209.21 637.812 209.629 637.403 209.908C635 211.549 632.158 212.54 629.256 212.749C627.63 212.866 624.498 213.429 624.498 213.429Z" fill="#F7BC4B"/>
<path d="M627.942 199.838C626.04 205.153 622.593 209.755 619.952 214.756C621.412 207.649 623.289 200.347 628.265 195.134C628.893 196.62 628.486 198.318 627.942 199.838Z" fill="#F7BC4B"/>
<path d="M611.974 233.274L611.19 232.944C615.604 222.49 621.75 212.968 629.456 204.638L630.08 205.215C622.44 213.471 616.349 222.911 611.974 233.274Z" fill="#363E4F"/>
<path d="M610.337 238.414C609.663 225.669 611.893 212.78 616.808 201.002C617.636 201.349 617.702 202.479 617.626 203.373C616.76 213.479 614.713 223.482 611.538 233.114C616.05 226.519 620.915 219.617 628.186 216.301C623.998 224.721 616.361 230.827 610.645 238.296" fill="#65A9DF"/>
<path d="M628.439 206.534C629.421 203.425 630.484 199.463 632.509 196.908C635.064 193.684 636.361 191.023 641.177 188.564C641.701 191.146 640.205 193.682 638.612 195.78C636.109 199.078 633.486 202.62 630.257 205.21L628.439 206.534Z" fill="#F7BC4B"/>
<path d="M553.629 236.115C551.362 222.518 544.701 211.529 544.634 211.419L545.358 210.975C545.426 211.086 552.172 222.21 554.466 235.976L553.629 236.115Z" fill="#363E4F"/>
<path d="M555.418 240.815C556.105 241.067 560.139 222.206 556.43 218.046C552.721 213.885 554.039 235.843 554.039 235.843C554.039 235.843 549.66 222.148 545.344 222.029C541.027 221.909 550.801 235.754 550.801 235.754C550.801 235.754 544.037 233.347 536.889 222.728C536.889 222.728 538.717 234.659 555.418 240.815Z" fill="#65A9DF"/>
<path d="M543.093 210.142C543.093 210.142 538.242 204.227 541.91 201.978C545.578 199.73 545.223 208.486 545.223 208.486C545.223 208.486 546.643 203.399 550.902 204.582C555.162 205.765 547.353 210.261 547.353 210.261C547.353 210.261 552.914 208.841 553.151 212.982C553.387 217.123 546.643 213.455 546.643 213.455C546.643 213.455 548.299 218.07 544.158 218.898C540.017 219.726 543.921 213.219 543.921 213.219C543.921 213.219 537.414 215.467 536.704 212.154C535.994 208.841 543.093 210.142 543.093 210.142Z" fill="#F7BC4B"/>
<path d="M586.013 34.673C592.297 27.4124 590.872 15.9225 581.829 11.6372C576.63 9.17777 572.369 9.6174 569.685 10.4332C569.7 7.74364 569.18 3.45589 565.651 3.94803C561.413 4.53433 560.707 9.23681 560.59 10.821C560.632 8.55385 560.384 -0.319105 553.653 1.66869C548.203 3.28799 547.349 13.3885 551.513 20.9539C551.512 20.9621 551.52 20.9716 551.527 20.9892C552.729 23.1525 554.332 25.1032 556.361 26.5933C556.363 32.2222 560.082 36.312 560.082 36.312C559.771 36.3316 559.46 36.3676 559.138 36.4212C552.293 37.6904 544.089 48.6657 555.809 56.1912C556.503 56.6375 557.233 57.0419 558.008 57.4058L558.016 57.4143C565.75 61.0872 577.025 60.8134 584.916 57.61C590.135 55.4894 593.879 52.0937 594.151 47.7239C594.877 36.0621 586.013 34.673 586.013 34.673Z" fill="#363E4F"/>
<g opacity="0.3">
<path d="M589.833 48.8702C589.634 52.0324 587.745 55.0877 584.947 57.5572C577.054 60.7611 565.777 61.0349 558.041 57.3615L558.033 57.353C552.034 50.9871 551.667 42.9322 559.306 36.467C559.258 36.4302 559.21 36.4024 559.162 36.3655C559.484 36.3119 559.796 36.2759 560.107 36.2564C560.107 36.2564 556.388 32.166 556.386 26.5364C554.356 25.0461 552.753 23.0951 551.55 20.9315C551.544 20.9139 551.536 20.9052 551.536 20.897C549.946 16.6263 548.372 10.1889 552.843 8.83139C559.547 6.78187 560.534 18.6742 560.534 18.6742C560.534 18.6742 560.798 10.2113 564.376 9.74776C567.954 9.2842 567.903 14.7484 567.903 14.7484C567.903 14.7484 575.628 8.46752 583.762 17.0592C591.904 25.6513 580.153 38.4677 580.153 38.4677C580.153 38.4677 590.48 38.9648 589.833 48.8702Z" fill="black"/>
</g>
<path d="M616.464 116.81C616.464 116.81 613.391 124.503 609.034 127.321C604.678 130.14 589.3 138.853 566.748 137.061C544.195 135.261 538.294 120.656 538.294 120.656C538.294 120.656 538.302 120.648 538.319 120.631C538.897 120.197 548.384 104.745 572.575 103.098C597.548 101.4 607.352 108.315 616.464 116.81Z" fill="#363E4F"/>
<g opacity="0.5">
<path d="M616.464 116.81C616.464 116.81 613.391 124.503 609.034 127.321C604.678 130.14 589.3 138.853 566.748 137.061C544.195 135.261 538.294 120.656 538.294 120.656C538.294 120.656 538.302 120.648 538.319 120.631C538.897 120.197 548.384 104.745 572.575 103.098C597.548 101.4 607.352 108.315 616.464 116.81Z" fill="black"/>
</g>
<path d="M541.795 71.214C541.795 71.214 540.83 82.1809 554.332 83.7516C554.332 83.7516 557.531 67.9645 541.795 71.214Z" fill="#363E4F"/>
<path d="M545.201 69.0943L538.808 77.9394C538.808 77.9394 534.341 84.0526 540.509 88.7616C546.678 93.4706 556.217 78.3043 556.931 75.8486C557.645 73.393 552.09 62.4294 545.201 69.0943Z" fill="#FFB68D"/>
<g opacity="0.3">
<path d="M545.201 69.0943L538.808 77.9394C538.808 77.9394 534.341 84.0526 540.509 88.7616C546.678 93.4706 556.217 78.3043 556.931 75.8486C557.645 73.393 552.09 62.4294 545.201 69.0943Z" fill="black"/>
</g>
<path d="M564.637 65.1658C560.383 74.5741 554.337 83.7532 554.337 83.7532C553.649 80.0762 551.968 77.4523 550.049 75.5841C546.355 71.9835 541.795 71.2116 541.795 71.2116C541.795 71.2116 554.727 52.2423 561.053 50.2295C562.055 49.9069 563.041 50.0856 563.898 50.6967C566.48 52.4885 567.837 58.1011 564.637 65.1658Z" fill="#65A9DF"/>
<g opacity="0.3">
<path d="M564.636 65.1659C560.382 74.5742 554.335 83.7533 554.335 83.7533C553.648 80.0763 551.966 77.4532 550.047 75.5851L552.459 73.2326C552.459 73.2326 551.677 68.8259 554.012 66.7537C556.339 64.6816 563.854 55.1035 563.854 50.6968C563.854 50.6968 563.872 50.6968 563.897 50.6968C566.479 52.4886 567.836 58.1012 564.636 65.1659Z" fill="black"/>
</g>
<path d="M610.03 69.8416C610.03 69.8416 610.59 79.1897 598.251 81.8071C598.251 81.8071 592.642 68.5325 610.03 69.8416Z" fill="#363E4F"/>
<path d="M610.622 87.0898C609.458 87.1239 608.227 86.8265 607.038 86.1049C601.799 82.9293 595.26 76.383 595.26 76.383L605.17 67.407C605.17 67.407 607.42 69.4539 609.908 72.0778C612.193 74.4636 614.672 77.3337 615.827 79.5667C617.703 83.1755 614.562 87.0044 610.622 87.0898Z" fill="#FFB68D"/>
<g opacity="0.3">
<path d="M610.622 87.0898C609.458 87.1239 608.227 86.8265 607.038 86.1049C601.799 82.9293 595.26 76.383 595.26 76.383L605.17 67.407C605.17 67.407 607.42 69.4539 609.908 72.0778C607.683 72.6718 605.611 73.8696 604.006 75.5338C605.943 79.5334 607.896 83.5663 610.613 87.0816L610.622 87.0898Z" fill="black"/>
</g>
<path d="M610.03 69.844C610.03 69.844 605.546 69.7595 602.073 73.2155C600.281 74.9731 598.761 77.6823 598.252 81.8087C598.252 81.8087 586.474 71.5261 583.672 63.6715C580.861 55.817 582.271 48.675 587.179 49.9151C587.298 49.9403 587.426 49.9833 587.553 50.0345C593.115 52.0473 610.03 69.844 610.03 69.844Z" fill="#65A9DF"/>
<g opacity="0.3">
<path d="M602.073 73.2155C600.281 74.9731 598.761 77.6823 598.252 81.8087C598.252 81.8087 586.474 71.5261 583.672 63.6715C580.861 55.817 582.271 48.675 587.179 49.9151C587.298 49.9403 587.425 49.9833 587.552 50.0345C588.614 52.3187 590.109 55.3326 590.754 56.9034C591.332 58.2873 591.901 59.6809 592.664 60.9713C593.506 62.3982 595.458 65.8452 596.511 67.1186C598.49 69.5214 600.256 71.3985 602.073 73.2155Z" fill="black"/>
</g>
<path d="M608.886 133.651C608.843 133.758 608.788 133.861 608.724 133.956C604.533 140.141 597.405 139.391 588.213 127.806C588.213 127.806 586.778 126.159 584.791 123.884C580.977 119.515 575.123 112.848 573.498 111.198C573.411 111.11 573.342 111.02 573.283 110.911C572.595 109.658 568.799 101.639 581.25 96.703C594.785 91.3447 601.74 106.57 601.74 106.57C601.74 106.57 603.726 110.382 605.688 115.29C608.145 121.471 610.552 129.399 608.886 133.651Z" fill="#363E4F"/>
<g opacity="0.3">
<path d="M605.689 115.29C601.825 114.611 597.766 115.001 594.115 116.47C590.388 117.974 587.127 120.606 584.792 123.884C580.877 119.4 574.815 112.497 573.38 111.079C573.38 111.079 567.716 102.069 581.251 96.703C594.787 91.3447 601.741 106.57 601.741 106.57C601.741 106.57 603.728 110.382 605.689 115.29Z" fill="black"/>
</g>
<path d="M606.062 133.015C604.408 137.004 598.191 145.285 589.147 153.927C588.851 154.205 588.547 154.491 588.251 154.768C577.903 164.471 567.635 173.329 567.635 173.329C567.635 173.329 562.014 180.205 556.897 185.588C553.073 189.608 549.519 192.792 548.776 191.683C547.017 189.099 551.932 178.574 553.015 177.124C554.09 175.674 556.682 173.551 556.682 173.551L553.118 172.373C553.118 172.373 554.664 167.942 555.636 167.989C556.276 168.02 559.157 168.383 561.006 168.628C561.94 168.742 562.617 168.835 562.617 168.835C562.617 168.835 566.994 162.077 571.77 154.455C573.785 151.231 575.869 147.856 577.715 144.77C579.903 141.117 582.257 138.716 583.296 136.62C587.304 128.558 590.864 124.619 590.864 124.619C595.215 118.22 603.015 118.926 605.628 124.822C606.564 126.919 606.835 129.679 606.062 133.015Z" fill="#FFB68D"/>
<path d="M609.076 132.549C607.284 136.573 598.475 145.514 589.427 154.036C588.559 154.292 587.479 154.61 586.61 154.867C584.603 154.443 583.015 153.838 581.764 153.113C578.33 151.13 577.473 148.209 577.641 145.479C577.654 145.256 577.728 145.039 577.843 144.847C579.962 141.308 581.761 138.181 582.775 136.138C586.795 128.062 589.257 124.416 589.257 124.416C593.207 118.624 602.049 118.459 606.619 122.765C608.872 124.887 610.091 128.09 609.174 132.247C609.151 132.351 609.12 132.451 609.076 132.549Z" fill="#363E4F"/>
<path d="M556.812 185.076C553.026 189.082 549.508 192.254 548.771 191.149C547.029 188.574 551.893 178.084 552.965 176.64C554.029 175.194 556.595 173.079 556.595 173.079L553.066 171.905C553.066 171.905 554.595 167.488 555.558 167.535C556.191 167.567 559.045 167.929 560.876 168.173C559.255 171.028 556.47 176.35 555.927 180.156C555.467 183.384 555.658 185.062 556.812 185.076Z" fill="#363E4F"/>
<g opacity="0.4">
<path d="M609.179 132.046C607.522 136.037 598.449 145.234 589.205 153.934C588.909 154.212 588.604 154.498 588.308 154.775C577.945 164.485 567.662 173.35 567.662 173.35C567.662 173.35 562.034 180.232 556.909 185.618C553.079 189.641 549.52 192.827 548.776 191.717C547.015 189.131 551.938 178.599 553.023 177.148C554.099 175.697 556.694 173.572 556.694 173.572L553.125 172.394C553.125 172.394 554.673 167.959 555.646 168.006C556.287 168.037 559.173 168.401 561.025 168.646C561.96 168.761 562.637 168.853 562.637 168.853C562.637 168.853 567.021 162.09 571.803 154.463C572.189 157.016 572.247 159.622 571.979 162.211C575.268 159.055 578.558 155.899 581.848 152.735C586.065 148.679 590.289 144.623 594.505 140.567C599.206 136.054 604.159 131.089 605.71 124.807C605.806 124.426 605.884 124.042 605.954 123.659L606.664 122.414C608.942 124.561 610.161 127.816 609.179 132.046Z" fill="black"/>
</g>
<path d="M579.941 103.487C579.678 105.653 579.033 107.308 579.033 107.308L568.614 133.011C566.254 138.624 562.144 141.358 558.153 141.851C552.626 142.526 547.35 138.89 547.276 132.646C547.275 132.568 547.279 132.494 547.29 132.417C547.576 130.332 548.628 124.826 550.154 119.204C551.258 115.111 552.625 110.96 554.119 108.039C554.34 107.605 554.561 107.198 554.79 106.825C560.369 97.6113 562.789 92.0328 573.216 93.7311C579.754 94.7924 580.382 99.8532 579.941 103.487Z" fill="#363E4F"/>
<g opacity="0.3">
<path d="M579.941 103.487C579.677 105.653 579.032 107.308 579.032 107.308L568.614 133.011C566.253 138.624 562.143 141.358 558.152 141.851V141.706C558.169 140.729 558.518 139.805 558.866 138.896C560.776 133.86 562.687 128.834 564.606 123.798C565.09 122.525 565.548 120.996 564.75 119.884C564.24 119.179 563.358 118.865 562.517 118.636C558.467 117.574 554.094 117.786 550.154 119.204C551.257 115.111 552.624 110.96 554.119 108.039C555.851 105.907 557.923 104.039 560.25 102.562C562.211 101.313 564.393 100.312 566.711 100.108C569.25 99.8784 571.772 100.617 574.201 101.39C576.129 102.01 578.081 102.672 579.941 103.487Z" fill="black"/>
</g>
<path d="M581.382 195.208C581.67 198.498 581.699 204.614 579.617 206.714L579.609 206.715C579.23 207.11 578.773 207.36 578.238 207.43C574.774 207.884 571.214 202.938 570.43 197.627C570.227 196.257 570.035 194.334 569.864 192.227C569.372 186.163 569.032 178.613 569.032 178.613C569.032 178.613 560.08 161.789 553.795 149.01C550.402 142.128 547.793 136.418 547.768 135.129C546.905 132.75 547.652 130.14 548.354 128.187C551.058 120.582 561.807 119.216 567.251 134.018C567.251 134.018 568.803 135.568 569.707 140.122C569.843 140.819 570.061 142.187 570.33 144.005C571.801 154.018 574.774 177.61 574.774 177.61C574.774 177.61 577.284 183.099 579.214 188.122C580.336 191.026 581.253 193.777 581.382 195.208Z" fill="#FFB68D"/>
<path d="M570.728 143.886C570.761 144.101 570.746 144.326 570.679 144.529C569.621 147.733 567.519 150.954 563.33 151.663C559.578 152.298 556.515 151.078 554.225 149.449C554.04 149.317 553.891 149.136 553.788 148.93C550.408 142.154 547.828 136.57 547.802 135.293C542.053 121.427 561.535 114.427 568.544 133.007C568.567 133.069 568.586 133.128 568.601 133.192C568.72 133.691 569.319 136.231 570.142 140.316C570.272 140.974 570.477 142.225 570.728 143.886Z" fill="#363E4F"/>
<path d="M581.368 194.94C581.71 198.848 581.698 206.744 578.188 207.2C574.678 207.655 571.067 202.692 570.269 197.365C570.064 195.991 569.868 194.062 569.693 191.949C570.444 194.619 571.989 197.851 575.05 197.126C578.319 196.347 579.052 191.306 579.167 187.832C580.305 190.745 581.237 193.505 581.368 194.94Z" fill="#363E4F"/>
<g opacity="0.3">
<path d="M579.512 206.717C579.133 207.112 578.675 207.362 578.141 207.432C574.679 207.886 571.121 202.941 570.337 197.63C570.135 196.26 569.942 194.337 569.771 192.231C569.28 186.167 568.941 178.618 568.941 178.618C568.941 178.618 559.994 161.795 553.713 149.018C550.323 142.136 547.716 136.428 547.69 135.138C546.828 132.76 546.887 130.485 547.589 128.532C552.416 148.447 571.138 175.519 571.138 175.519C571.138 175.519 571.44 192.426 575.382 201.812C576.311 204.026 577.796 205.598 579.512 206.717Z" fill="black"/>
</g>
<path d="M616.466 116.81C612.331 116.861 609.223 116.004 606.251 115.095C602.285 113.881 598.574 112.556 593.021 113.117C590.066 113.414 587.553 114.764 584.607 115.953C582.254 116.912 579.631 117.761 576.277 117.905C575.521 117.939 573.321 116.937 570.995 115.859C568.286 114.602 565.407 113.236 564.457 113.261C558.928 113.389 553.129 114.848 548.4 116.428H548.392C542.754 118.321 538.635 120.393 538.32 120.632C538.83 119.918 550.676 103.521 551.185 102.766C551.296 102.596 551.737 101.636 552.357 100.243C552.357 100.235 552.357 100.227 552.365 100.227C554.216 96.0667 557.63 88.1016 558.649 85.724C558.836 85.2827 558.946 85.0357 558.946 85.0357C558.946 85.0357 556.899 74.8896 556.365 70.3634C556.28 69.676 556.229 69.1153 556.229 68.7415C556.229 65.9226 560.432 52.2092 561.451 50.1541C561.451 50.1541 571.139 47.5051 574.179 47.887C577.21 48.2608 587.774 49.9412 587.774 49.9412C587.774 49.9412 594.202 65.2343 594.456 67.2804C594.498 67.6201 594.507 68.2994 594.49 69.1827C594.439 73.1823 593.93 81.4782 593.845 82.9384C593.837 83.083 593.828 83.1594 593.828 83.1594L602.03 102.035L603.339 103.369L616.466 116.81Z" fill="#F7BC4B"/>
<g opacity="0.3">
<path d="M594.489 69.182C594.438 73.1816 593.929 81.4774 593.844 82.9376C582.058 82.5557 570.23 83.4902 558.648 85.7232C558.835 85.282 558.945 85.035 558.945 85.035C558.945 85.035 556.898 74.8889 556.364 70.3627C564.795 73.657 574.373 73.657 583.306 71.8311C587.06 71.0672 590.753 69.9889 594.489 69.182Z" fill="black"/>
</g>
<g opacity="0.3">
<path d="M551.186 102.766C551.296 102.596 551.738 101.636 552.358 100.243C550.888 105.593 549.564 110.993 548.4 116.428H548.392C542.754 118.321 538.635 120.393 538.321 120.632C538.83 119.918 550.676 103.521 551.186 102.766Z" fill="black"/>
</g>
<g opacity="0.3">
<path d="M577.422 95.6831C579.418 102.57 581.812 109.345 584.606 115.952C582.253 116.911 579.63 117.761 576.276 117.905C575.52 117.939 573.321 116.937 570.995 115.858C572.838 109.032 574.714 102.204 577.422 95.6831Z" fill="black"/>
</g>
<g opacity="0.3">
<path d="M616.463 116.81C612.327 116.861 609.22 116.004 606.248 115.095C606.112 114.687 605.976 114.288 605.84 113.88C604.711 110.459 603.879 106.935 603.336 103.369L616.463 116.81Z" fill="black"/>
</g>
<path d="M579.763 50.2548C579.763 50.2548 576.196 51.4948 572.358 51.6305C568.52 51.7662 566.602 50.5351 566.602 50.5351C567.561 50.1191 569.344 49.4308 569.344 49.4308L568.962 43.8946L568.656 39.4204L576.333 38.0528L576.986 48.9384L577.02 49.5755L579.763 50.2548Z" fill="#FFB68D"/>
<g opacity="0.4">
<path d="M576.987 48.9394C575.017 48.4388 573.182 47.4198 571.552 46.1798C570.635 45.4753 569.777 44.7025 568.962 43.8956L568.656 39.4206L576.333 38.0538L576.987 48.9394Z" fill="black"/>
</g>
<path d="M543.735 56.5195L534.046 59.137C532.943 55.8558 535.399 51.1086 535.399 51.1086L541.975 49.5547C541.975 49.5547 545.601 41.6997 547.635 39.103C548.2 38.3766 548.647 38.0655 548.852 38.4445C549.478 39.578 547.092 46.981 545.37 51.9566C544.758 53.737 544.217 55.2063 543.939 55.9667C543.811 56.3227 543.735 56.5195 543.735 56.5195Z" fill="#FFB68D"/>
<g opacity="0.3">
<path d="M543.743 56.5158L534.047 59.1351C532.943 55.8523 535.401 51.1032 535.401 51.1032L541.982 49.5474C541.982 49.5474 545.61 41.689 547.646 39.0907C547.926 39.3038 547.774 40.1722 547.014 41.9741C545.173 46.3433 543.768 49.3185 545.379 51.9504C544.767 53.7318 544.225 55.2019 543.947 55.9627C543.818 56.3188 543.743 56.5158 543.743 56.5158Z" fill="black"/>
</g>
<path d="M536.505 51.5563C536.505 51.5563 538.273 48.5119 536.771 47.8318C535.27 47.1517 532.875 51.1888 533.508 52.6319C534.142 54.0751 535.105 54.0173 536.505 51.5563Z" fill="#FFB68D"/>
<path d="M539.128 51.1007C539.128 51.1007 541.141 47.6364 539.432 46.8632C537.724 46.0901 534.999 50.6832 535.719 52.3244C536.44 53.9656 537.535 53.9007 539.128 51.1007Z" fill="#FFB68D"/>
<path d="M541.816 50.156C541.816 50.156 543.829 46.6918 542.12 45.9186C540.412 45.1454 537.687 49.7385 538.407 51.3797C539.128 53.0209 540.223 52.9561 541.816 50.156Z" fill="#FFB68D"/>
<path d="M541.828 35.4575L545.01 38.8701L552.178 58.6247C552.178 58.6247 551.621 61.1961 549.185 59.4743L541.856 40.0547L541.828 35.4575Z" fill="#363E4F"/>
<path d="M546.744 88.395C544.499 90.0549 541.321 90.0195 538.891 87.8331C534.329 83.7256 536.65 63.4828 536.65 63.4828C536.65 63.4828 532.735 57.9069 535.074 56.1617C536.118 55.3864 537.881 54.8267 539.512 54.4311C541.537 53.9514 543.365 53.7377 543.365 53.7377C543.365 53.7377 546.743 45.9932 547.967 46.8877C549.192 47.7821 546.338 56.0022 546.075 56.8504C545.818 57.7027 542.068 61.405 542.068 61.405L549.42 80.4525C549.99 84.1983 548.72 86.947 546.744 88.395Z" fill="#FFB68D"/>
<g opacity="0.3">
<path d="M546.852 88.3705C544.597 90.0379 541.405 90.0036 538.965 87.8077C534.383 83.6823 536.717 63.3494 536.717 63.3494C536.717 63.3494 532.785 57.7487 535.134 55.9956C536.183 55.2168 537.953 54.6553 539.592 54.2579C539.22 55.248 538.918 56.2513 538.911 57.2816C538.903 58.639 541.491 86.1435 546.826 88.3655C546.833 88.3696 546.841 88.3735 546.852 88.3705Z" fill="black"/>
</g>
<path d="M563.136 32.6014C563.136 32.6014 561.933 28.6017 559.107 30.8939C556.281 33.186 558.059 40.1386 563.042 38.8341L563.136 32.6014Z" fill="#FFB68D"/>
<path d="M582.86 32.2628C582.86 32.2628 584.276 28.1641 586.98 30.2381C589.684 32.3121 587.536 39.4129 582.624 38.4963L582.86 32.2628Z" fill="#FFB68D"/>
<path d="M573.681 46.1417C569.84 46.3435 567.197 45.5859 565.386 44.094C561.78 41.1372 561.486 35.3053 561.563 28.5231C561.682 18.3413 566.294 15.8577 572.629 15.4068C576.403 15.1336 578.966 16.1646 580.678 17.8507C583.311 20.4213 583.909 24.5384 583.778 27.822C583.567 33.2436 585.196 45.536 573.681 46.1417Z" fill="#FFB68D"/>
<g opacity="0.3">
<path d="M573.831 46.1422C570.015 46.3431 567.389 45.5872 565.59 44.0989C569.006 44.2947 572.638 42.9142 575.836 41.2063C576.749 40.7198 577.665 40.1898 578.337 39.3742C579.435 38.0517 579.708 36.2197 579.898 34.497C580.505 28.9855 580.805 23.4437 580.771 17.9224C583.387 20.4869 583.983 24.5938 583.855 27.8691C583.646 33.2771 585.269 45.5389 573.831 46.1422Z" fill="black"/>
</g>
<path d="M570.609 30.372C570.543 31.134 570.038 31.7331 569.482 31.7098C568.926 31.6865 568.528 31.0495 568.595 30.2875C568.661 29.5255 569.166 28.9264 569.722 28.9498C570.278 28.9731 570.676 29.61 570.609 30.372Z" fill="#363E4F"/>
<path d="M567.001 26.4583C567.001 26.4583 567.976 23.5727 570.546 24.8722C570.546 24.8722 567.816 25.4085 567.001 26.4583Z" fill="#363E4F"/>
<path d="M577.171 30.7972C577.105 31.5592 577.502 32.1962 578.058 32.2195C578.614 32.2428 579.12 31.6437 579.186 30.8817C579.252 30.1197 578.855 29.4828 578.299 29.4595C577.743 29.4361 577.238 30.0352 577.171 30.7972Z" fill="#363E4F"/>
<path d="M581.172 27.2401C581.172 27.2401 580.707 24.2944 577.93 25.3706C577.93 25.3706 580.546 26.1302 581.172 27.2401Z" fill="#363E4F"/>
<path d="M561.173 27.781C561.173 27.781 561.535 17.2048 572.05 17.0696C582.565 16.9344 584.261 29.2153 584.261 29.2153C584.261 29.2153 586.132 13.6814 572.581 14.0983C559.029 14.5152 561.173 27.781 561.173 27.781Z" fill="#F7BC4B"/>
<path d="M591.955 83.307C591.083 84.1827 569.283 84.5873 568.407 83.5944C567.539 82.5934 568.413 48.823 569.448 48.5583C569.787 48.4725 572.724 48.4685 576.466 48.5227C580.149 48.577 584.613 48.6814 588.143 48.8213C591.606 48.9523 594.161 49.1097 594.203 49.2714C594.332 49.7638 592.819 82.4312 591.955 83.307Z" fill="#ED4A2F"/>
<path d="M588.156 48.8236L587.917 52.3933L576.345 52.213L576.472 48.5248C580.157 48.5792 584.623 48.6837 588.156 48.8236Z" fill="#65A9DF"/>
<path d="M580.578 50.3521C580.579 50.6236 580.36 50.8433 580.088 50.8436C579.817 50.844 579.597 50.6249 579.596 50.3535C579.596 50.0821 579.815 49.8624 580.086 49.862C580.357 49.8616 580.577 50.0807 580.578 50.3521Z" fill="#363E4F"/>
<path d="M585.251 50.5544C585.252 50.8258 585.033 51.0455 584.762 51.0459C584.49 51.0462 584.27 50.8271 584.27 50.5557C584.269 50.2843 584.488 50.0646 584.759 50.0642C585.031 50.0639 585.251 50.283 585.251 50.5544Z" fill="#363E4F"/>
<path d="M612.57 87.0863C605.394 91.2881 593.189 79.8199 593.189 79.8199C593.189 79.8199 589.324 82.172 588.188 81.3746C587.044 80.5733 586.235 77.6646 586.235 77.6646C586.235 77.6646 580.027 76.0664 579.157 75.1442C579.055 75.0361 579.002 74.9133 579.005 74.7929C578.982 73.8915 581.706 72.8316 586.694 74.5359C586.199 74.3582 581.976 72.7816 580.385 71.3591C578.695 69.8401 580.781 68.9804 587.546 71.823C587.546 71.823 582.77 69.1782 581.419 67.7903C580.057 66.4059 582.496 64.9407 588.933 68.9555C588.933 68.9555 585.859 66.6003 584.087 64.7286C582.307 62.8525 583.819 61.4729 588.583 64.5509C593.345 67.6165 594.202 69.1547 594.235 70.6021C594.272 72.0416 594.524 73.889 594.524 73.889C595.321 74.3408 603.065 73.4616 609.398 73.7233C613.111 73.8774 616.032 77.0032 616.356 80.4123C616.593 82.8131 615.536 85.3473 612.57 87.0863Z" fill="#FFB68D"/>
<g opacity="0.3">
<path d="M612.647 87.0716C605.461 91.2818 593.237 79.7841 593.237 79.7841C593.237 79.7841 589.367 82.1418 588.228 81.3424C587.083 80.539 586.272 77.6234 586.272 77.6234C586.272 77.6234 580.055 76.0203 579.183 75.0959C579.082 74.9875 579.028 74.864 579.031 74.7433C582.493 74.9066 585.913 75.5571 589.15 76.6676C591.013 79.7287 593.791 77.7452 594.101 77.8912C597.014 79.2771 600.456 79.1119 603.674 79.6589C606.269 80.0984 608.759 80.999 611.394 81.2044C613.079 81.332 614.883 81.1067 616.437 80.382C616.675 82.7884 615.617 85.329 612.647 87.0716Z" fill="black"/>
</g>
<path d="M483.182 248.077C478.529 248.637 473.409 245.775 468.713 242.226C462.421 237.471 444.317 229.794 441.71 220.59C439.095 211.385 440.233 204.873 448.716 205.748C449.522 205.832 450.796 206.393 452.393 207.276C452.384 207.284 452.393 207.284 452.393 207.284C461.436 212.336 480.591 228.071 480.591 228.071C485.967 231.908 488.463 236.205 488.726 239.891C488.998 243.635 486.935 246.752 483.182 248.077Z" fill="#6E4834"/>
<g opacity="0.3">
<path d="M483.182 248.077C478.529 248.637 473.409 245.775 468.713 242.226C462.421 237.471 444.317 229.794 441.71 220.59C439.095 211.385 440.233 204.873 448.716 205.748C449.522 205.832 450.796 206.393 452.393 207.276C452.384 207.284 452.393 207.284 452.393 207.284C455.254 214.434 460.306 226.186 466.836 231.739C472.389 236.469 481.144 241.037 488.726 239.891C488.998 243.635 486.935 246.752 483.182 248.077Z" fill="black"/>
</g>
<path d="M472.238 257.634C473.281 257.982 491.708 268.065 491.708 268.065C491.708 268.065 492.454 289.493 471.594 303.748C450.734 318.002 430.518 297.27 430.518 297.27L472.238 257.634Z" fill="#363E4F"/>
<path d="M515.294 202.481C510.464 209.209 506.258 214.852 502.122 215.742C502.122 215.742 493.342 242.099 487.627 246.351C486.175 247.427 484.646 248 483.064 248.173C478.615 248.498 474.904 244.051 476.15 237.478C476.682 234.677 478.115 231.482 480.783 228.113L492.609 211.106C492.609 211.106 490.645 207.337 490.38 204.723C490.115 202.102 490.044 196.572 490.85 193.5C491.655 190.437 494.527 192.768 494.484 195.684C494.441 198.61 495.329 200.302 495.329 200.302C495.329 200.302 500.164 193.278 501.416 191.443C502.66 189.617 506.868 183.812 508.997 184.443C511.125 185.074 503.488 195.919 503.63 196.541C503.773 197.154 510.335 187.066 512.939 186.325C515.544 185.583 514.119 189.406 512.858 191.861C511.727 194.079 508.541 198.677 507.954 199.514C508.402 198.931 510.323 196.431 513.293 193.243C516.71 189.582 518.527 190.678 516.957 193.429C515.439 196.094 510.726 201.76 510.433 202.114C510.656 201.946 512.861 200.214 515.201 198.491C516.44 197.583 517.675 196.898 517.99 197.283C518.314 197.669 517.718 199.118 515.294 202.481Z" fill="#6E4834"/>
<g opacity="0.3">
<path d="M515.336 202.463C510.501 209.193 506.29 214.839 502.15 215.729C502.15 215.729 493.362 242.097 487.641 246.351C486.188 247.427 484.657 248 483.073 248.173C478.62 248.499 474.905 244.049 476.153 237.474C484.058 239.375 494.033 223.059 496.432 217.507C499.016 211.532 498.963 211.281 498.963 211.281C498.963 211.281 503.178 211.433 508.666 206.317C512.542 202.693 516.223 199.076 518.035 197.262C518.359 197.648 517.762 199.098 515.336 202.463Z" fill="black"/>
</g>
<path d="M543.496 284.275C543.083 290.822 538.362 296.961 528.778 296.588C528.635 296.582 528.495 296.545 528.358 296.505C523.406 295.067 480.336 302.493 464.239 302.836C454.015 303.048 444.471 289.649 448.207 278.577C450.449 271.945 457.445 266.146 471.889 264.592C474.576 264.295 517.639 266.865 534.121 269.879C534.191 269.892 534.259 269.909 534.326 269.931C540.677 271.987 543.876 278.304 543.496 284.275Z" fill="#363E4F"/>
<g opacity="0.4">
<path d="M543.495 284.274C543.079 290.871 538.29 297.054 528.559 296.578C524.739 294.838 480.584 302.488 464.238 302.836C454.015 303.048 444.47 289.649 448.207 278.577C468.187 276.539 489.066 280.954 508.197 274.73C510.49 273.982 512.807 273.074 515.219 273.167C517.316 273.244 519.304 274.068 521.231 274.874C528.661 278.008 536.074 281.132 543.495 284.274Z" fill="black"/>
</g>
<path d="M587.325 285.101C587.325 285.101 595.992 298.134 578.633 308.743C578.633 308.743 564.303 288.062 587.325 285.101Z" fill="#363E4F"/>
<g opacity="0.6">
<path d="M587.325 285.101C587.325 285.101 595.992 298.134 578.633 308.743C578.633 308.743 564.303 288.062 587.325 285.101Z" fill="black"/>
</g>
<path d="M616.527 279.562L603.026 300.137L594.229 313.527C594.229 313.527 592.54 313.145 590.187 312.33C587.632 311.438 581.764 308.262 578.945 306.276C573.527 302.455 578.631 289.819 578.631 289.819C579.514 289.76 581.152 289.344 583.224 288.69C588.93 286.898 597.905 283.306 603.187 280.581C608.672 277.736 609.87 276.054 612.935 277.388C613.895 277.804 615.024 278.508 616.527 279.562Z" fill="#363E4F"/>
<path d="M585.827 286.27C585.575 287.333 588.082 293.687 588.802 294.398C589.523 295.109 590.592 294.386 590.362 292.928C590.131 291.47 588.199 286.996 587.67 286.174C587.141 285.351 586.094 285.139 585.827 286.27Z" fill="#65A9DF"/>
<path d="M591.585 284.067C591.334 285.13 593.84 291.485 594.56 292.196C595.281 292.907 596.351 292.184 596.12 290.726C595.889 289.268 593.957 284.794 593.428 283.971C592.899 283.149 591.852 282.936 591.585 284.067Z" fill="#65A9DF"/>
<path d="M616.527 279.558L594.23 313.525C594.23 313.525 592.539 313.146 590.187 312.334C593.89 306.446 608.199 284.615 612.936 277.384C613.888 277.806 615.022 278.509 616.527 279.558Z" fill="#65A9DF"/>
<g opacity="0.3">
<path d="M603.026 300.137L594.229 313.527C594.229 313.527 592.54 313.145 590.187 312.33C587.632 311.438 581.764 308.262 578.945 306.275C573.527 302.454 578.631 289.819 578.631 289.819C579.514 289.76 581.152 289.344 583.224 288.69C585.144 291.492 587.58 293.921 590.399 295.797C594.144 298.286 598.543 299.772 603.026 300.137Z" fill="black"/>
</g>
<path d="M587.327 285.098C587.327 285.098 583.132 284.945 580.543 291.636C579.184 295.134 578.276 300.501 578.632 308.745V308.746C578.606 308.74 532.395 298.31 528.567 296.578C517.741 292.605 515.974 281.583 521.579 275.019C524.211 271.912 528.49 269.806 534.23 269.899C534.231 269.899 534.232 269.899 534.234 269.899C534.683 269.984 535.115 270.069 535.522 270.153C550.824 273.278 587.327 285.098 587.327 285.098Z" fill="#363E4F"/>
<g opacity="0.4">
<path d="M578.631 308.746C578.631 308.746 532.397 298.311 528.567 296.578C517.741 292.605 515.974 281.583 521.579 275.018C529.306 278.27 537.016 281.531 544.735 284.792C552.063 287.892 559.501 291.033 567.381 292.129C571.737 292.731 576.28 292.646 580.543 291.636C579.184 295.134 578.275 300.501 578.631 308.746Z" fill="black"/>
</g>
<path d="M477.718 256.72C477.718 256.72 464.531 266.239 455.012 276.861C454.451 277.481 453.883 278.135 453.297 278.806C443.855 289.641 431.118 306.445 429.743 305.061C428.273 303.601 413.626 285.285 409.228 270.638C405.848 259.361 400.294 238.974 399.589 227.171C399.377 223.647 399.598 220.886 400.439 219.367C404.107 212.769 412.692 205.229 421.319 202.155C436.697 196.661 448.414 203.615 450.248 205.085C452.083 206.545 460.506 242.072 464.531 246.828C468.555 251.591 477.718 256.72 477.718 256.72Z" fill="#F7BC4B"/>
<g opacity="0.3">
<path d="M453.295 278.806C443.853 289.641 431.116 306.445 429.741 305.061C428.272 303.601 413.624 285.284 409.226 270.637C405.846 259.36 400.292 238.973 399.588 227.17C409.31 217.499 415.696 219.121 422.098 242.225C429.044 267.342 434.113 260.397 439.463 259.064C444.804 257.722 435.455 270.552 435.718 271.614C435.99 272.684 439.463 267.606 443.734 273.218C445.856 275.995 448.889 278.449 453.295 278.806Z" fill="black"/>
</g>
<path d="M435.395 202.088C435.395 202.088 432.805 203.989 427.974 206.061C423.142 208.133 415.712 206.061 415.712 206.061L419.168 202.605L417.386 195.677L416.06 190.523L427.974 189.138L430.929 199.515L431.422 201.23L435.395 202.088Z" fill="#6E4834"/>
<g opacity="0.4">
<path d="M430.93 199.515C426.829 199.6 421.904 198.631 417.386 195.676L416.061 190.523L427.975 189.138L430.93 199.515Z" fill="black"/>
</g>
<path d="M414.684 262.528C413.504 275.324 407.713 302.938 407.713 302.938C407.713 302.938 408.697 304.738 409.352 306.615C409.785 307.863 410.064 309.145 409.81 309.96C409.173 312.006 404.954 316.345 402.143 318.137C399.935 319.538 398.594 318.893 398.186 317.866C398.075 317.594 398.033 317.28 398.058 316.983C398.177 315.641 400.308 313.696 400.478 313.544C400.47 313.544 400.47 313.544 400.462 313.552C400.326 313.645 399.536 314.156 398.424 314.86C395.902 316.457 391.698 319.021 389.635 319.793C387.469 320.6 386.519 319.632 386.375 318.681C386.306 318.282 386.383 317.883 386.57 317.62C387.13 316.839 390.128 314.783 390.867 314.282C390.875 314.274 390.884 314.265 390.892 314.265C390.926 314.248 390.951 314.231 390.968 314.214L384.142 317.62C381.475 318.808 379.802 317.704 379.182 317.143C378.995 316.974 379.134 316.521 379.134 316.521C376.286 316.835 376.991 314.945 376.991 314.945C376.991 314.945 374.662 315.448 374.789 313.528C374.917 311.618 381.814 308.899 383.343 308.288C384.82 307.702 395.486 301.188 396.233 301.273C396.267 301.273 396.275 301.282 396.275 301.308C396.216 300.764 394.951 276.232 395.724 264.99C395.901 260.6 397.608 257.756 399.926 256.168C405.641 252.244 415.1 255.896 414.684 262.528Z" fill="#6E4834"/>
<g opacity="0.3">
<path d="M401.583 301.376L396.276 301.308C396.217 300.764 394.952 276.232 395.724 264.99C395.902 260.6 397.61 257.756 399.928 256.168C400.199 263.419 400.531 269.932 400.386 274.042C399.97 285.412 401.583 301.376 401.583 301.376Z" fill="black"/>
</g>
<g opacity="0.3">
<path d="M390.997 314.198L384.144 317.62C381.478 318.808 379.805 317.705 379.185 317.144C383.881 316.261 394.384 311.217 394.741 311.047L391.039 314.172C391.039 314.172 391.022 314.181 390.997 314.198Z" fill="black"/>
</g>
<g opacity="0.3">
<path d="M398.424 314.86C395.903 316.457 391.699 319.02 389.635 319.793C387.47 320.6 386.52 319.632 386.375 318.681C388.142 318.282 391.045 317.271 393.423 315.946C397.193 313.849 403.196 309.595 403.57 309.332L400.488 313.535C400.488 313.535 400.488 313.535 400.48 313.544C400.471 313.544 400.471 313.544 400.462 313.552C400.31 313.628 399.308 314.138 398.424 314.86Z" fill="black"/>
</g>
<g opacity="0.3">
<path d="M409.811 309.96C409.174 312.006 404.954 316.345 402.143 318.137C399.936 319.538 398.595 318.893 398.187 317.866C399.834 317.509 402.857 315.105 404.742 313.119C407.307 310.418 408.367 309.136 409.25 306.75C409.267 306.699 409.302 306.649 409.353 306.615C409.786 307.863 410.065 309.145 409.811 309.96Z" fill="black"/>
</g>
<path d="M414.683 262.529C413.554 271.937 405.649 275.036 400.41 272.684C397.744 271.495 395.764 268.897 395.722 264.991C396.503 253.68 396.181 222.636 402.66 218.569C402.77 218.501 402.88 218.442 402.991 218.391C405.801 217.075 411.363 216.65 414.853 221.881C418.343 227.112 416.076 247.346 414.683 262.529Z" fill="#6E4834"/>
<g opacity="0.3">
<path d="M402.244 220.089C397.667 232.427 400.554 260.457 400.41 272.684C397.743 271.495 395.764 268.897 395.722 264.991C396.503 253.68 396.181 222.637 402.66 218.57C402.591 219.02 402.456 219.52 402.244 220.089Z" fill="black"/>
</g>
<path d="M433.176 193.346C429.997 195.508 425.543 196.223 420.781 195.863C411.071 195.116 409.112 185.773 409.112 185.773C402.426 168.25 409.696 161.533 416.682 159.27C417.365 159.048 418.027 158.868 418.677 158.74C431.494 156.124 436.947 170.772 437.907 181.541C438.42 187.305 436.487 191.104 433.176 193.346Z" fill="#6E4834"/>
<g opacity="0.3">
<path d="M433.087 193.275C429.918 195.433 425.479 196.146 420.732 195.787C411.051 195.042 409.097 185.715 409.097 185.715C402.43 168.223 409.677 161.519 416.641 159.26C417.322 159.038 417.982 158.859 418.63 158.73C413.203 170.544 417.596 184.96 420.694 189.819C422.798 193.109 427.945 194.347 433.087 193.275Z" fill="black"/>
</g>
<path d="M431.03 160.285C429.933 162.293 423.526 167.126 410.28 169.665C410.28 169.665 413.371 176.896 410.145 179.8L407.952 182.442C407.65 182.807 407.543 183.3 407.67 183.745L408.733 187.466C408.735 187.469 408.737 187.473 408.733 187.473C408.608 187.469 404.625 187.292 402.38 177.68C401.378 173.363 401.204 169.464 402.579 166.128C404.303 161.92 408.496 158.61 416.589 156.504C426.532 153.921 430.173 155.664 431.109 157.691C431.538 158.625 431.392 159.621 431.03 160.285Z" fill="#363E4F"/>
<g opacity="0.3">
<path d="M431.086 160.254C429.988 162.265 423.569 167.102 410.3 169.644C410.3 169.644 413.396 176.883 410.164 179.79L407.48 183.023L408.753 187.472C408.753 187.472 404.671 187.445 402.386 177.667C401.383 173.346 401.208 169.443 402.586 166.103C409.378 168.647 426.36 162.515 431.165 157.657C431.596 158.591 431.449 159.589 431.086 160.254Z" fill="black"/>
</g>
<path d="M421.163 176.052C419.648 176.623 420.089 180.051 422.098 179.326C424.106 178.602 422.819 175.428 421.163 176.052Z" fill="#363E4F"/>
<path d="M418.349 174.164C418.349 174.164 418.882 172.001 421.418 171.636C421.418 171.636 419.127 170.328 418.349 174.164Z" fill="#363E4F"/>
<path d="M431.223 173.865C432.806 173.678 433.587 177.022 431.499 177.301C429.411 177.58 429.492 174.071 431.223 173.865Z" fill="#363E4F"/>
<path d="M432.83 170.97C432.83 170.97 431.572 169.198 429.088 170.07C429.088 170.07 430.758 167.746 432.83 170.97Z" fill="#363E4F"/>
<path d="M409.578 182.03L411.896 188.606C411.896 188.606 406.29 192.456 403.002 187.431C399.713 182.406 404.311 175.921 409.578 182.03Z" fill="#6E4834"/>
<g opacity="0.3">
<path d="M409.589 182.027L411.908 188.609C411.908 188.609 406.814 192.119 403.523 187.09C400.232 182.061 405.588 178.145 409.589 182.027Z" fill="black"/>
</g>
<path d="M504.562 265.415C503.026 268.914 500.852 272.709 497.965 276.759C497.965 276.759 478.146 303.176 465.281 309.782C452.417 316.389 441.642 311.872 431.911 301.792C431.249 301.105 440.14 290.616 451.102 278.839C462.752 266.34 476.72 252.398 484.056 247.202C491.511 241.937 496.581 240.086 500.478 240.468C507.272 243.109 510.421 252.135 504.562 265.415Z" fill="#363E4F"/>
<g opacity="0.3">
<path d="M504.562 265.415C503.026 268.914 500.852 272.71 497.965 276.76C497.965 276.76 478.147 303.176 465.282 309.782C452.418 316.389 441.642 311.872 431.911 301.792C431.249 301.105 440.14 290.617 451.102 278.84C451.493 285.642 453.657 292.342 457.377 298.048C456.4 291.645 457.13 284.997 459.483 278.959C460.893 282.568 463.126 285.854 465.962 288.495C465.979 285.115 465.996 281.744 466.013 278.373C477.154 273.601 487.165 266.222 495.027 257.001C498.535 259.438 501.65 262.308 504.562 265.415Z" fill="black"/>
</g>
<path d="M569.379 317.051H528.748C528.748 317.051 528.136 315.429 527.525 313.017C526.871 310.385 526.201 306.81 526.319 303.363C526.54 296.739 540.007 290.999 540.007 290.999C540.296 291.381 540.789 291.89 541.46 292.51C545.391 296.094 555.156 303.057 561.202 306.454C566.593 309.485 568.648 309.562 569.226 312.856C569.396 313.883 569.43 315.217 569.379 317.051Z" fill="#363E4F"/>
<path d="M546.92 295.068C545.893 295.441 541.956 301.025 541.758 302.018C541.56 303.011 542.75 303.507 543.842 302.514C544.934 301.521 547.614 297.451 548.012 296.558C548.409 295.665 548.012 294.671 546.92 295.068Z" fill="#65A9DF"/>
<path d="M551.921 298.673C550.895 299.046 546.958 304.629 546.76 305.622C546.561 306.615 547.752 307.112 548.844 306.119C549.936 305.126 552.616 301.055 553.013 300.162C553.411 299.269 553.013 298.276 551.921 298.673Z" fill="#65A9DF"/>
<path d="M569.377 317.051H528.746C528.746 317.051 528.135 315.43 527.524 313.018C534.478 312.882 560.579 312.864 569.224 312.856C569.394 313.883 569.428 315.217 569.377 317.051Z" fill="#65A9DF"/>
<g opacity="0.4">
<path d="M539.48 317.051H528.747C528.747 317.051 528.136 315.429 527.525 313.017C526.871 310.385 526.201 306.81 526.319 303.363C526.54 296.739 540.007 290.999 540.007 290.999C540.295 291.381 540.788 291.89 541.459 292.51C539.361 302.037 539.285 311.549 539.48 317.051Z" fill="black"/>
</g>
<path d="M541.917 290.133C542.388 290.771 542.202 291.675 541.517 292.072C540.081 292.904 537.71 294.407 535.705 296.298C535.136 296.824 534.601 297.377 534.125 297.963C531.706 300.927 526.367 306.177 524.078 308.397C523.505 308.952 522.578 308.882 522.093 308.248L497.969 276.76C494.038 271.58 491.508 266.664 490.149 262.214C486.332 249.809 491.534 241.032 500.337 240.476C500.433 240.471 500.533 240.472 500.629 240.483C504.103 240.868 506.639 243.05 509.093 246.165C513.761 252.062 537.025 283.516 541.917 290.133Z" fill="#363E4F"/>
<g opacity="0.3">
<path d="M535.702 296.298C535.133 296.824 534.598 297.377 534.122 297.963C530.998 301.793 522.999 309.434 522.999 309.434L497.966 276.76C494.035 271.58 491.505 266.664 490.146 262.214C491.852 260.558 493.483 258.818 495.029 257.001C504.573 263.615 511.187 273.542 518.838 282.271C523.644 287.765 529.291 292.995 535.702 296.298Z" fill="black"/>
</g>
<path d="M708.827 155.979C708.122 162.517 701.618 182.311 698.518 190.505C695.427 198.699 692.863 201.832 686.851 202.35C684.626 202.537 682.665 200.194 681.85 197.18C681.282 195.04 681.273 192.568 682.156 190.411C684.278 185.206 687.395 157.534 695.105 150.562C698.229 147.744 701.185 147.021 703.554 147.599C707.035 148.448 709.243 152.09 708.827 155.979Z" fill="#DB8752"/>
<g opacity="0.4">
<path d="M708.83 155.98C708.125 162.518 701.62 182.312 698.521 190.506C695.43 198.7 692.866 201.833 686.855 202.351C684.63 202.538 682.668 200.194 681.853 197.18C683.619 196.985 685.351 196.534 686.855 195.668C693.402 191.915 703.328 158.732 703.387 151.862C703.404 150.249 703.463 148.83 703.557 147.599C707.038 148.448 709.246 152.091 708.83 155.98Z" fill="black"/>
</g>
<path d="M728.887 221.176C721.363 225.561 692.175 227.119 690.898 227.186C690.865 227.187 690.838 227.19 690.805 227.195C685.249 227.974 680.645 227.413 677.2 225.863C670.168 222.692 667.992 215.368 672.494 206.785C672.556 206.667 672.635 206.555 672.727 206.458C674.557 204.518 676.887 203.045 679.994 202.308C683.339 201.51 693.903 200.16 704.611 198.912C716.032 197.573 727.618 196.345 730.791 196.012C731.317 195.957 731.824 196.217 732.084 196.678C734.001 200.085 740.924 214.154 728.887 221.176Z" fill="#363E4F"/>
<g opacity="0.3">
<path d="M728.888 221.176C721.195 225.659 690.856 227.188 690.856 227.188C685.277 227.978 680.658 227.416 677.202 225.863C677.312 223.222 677.38 220.591 677.414 217.95C677.422 217.287 677.448 216.565 677.881 216.073C678.348 215.538 679.121 215.444 679.826 215.385C686.959 214.791 694.133 214.714 701.274 215.172C701.342 211.657 700.9 208.133 699.975 204.746C703.864 207.183 707.413 210.162 710.496 213.559C709.765 208.294 707.719 203.225 704.612 198.912C718.01 197.341 731.639 195.923 731.639 195.923C731.639 195.923 742.644 213.151 728.888 221.176Z" fill="black"/>
</g>
<path d="M677.698 284.613C677.749 284.953 673.835 285.888 668.494 286.983C657.217 289.284 639.573 292.29 639.369 291.874C639.258 291.653 638.901 290.812 638.859 289.615C638.774 287.56 639.573 284.427 643.92 281.481C650.832 276.811 657.473 264.599 658.135 264.498C659.791 264.26 661.608 264.388 663.442 264.728C669.785 265.916 676.196 269.686 676.196 269.686C676.196 269.686 676.925 277.159 677.375 281.54C677.537 283.136 677.656 284.333 677.698 284.613Z" fill="#65A9DF"/>
<g opacity="0.3">
<path d="M677.379 281.543C677.535 283.139 677.661 284.336 677.702 284.615C677.854 285.67 639.672 292.486 639.372 291.876C639.257 291.653 638.905 290.811 638.861 289.613C647.854 288.048 668.436 283.523 677.379 281.543Z" fill="black"/>
</g>
<g opacity="0.3">
<path d="M677.698 284.614C677.749 284.954 673.835 285.888 668.494 286.983C669.224 279.29 667.414 271.342 663.441 264.728C669.784 265.916 676.195 269.686 676.195 269.686C676.195 269.686 676.925 277.159 677.375 281.54C677.537 283.136 677.656 284.334 677.698 284.614Z" fill="black"/>
</g>
<path d="M691.075 226.882C691.075 226.882 678.864 273.498 677.854 273.643C676.81 273.795 673.974 271.367 669.694 268.786C668.301 267.945 666.306 267.419 664.302 267.011C660.167 266.187 656.007 265.916 657.017 264.574C658.503 262.587 664.956 223.656 667.189 216.939C668.46 213.107 669.995 209.482 672.477 206.728C672.551 206.646 672.635 206.571 672.724 206.506C680.087 201.174 691.125 202.283 692.315 214.875C692.621 218.102 692.281 222.076 691.075 226.882Z" fill="#363E4F"/>
<g opacity="0.3">
<path d="M691.074 226.881C691.074 226.881 678.863 273.499 677.853 273.643C676.808 273.796 673.972 271.367 669.692 268.786C668.3 267.944 666.304 267.419 664.3 267.011C664.886 265.584 665.387 264.133 665.795 262.646C668.538 262.782 671.263 263.292 673.87 264.15C671.679 260.846 668.869 257.959 665.625 255.692C668.461 254.928 671.595 255.344 674.133 256.822C676.162 243.966 677.258 230.957 677.411 217.949C677.419 217.286 677.445 216.565 677.878 216.072C678.345 215.538 679.118 215.443 679.822 215.384C683.975 215.036 688.143 214.866 692.313 214.875C692.618 218.101 692.279 222.076 691.074 226.881Z" fill="black"/>
</g>
<path d="M759.284 215.987C755.415 219.849 730.749 235.89 728.622 238.947C728.554 239.045 728.479 239.14 728.387 239.214C723.178 243.37 718.413 245.165 714.365 245.341C705.238 245.749 699.828 237.904 701.595 230.406C702.503 226.526 715.173 215.334 724.004 208.124C727.859 204.974 730.983 202.579 732.078 201.892C748.135 191.728 761.577 197.63 762.562 200.584C763.539 203.531 763.216 212.056 759.284 215.987Z" fill="#363E4F"/>
<g opacity="0.3">
<path d="M759.284 215.988C755.344 219.919 729.845 236.477 728.529 239.101C723.264 243.337 718.449 245.164 714.365 245.342C714.365 244.187 714.356 243.041 714.356 241.886C714.356 241.012 714.357 240.12 714.68 239.305C714.994 238.489 715.604 237.835 716.207 237.207C722.381 230.728 729.293 224.963 736.765 220.038C734.26 219.511 731.755 218.985 729.258 218.458C735.983 215.376 743.252 213.5 750.631 212.931C742.216 209.517 733.088 207.878 724.003 208.124C727.858 204.974 730.983 202.579 732.078 201.892C748.135 191.728 761.576 197.63 762.561 200.584C763.538 203.531 763.215 212.056 759.284 215.988Z" fill="black"/>
</g>
<path d="M728.534 238.826C728.534 238.968 728.518 239.116 728.472 239.251C727.223 242.951 727.166 281.27 727.166 284.496C727.166 287.774 724.21 289.081 723.225 289.412C722.241 289.735 715.363 282.194 710.115 279.579C705.657 277.346 701.675 280.565 700.579 280.174H700.571C700.384 280.097 700.282 279.919 700.282 279.579C700.282 277.298 700.283 236.692 701.565 230.558C701.587 230.453 701.621 230.355 701.666 230.257C706.103 220.574 719.867 219.041 725.781 228.224C727.479 230.854 728.533 234.372 728.534 238.826Z" fill="#363E4F"/>
<g opacity="0.3">
<path d="M728.528 239.101C727.221 241.725 727.162 281.217 727.162 284.495C727.162 287.773 724.206 289.08 723.221 289.411C722.236 289.734 715.359 282.194 710.111 279.579C705.653 277.346 701.67 280.564 700.575 280.173C702.893 276.929 704.744 273.193 708.37 271.766C712.99 269.941 718.025 272.803 722.16 275.545C718.39 270.747 713.04 267.215 707.147 265.627C708.718 263.385 712.208 262.817 714.416 264.438C714.399 256.924 714.382 249.401 714.357 241.886C714.357 241.011 714.357 240.12 714.679 239.305C714.994 238.49 715.605 237.836 716.208 237.207C719.222 234.04 722.423 231.042 725.778 228.223C727.51 230.907 728.571 234.515 728.528 239.101Z" fill="black"/>
</g>
<path d="M724.782 295.78C724.782 297.979 724.74 299.576 724.74 299.576L712.096 300.434L689.399 301.971C689.399 301.971 688.201 300.773 688.201 298.574C688.201 298.15 688.27 297.801 688.422 297.462C689.033 296.044 691.072 294.948 695.589 290.592C701.177 285.2 703.485 277.253 704.768 276.616C705.481 276.259 706.212 275.987 706.95 275.809C715.212 273.746 724.179 282.195 724.544 286.593C724.765 289.268 724.799 293.004 724.782 295.78Z" fill="#65A9DF"/>
<g opacity="0.3">
<path d="M724.781 295.78C724.781 297.979 724.739 299.576 724.739 299.576L689.398 301.971C689.398 301.971 688.201 300.773 688.201 298.574C688.201 298.15 688.269 297.801 688.422 297.462L724.781 295.78Z" fill="black"/>
</g>
<g opacity="0.3">
<path d="M724.78 295.78C724.78 297.979 724.737 299.576 724.737 299.576L712.094 300.433C714.446 292.876 713.105 284.224 708.485 277.779C708.001 277.108 707.484 276.454 706.949 275.809C715.211 273.746 724.178 282.194 724.542 286.592C724.763 289.267 724.798 293.004 724.78 295.78Z" fill="black"/>
</g>
<path d="M762.395 210.002C761.953 209.746 761.477 209.466 760.959 209.161C755.788 206.18 746.923 201.638 732.107 204.389C715.82 207.404 713.214 198.105 712.993 197.154C712.772 196.212 713.341 194.327 714.216 191.626C715.082 188.934 712.526 180.035 707.983 173.345C703.441 166.654 696.307 159.563 695.831 156.421C695.356 153.288 697.114 145.476 706.641 142.691C710.878 141.451 715.192 140.5 719.446 140.212C727.377 139.668 735.103 141.409 741.786 147.795C763.668 168.701 767.294 196.704 762.395 210.002Z" fill="#F7BC4B"/>
<g opacity="0.3">
<path d="M760.96 209.161C755.788 206.18 746.923 201.637 732.106 204.388C715.82 207.403 713.213 198.104 712.992 197.154C712.771 196.211 713.341 194.327 714.215 191.626C715.081 188.934 712.526 180.035 707.983 173.344C703.44 166.654 696.307 159.563 695.832 156.421C695.356 153.288 697.114 145.476 706.641 142.691C710.878 141.451 715.192 140.5 719.446 140.212C720.167 144.007 719.029 148.049 717.645 151.734C716.048 155.963 714.079 160.225 714.156 164.751C714.232 169.014 716.126 173.013 718.104 176.792C719.658 179.746 721.289 182.667 722.995 185.537C723.64 186.616 724.37 187.762 725.534 188.23C726.994 188.816 728.658 188.144 729.958 187.253C735.638 183.364 737.464 175.883 738.203 169.039C738.738 164.072 738.933 159.062 738.78 154.07C744.554 164.76 747.051 177.199 745.837 189.291C749.224 187.711 752.417 185.716 755.329 183.373C753.623 187.228 751.322 190.81 748.528 193.961H756.493C756.442 195.32 754.489 195.575 753.598 196.594C752.248 198.147 753.826 200.457 755.329 201.858C756.603 203.038 757.877 204.227 759.142 205.416C759.787 206.01 760.441 206.63 760.747 207.445C760.951 207.997 760.977 208.575 760.96 209.161Z" fill="black"/>
</g>
<path d="M703.12 141.447L706.693 148.042C706.693 148.042 705.41 149.576 705.545 150.163C705.681 150.749 711.944 149.507 715.214 147.72C718.485 145.933 720.885 143.037 720.885 143.037L716.984 142.097L712.422 134.76L703.12 141.447Z" fill="#DB8752"/>
<g opacity="0.4">
<path d="M703.12 141.447L706.693 148.042C706.693 148.042 705.41 149.576 705.545 150.163C705.681 150.749 711.944 149.507 715.214 147.72C718.485 145.933 720.885 143.037 720.885 143.037L716.984 142.097L712.422 134.76L703.12 141.447Z" fill="black"/>
</g>
<path d="M719.663 142.996C719.655 143.021 716.478 152.04 711.299 158.128C711.18 158.272 710.976 158.315 710.798 158.238C710.722 158.204 706.375 156.158 704.226 148.626C704.158 148.397 704.285 148.168 704.514 148.099C704.744 148.031 704.973 148.168 705.041 148.389C706.774 154.46 709.932 156.744 710.875 157.305C715.163 152.15 718.066 144.856 718.72 143.107C718.814 142.852 718.865 142.716 718.865 142.716C718.941 142.495 719.187 142.376 719.408 142.453C719.629 142.529 719.747 142.775 719.663 142.996Z" fill="#363E4F"/>
<path d="M711.985 159.36C711.985 160.358 711.473 161.167 710.843 161.167C710.212 161.167 709.7 160.358 709.7 159.36C709.7 158.363 710.212 157.554 710.843 157.554C711.473 157.554 711.985 158.363 711.985 159.36Z" fill="#65A9DF"/>
<path d="M715.713 139.082C715.416 145.468 708.08 150.885 700.887 151.242C700.624 151.259 700.37 151.267 700.106 151.267C692.668 151.259 691.87 147.956 689.679 139.914C687.497 131.882 684.661 122.804 685.51 121.913C690.443 116.733 697.474 114.899 703.257 115.171C708.386 115.417 712.529 117.32 713.336 120.028C715.051 125.777 715.713 139.082 715.713 139.082Z" fill="#DB8752"/>
<g opacity="0.1">
<path d="M715.713 139.082C715.416 145.468 708.08 150.885 700.887 151.242C700.624 151.259 700.37 151.267 700.106 151.267C692.668 151.259 691.87 147.956 689.679 139.914C687.497 131.882 684.661 122.804 685.51 121.913C690.443 116.733 697.474 114.899 703.257 115.171C708.386 115.417 712.529 117.32 713.336 120.028C715.051 125.777 715.713 139.082 715.713 139.082Z" fill="black"/>
</g>
<g opacity="0.3">
<path d="M715.715 139.082C715.417 145.468 708.082 150.885 700.89 151.242C705.848 149.366 708.353 144.084 707.759 136.849C707.258 130.829 705.144 122.091 703.258 115.171C708.387 115.417 712.531 117.319 713.338 120.028C715.053 125.776 715.715 139.082 715.715 139.082Z" fill="black"/>
</g>
<path d="M719.764 121.115C719.486 127.022 717.259 133.729 717.091 134.229C717.085 134.246 717.068 134.253 717.052 134.245C716.617 134.028 711.458 131.405 709.889 128.323C708.331 125.271 708.292 120.683 708.292 120.241C708.292 120.222 708.276 120.212 708.258 120.218C707.619 120.436 698.182 123.646 696.311 123.441C694.418 123.246 697.296 120.478 697.432 120.35C696.974 120.503 680.653 126.057 678.624 124.817C678.148 124.529 677.869 123.721 677.869 122.6C677.861 118.839 681.035 111.486 690.936 107.911C703.355 103.424 709.268 109.784 709.656 110.222C709.67 110.237 709.689 110.243 709.709 110.239C710.187 110.137 715.934 109.039 718.805 114.619C719.671 116.292 719.891 118.636 719.764 121.115Z" fill="#363E4F"/>
<g opacity="0.3">
<path d="M719.764 121.115C719.476 127.254 717.081 134.259 717.081 134.259C717.081 134.259 711.528 131.542 709.889 128.324C708.25 125.114 708.293 120.206 708.293 120.206C708.293 120.206 698.247 123.653 696.311 123.441C694.418 123.246 697.297 120.478 697.432 120.351C696.974 120.504 680.653 126.057 678.624 124.817C678.149 124.528 677.868 123.722 677.868 122.601C686.742 122.389 706.135 112.844 706.135 112.844L705.414 116.139L713.345 114.186C713.345 114.186 712.954 121.285 719.764 121.115Z" fill="black"/>
</g>
<path d="M713.932 132.702C713.932 132.702 714.681 124.333 719.905 125.439C725.129 126.545 723.36 137.155 714.899 137.478L713.932 132.702Z" fill="#DB8752"/>
<g opacity="0.3">
<path d="M713.932 132.702C713.932 132.702 714.396 125.977 719.663 126.855C723.535 127.5 722.613 136.904 714.899 137.478L713.932 132.702Z" fill="black"/>
</g>
<path d="M691.878 131.99C690.933 132.585 691.857 135.33 693.145 134.917C694.433 134.503 693.79 130.786 691.878 131.99Z" fill="#363E4F"/>
<path d="M690.001 129.517C690.001 129.517 690.982 127.826 692.933 127.96C692.933 127.96 690.879 126.445 690.001 129.517Z" fill="#363E4F"/>
<path d="M701.406 130.469C702.272 130.48 703.641 132.993 701.764 133.816C699.887 134.639 699.068 130.437 701.406 130.469Z" fill="#363E4F"/>
<path d="M702.504 127.758C702.504 127.758 700.973 126.196 699.245 127.127C699.245 127.127 700.765 125.077 702.504 127.758Z" fill="#363E4F"/>
<path d="M737.907 183.523C735.123 195.129 733.59 200.848 725.83 198.914C725.469 198.819 725.124 198.715 724.804 198.594C718.293 196.085 720.447 187.116 721.151 185.547C721.894 183.891 721.129 148.311 729.345 146.699C731.654 146.239 733.494 146.924 734.937 148.399C740.926 154.491 740.147 174.186 737.907 183.523Z" fill="#DB8752"/>
<g opacity="0.3">
<path d="M737.905 183.523C735.12 195.129 733.588 200.848 725.827 198.914C725.467 198.819 725.122 198.715 724.802 198.593C725.016 196.119 725.488 193.922 726.252 192.375C730.847 183.053 735.236 161.21 734.934 148.398C740.924 154.491 740.145 174.185 737.905 183.523Z" fill="black"/>
</g>
<path d="M694.709 163.919C694.709 163.919 696.535 185.207 696.043 190.395C695.55 195.584 691.941 203.743 686.608 202.02C684.553 201.357 683.068 200.058 682.074 198.504C680.469 196.025 680.13 192.909 680.741 190.693C681.743 187.076 688.222 163.308 688.222 163.308C688.222 163.308 686.116 158.434 685.242 157.093C684.358 155.743 686.167 149.544 687.415 148.83C688.664 148.117 691.551 146.825 691.551 146.825L696.425 149.994C696.425 149.994 697.596 152.176 698.641 154.282C699.532 156.057 700.331 157.788 700.28 158.12C700.161 158.85 694.709 163.919 694.709 163.919Z" fill="#DB8752"/>
<g opacity="0.3">
<path d="M694.711 163.919C694.711 163.919 696.536 185.207 696.044 190.395C695.551 195.584 691.942 203.743 686.61 202.019C684.555 201.357 683.07 200.058 682.076 198.504C684.335 197.867 687.424 196.169 688.588 191.558C690.524 183.933 690.736 162.348 690.736 162.348C690.736 162.348 696.537 157.305 696.749 154.511C696.749 154.511 697.505 154.417 698.642 154.282C699.534 156.056 700.332 157.788 700.28 158.12C700.162 158.85 694.711 163.919 694.711 163.919Z" fill="black"/>
</g>
<g opacity="0.3">
<path d="M687.994 153.771C688.776 154.718 689.755 154.07 690.3 153.38C690.845 152.69 691.595 149.838 691.595 149.838L695.857 151.812C695.857 151.812 696.611 154.457 695.86 155.477C695.109 156.497 692.792 155.623 692.792 155.623C692.792 155.623 690.075 156.674 689.354 155.995C688.633 155.315 687.994 153.771 687.994 153.771Z" fill="black"/>
</g>
<path d="M724.578 200.279C716.384 199.803 713.183 196.254 708.607 187.797C704.038 179.339 698.315 165.915 698.315 165.915C698.315 165.915 695.283 164.701 694.239 162.459C693.186 160.209 691.845 152.872 691.845 152.872C691.845 152.872 687.634 150.826 686.997 148.839C686.394 146.954 693.254 150.248 693.934 150.58C693.348 150.155 687.863 146.265 688.245 144.992C688.644 143.659 696.031 148.702 696.031 148.702C696.031 148.702 691.301 142.861 691.692 142.241C692.057 141.655 699.08 146.113 699.937 146.656C699.411 146.265 696.575 144.126 696.184 142.445C695.76 140.594 703.741 145.145 704.522 146.206C705.303 147.276 705.091 161.253 705.091 161.253C707.12 163.877 725.742 185.741 729.147 190.191C729.368 190.48 729.571 190.768 729.758 191.066C732.543 195.396 732.254 200.729 724.578 200.279Z" fill="#DB8752"/>
<g opacity="0.3">
<path d="M724.578 200.279C716.383 199.804 713.182 196.254 708.605 187.797C704.037 179.339 698.314 165.915 698.314 165.915C698.314 165.915 695.283 164.701 694.238 162.459C693.185 160.209 691.844 152.872 691.844 152.872C691.844 152.872 687.632 150.826 686.995 148.839L694.689 153.348C694.689 153.348 696.947 154.188 697.788 154.053C698.629 153.908 699.613 152.219 699.613 152.219C699.613 152.219 701.023 152.643 701.167 152.219C701.303 151.794 702.152 149.688 702.152 149.688L703.137 149.824L703.978 161.364C703.978 161.364 702.433 165.303 704.122 170.509C705.659 175.238 717.657 196.721 729.757 191.066C732.542 195.396 732.253 200.729 724.578 200.279Z" fill="black"/>
</g>
<path d="M492.191 125.735C491.859 127.79 491.41 129.896 490.264 131.636C489.015 133.53 487.045 134.821 485.134 136.052C476.261 141.783 467.371 147.524 457.921 152.245C457.079 152.669 456.214 153.085 455.331 153.399L448.648 165.237L448.045 152.55C447.094 151.939 446.194 151.183 445.337 150.445C436.879 143.023 429.475 134.413 423.395 124.946C422.656 123.791 421.926 122.611 421.484 121.312C420.279 117.83 421.238 113.984 422.529 110.536C424.966 103.955 428.583 97.8243 433.143 92.5001C434.366 91.0732 435.673 89.6893 437.261 88.7045C440.233 86.8534 443.876 86.5478 447.366 86.3699C452.987 86.0814 483.479 90.4199 486.706 91.7615C487.784 92.2116 488.897 92.6789 489.678 93.5362C490.552 94.4869 490.909 95.7944 491.197 97.0515C493.405 106.426 493.745 116.226 492.191 125.735Z" fill="#ED4A2F"/>
<path d="M441.256 135.297C442.381 131.115 444.937 127.416 448.062 124.419C451.187 121.421 454.875 119.074 458.645 116.944C462.01 115.043 465.488 113.289 469.197 112.201C470.308 111.876 471.453 111.61 472.61 111.646C474.05 111.693 475.432 112.205 476.761 112.76C478.415 113.451 480.079 114.248 481.309 115.552C483.933 118.334 483.903 122.894 482.093 126.263C480.282 129.633 477.051 132.002 473.717 133.877C471.521 135.111 469.19 136.197 466.697 136.554C464.203 136.912 461.508 136.466 459.537 134.897C458.742 134.265 458.088 133.474 457.494 132.65C454.298 128.218 452.73 122.638 453.148 117.189C453.567 111.741 455.968 106.465 459.803 102.573C462.408 99.9296 465.939 97.8477 469.636 98.1727C473.117 98.4783 476.039 100.81 478.729 103.041C479.531 103.707 480.379 104.444 480.624 105.456C480.813 106.24 480.606 107.062 480.638 107.868C480.713 109.716 482.04 111.466 481.627 113.269C481.418 114.183 480.786 114.937 480.144 115.621C475.677 120.378 469.651 123.646 463.228 124.796C461.577 125.092 459.906 125.251 458.237 125.41C453.316 125.879 448.235 126.332 443.524 124.836C441.716 124.263 439.956 123.376 438.69 121.963C437.424 120.55 436.72 118.546 437.19 116.708C437.529 115.379 438.428 114.263 439.414 113.31C440.976 111.8 442.819 110.584 444.821 109.741C446.2 109.161 447.648 108.758 449.104 108.412C452.737 107.549 456.503 107.03 460.209 107.495C463.914 107.96 467.575 109.483 470.118 112.218C471.068 113.241 471.848 114.411 472.545 115.62C473.297 116.924 473.968 118.314 474.151 119.808C474.344 121.372 473.988 122.959 473.422 124.429C470.86 131.09 463.987 135.507 456.899 136.346C454.609 136.618 451.972 136.426 450.484 134.663C449.139 133.068 449.205 130.755 449.341 128.674C449.498 126.282 449.685 123.791 450.9 121.725C451.497 120.709 452.319 119.843 453.189 119.048C454.92 117.464 456.915 116.099 459.174 115.466C461.434 114.832 463.988 114.999 465.955 116.28C467.921 117.56 469.141 120.057 468.582 122.336C468.183 123.961 466.995 125.27 465.75 126.388C463.737 128.196 461.228 129.775 458.529 129.58C456.176 129.41 454.122 127.913 452.49 126.208C449.721 123.314 447.766 119.648 446.906 115.735C446.439 113.61 446.304 111.324 447.13 109.31C447.904 107.426 449.433 105.972 450.931 104.592C453.918 101.841 457.193 99.0251 461.206 98.3962" stroke="#F7BC4B" stroke-miterlimit="10"/>
<path d="M811.04 292.609L809.358 288.847C810.538 286.452 811.539 284.177 812.376 282.005C820.63 260.782 813.747 250.141 812.847 244.139C811.845 237.533 823.363 240.388 823.383 258.209C823.381 258.323 823.386 258.446 823.383 258.561C823.23 276.248 811.04 292.609 811.04 292.609Z" fill="#A36140"/>
<g opacity="0.3">
<path d="M811.096 292.611L809.396 288.843C810.592 286.444 811.607 284.165 812.456 281.99C813.885 280.916 815.735 278.877 817.89 275.006C821.086 269.242 822.813 262.461 823.61 258.505C823.444 276.22 811.096 292.611 811.096 292.611Z" fill="black"/>
</g>
<path d="M771.48 268.354C771.182 268.956 766.945 298.464 766.189 299.525C765.662 300.263 762.13 300.637 759.931 300.229C758.963 300.059 758.259 299.737 758.165 299.227C757.86 297.554 760.433 295.89 760.288 294.531C760.169 293.453 759.379 271.258 759.354 261.501C759.354 258.953 759.396 257.255 759.524 257.001C759.524 257.001 771.785 267.751 771.48 268.354Z" fill="#A36140"/>
<g opacity="0.4">
<path d="M771.48 268.354C771.183 268.957 766.945 298.464 766.189 299.525C765.663 300.264 762.13 300.637 759.931 300.229C761.485 299.414 762.887 298.378 763.761 296.875C764.78 295.125 764.916 293.029 765.009 291.008C765.273 285.693 765.425 280.335 764.61 275.079C763.863 270.239 762.242 265.449 759.354 261.501C759.354 258.954 759.397 257.255 759.524 257.001C759.524 257.001 771.785 267.751 771.48 268.354Z" fill="black"/>
</g>
<path d="M804.926 297.267C793.726 299.704 781.32 298.557 774.96 289.098C768.608 279.638 758.469 256.143 758.469 256.143L779.061 247.686L782.526 246.259C782.526 246.259 794.634 263.743 801.903 272.048C805.206 275.835 808.449 280.895 809.952 285.515C811.735 291.043 811.031 295.942 804.926 297.267Z" fill="#A36140"/>
<g opacity="0.3">
<path d="M804.926 297.266C793.726 299.703 781.32 298.557 774.96 289.098C768.608 279.638 758.469 256.143 758.469 256.143L779.061 247.685C779.417 251.277 773.034 252.727 773.381 256.319C773.62 258.731 773.857 261.16 774.587 263.469C776.872 270.738 790.329 277.837 797.19 281.158C801.24 283.119 805.546 284.69 809.952 285.514C811.735 291.042 811.031 295.941 804.926 297.266Z" fill="black"/>
</g>
<path d="M767.636 225.204C767.636 225.204 763.586 215.214 760.226 214.021C756.866 212.828 757.702 227.269 757.702 227.269L767.636 225.204Z" fill="#A36140"/>
<g opacity="0.3">
<path d="M766.158 225.293C766.158 225.293 763.727 216.835 760.372 215.643C757.017 214.452 757.711 227.226 757.711 227.226L766.158 225.293Z" fill="black"/>
</g>
<path d="M781.945 246.663C781.945 246.663 777.248 253.677 767.114 255.774C756.98 257.871 748.662 256.896 746.394 251.723C744.945 248.414 745.026 245.839 745.561 244.103C745.87 243.129 746.323 242.416 746.719 241.998C747.824 240.839 754.674 239.692 754.674 239.692C754.674 239.692 755.433 228.88 756.837 226.764C758.234 224.638 768.285 222.261 777.489 225.722C777.489 225.722 779.314 215.589 780.136 213.839C780.952 212.078 785.374 217.608 785.131 224.512C785.036 227.217 784.525 231.195 783.939 235.042C783.037 241.016 781.945 246.663 781.945 246.663Z" fill="#A36140"/>
<g opacity="0.3">
<path d="M782.779 246.396C782.779 246.396 777.979 253.56 767.625 255.701C757.271 257.843 748.773 256.846 746.455 251.563C744.975 248.182 745.057 245.552 745.603 243.779C746.584 245.768 748.651 246.983 750.71 247.703C754.212 248.936 758.071 249.188 761.845 248.45C765.43 247.747 768.879 246.174 772.276 244.606C773.772 243.918 775.268 243.23 776.678 242.354C779.858 240.394 782.479 237.605 784.815 234.525C783.894 240.628 782.779 246.396 782.779 246.396Z" fill="black"/>
</g>
<path d="M748.969 240.8C746.082 240.792 744.732 240.724 744.946 242.563C745.16 244.403 747.393 246.907 749.98 245.085C752.566 243.264 753.47 240.813 748.969 240.8Z" fill="#363E4F"/>
<path d="M769.548 238.09C769.391 239.036 768.758 239.75 768.132 239.687C767.506 239.624 767.126 238.807 767.283 237.861C767.44 236.915 768.073 236.201 768.699 236.264C769.325 236.327 769.705 237.144 769.548 238.09Z" fill="#363E4F"/>
<path d="M768.168 231.443C768.168 231.443 771.584 230.552 772.474 233.904C772.474 233.904 770.903 232.001 768.168 231.443Z" fill="#363E4F"/>
<path d="M758.003 236.851C757.935 237.801 758.395 238.566 759.029 238.56C759.662 238.555 760.232 237.78 760.299 236.83C760.367 235.88 759.907 235.115 759.274 235.121C758.64 235.127 758.071 235.902 758.003 236.851Z" fill="#363E4F"/>
<path d="M760.489 230.29C760.489 230.29 757.334 229.11 755.676 232.315C755.676 232.315 757.666 230.59 760.489 230.29Z" fill="#363E4F"/>
<path d="M758.75 256.681C758.75 256.681 773.964 256.763 783.347 245.554C783.347 245.554 784.966 252.153 774.404 256.351C763.843 260.55 758.75 256.681 758.75 256.681Z" fill="#F7BC4B"/>
<path d="M764.83 256.317C764.83 256.317 762.081 261.49 761.873 261.852C761.665 262.214 765.511 262.621 765.511 262.621C765.511 262.621 766.505 255.08 764.83 256.317Z" fill="#F7BC4B"/>
<path d="M766.158 255.906C765.043 256.733 767.385 262.099 767.385 262.099L770.792 260.441C770.792 260.441 767.483 254.925 766.158 255.906Z" fill="#F7BC4B"/>
<path d="M785.404 268.506C785.252 270.773 782.679 298.922 780.565 299.677C779.274 300.136 776.32 300.315 774.23 300.085C772.872 299.933 771.878 299.609 771.937 299.074C772.09 297.708 774.357 296.043 774.357 294.379C774.357 292.715 773.279 258.062 773.636 258.07C785.413 258.393 785.549 266.298 785.404 268.506Z" fill="#A36140"/>
<g opacity="0.3">
<path d="M785.404 268.506C785.251 270.773 782.678 298.922 780.564 299.678C779.274 300.136 776.318 300.315 774.229 300.085C774.721 299.585 775.189 299.066 775.656 298.54C776.938 297.088 778.152 295.508 778.78 293.674C779.273 292.222 779.384 290.676 779.486 289.157C779.808 284.266 780.13 279.367 779.918 274.476C779.782 271.428 779.434 268.353 778.424 265.474C777.54 262.986 775.724 259.989 773.635 258.07C785.412 258.393 785.549 266.298 785.404 268.506Z" fill="black"/>
</g>
<path d="M807.047 294.838C807.047 294.838 808.406 299.372 803.413 300.128C798.939 300.815 788.163 300.637 786.065 299.058C786.057 299.066 786.057 299.058 786.057 299.058C785.819 298.88 785.692 298.685 785.709 298.464C785.854 296.349 791.152 295.89 791.152 295.89C791.152 295.89 785.403 291.959 785.556 282.27C785.598 279.578 786.261 277.558 787.204 276.055C789.624 272.157 793.878 271.682 793.878 271.682C793.878 271.682 800.238 269.864 805.375 278.186C807.073 280.937 807.837 283.689 808.083 286.134C808.601 291.101 807.047 294.838 807.047 294.838Z" fill="#A36140"/>
<g opacity="0.3">
<path d="M785.556 282.27C785.598 279.578 786.261 277.558 787.204 276.054C787.688 287.688 798.946 295.211 798.946 295.211L791.152 295.89C791.152 295.89 785.403 291.959 785.556 282.27Z" fill="black"/>
</g>
<g opacity="0.3">
<path d="M807.048 294.838C807.048 294.838 808.407 299.372 803.414 300.128C798.939 300.815 788.163 300.637 786.066 299.058C790.948 299.89 801.41 299.075 803.77 297.682C806.938 295.797 802.828 291.806 802.828 291.806C802.828 291.806 806.734 291.237 808.084 286.134C808.602 291.101 807.048 294.838 807.048 294.838Z" fill="black"/>
</g>
</svg>
