<svg width="786" height="630" viewBox="0 0 786 630" fill="none" xmlns="http://www.w3.org/2000/svg">
<path d="M256.272 623.112C255.536 623.112 254.875 622.984 254.288 622.728C253.712 622.461 253.259 622.099 252.928 621.64C252.598 621.171 252.427 620.632 252.416 620.024H253.968C254.022 620.547 254.235 620.989 254.608 621.352C254.992 621.704 255.547 621.88 256.272 621.88C256.966 621.88 257.51 621.709 257.904 621.368C258.31 621.016 258.512 620.568 258.512 620.024C258.512 619.597 258.395 619.251 258.16 618.984C257.926 618.717 257.632 618.515 257.28 618.376C256.928 618.237 256.454 618.088 255.856 617.928C255.12 617.736 254.528 617.544 254.08 617.352C253.643 617.16 253.264 616.861 252.944 616.456C252.635 616.04 252.48 615.485 252.48 614.792C252.48 614.184 252.635 613.645 252.944 613.176C253.254 612.707 253.686 612.344 254.24 612.088C254.806 611.832 255.451 611.704 256.176 611.704C257.222 611.704 258.075 611.965 258.736 612.488C259.408 613.011 259.787 613.704 259.872 614.568H258.272C258.219 614.141 257.995 613.768 257.6 613.448C257.206 613.117 256.683 612.952 256.032 612.952C255.424 612.952 254.928 613.112 254.544 613.432C254.16 613.741 253.968 614.179 253.968 614.744C253.968 615.149 254.08 615.48 254.304 615.736C254.539 615.992 254.822 616.189 255.152 616.328C255.494 616.456 255.968 616.605 256.576 616.776C257.312 616.979 257.904 617.181 258.352 617.384C258.8 617.576 259.184 617.88 259.504 618.296C259.824 618.701 259.984 619.256 259.984 619.96C259.984 620.504 259.84 621.016 259.552 621.496C259.264 621.976 258.838 622.365 258.272 622.664C257.707 622.963 257.04 623.112 256.272 623.112ZM264.063 615.432V620.6C264.063 621.027 264.154 621.331 264.335 621.512C264.516 621.683 264.831 621.768 265.279 621.768H266.351V623H265.039C264.228 623 263.62 622.813 263.215 622.44C262.81 622.067 262.607 621.453 262.607 620.6V615.432H261.471V614.232H262.607V612.024H264.063V614.232H266.351V615.432H264.063ZM267.731 618.584C267.731 617.688 267.912 616.904 268.275 616.232C268.638 615.549 269.134 615.021 269.763 614.648C270.403 614.275 271.112 614.088 271.891 614.088C272.659 614.088 273.326 614.253 273.891 614.584C274.456 614.915 274.878 615.331 275.155 615.832V614.232H276.627V623H275.155V621.368C274.867 621.88 274.435 622.307 273.859 622.648C273.294 622.979 272.632 623.144 271.875 623.144C271.096 623.144 270.392 622.952 269.763 622.568C269.134 622.184 268.638 621.645 268.275 620.952C267.912 620.259 267.731 619.469 267.731 618.584ZM275.155 618.6C275.155 617.939 275.022 617.363 274.755 616.872C274.488 616.381 274.126 616.008 273.667 615.752C273.219 615.485 272.723 615.352 272.179 615.352C271.635 615.352 271.139 615.48 270.691 615.736C270.243 615.992 269.886 616.365 269.619 616.856C269.352 617.347 269.219 617.923 269.219 618.584C269.219 619.256 269.352 619.843 269.619 620.344C269.886 620.835 270.243 621.213 270.691 621.48C271.139 621.736 271.635 621.864 272.179 621.864C272.723 621.864 273.219 621.736 273.667 621.48C274.126 621.213 274.488 620.835 274.755 620.344C275.022 619.843 275.155 619.261 275.155 618.6ZM286.8 614.232L281.52 627.128H280.016L281.744 622.904L278.208 614.232H279.824L282.576 621.336L285.296 614.232H286.8ZM294.625 615.432V620.6C294.625 621.027 294.716 621.331 294.897 621.512C295.078 621.683 295.393 621.768 295.841 621.768H296.913V623H295.601C294.79 623 294.182 622.813 293.777 622.44C293.372 622.067 293.169 621.453 293.169 620.6V615.432H292.033V614.232H293.169V612.024H294.625V614.232H296.913V615.432H294.625ZM306.613 614.232V623H305.157V621.704C304.88 622.152 304.49 622.504 303.989 622.76C303.498 623.005 302.954 623.128 302.357 623.128C301.674 623.128 301.061 622.989 300.517 622.712C299.973 622.424 299.541 621.997 299.221 621.432C298.912 620.867 298.757 620.179 298.757 619.368V614.232H300.197V619.176C300.197 620.04 300.416 620.707 300.853 621.176C301.29 621.635 301.888 621.864 302.645 621.864C303.424 621.864 304.037 621.624 304.485 621.144C304.933 620.664 305.157 619.965 305.157 619.048V614.232H306.613ZM313.503 614.072C314.57 614.072 315.434 614.397 316.095 615.048C316.757 615.688 317.087 616.616 317.087 617.832V623H315.647V618.04C315.647 617.165 315.429 616.499 314.991 616.04C314.554 615.571 313.957 615.336 313.199 615.336C312.431 615.336 311.818 615.576 311.359 616.056C310.911 616.536 310.687 617.235 310.687 618.152V623H309.231V614.232H310.687V615.48C310.975 615.032 311.365 614.685 311.855 614.44C312.357 614.195 312.906 614.072 313.503 614.072ZM327.626 618.28C327.626 618.557 327.61 618.851 327.578 619.16H320.57C320.623 620.024 320.916 620.701 321.45 621.192C321.994 621.672 322.65 621.912 323.418 621.912C324.047 621.912 324.57 621.768 324.986 621.48C325.412 621.181 325.711 620.787 325.882 620.296H327.45C327.215 621.139 326.746 621.827 326.042 622.36C325.338 622.883 324.463 623.144 323.418 623.144C322.586 623.144 321.839 622.957 321.178 622.584C320.527 622.211 320.015 621.683 319.642 621C319.268 620.307 319.082 619.507 319.082 618.6C319.082 617.693 319.263 616.899 319.626 616.216C319.988 615.533 320.495 615.011 321.146 614.648C321.807 614.275 322.564 614.088 323.418 614.088C324.25 614.088 324.986 614.269 325.626 614.632C326.266 614.995 326.756 615.496 327.098 616.136C327.45 616.765 327.626 617.48 327.626 618.28ZM326.122 617.976C326.122 617.421 325.999 616.947 325.754 616.552C325.508 616.147 325.172 615.843 324.746 615.64C324.33 615.427 323.866 615.32 323.354 615.32C322.618 615.32 321.988 615.555 321.466 616.024C320.954 616.493 320.66 617.144 320.586 617.976H326.122ZM329.164 618.584C329.164 617.688 329.345 616.904 329.708 616.232C330.07 615.549 330.566 615.021 331.196 614.648C331.836 614.275 332.55 614.088 333.34 614.088C334.022 614.088 334.657 614.248 335.244 614.568C335.83 614.877 336.278 615.288 336.588 615.8V611.16H338.06V623H336.588V621.352C336.3 621.875 335.873 622.307 335.308 622.648C334.742 622.979 334.081 623.144 333.324 623.144C332.545 623.144 331.836 622.952 331.196 622.568C330.566 622.184 330.07 621.645 329.708 620.952C329.345 620.259 329.164 619.469 329.164 618.584ZM336.588 618.6C336.588 617.939 336.454 617.363 336.188 616.872C335.921 616.381 335.558 616.008 335.1 615.752C334.652 615.485 334.156 615.352 333.612 615.352C333.068 615.352 332.572 615.48 332.124 615.736C331.676 615.992 331.318 616.365 331.052 616.856C330.785 617.347 330.652 617.923 330.652 618.584C330.652 619.256 330.785 619.843 331.052 620.344C331.318 620.835 331.676 621.213 332.124 621.48C332.572 621.736 333.068 621.864 333.612 621.864C334.156 621.864 334.652 621.736 335.1 621.48C335.558 621.213 335.921 620.835 336.188 620.344C336.454 619.843 336.588 619.261 336.588 618.6ZM348.674 615.432H346.834V623H345.378V615.432H344.242V614.232H345.378V613.608C345.378 612.627 345.628 611.912 346.13 611.464C346.642 611.005 347.458 610.776 348.578 610.776V611.992C347.938 611.992 347.484 612.12 347.218 612.376C346.962 612.621 346.834 613.032 346.834 613.608V614.232H348.674V615.432ZM354.355 623.144C353.534 623.144 352.787 622.957 352.115 622.584C351.454 622.211 350.931 621.683 350.547 621C350.174 620.307 349.987 619.507 349.987 618.6C349.987 617.704 350.179 616.915 350.563 616.232C350.958 615.539 351.491 615.011 352.163 614.648C352.835 614.275 353.587 614.088 354.419 614.088C355.251 614.088 356.003 614.275 356.675 614.648C357.347 615.011 357.875 615.533 358.259 616.216C358.654 616.899 358.851 617.693 358.851 618.6C358.851 619.507 358.649 620.307 358.243 621C357.849 621.683 357.31 622.211 356.627 622.584C355.945 622.957 355.187 623.144 354.355 623.144ZM354.355 621.864C354.878 621.864 355.369 621.741 355.827 621.496C356.286 621.251 356.654 620.883 356.931 620.392C357.219 619.901 357.363 619.304 357.363 618.6C357.363 617.896 357.225 617.299 356.947 616.808C356.67 616.317 356.307 615.955 355.859 615.72C355.411 615.475 354.926 615.352 354.403 615.352C353.87 615.352 353.379 615.475 352.931 615.72C352.494 615.955 352.142 616.317 351.875 616.808C351.609 617.299 351.475 617.896 351.475 618.6C351.475 619.315 351.603 619.917 351.859 620.408C352.126 620.899 352.478 621.267 352.915 621.512C353.353 621.747 353.833 621.864 354.355 621.864ZM362.382 615.656C362.638 615.155 363 614.765 363.47 614.488C363.95 614.211 364.531 614.072 365.214 614.072V615.576H364.83C363.198 615.576 362.382 616.461 362.382 618.232V623H360.926V614.232H362.382V615.656ZM374.584 623.144C373.912 623.144 373.309 623.032 372.776 622.808C372.243 622.573 371.821 622.253 371.512 621.848C371.203 621.432 371.032 620.957 371 620.424H372.504C372.547 620.861 372.749 621.219 373.112 621.496C373.485 621.773 373.971 621.912 374.568 621.912C375.123 621.912 375.56 621.789 375.88 621.544C376.2 621.299 376.36 620.989 376.36 620.616C376.36 620.232 376.189 619.949 375.848 619.768C375.507 619.576 374.979 619.389 374.264 619.208C373.613 619.037 373.08 618.867 372.664 618.696C372.259 618.515 371.907 618.253 371.608 617.912C371.32 617.56 371.176 617.101 371.176 616.536C371.176 616.088 371.309 615.677 371.576 615.304C371.843 614.931 372.221 614.637 372.712 614.424C373.203 614.2 373.763 614.088 374.392 614.088C375.363 614.088 376.147 614.333 376.744 614.824C377.341 615.315 377.661 615.987 377.704 616.84H376.248C376.216 616.381 376.029 616.013 375.688 615.736C375.357 615.459 374.909 615.32 374.344 615.32C373.821 615.32 373.405 615.432 373.096 615.656C372.787 615.88 372.632 616.173 372.632 616.536C372.632 616.824 372.723 617.064 372.904 617.256C373.096 617.437 373.331 617.587 373.608 617.704C373.896 617.811 374.291 617.933 374.792 618.072C375.421 618.243 375.933 618.413 376.328 618.584C376.723 618.744 377.059 618.989 377.336 619.32C377.624 619.651 377.773 620.083 377.784 620.616C377.784 621.096 377.651 621.528 377.384 621.912C377.117 622.296 376.739 622.6 376.248 622.824C375.768 623.037 375.213 623.144 374.584 623.144ZM383.824 623.144C383.002 623.144 382.256 622.957 381.584 622.584C380.922 622.211 380.4 621.683 380.016 621C379.642 620.307 379.456 619.507 379.456 618.6C379.456 617.704 379.648 616.915 380.032 616.232C380.426 615.539 380.96 615.011 381.632 614.648C382.304 614.275 383.056 614.088 383.888 614.088C384.72 614.088 385.472 614.275 386.144 614.648C386.816 615.011 387.344 615.533 387.728 616.216C388.122 616.899 388.32 617.693 388.32 618.6C388.32 619.507 388.117 620.307 387.712 621C387.317 621.683 386.778 622.211 386.096 622.584C385.413 622.957 384.656 623.144 383.824 623.144ZM383.824 621.864C384.346 621.864 384.837 621.741 385.296 621.496C385.754 621.251 386.122 620.883 386.4 620.392C386.688 619.901 386.832 619.304 386.832 618.6C386.832 617.896 386.693 617.299 386.416 616.808C386.138 616.317 385.776 615.955 385.328 615.72C384.88 615.475 384.394 615.352 383.872 615.352C383.338 615.352 382.848 615.475 382.4 615.72C381.962 615.955 381.61 616.317 381.344 616.808C381.077 617.299 380.944 617.896 380.944 618.6C380.944 619.315 381.072 619.917 381.328 620.408C381.594 620.899 381.946 621.267 382.384 621.512C382.821 621.747 383.301 621.864 383.824 621.864ZM400.938 614.072C401.621 614.072 402.229 614.216 402.762 614.504C403.295 614.781 403.717 615.203 404.026 615.768C404.335 616.333 404.49 617.021 404.49 617.832V623H403.05V618.04C403.05 617.165 402.831 616.499 402.394 616.04C401.967 615.571 401.386 615.336 400.65 615.336C399.893 615.336 399.29 615.581 398.842 616.072C398.394 616.552 398.17 617.251 398.17 618.168V623H396.73V618.04C396.73 617.165 396.511 616.499 396.074 616.04C395.647 615.571 395.066 615.336 394.33 615.336C393.573 615.336 392.97 615.581 392.522 616.072C392.074 616.552 391.85 617.251 391.85 618.168V623H390.394V614.232H391.85V615.496C392.138 615.037 392.522 614.685 393.002 614.44C393.493 614.195 394.031 614.072 394.618 614.072C395.354 614.072 396.005 614.237 396.57 614.568C397.135 614.899 397.557 615.384 397.834 616.024C398.079 615.405 398.485 614.925 399.05 614.584C399.615 614.243 400.245 614.072 400.938 614.072ZM415.038 618.28C415.038 618.557 415.022 618.851 414.99 619.16H407.982C408.036 620.024 408.329 620.701 408.862 621.192C409.406 621.672 410.062 621.912 410.83 621.912C411.46 621.912 411.982 621.768 412.398 621.48C412.825 621.181 413.124 620.787 413.294 620.296H414.862C414.628 621.139 414.158 621.827 413.454 622.36C412.75 622.883 411.876 623.144 410.83 623.144C409.998 623.144 409.252 622.957 408.59 622.584C407.94 622.211 407.428 621.683 407.054 621C406.681 620.307 406.494 619.507 406.494 618.6C406.494 617.693 406.676 616.899 407.038 616.216C407.401 615.533 407.908 615.011 408.558 614.648C409.22 614.275 409.977 614.088 410.83 614.088C411.662 614.088 412.398 614.269 413.038 614.632C413.678 614.995 414.169 615.496 414.51 616.136C414.862 616.765 415.038 617.48 415.038 618.28ZM413.534 617.976C413.534 617.421 413.412 616.947 413.166 616.552C412.921 616.147 412.585 615.843 412.158 615.64C411.742 615.427 411.278 615.32 410.766 615.32C410.03 615.32 409.401 615.555 408.878 616.024C408.366 616.493 408.073 617.144 407.998 617.976H413.534ZM418.896 615.432V620.6C418.896 621.027 418.987 621.331 419.168 621.512C419.349 621.683 419.664 621.768 420.112 621.768H421.184V623H419.872C419.061 623 418.453 622.813 418.048 622.44C417.643 622.067 417.44 621.453 417.44 620.6V615.432H416.304V614.232H417.44V612.024H418.896V614.232H421.184V615.432H418.896ZM427.46 614.072C428.122 614.072 428.719 614.216 429.252 614.504C429.786 614.781 430.202 615.203 430.5 615.768C430.81 616.333 430.964 617.021 430.964 617.832V623H429.524V618.04C429.524 617.165 429.306 616.499 428.868 616.04C428.431 615.571 427.834 615.336 427.076 615.336C426.308 615.336 425.695 615.576 425.236 616.056C424.788 616.536 424.564 617.235 424.564 618.152V623H423.108V611.16H424.564V615.48C424.852 615.032 425.247 614.685 425.748 614.44C426.26 614.195 426.831 614.072 427.46 614.072ZM434.255 612.808C433.977 612.808 433.743 612.712 433.551 612.52C433.359 612.328 433.263 612.093 433.263 611.816C433.263 611.539 433.359 611.304 433.551 611.112C433.743 610.92 433.977 610.824 434.255 610.824C434.521 610.824 434.745 610.92 434.927 611.112C435.119 611.304 435.215 611.539 435.215 611.816C435.215 612.093 435.119 612.328 434.927 612.52C434.745 612.712 434.521 612.808 434.255 612.808ZM434.959 614.232V623H433.503V614.232H434.959ZM441.872 614.072C442.939 614.072 443.803 614.397 444.464 615.048C445.125 615.688 445.456 616.616 445.456 617.832V623H444.016V618.04C444.016 617.165 443.797 616.499 443.36 616.04C442.923 615.571 442.325 615.336 441.568 615.336C440.8 615.336 440.187 615.576 439.728 616.056C439.28 616.536 439.056 617.235 439.056 618.152V623H437.6V614.232H439.056V615.48C439.344 615.032 439.733 614.685 440.224 614.44C440.725 614.195 441.275 614.072 441.872 614.072ZM451.61 614.088C452.368 614.088 453.029 614.253 453.594 614.584C454.17 614.915 454.597 615.331 454.874 615.832V614.232H456.346V623.192C456.346 623.992 456.176 624.701 455.834 625.32C455.493 625.949 455.002 626.44 454.362 626.792C453.733 627.144 452.997 627.32 452.154 627.32C451.002 627.32 450.042 627.048 449.274 626.504C448.506 625.96 448.053 625.219 447.914 624.28H449.354C449.514 624.813 449.845 625.24 450.346 625.56C450.848 625.891 451.45 626.056 452.154 626.056C452.954 626.056 453.605 625.805 454.106 625.304C454.618 624.803 454.874 624.099 454.874 623.192V621.352C454.586 621.864 454.16 622.291 453.594 622.632C453.029 622.973 452.368 623.144 451.61 623.144C450.832 623.144 450.122 622.952 449.482 622.568C448.853 622.184 448.357 621.645 447.994 620.952C447.632 620.259 447.45 619.469 447.45 618.584C447.45 617.688 447.632 616.904 447.994 616.232C448.357 615.549 448.853 615.021 449.482 614.648C450.122 614.275 450.832 614.088 451.61 614.088ZM454.874 618.6C454.874 617.939 454.741 617.363 454.474 616.872C454.208 616.381 453.845 616.008 453.386 615.752C452.938 615.485 452.442 615.352 451.898 615.352C451.354 615.352 450.858 615.48 450.41 615.736C449.962 615.992 449.605 616.365 449.338 616.856C449.072 617.347 448.938 617.923 448.938 618.584C448.938 619.256 449.072 619.843 449.338 620.344C449.605 620.835 449.962 621.213 450.41 621.48C450.858 621.736 451.354 621.864 451.898 621.864C452.442 621.864 452.938 621.736 453.386 621.48C453.845 621.213 454.208 620.835 454.474 620.344C454.741 619.843 454.874 619.261 454.874 618.6ZM462.849 618.584C462.849 617.688 463.03 616.904 463.393 616.232C463.755 615.549 464.251 615.021 464.881 614.648C465.521 614.275 466.23 614.088 467.009 614.088C467.777 614.088 468.443 614.253 469.009 614.584C469.574 614.915 469.995 615.331 470.273 615.832V614.232H471.745V623H470.273V621.368C469.985 621.88 469.553 622.307 468.977 622.648C468.411 622.979 467.75 623.144 466.993 623.144C466.214 623.144 465.51 622.952 464.881 622.568C464.251 622.184 463.755 621.645 463.393 620.952C463.03 620.259 462.849 619.469 462.849 618.584ZM470.273 618.6C470.273 617.939 470.139 617.363 469.873 616.872C469.606 616.381 469.243 616.008 468.785 615.752C468.337 615.485 467.841 615.352 467.297 615.352C466.753 615.352 466.257 615.48 465.809 615.736C465.361 615.992 465.003 616.365 464.737 616.856C464.47 617.347 464.337 617.923 464.337 618.584C464.337 619.256 464.47 619.843 464.737 620.344C465.003 620.835 465.361 621.213 465.809 621.48C466.257 621.736 466.753 621.864 467.297 621.864C467.841 621.864 468.337 621.736 468.785 621.48C469.243 621.213 469.606 620.835 469.873 620.344C470.139 619.843 470.273 619.261 470.273 618.6ZM484.909 614.072C485.592 614.072 486.2 614.216 486.733 614.504C487.266 614.781 487.688 615.203 487.997 615.768C488.306 616.333 488.461 617.021 488.461 617.832V623H487.021V618.04C487.021 617.165 486.802 616.499 486.365 616.04C485.938 615.571 485.357 615.336 484.621 615.336C483.864 615.336 483.261 615.581 482.813 616.072C482.365 616.552 482.141 617.251 482.141 618.168V623H480.701V618.04C480.701 617.165 480.482 616.499 480.045 616.04C479.618 615.571 479.037 615.336 478.301 615.336C477.544 615.336 476.941 615.581 476.493 616.072C476.045 616.552 475.821 617.251 475.821 618.168V623H474.365V614.232H475.821V615.496C476.109 615.037 476.493 614.685 476.973 614.44C477.464 614.195 478.002 614.072 478.589 614.072C479.325 614.072 479.976 614.237 480.541 614.568C481.106 614.899 481.528 615.384 481.805 616.024C482.05 615.405 482.456 614.925 483.021 614.584C483.586 614.243 484.216 614.072 484.909 614.072ZM490.466 618.584C490.466 617.688 490.647 616.904 491.01 616.232C491.372 615.549 491.868 615.021 492.498 614.648C493.138 614.275 493.847 614.088 494.626 614.088C495.394 614.088 496.06 614.253 496.626 614.584C497.191 614.915 497.612 615.331 497.89 615.832V614.232H499.362V623H497.89V621.368C497.602 621.88 497.17 622.307 496.594 622.648C496.028 622.979 495.367 623.144 494.61 623.144C493.831 623.144 493.127 622.952 492.498 622.568C491.868 622.184 491.372 621.645 491.01 620.952C490.647 620.259 490.466 619.469 490.466 618.584ZM497.89 618.6C497.89 617.939 497.756 617.363 497.49 616.872C497.223 616.381 496.86 616.008 496.402 615.752C495.954 615.485 495.458 615.352 494.914 615.352C494.37 615.352 493.874 615.48 493.426 615.736C492.978 615.992 492.62 616.365 492.354 616.856C492.087 617.347 491.954 617.923 491.954 618.584C491.954 619.256 492.087 619.843 492.354 620.344C492.62 620.835 492.978 621.213 493.426 621.48C493.874 621.736 494.37 621.864 494.914 621.864C495.458 621.864 495.954 621.736 496.402 621.48C496.86 621.213 497.223 620.835 497.49 620.344C497.756 619.843 497.89 619.261 497.89 618.6ZM503.07 621.8H507.374V623H501.406V621.8L505.662 615.416H501.438V614.232H507.342V615.416L503.07 621.8ZM510.175 612.808C509.898 612.808 509.663 612.712 509.471 612.52C509.279 612.328 509.183 612.093 509.183 611.816C509.183 611.539 509.279 611.304 509.471 611.112C509.663 610.92 509.898 610.824 510.175 610.824C510.442 610.824 510.666 610.92 510.847 611.112C511.039 611.304 511.135 611.539 511.135 611.816C511.135 612.093 511.039 612.328 510.847 612.52C510.666 612.712 510.442 612.808 510.175 612.808ZM510.879 614.232V623H509.423V614.232H510.879ZM517.793 614.072C518.859 614.072 519.723 614.397 520.385 615.048C521.046 615.688 521.377 616.616 521.377 617.832V623H519.937V618.04C519.937 617.165 519.718 616.499 519.281 616.04C518.843 615.571 518.246 615.336 517.489 615.336C516.721 615.336 516.107 615.576 515.649 616.056C515.201 616.536 514.977 617.235 514.977 618.152V623H513.521V614.232H514.977V615.48C515.265 615.032 515.654 614.685 516.145 614.44C516.646 614.195 517.195 614.072 517.793 614.072ZM527.531 614.088C528.288 614.088 528.95 614.253 529.515 614.584C530.091 614.915 530.518 615.331 530.795 615.832V614.232H532.267V623.192C532.267 623.992 532.096 624.701 531.755 625.32C531.414 625.949 530.923 626.44 530.283 626.792C529.654 627.144 528.918 627.32 528.075 627.32C526.923 627.32 525.963 627.048 525.195 626.504C524.427 625.96 523.974 625.219 523.835 624.28H525.275C525.435 624.813 525.766 625.24 526.267 625.56C526.768 625.891 527.371 626.056 528.075 626.056C528.875 626.056 529.526 625.805 530.027 625.304C530.539 624.803 530.795 624.099 530.795 623.192V621.352C530.507 621.864 530.08 622.291 529.515 622.632C528.95 622.973 528.288 623.144 527.531 623.144C526.752 623.144 526.043 622.952 525.403 622.568C524.774 622.184 524.278 621.645 523.915 620.952C523.552 620.259 523.371 619.469 523.371 618.584C523.371 617.688 523.552 616.904 523.915 616.232C524.278 615.549 524.774 615.021 525.403 614.648C526.043 614.275 526.752 614.088 527.531 614.088ZM530.795 618.6C530.795 617.939 530.662 617.363 530.395 616.872C530.128 616.381 529.766 616.008 529.307 615.752C528.859 615.485 528.363 615.352 527.819 615.352C527.275 615.352 526.779 615.48 526.331 615.736C525.883 615.992 525.526 616.365 525.259 616.856C524.992 617.347 524.859 617.923 524.859 618.584C524.859 619.256 524.992 619.843 525.259 620.344C525.526 620.835 525.883 621.213 526.331 621.48C526.779 621.736 527.275 621.864 527.819 621.864C528.363 621.864 528.859 621.736 529.307 621.48C529.766 621.213 530.128 620.835 530.395 620.344C530.662 619.843 530.795 619.261 530.795 618.6Z" fill="#2E2E2E"/>
<path d="M200.245 553.59L192.417 580H187.515L181.967 560.012L176.077 580L171.213 580.038L163.727 553.59H168.325L173.797 575.098L179.725 553.59H184.589L190.099 574.984L195.609 553.59H200.245ZM208.53 557.086V564.838H217.65V568.372H208.53V576.466H218.79V580H204.198V553.552H218.79V557.086H208.53ZM250.679 574.604H239.621L237.721 580H233.199L242.661 553.552H247.677L257.139 580H252.579L250.679 574.604ZM249.463 571.07L245.169 558.796L240.837 571.07H249.463ZM275.351 580L269.271 569.436H265.965V580H261.633V553.59H270.753C272.78 553.59 274.49 553.945 275.883 554.654C277.302 555.363 278.353 556.313 279.037 557.504C279.746 558.695 280.101 560.025 280.101 561.494C280.101 563.217 279.594 564.787 278.581 566.206C277.593 567.599 276.06 568.549 273.983 569.056L280.519 580H275.351ZM265.965 565.978H270.753C272.374 565.978 273.59 565.573 274.401 564.762C275.237 563.951 275.655 562.862 275.655 561.494C275.655 560.126 275.25 559.062 274.439 558.302C273.628 557.517 272.4 557.124 270.753 557.124H265.965V565.978ZM290.355 557.086V564.838H299.475V568.372H290.355V576.466H300.615V580H286.023V553.552H300.615V557.086H290.355ZM315.138 566.738C315.138 564.154 315.733 561.836 316.924 559.784C318.14 557.732 319.774 556.136 321.826 554.996C323.903 553.831 326.17 553.248 328.628 553.248C331.44 553.248 333.935 553.945 336.114 555.338C338.318 556.706 339.914 558.657 340.902 561.19H335.696C335.012 559.797 334.062 558.758 332.846 558.074C331.63 557.39 330.224 557.048 328.628 557.048C326.88 557.048 325.322 557.441 323.954 558.226C322.586 559.011 321.509 560.139 320.724 561.608C319.964 563.077 319.584 564.787 319.584 566.738C319.584 568.689 319.964 570.399 320.724 571.868C321.509 573.337 322.586 574.477 323.954 575.288C325.322 576.073 326.88 576.466 328.628 576.466C330.224 576.466 331.63 576.124 332.846 575.44C334.062 574.756 335.012 573.717 335.696 572.324H340.902C339.914 574.857 338.318 576.808 336.114 578.176C333.935 579.544 331.44 580.228 328.628 580.228C326.145 580.228 323.878 579.658 321.826 578.518C319.774 577.353 318.14 575.744 316.924 573.692C315.733 571.64 315.138 569.322 315.138 566.738ZM358.398 580.266C355.941 580.266 353.674 579.696 351.596 578.556C349.544 577.391 347.91 575.782 346.694 573.73C345.504 571.653 344.908 569.322 344.908 566.738C344.908 564.154 345.504 561.836 346.694 559.784C347.91 557.732 349.544 556.136 351.596 554.996C353.674 553.831 355.941 553.248 358.398 553.248C360.881 553.248 363.148 553.831 365.2 554.996C367.278 556.136 368.912 557.732 370.102 559.784C371.293 561.836 371.888 564.154 371.888 566.738C371.888 569.322 371.293 571.653 370.102 573.73C368.912 575.782 367.278 577.391 365.2 578.556C363.148 579.696 360.881 580.266 358.398 580.266ZM358.398 576.504C360.146 576.504 361.704 576.111 363.072 575.326C364.44 574.515 365.504 573.375 366.264 571.906C367.05 570.411 367.442 568.689 367.442 566.738C367.442 564.787 367.05 563.077 366.264 561.608C365.504 560.139 364.44 559.011 363.072 558.226C361.704 557.441 360.146 557.048 358.398 557.048C356.65 557.048 355.092 557.441 353.724 558.226C352.356 559.011 351.28 560.139 350.494 561.608C349.734 563.077 349.354 564.787 349.354 566.738C349.354 568.689 349.734 570.411 350.494 571.906C351.28 573.375 352.356 574.515 353.724 575.326C355.092 576.111 356.65 576.504 358.398 576.504ZM404.347 553.59V580H400.015V561.912L391.959 580H388.957L380.863 561.912V580H376.531V553.59H381.205L390.477 574.3L399.711 553.59H404.347ZM414.753 553.59V580H410.421V553.59H414.753ZM442.518 580H438.186L425.152 560.278V580H420.82V553.552H425.152L438.186 573.236V553.552H442.518V580ZM467.701 561.19C467.017 559.873 466.067 558.885 464.851 558.226C463.635 557.542 462.229 557.2 460.633 557.2C458.885 557.2 457.327 557.593 455.959 558.378C454.591 559.163 453.514 560.278 452.729 561.722C451.969 563.166 451.589 564.838 451.589 566.738C451.589 568.638 451.969 570.323 452.729 571.792C453.514 573.236 454.591 574.351 455.959 575.136C457.327 575.921 458.885 576.314 460.633 576.314C462.989 576.314 464.902 575.655 466.371 574.338C467.84 573.021 468.74 571.235 469.069 568.98H459.151V565.522H473.705V568.904C473.426 570.956 472.692 572.843 471.501 574.566C470.336 576.289 468.803 577.669 466.903 578.708C465.028 579.721 462.938 580.228 460.633 580.228C458.15 580.228 455.883 579.658 453.831 578.518C451.779 577.353 450.145 575.744 448.929 573.692C447.738 571.64 447.143 569.322 447.143 566.738C447.143 564.154 447.738 561.836 448.929 559.784C450.145 557.732 451.779 556.136 453.831 554.996C455.908 553.831 458.176 553.248 460.633 553.248C463.445 553.248 465.94 553.945 468.119 555.338C470.323 556.706 471.919 558.657 472.907 561.19H467.701ZM497.311 580.266C495.538 580.266 493.942 579.962 492.523 579.354C491.104 578.721 489.99 577.834 489.179 576.694C488.368 575.554 487.963 574.224 487.963 572.704H492.599C492.7 573.844 493.144 574.781 493.929 575.516C494.74 576.251 495.867 576.618 497.311 576.618C498.806 576.618 499.971 576.263 500.807 575.554C501.643 574.819 502.061 573.882 502.061 572.742C502.061 571.855 501.795 571.133 501.263 570.576C500.756 570.019 500.11 569.588 499.325 569.284C498.565 568.98 497.501 568.651 496.133 568.296C494.41 567.84 493.004 567.384 491.915 566.928C490.851 566.447 489.939 565.712 489.179 564.724C488.419 563.736 488.039 562.419 488.039 560.772C488.039 559.252 488.419 557.922 489.179 556.782C489.939 555.642 491.003 554.768 492.371 554.16C493.739 553.552 495.322 553.248 497.121 553.248C499.68 553.248 501.77 553.894 503.391 555.186C505.038 556.453 505.95 558.201 506.127 560.43H501.339C501.263 559.467 500.807 558.644 499.971 557.96C499.135 557.276 498.033 556.934 496.665 556.934C495.424 556.934 494.41 557.251 493.625 557.884C492.84 558.517 492.447 559.429 492.447 560.62C492.447 561.431 492.688 562.102 493.169 562.634C493.676 563.141 494.309 563.546 495.069 563.85C495.829 564.154 496.868 564.483 498.185 564.838C499.933 565.319 501.352 565.801 502.441 566.282C503.556 566.763 504.493 567.511 505.253 568.524C506.038 569.512 506.431 570.842 506.431 572.514C506.431 573.857 506.064 575.123 505.329 576.314C504.62 577.505 503.568 578.467 502.175 579.202C500.807 579.911 499.186 580.266 497.311 580.266ZM523.968 580.266C521.511 580.266 519.244 579.696 517.166 578.556C515.114 577.391 513.48 575.782 512.264 573.73C511.074 571.653 510.478 569.322 510.478 566.738C510.478 564.154 511.074 561.836 512.264 559.784C513.48 557.732 515.114 556.136 517.166 554.996C519.244 553.831 521.511 553.248 523.968 553.248C526.451 553.248 528.718 553.831 530.77 554.996C532.848 556.136 534.482 557.732 535.672 559.784C536.863 561.836 537.458 564.154 537.458 566.738C537.458 569.322 536.863 571.653 535.672 573.73C534.482 575.782 532.848 577.391 530.77 578.556C528.718 579.696 526.451 580.266 523.968 580.266ZM523.968 576.504C525.716 576.504 527.274 576.111 528.642 575.326C530.01 574.515 531.074 573.375 531.834 571.906C532.62 570.411 533.012 568.689 533.012 566.738C533.012 564.787 532.62 563.077 531.834 561.608C531.074 560.139 530.01 559.011 528.642 558.226C527.274 557.441 525.716 557.048 523.968 557.048C522.22 557.048 520.662 557.441 519.294 558.226C517.926 559.011 516.85 560.139 516.064 561.608C515.304 563.077 514.924 564.787 514.924 566.738C514.924 568.689 515.304 570.411 516.064 571.906C516.85 573.375 517.926 574.515 519.294 575.326C520.662 576.111 522.22 576.504 523.968 576.504ZM554.147 580.266C551.69 580.266 549.423 579.696 547.345 578.556C545.293 577.391 543.659 575.782 542.443 573.73C541.253 571.653 540.657 569.322 540.657 566.738C540.657 564.154 541.253 561.836 542.443 559.784C543.659 557.732 545.293 556.136 547.345 554.996C549.423 553.831 551.69 553.248 554.147 553.248C556.63 553.248 558.897 553.831 560.949 554.996C563.027 556.136 564.661 557.732 565.851 559.784C567.042 561.836 567.637 564.154 567.637 566.738C567.637 569.322 567.042 571.653 565.851 573.73C564.661 575.782 563.027 577.391 560.949 578.556C558.897 579.696 556.63 580.266 554.147 580.266ZM554.147 576.504C555.895 576.504 557.453 576.111 558.821 575.326C560.189 574.515 561.253 573.375 562.013 571.906C562.799 570.411 563.191 568.689 563.191 566.738C563.191 564.787 562.799 563.077 562.013 561.608C561.253 560.139 560.189 559.011 558.821 558.226C557.453 557.441 555.895 557.048 554.147 557.048C552.399 557.048 550.841 557.441 549.473 558.226C548.105 559.011 547.029 560.139 546.243 561.608C545.483 563.077 545.103 564.787 545.103 566.738C545.103 568.689 545.483 570.411 546.243 571.906C547.029 573.375 548.105 574.515 549.473 575.326C550.841 576.111 552.399 576.504 554.147 576.504ZM593.978 580H589.646L576.612 560.278V580H572.28V553.552H576.612L589.646 573.236V553.552H593.978V580ZM605.481 553.59L604.987 572.02H601.377L600.883 553.59H605.481ZM603.315 580.266C602.529 580.266 601.871 580 601.339 579.468C600.807 578.936 600.541 578.277 600.541 577.492C600.541 576.707 600.807 576.048 601.339 575.516C601.871 574.984 602.529 574.718 603.315 574.718C604.075 574.718 604.721 574.984 605.253 575.516C605.785 576.048 606.051 576.707 606.051 577.492C606.051 578.277 605.785 578.936 605.253 579.468C604.721 580 604.075 580.266 603.315 580.266ZM618.07 553.59L617.576 572.02H613.966L613.472 553.59H618.07ZM615.904 580.266C615.118 580.266 614.46 580 613.928 579.468C613.396 578.936 613.13 578.277 613.13 577.492C613.13 576.707 613.396 576.048 613.928 575.516C614.46 574.984 615.118 574.718 615.904 574.718C616.664 574.718 617.31 574.984 617.842 575.516C618.374 576.048 618.64 576.707 618.64 577.492C618.64 578.277 618.374 578.936 617.842 579.468C617.31 580 616.664 580.266 615.904 580.266Z" fill="black"/>
<path d="M542.143 417.356C543.715 414.116 546.319 410.14 550.544 408.962C557.028 407.146 561.646 413.625 571.324 418.337C588.812 426.878 604.041 420.497 605.466 425.258C606.595 429.037 597.507 435.173 591.612 438.118C579.773 444.008 557.421 448.769 547.105 436.154C545.582 434.289 541.357 428.448 542.143 417.356Z" fill="#161616" stroke="#161616" stroke-width="3" stroke-miterlimit="10"/>
<path d="M528.782 423.737C526.669 421.724 525.736 419.172 525.343 417.307C529.027 404.987 536.691 395.612 545.631 394.581C551.379 393.943 557.028 396.79 561.45 399.048C568.671 402.68 568.818 405.085 575.794 409.404C587.535 416.718 595.886 415.392 596.574 419.27C597.213 422.902 590.63 427.909 584.194 430.166C571.275 434.682 567.197 425.307 547.105 426.191C539.982 426.534 533.35 428.056 528.782 423.737Z" fill="#161616" stroke="#161616" stroke-width="3" stroke-miterlimit="10"/>
<path d="M440.16 343.632C441.143 349.719 442.665 359.584 444.237 371.757C450.231 417.503 447.824 424.178 454.996 433.7C471.551 455.69 508.444 451.959 511.342 451.616C532.368 449.211 546.614 438.167 552.312 433.209C549.07 427.565 545.828 421.969 542.586 416.325C526.374 416.472 510.163 416.668 493.903 416.816C497.391 404.25 501.468 383.144 497.98 357.474C495.327 337.841 489.236 322.33 484.127 311.925C470.765 312.906 455.34 315.115 438.539 319.582C430.433 321.741 422.917 324.195 415.991 326.748C415.647 336.024 415.205 349.228 414.959 365.131C414.124 425.307 417.563 437.676 426.209 443.959C430.433 447.002 437.802 447.247 452.343 447.542C477.642 448.082 499.061 441.455 524.066 433.7C529.715 431.933 534.284 430.412 537.084 429.479C535.659 418.239 534.185 407.048 532.761 395.808C522.788 398.508 512.374 401.06 501.566 403.514C491.201 405.821 481.13 407.882 471.354 409.649" fill="#7333EB"/>
<path d="M434.806 351.387C439.915 353.302 440.799 359.732 441.29 364.444C441.978 370.775 442.371 377.107 442.764 383.488C443.55 395.906 444.385 408.373 447.48 420.448C447.725 421.38 449.15 420.988 448.904 420.055C445.367 406.263 444.827 392.028 443.894 377.942C443.501 371.904 443.353 365.671 442.076 359.732C441.192 355.609 439.374 351.584 435.199 350.013C434.314 349.67 433.921 351.093 434.806 351.387Z" fill="#281472"/>
<path d="M458.14 436.302C461.922 439.59 465.607 443.419 469.831 446.217C473.909 448.916 478.821 449.898 483.586 450.781C484.52 450.978 484.913 449.554 483.979 449.358C479.362 448.474 474.597 447.591 470.568 444.94C466.491 442.241 462.905 438.51 459.171 435.271C458.484 434.633 457.403 435.713 458.14 436.302Z" fill="#281472"/>
<path d="M494.738 411.76C500.092 411.858 505.3 412.84 510.311 414.656C511.195 415 511.588 413.576 510.703 413.233C505.545 411.367 500.191 410.386 494.738 410.288C493.755 410.238 493.755 411.711 494.738 411.76Z" fill="#281472"/>
<path opacity="0.58" d="M415.774 360.048C416.066 355.632 419.178 351.691 423.361 349.886C427.738 348.035 433.185 349.269 436.54 351.881C442.376 356.344 441.89 364.749 442.133 374.91C442.571 393.476 443.106 415.745 454.292 430.608C456.869 434.026 461.538 439.107 470 443.476C465.623 445.517 457.793 448.461 447.921 447.939C443.641 447.702 432.115 446.989 423.847 438.775C419.811 434.786 416.309 428.708 415.239 399.411C414.899 389.392 414.801 375.955 415.774 360.048Z" fill="#652CD0"/>
<path opacity="0.59" d="M496.015 405.134C508.247 401.992 520.48 398.851 532.712 395.71C533.449 402.483 534.136 409.306 534.873 416.079C529.322 414.558 523.034 413.134 516.206 412.005C508.297 410.729 501.026 410.091 494.542 409.846C495.033 408.275 495.524 406.704 496.015 405.134Z" fill="#652CD0"/>
<path d="M419.036 205.168C418.889 201.733 419.282 197.953 421.541 196.677C429.647 192.161 459.27 221.268 473.811 253.515C479.509 266.179 486.485 287.334 484.962 316.342C462.463 320.465 440.013 324.637 417.513 328.76C413.682 322.33 407.197 312.563 397.225 302.255C387.252 291.948 383.47 291.162 379.196 283.653C370.059 267.553 374.971 249.245 376.199 244.631C377.82 238.643 381.357 225.783 393.639 215.819C403.513 207.77 414.124 205.757 419.036 205.168Z" fill="white" stroke="#161616" stroke-width="3" stroke-miterlimit="10"/>
<path opacity="0.36" d="M418.201 213.022C424.047 217.047 444.434 232.017 452.687 260.633C461.677 291.948 449.739 317.52 446.792 323.361C459.663 321.201 472.583 319.091 485.453 316.931C486.239 304.464 485.945 282.475 476.218 257.589C464.035 226.471 443.599 207.868 433.479 199.769C428.37 204.187 423.31 208.604 418.201 213.022Z" fill="#828181"/>
<path opacity="0.4" d="M469.782 246.791C470.617 251.552 471.6 258.522 471.993 267.062C472.681 282.131 473.221 292.88 467.915 303.875C465.852 308.194 461.284 315.851 451.36 322.821C462.61 320.76 473.81 318.747 485.06 316.686C485.6 306.427 485.158 292.095 480.983 275.75C477.888 264.019 473.712 254.252 469.782 246.791Z" fill="#828181"/>
<path d="M323.586 201.095C327.025 206.101 330.12 210.224 332.625 213.365C338.766 221.17 341.124 223.182 344.415 223.869C347.216 224.458 349.868 223.967 351.44 223.624C355.812 222.74 357.581 220.973 360.479 219.599C364.311 217.832 365.834 218.715 378.263 218.863C387.252 218.961 386.27 218.47 394.326 218.617C401.4 218.765 407.246 219.206 411.373 219.599C410.194 218.666 409.015 217.783 407.885 216.85C406.264 216.409 401.548 214.936 397.863 210.322C394.818 206.494 394.081 202.567 393.835 200.8C394.867 200.506 396.684 199.769 397.863 198.051C400.32 194.419 397.765 189.462 396.881 187.793C395.8 185.731 393.835 182.001 391.133 182.296C389.119 182.492 387.203 184.848 386.614 188.038C381.996 189.511 375.02 190.885 367.799 188.529C354.191 184.063 351.391 169.927 343.973 169.73C339.159 169.681 332.331 175.277 323.586 201.095Z" fill="white"/>
<path d="M322.26 198.837C326.141 207.721 332.036 215.574 339.454 221.808C340.191 222.397 341.223 221.366 340.486 220.777C333.117 214.592 327.369 206.886 323.488 198.1C323.145 197.266 321.867 198.002 322.26 198.837Z" fill="#171515"/>
<path d="M345.84 209.439C346.282 211.942 346.823 214.396 347.461 216.85C348.051 218.961 348.493 221.513 349.574 223.427C351.097 226.127 355.96 222.789 357.532 221.562C358.269 220.973 357.237 219.943 356.5 220.532C355.42 221.366 353.258 223.035 351.784 222.838C350.163 222.642 349.77 219.452 349.377 218.225C348.493 215.231 347.805 212.187 347.265 209.095C347.068 208.113 345.644 208.506 345.84 209.439Z" fill="#171515"/>
<path d="M339.11 209.733C337.244 208.163 334.836 206.15 335.721 203.401C335.328 203.5 334.886 203.598 334.493 203.745C336.408 205.61 337.882 207.819 338.816 210.322C338.963 210.028 339.159 209.733 339.307 209.439C339.012 209.193 338.668 208.948 338.373 208.752C338.128 207.819 336.703 208.212 336.949 209.144C337.293 210.469 338.373 211.058 339.7 210.862C340.093 210.813 340.338 210.273 340.191 209.979C339.159 207.23 337.587 204.825 335.475 202.763C335.082 202.371 334.394 202.567 334.247 203.107C333.215 206.396 335.671 208.948 338.029 210.862C338.766 211.353 339.847 210.322 339.11 209.733Z" fill="#171515"/>
<path d="M334.492 204.285C335.671 206.101 336.85 207.917 338.029 209.733C338.521 210.519 339.798 209.782 339.307 208.997C338.128 207.181 336.949 205.365 335.77 203.549C335.278 202.714 334.001 203.451 334.492 204.285Z" fill="#171515"/>
<path d="M356.697 202.223C355.813 201.193 354.879 200.015 354.437 198.689C354.29 198.297 354.241 197.855 354.241 197.462C354.339 196.824 354.486 196.775 354.781 197.266C355.272 197.462 355.714 198.395 356.009 198.837C356.697 199.867 357.335 200.996 357.679 202.125C357.876 202.763 358.121 202.861 357.434 202.567C356.795 202.272 356.206 201.585 355.763 201.094C355.125 200.358 354.093 201.438 354.732 202.125C355.518 203.009 358.072 205.61 359.104 203.598C360.037 201.782 357.728 198.591 356.697 197.266C355.813 196.137 353.7 193.879 352.865 196.382C352.03 198.886 354.142 201.487 355.616 203.205C356.255 203.99 357.286 202.96 356.697 202.223Z" fill="#171515"/>
<path d="M353.454 197.511C354.584 199.328 355.714 201.144 356.844 202.96C357.335 203.745 358.613 203.009 358.121 202.223C357.09 200.555 356.205 198.886 355.37 197.119C354.977 197.413 354.584 197.708 354.191 198.002C355.321 199.082 356.156 200.358 356.697 201.831C357.041 202.714 358.465 202.322 358.121 201.438C357.483 199.72 356.549 198.248 355.223 196.972C354.584 196.383 353.7 197.119 354.044 197.855C354.879 199.622 355.763 201.34 356.795 202.96C357.237 202.714 357.63 202.469 358.072 202.223C356.942 200.407 355.812 198.591 354.683 196.775C354.24 195.99 352.963 196.726 353.454 197.511Z" fill="#171515"/>
<path d="M392.804 205.316C394.327 209.341 394.179 213.562 392.214 217.39C391.772 218.225 393.049 218.961 393.491 218.126C395.604 213.954 395.899 209.291 394.228 204.923C393.884 204.089 392.46 204.432 392.804 205.316Z" fill="#171515"/>
<path d="M316.365 169.387C315.579 170.466 308.456 180.43 312.239 192.947C315.972 205.316 327.124 209.733 328.401 210.224C327.86 207.181 326.976 199.671 330.611 191.327C334.934 181.265 342.893 176.553 345.447 175.178C347.068 177.534 353.209 185.879 364.901 189.167C375.364 192.063 384.01 189.167 386.86 188.087C387.4 187.204 389.463 184.161 392.067 184.259C395.8 184.406 399.485 191.18 397.274 195.793C395.899 198.689 392.656 199.671 391.772 199.916C392.312 202.027 393.442 205.217 395.899 208.408C400.025 213.856 405.429 215.967 408.524 217.194C411.569 218.372 436.476 227.845 451.312 212.236C459.319 203.843 463.151 189.462 457.894 179.596C453.62 171.644 446.104 171.595 425.816 162.613C401.499 151.815 404.839 148.526 390.446 143.961C382.93 141.556 355.272 132.77 333.657 147.79C323.783 154.613 318.772 163.84 316.365 169.387Z" fill="#272727"/>
<path d="M305.656 252.73C305.459 249.883 305.361 241.686 310.716 234.177C318.92 222.691 333.068 222.446 335.475 222.397C339.749 222.299 345.398 223.035 358.465 230.201C366.964 234.864 378.606 242.177 391.035 253.614C394.179 253.81 399.386 254.497 404.741 257.589C410.439 260.829 421.001 269.369 418.742 278.548C417.464 283.751 412.208 288.806 407.197 288.561C399.141 288.168 393.933 274.327 392.263 275.161C390.937 275.799 394.965 284.045 393.197 285.174C391.575 286.205 385.189 281.248 382.242 274.523C379.834 269.124 380.228 264.019 380.719 261.123C368.929 255.577 349.475 248.607 325.404 249.834C318.035 250.276 311.453 251.356 305.656 252.73Z" fill="white" stroke="#161616" stroke-width="3" stroke-miterlimit="10"/>
<path opacity="0.34" d="M305.754 251.749C307.522 242.226 311.698 237.858 314.105 235.944C329.187 223.771 357.777 238.447 366.276 242.766C376.297 247.871 383.814 254.105 387.449 257.295C394.719 263.725 392.902 264.117 402.825 273.541C409.653 280.02 414.517 283.702 413.534 286.352C412.699 288.512 408.573 288.708 408.18 288.708C398.6 289.052 392.017 274.229 391.723 273.541C394.081 282.131 393.639 284.733 392.558 285.272C390.495 286.352 384.403 280.659 381.849 273.934C379.834 268.633 380.424 263.676 381.013 260.878C373.694 257.589 364.409 254.301 353.454 252.141C333.755 248.313 316.954 249.785 305.754 251.749Z" fill="#828181"/>
<path d="M265.275 256.755C263.703 265.148 261.738 282.867 269.746 302.206C284.778 338.577 322.064 349.277 327.074 350.602C327.222 356.345 327.418 362.137 327.566 367.88C318.428 372.199 304.919 379.758 291.459 392.568C281.486 402.091 264.096 419.073 257.366 446.904C253.24 463.936 254.468 479.299 256.875 490.882C316.218 491.864 375.512 492.846 434.855 493.827C436.771 482.636 438.883 460.353 429.402 435.565C412.454 391.243 371.925 374.015 364.164 370.874C364.016 363.118 363.82 355.412 363.673 347.657C371.287 345.988 388.923 341.08 403.709 325.422C428.37 299.359 424.637 265.246 423.998 260.24C371.041 259.062 318.134 257.933 265.275 256.755Z" fill="white" stroke="#161616" stroke-width="3" stroke-miterlimit="10"/>
<path d="M274.756 311.287C279.619 313.937 284.827 315.95 290.378 316.735C294.406 317.275 298.238 316.931 302.266 316.489C307.375 315.9 312.435 315.459 317.495 314.575C322.653 313.692 327.565 312.17 332.674 311.041C334.05 310.747 335.327 310.6 336.703 310.894C339.405 311.434 340.977 313.103 343.04 314.673C345.889 316.833 349.573 316.686 352.521 314.919C354.093 313.937 355.518 312.71 357.09 311.777C359.398 310.403 361.953 309.716 364.655 309.52C367.553 309.323 370.501 309.52 373.35 310.06C376.74 310.698 379.736 312.072 382.978 313.103C389.365 315.164 391.33 308.342 396.291 306.035C402.235 303.237 410.439 303.531 416.678 304.857C417.612 305.053 418.005 303.63 417.071 303.433C411.667 302.255 406.362 302.304 400.909 303.237C398.6 303.63 396.39 304.17 394.375 305.397C392.067 306.82 390.74 308.98 388.775 310.747C385.926 313.299 382.635 311.336 379.638 310.207C376.936 309.225 374.087 308.587 371.188 308.243C366.374 307.654 361.265 307.851 356.893 310.207C353.307 312.17 350.212 316.097 345.693 314.428C343.728 313.692 342.499 311.876 340.731 310.845C339.306 309.961 337.587 309.421 335.917 309.274C332.724 309.029 329.432 310.403 326.337 311.188C320.491 312.661 314.498 313.643 308.456 314.281C303.74 314.772 298.876 315.655 294.111 315.508C287.529 315.311 281.241 313.103 275.542 309.961C274.658 309.52 273.921 310.796 274.756 311.287Z" fill="#161616"/>
<path d="M327.811 361.99C328.597 363.855 329.383 365.818 330.709 367.389C331.544 368.419 332.822 369.205 333.362 370.53C333.902 371.904 333.902 373.72 334.099 375.193C334.738 380.249 335.425 385.304 337.538 390.016C337.931 390.9 339.208 390.114 338.815 389.28C336.506 384.224 336.064 378.727 335.327 373.279C335.081 371.512 334.983 369.696 333.706 368.321C331.741 366.162 330.415 364.395 329.236 361.597C328.892 360.713 327.467 361.106 327.811 361.99Z" fill="#161616"/>
<path d="M359.939 366.26C357.777 364.591 356.107 367.683 355.321 369.352C354.535 370.923 353.946 372.542 353.553 374.211C353.11 376.126 353.209 378.334 352.324 380.101C351.489 381.917 350.114 383.439 349.328 385.304C348.591 386.973 348.051 388.74 347.559 390.507C346.429 394.924 345.791 399.489 345.005 403.956C344.857 404.888 346.282 405.281 346.429 404.348C347.608 397.624 348.198 390.114 351.588 384.077C352.374 382.703 353.405 381.525 353.946 380.052C354.339 379.021 354.388 377.942 354.535 376.911C354.682 375.831 357.433 366.162 358.907 367.29C359.595 367.879 360.676 366.849 359.939 366.26Z" fill="#161616"/>
<path d="M344.17 424.08C343.728 423.295 343.285 422.362 343.482 421.479C343.777 420.104 345.3 419.908 345.791 421.233C346.38 422.804 345.447 424.62 344.366 425.651C344.661 425.602 344.956 425.552 345.25 425.552C344.661 425.111 344.071 424.669 343.531 424.276C342.745 423.687 342.057 425.013 342.794 425.552C343.384 425.994 343.973 426.436 344.514 426.829C344.759 427.025 345.201 426.927 345.398 426.731C347.166 425.013 348.787 420.399 345.693 419.024C344.464 418.485 343.089 419.123 342.401 420.252C341.517 421.724 342.106 423.491 342.892 424.865C343.335 425.651 344.612 424.914 344.17 424.08Z" fill="#161616"/>
<path d="M340.289 440.965C339.945 440.277 339.405 439.345 339.552 438.51C339.65 438.02 340.289 437.332 340.78 437.774C341.272 438.167 341.321 439.345 341.173 439.885C341.026 440.376 340.191 441.21 339.749 440.572C339.208 439.836 337.931 440.572 338.471 441.308C339.257 442.437 340.879 442.535 341.91 441.554C343.04 440.474 342.942 438.314 342.107 437.087C341.272 435.86 339.65 436.056 338.766 437.087C337.489 438.461 338.275 440.376 339.012 441.799C339.454 442.535 340.731 441.799 340.289 440.965Z" fill="#161616"/>
<path d="M347.412 446.806C346.773 446.315 347.412 444.695 348.296 445.186C348.689 445.382 348.935 445.971 348.837 446.413C348.689 447.051 347.854 446.953 347.51 446.609C346.823 445.922 345.791 447.002 346.479 447.64C347.51 448.622 349.426 448.622 350.114 447.247C350.654 446.118 350.163 444.695 349.181 444.008C348.1 443.272 346.724 443.713 346.086 444.842C345.447 445.971 345.644 447.345 346.724 448.082C347.412 448.622 348.149 447.345 347.412 446.806Z" fill="#161616"/>
<path d="M299.122 491.717C303.199 488.428 307.277 485.14 311.354 481.851C313.319 480.28 315.186 478.612 317.298 477.237C319.411 475.863 321.719 475.225 324.077 474.341C331.446 471.495 337.931 459.273 346.38 466.93C349.131 469.384 351.391 471.544 354.977 472.722C359.054 474.047 363.083 474.832 366.964 476.746C374.431 480.428 380.522 486.367 384.599 493.582C385.042 494.416 386.319 493.68 385.877 492.846C382.733 487.201 378.41 482.391 373.104 478.661C370.55 476.845 367.75 475.323 364.851 474.145C361.511 472.771 358.023 472.231 354.633 471.004C348.542 468.795 345.398 461.04 337.98 463.298C334.983 464.23 332.576 466.243 330.267 468.304C328.892 469.531 327.516 470.758 325.944 471.74C323.93 473.016 321.621 473.458 319.46 474.39C316.021 475.863 313.172 478.464 310.273 480.771C306.196 484.06 302.119 487.348 298.041 490.637C297.353 491.275 298.385 492.306 299.122 491.717Z" fill="#161616"/>
<path d="M362.788 358.701C362.248 362.677 361.658 366.603 361.118 370.579C360.627 374.162 360.578 378.383 358.956 381.721C359.3 381.623 359.644 381.525 359.988 381.476C358.612 380.543 359.546 375.929 359.546 374.555C359.595 372.15 359.644 369.794 359.693 367.389C359.693 366.456 358.22 366.456 358.22 367.389C358.121 370.874 358.072 374.359 357.974 377.893C357.925 379.66 357.581 381.623 359.202 382.752C359.497 382.948 360.037 382.85 360.234 382.506C361.806 379.267 361.953 375.488 362.444 371.954C363.034 367.683 363.672 363.413 364.262 359.143C364.311 358.161 362.886 357.768 362.788 358.701Z" fill="#161616"/>
<path d="M327.123 352.468C326.337 356.64 326.927 360.664 328.794 364.444C329.236 365.278 330.464 364.542 330.071 363.708C328.401 360.272 327.86 356.591 328.548 352.86C328.695 351.928 327.271 351.535 327.123 352.468Z" fill="#161616"/>
<path d="M300.105 331.656C309.045 338.184 320.098 340.687 329.432 346.43C330.218 346.921 331.004 345.645 330.169 345.154C320.786 339.411 309.733 336.908 300.841 330.38C300.055 329.791 299.319 331.067 300.105 331.656Z" fill="#161616"/>
<path d="M328.744 339.264C333.166 341.964 336.26 346.087 337.587 351.142C337.832 352.075 339.257 351.682 339.011 350.75C337.636 345.35 334.295 340.884 329.53 337.988C328.695 337.497 327.958 338.773 328.744 339.264Z" fill="#161616"/>
<path d="M354.24 357.817C356.598 351.338 359.693 344.81 365.441 340.687C366.227 340.147 365.49 338.871 364.704 339.411C358.613 343.829 355.321 350.504 352.816 357.425C352.521 358.357 353.946 358.701 354.24 357.817Z" fill="#161616"/>
<path d="M309.93 488.281C314.941 482.784 321.376 479.004 328.597 477.237C329.531 477.041 329.138 475.618 328.204 475.814C320.737 477.581 314.056 481.557 308.898 487.201C308.26 487.987 309.291 489.017 309.93 488.281Z" fill="#161616"/>
<path d="M321.228 483.667C324.765 482.097 328.302 480.526 331.839 478.955C332.724 478.563 331.938 477.286 331.102 477.679C327.565 479.25 324.028 480.82 320.491 482.391C319.656 482.784 320.393 484.06 321.228 483.667Z" fill="#161616"/>
<path d="M350.556 465.359C354.879 469.335 361.855 467.96 365.834 472.28C366.472 472.967 367.504 471.936 366.865 471.249C362.788 466.832 355.911 468.255 351.588 464.328C350.9 463.641 349.868 464.721 350.556 465.359Z" fill="#161616"/>
<path d="M256.924 496.085C303.347 496.085 349.77 496.085 396.242 496.085C409.31 496.085 422.426 496.085 435.493 496.085C441.192 496.085 441.192 487.25 435.493 487.25C389.07 487.25 342.647 487.25 296.175 487.25C283.107 487.25 269.991 487.25 256.924 487.25C251.225 487.25 251.225 496.085 256.924 496.085Z" fill="#161616"/>
<path d="M263.899 259.798C305.754 259.798 347.608 259.798 389.463 259.798C401.253 259.798 412.994 259.798 424.784 259.798C430.482 259.798 430.482 250.963 424.784 250.963C382.929 250.963 341.075 250.963 299.22 250.963C287.43 250.963 275.689 250.963 263.899 250.963C258.201 250.963 258.201 259.798 263.899 259.798Z" fill="#161616"/>
<path d="M251.913 250.963C248.474 250.963 245.035 250.963 241.597 250.963C235.898 250.963 235.898 259.798 241.597 259.798C245.035 259.798 248.474 259.798 251.913 259.798C257.611 259.798 257.611 250.963 251.913 250.963Z" fill="#161616"/>
<path d="M222.291 258.816C223.617 258.816 224.943 258.816 226.27 258.816C228.579 258.816 230.789 256.804 230.691 254.399C230.593 251.994 228.726 249.981 226.27 249.981C224.943 249.981 223.617 249.981 222.291 249.981C219.982 249.981 217.771 251.994 217.869 254.399C217.968 256.755 219.785 258.816 222.291 258.816Z" fill="#161616"/>
<path d="M445.76 495.447C452.736 495.447 459.761 495.447 466.737 495.447C472.435 495.447 472.435 486.612 466.737 486.612C459.761 486.612 452.736 486.612 445.76 486.612C440.062 486.612 440.062 495.447 445.76 495.447Z" fill="#161616"/>
<path d="M481.769 496.429C482.997 496.429 484.225 496.429 485.454 496.429C487.762 496.429 489.973 494.417 489.875 492.011C489.777 489.606 487.91 487.594 485.454 487.594C484.225 487.594 482.997 487.594 481.769 487.594C479.46 487.594 477.25 489.606 477.348 492.011C477.446 494.417 479.264 496.429 481.769 496.429Z" fill="#161616"/>
<path d="M327.074 350.946C326.73 354.333 326.436 357.769 327.123 361.106C327.86 364.64 330.071 367.144 331.692 370.285C333.559 373.819 334.099 378.089 334.983 381.918C335.917 385.991 336.85 390.065 337.783 394.139C338.225 396.004 341.026 395.219 340.633 393.354C339.748 389.427 338.815 385.501 337.931 381.574C337.096 377.942 336.506 374.113 335.131 370.677C333.903 367.585 331.397 365.082 330.366 361.892C329.236 358.358 329.678 354.529 330.022 350.946C330.218 349.081 327.271 349.081 327.074 350.946Z" fill="#161616"/>
<path d="M320.393 349.473C323.095 350.749 325.846 351.142 328.794 350.651C330.66 350.357 329.875 347.51 328.008 347.804C325.895 348.148 323.783 347.854 321.867 346.921C320.148 346.087 318.674 348.639 320.393 349.473Z" fill="#161616"/>
<path d="M356.795 366.407C354.437 368.076 353.258 370.481 352.718 373.23C352.325 375.095 352.226 377.009 351.686 378.874C351.146 380.739 350.261 382.457 349.377 384.224C346.086 390.851 342.794 397.869 343.728 405.428C343.973 407.293 346.921 407.293 346.675 405.428C345.791 398.311 348.837 391.881 351.932 385.697C353.258 383.046 354.486 380.445 354.977 377.549C355.518 374.555 355.567 370.874 358.269 368.959C359.841 367.83 358.367 365.278 356.795 366.407Z" fill="#161616"/>
<path d="M328.106 432.179C330.022 432.179 330.022 429.234 328.106 429.234C326.239 429.234 326.239 432.179 328.106 432.179Z" fill="#161616"/>
<path d="M322.8 456.475C324.716 456.475 324.716 453.53 322.8 453.53C320.884 453.53 320.884 456.475 322.8 456.475Z" fill="#161616"/>
<path d="M337.98 400.176C338.127 401.158 338.275 402.189 338.422 403.171C338.52 403.956 339.552 404.398 340.24 404.201C341.075 403.956 341.37 403.171 341.271 402.385C341.124 401.404 340.977 400.373 340.829 399.391C340.731 398.606 339.699 398.164 339.012 398.36C338.177 398.606 337.882 399.391 337.98 400.176Z" fill="#161616"/>
<path d="M345.644 412.742C345.644 412.84 345.644 412.987 345.644 413.085C345.644 413.871 346.331 414.607 347.117 414.558C347.903 414.509 348.591 413.92 348.591 413.085C348.591 412.987 348.591 412.84 348.591 412.742C348.591 411.956 347.903 411.22 347.117 411.269C346.331 411.318 345.644 411.907 345.644 412.742Z" fill="#161616"/>
<path d="M386.171 314.035C390.887 312.268 394.621 308.833 399.14 306.722C404.692 304.17 410.537 307.262 416.039 305.151C417.808 304.464 417.022 301.617 415.253 302.304C412.257 303.433 409.211 302.795 406.067 302.599C403.463 302.403 401.007 302.746 398.6 303.728C393.884 305.642 390.101 309.372 385.336 311.188C383.666 311.876 384.403 314.722 386.171 314.035Z" fill="#161616"/>
<path d="M395.161 400.962C390.691 402.876 394.474 407.588 396.537 409.65C400.762 413.871 404.544 418.534 407.836 423.491C414.271 433.16 418.741 444.008 421.149 455.346C421.345 456.279 422.77 455.886 422.573 454.953C420.51 445.333 416.973 436.056 412.06 427.516C409.702 423.393 407.001 419.466 404.004 415.785C402.481 413.92 400.909 412.104 399.239 410.337C397.765 408.815 391.87 403.956 395.898 402.238C396.783 401.845 395.997 400.569 395.161 400.962Z" fill="#161616"/>
<path d="M400.614 404.741C415.499 417.11 421.542 436.007 426.994 453.874C427.289 454.757 428.714 454.413 428.419 453.481C422.868 435.369 416.727 416.227 401.646 403.661C400.909 403.072 399.877 404.103 400.614 404.741Z" fill="#161616"/>
<path d="M421.787 460.254C422.721 461.58 423.851 463.15 425.619 463.298C426.995 463.396 428.468 462.61 428.665 461.138C428.812 460.205 427.388 459.813 427.24 460.745C427.093 461.678 426.11 462.021 425.275 461.727C424.293 461.383 423.605 460.353 423.065 459.518C422.524 458.733 421.247 459.469 421.787 460.254Z" fill="#161616"/>
<path d="M424.685 480.968C426.896 481.949 429.647 481.262 430.826 479.053C431.956 476.943 431.072 474.047 429.008 472.869C426.896 471.691 423.998 472.525 422.77 474.587C421.541 476.746 422.426 479.495 424.391 480.82C425.177 481.36 425.914 480.084 425.128 479.544C423.801 478.661 423.212 476.746 424.047 475.323C424.833 473.949 426.847 473.36 428.272 474.145C429.696 474.881 430.286 476.894 429.549 478.317C428.812 479.79 426.847 480.329 425.422 479.691C424.587 479.299 423.801 480.575 424.685 480.968Z" fill="#161616"/>
<path d="M274.216 267.308C274.707 290.033 284.188 312.072 300.399 327.975C301.087 328.662 302.119 327.582 301.431 326.944C285.465 311.287 276.131 289.641 275.689 267.308C275.64 266.375 274.166 266.375 274.216 267.308Z" fill="#161616"/>
<path d="M275.788 266.67C274.511 265.394 272.693 265.443 271.317 266.572C269.5 268.093 269.696 270.842 269.893 273.002C270.384 279.432 271.661 285.763 273.577 291.899C277.409 304.071 283.844 315.361 292.343 324.834C292.982 325.521 294.013 324.49 293.375 323.803C286.448 316.097 280.946 307.262 277.163 297.641C275.346 293.126 273.97 288.414 272.939 283.653C272.398 281.051 271.956 278.45 271.661 275.848C271.514 274.621 271.367 273.443 271.317 272.216C271.268 271.676 271.219 271.136 271.268 270.646C271.317 269.468 272.595 265.541 274.756 267.75C275.444 268.388 276.476 267.308 275.788 266.67Z" fill="#161616"/>
<path opacity="0.25" d="M425.029 260.583C425.078 262.154 382.733 264.706 298.041 268.339C296.567 275.014 295.585 284.143 298.041 294.254C305.901 326.895 341.369 339.46 344.906 340.638C345.349 353.204 345.84 365.818 346.282 378.383C342.499 379.807 337.538 381.966 332.085 385.255C328.597 387.366 320.295 392.765 312.582 401.551C308.21 406.557 294.16 422.656 293.03 447.051C292.343 461.53 296.518 473.212 299.859 480.231C339.748 482.489 379.687 484.796 419.576 487.054C365.244 487.496 310.961 487.986 256.629 488.428C254.909 477.483 253.288 456.524 262.082 432.964C263.703 428.694 277.163 394.237 313.073 374.751C318.772 371.659 323.734 369.646 327.172 368.37C327.025 362.284 326.878 356.247 326.73 350.16C321.769 348.884 314.4 346.528 306.245 341.964C301.48 339.313 269.843 320.956 263.899 285.125C262.966 279.431 262.18 270.449 264.341 259.209C371.434 258.375 424.98 258.816 425.029 260.583Z" fill="#F7BC4B"/>
<path opacity="0.3" d="M353.602 259.356C328.106 262.94 302.61 266.523 277.114 270.057C277.802 278.548 280.455 296.071 292.49 313.839C307.375 335.779 327.566 344.811 335.377 347.854C335.819 357.18 336.31 366.505 336.752 375.831C320.099 379.071 309.144 385.844 303.15 390.262C299.171 393.207 263.212 419.515 267.24 457.359C267.928 463.887 270.286 475.078 279.325 487.447C271.563 487.545 263.851 487.643 256.089 487.692C254.517 475.667 253.092 450.88 265.963 425.307C275.788 405.87 289.838 393.943 297.992 387.169C308.947 378.089 319.411 372.199 327.074 368.518C327.32 362.481 327.615 356.443 327.86 350.406C318.085 348.345 298.582 342.7 283.55 325.324C282.469 324.097 278.735 319.68 275.002 313.054C264.096 293.715 263.359 273.492 264.391 260.289C294.21 259.945 323.93 259.651 353.602 259.356Z" fill="#474747"/>
<path d="M325.944 238.3C310.568 249.491 298.729 263.283 299.859 264.657C300.399 265.345 303.396 264.461 314.498 257.344C312.582 258.473 308.063 261.369 305.705 267.013C305.017 268.682 302.757 273.345 304.82 276.388C307.031 279.579 312.877 279.284 316.66 278.008C323.979 275.554 327.467 267.946 327.86 268.24C328.45 268.633 320.295 280.266 321.474 281.198C322.702 282.229 335.474 271.382 345.25 256.166C348.247 251.503 350.31 247.429 351.686 244.435C360.381 244.631 371.139 245.368 383.322 247.38C405.33 250.963 413.731 255.675 428.714 253.221C437.9 251.748 452.785 247.036 453.325 240.067C454.013 231.428 432.496 223.476 427.829 221.759C392.361 208.653 359.104 220.777 353.7 222.838C340.24 227.992 330.955 234.667 325.944 238.3Z" fill="white" stroke="#161616" stroke-width="3" stroke-miterlimit="10"/>
<path d="M303.592 275.603C303.838 276.094 303.985 276.192 304.427 276.486C304.673 276.683 305.115 276.585 305.312 276.388C310.175 270.596 314.4 263.872 321.326 260.289C322.161 259.847 321.425 258.571 320.589 259.013C313.515 262.645 309.242 269.418 304.28 275.357C304.575 275.308 304.869 275.259 305.164 275.259C305.066 275.112 304.968 275.014 304.869 274.867C304.427 274.032 303.15 274.768 303.592 275.603Z" fill="#161616"/>
<path d="M308.21 279.382C311.207 280.07 313.958 275.996 315.726 274.081C318.624 270.94 321.375 267.799 325.158 265.639C325.993 265.148 325.256 263.921 324.421 264.363C321.572 265.983 319.263 268.142 317.052 270.498C315.923 271.725 314.842 272.952 313.663 274.179C312.582 275.357 310.322 278.352 308.603 277.959C307.67 277.763 307.277 279.186 308.21 279.382Z" fill="#161616"/>
<path opacity="0.33" d="M303.789 270.155C315.579 261.86 318.428 259.945 318.477 260.044C318.576 260.142 313.86 262.989 309.782 268.437C307.719 271.235 306.393 273.885 305.557 275.848C305.705 276.143 306.147 276.928 307.031 277.419C308.161 278.057 309.193 277.91 309.537 277.861C309.831 277.714 310.273 277.468 310.765 277.125C312.484 275.996 313.516 274.67 313.909 274.229C314.105 273.983 317.2 270.106 318.625 268.584C319.902 267.21 322.063 265.443 325.6 264.167C322.702 268.584 319.755 273.051 316.856 277.468C319.853 275.996 321.818 274.327 323.046 273.051C324.274 271.824 324.667 271.087 326.878 268.339C328.941 265.786 330.464 264.167 331.053 263.479C336.211 257.589 343.924 243.552 348.837 238.84C359.349 228.679 376.297 236.974 409.752 237.22C426.651 237.367 440.651 235.257 450.28 233.342C451.115 233.931 452.687 235.257 453.276 237.416C453.276 237.416 454.013 240.116 452.146 243.503C450.083 247.331 439.767 254.203 417.808 253.614C399.877 253.123 394.425 248.215 370.402 245.515C362.346 244.631 355.714 244.386 351.489 244.288C347.51 253.712 342.942 260.633 339.355 265.296C331.446 275.652 322.506 282.867 321.179 281.886C321.081 281.837 320.835 281.591 320.688 281.149C320.344 280.168 321.081 279.039 321.474 278.45C322.211 277.272 323.144 275.701 324.323 273.443C323.537 274.425 322.26 275.75 320.393 276.879C315.333 279.971 307.08 280.953 304.28 276.928C303.887 276.437 302.61 274.376 303.789 270.155Z" fill="#828181"/>
<path opacity="0.51" d="M358.367 244.239C358.416 243.797 369.666 244.091 382.094 244.73C414.369 246.398 422.819 248.754 435.297 244.239C443.157 241.392 448.757 237.22 451.803 234.667C452.736 236.484 453.718 239.183 452.982 241.883C451.164 248.46 440.602 250.62 433.774 251.994C429.991 252.779 423.556 253.712 413.387 252.828C404.348 252.092 400.762 250.62 391.182 248.607C372.024 244.631 358.318 244.68 358.367 244.239Z" fill="#828181"/>
<circle cx="154" cy="416" r="12" fill="#C19CFC"/>
<path d="M726.753 608.583L747.243 603.092L741.753 582.602L762.243 577.112L756.753 556.621L777.243 551.131" stroke="#00A7E5" stroke-width="8" stroke-linecap="round" stroke-linejoin="round"/>
<path d="M27.9419 194.78C31.5246 189.653 36.3026 185.477 41.8624 182.611C47.4222 179.746 53.5964 178.278 59.8509 178.335C66.1054 178.392 72.2519 179.972 77.7586 182.938C83.2652 185.904 87.9663 190.168 91.455 195.359" stroke="#E2A21F" stroke-width="8"/>
<path d="M674 263.333L694.785 299.333H653.215L674 263.333Z" fill="#00CC67"/>
<path d="M37 612.398C37 619.617 31.0229 625.591 23.5 625.591C15.9771 625.591 10 619.617 10 612.398C10 605.178 15.9771 599.205 23.5 599.205C31.0229 599.205 37 605.178 37 612.398Z" stroke="#E40173" stroke-width="8"/>
</svg>
