<svg width="204" height="202" viewBox="0 0 204 202" fill="none" xmlns="http://www.w3.org/2000/svg">
<path d="M59.497 19.8791C57.3231 21.3983 55.2352 23.0674 53.257 24.883C48.6803 29.0829 47.3983 36.1913 43.5815 41.2297C39.9258 46.056 34.1054 48.1074 28.5257 49.4176C22.9461 50.7279 17.1102 51.5975 12.2372 54.8665C5.48294 59.3971 1.64162 67.9755 0.437178 76.5865C-0.767038 85.198 0.95608 94.7906 0.425905 103.484C-0.297074 115.343 5.73439 126.345 12.1488 135.901C18.5627 145.457 25.799 154.964 28.1364 166.567C29.7328 174.493 29.0723 183.403 33.4212 189.955C37.8268 196.593 46.1287 198.608 53.5695 197.977C61.0104 197.346 68.1931 194.607 75.6214 193.818C85.576 192.761 95.4745 195.225 105.351 197.69C116.181 200.392 126.986 203.095 137.81 201.153C156.801 197.747 172.455 178.546 173.5 157.375C182.343 146.784 188.786 133.159 189.859 118.817C190.932 104.474 187.546 89.7716 180.397 77.7271C185.49 69.8766 184.557 59.7402 180.551 51.6002C176.109 42.5708 168.124 37.1901 160.79 31.3211C145.265 18.8965 128.948 10.0788 109.671 8.13776C106.741 7.84261 103.782 7.68958 100.815 7.68958C86.3655 7.68958 71.742 11.3215 59.497 19.8791Z" fill="url(#paint0_linear_294_2085)"/>
<path d="M100.161 0.155027C83.3393 1.85785 56.8927 10.9466 53.2875 33.8594C50.4269 52.0312 30.8658 60.2047 22.8932 62.8091C20.8135 63.4886 19.5216 63.7895 19.5216 63.7895C-1.55333 71.4266 2.94265 88.8175 2.94265 111.07C2.94265 113.783 3.27572 116.666 3.85933 119.633L170.328 181.258C175.632 170.574 176.596 158.882 176.596 158.882C176.596 158.882 180.236 141.17 185.815 118.561C186.721 114.89 187.678 111.091 188.679 107.217C195.845 79.4835 171.539 53.2106 157.909 46.8634C144.282 40.5162 133.677 37.3617 133.255 24.2027C132.861 11.8519 118.871 0.000743943 103.244 9.21729e-07C102.222 -0.000249279 101.194 0.0504354 100.161 0.155027Z" fill="url(#paint1_linear_294_2085)"/>
<path d="M167.803 29.5909C167.803 33.926 170.992 37.4402 174.926 37.4402C178.861 37.4402 182.05 33.926 182.05 29.5909C182.05 25.2556 178.861 21.7414 174.926 21.7414C170.992 21.7414 167.803 25.2556 167.803 29.5909Z" fill="url(#paint2_linear_294_2085)"/>
<path d="M21.7773 190.989C21.7773 197.039 26.2287 201.944 31.7196 201.944C37.2107 201.944 41.662 197.039 41.662 190.989C41.662 184.938 37.2107 180.033 31.7196 180.033C26.2287 180.033 21.7773 184.938 21.7773 190.989Z" fill="url(#paint3_linear_294_2085)"/>
<path d="M17.3057 44.2719C17.3057 46.7625 19.1379 48.7813 21.398 48.7813C23.658 48.7813 25.4903 46.7625 25.4903 44.2719C25.4903 41.7815 23.658 39.7624 21.398 39.7624C19.1379 39.7624 17.3057 41.7815 17.3057 44.2719Z" fill="url(#paint4_linear_294_2085)"/>
<path d="M163.889 117.264C163.866 115.663 164.46 114.211 165.454 113.434C166.615 112.528 168.184 112.559 169.682 112.848C171.18 113.136 172.695 113.659 174.167 113.659C175.64 113.658 177.122 113.023 177.741 111.472C178.342 109.966 178.015 107.955 178.337 106.267C178.653 104.618 179.624 103.327 180.904 102.856C182.184 102.386 183.745 102.746 185.029 103.808C186.081 104.678 187.063 106.043 188.219 106.13C189.335 106.214 190.063 105.053 191.021 104.546C192.706 103.654 195.223 105.207 196.032 107.639C196.842 110.071 195.747 112.791 193.852 113.054C193.174 113.149 192.451 112.97 191.755 112.971C191.058 112.972 190.336 113.2 190.009 113.905C189.658 114.662 189.86 115.723 189.811 116.656C189.718 118.416 188.671 119.734 187.375 120.202C186.079 120.67 184.575 120.392 183.153 119.8C181.78 119.228 180.25 118.364 179.101 119.062C178.45 119.457 178.077 120.283 177.647 120.999C176.376 123.114 174.384 124.459 172.148 124.711C168.584 125.112 163.968 122.848 163.889 117.264Z" fill="#127754"/>
<path d="M166.206 121.956C166.206 121.956 184.291 109.206 193.01 109.212" stroke="#3CBD87" stroke-width="0.947" stroke-linecap="round" stroke-linejoin="round"/>
<path d="M172.319 120.851L169.425 119.347" stroke="#3CBD87" stroke-width="0.947" stroke-linecap="round" stroke-linejoin="round"/>
<path d="M183.241 109.585L182.908 112.695" stroke="#3CBD87" stroke-width="0.947" stroke-linecap="round" stroke-linejoin="round"/>
<path d="M187.012 116.4L179.667 113.691" stroke="#3CBD87" stroke-width="0.947" stroke-linecap="round" stroke-linejoin="round"/>
<path d="M193.421 107.667L191.493 109.617" stroke="#3CBD87" stroke-width="0.947" stroke-linecap="round" stroke-linejoin="round"/>
<path d="M149.295 98.5533C149.093 95.0837 150.264 91.572 152.778 90.6979C154.648 90.048 156.827 90.9316 158.891 91.5593C160.956 92.1873 163.277 92.4888 164.659 90.9157C165.906 89.4976 166.002 86.9661 165.753 84.6273C165.505 82.2882 164.98 79.8795 165.23 77.658C165.481 75.437 166.829 73.4177 168.692 73.7809C171.378 74.3048 173.239 79.1478 175.905 79.354C177.672 79.4904 178.694 77.4981 179.903 76.167C182.645 73.1474 187.566 73.5096 190.979 76.9823C192.701 78.7347 194.045 81.251 194.317 83.8097C194.59 86.3685 193.648 88.8742 191.851 89.6406C190.695 90.1331 189.338 89.9066 188.062 89.9773C186.786 90.0482 185.443 90.5505 185.001 91.97C184.458 93.7143 185.487 95.8932 186 97.8983C186.784 100.958 186.294 104.195 184.746 106.188C183.198 108.18 180.641 108.863 178.2 107.935C176.427 107.262 174.787 105.833 173.028 105.042C171.27 104.251 169.138 104.304 168.363 106.108C167.489 108.144 168.793 111.01 168.96 113.528C169.177 116.811 167.26 119.461 164.797 120.009C162.334 120.557 159.501 119.268 157.215 117.134C152.675 112.896 149.669 104.989 149.295 98.5533Z" fill="#339E7D"/>
<path d="M152.877 116.46C152.877 116.46 167.509 87.9748 184.522 84.5321" stroke="#10663E" stroke-width="0.947" stroke-linecap="round" stroke-linejoin="round"/>
<path d="M163.156 109.738L156.527 107.771" stroke="#10663E" stroke-width="0.947" stroke-linecap="round" stroke-linejoin="round"/>
<path d="M159.309 97.2584L160.859 103.201" stroke="#10663E" stroke-width="0.947" stroke-linecap="round" stroke-linejoin="round"/>
<path d="M177.691 98.9508L167.313 96.1048" stroke="#10663E" stroke-width="0.947" stroke-linecap="round" stroke-linejoin="round"/>
<path d="M172.489 83.1994L173.421 91.5625" stroke="#10663E" stroke-width="0.947" stroke-linecap="round" stroke-linejoin="round"/>
<path d="M185.624 88.1263L180.866 86.6534" stroke="#10663E" stroke-width="0.947" stroke-linecap="round" stroke-linejoin="round"/>
<path d="M187.629 79.9541L185.674 84.796" stroke="#10663E" stroke-width="0.947" stroke-linecap="round" stroke-linejoin="round"/>
<path d="M55.4498 138.953L3.86084 119.855C6.38969 132.716 13.6472 147.188 19.1386 156.592C19.4733 157.165 19.8016 157.719 20.1214 158.253C36.4139 185.431 53.2419 163.66 73.2853 179.142C78.4713 183.538 83.815 187.158 89.2139 190.095C96.4482 194.032 103.781 196.742 110.962 198.45C115.34 199.493 119.659 200.162 123.868 200.509C134.631 201.4 144.657 200.187 152.995 197.719C157.344 196.434 160.904 194.015 163.816 190.989C166.503 188.198 168.637 184.89 170.33 181.48L55.4498 138.953Z" fill="#102040"/>
<path d="M167.804 185.924C166.881 187.343 164.938 189.715 163.815 190.989L11.3997 141.623C10.0069 138.596 8.67461 135.45 7.49609 132.275L167.804 185.924Z" stroke="white" stroke-width="0.947" stroke-linecap="round" stroke-linejoin="round"/>
<path d="M167.804 185.924C166.881 187.343 164.938 189.715 163.815 190.989L11.3997 141.623C10.0069 138.596 8.67461 135.45 7.49609 132.275L167.804 185.924Z" fill="#562557"/>
<path d="M24.627 145.918C30.0489 145.564 33.6667 145.272 39.0888 144.918C39.7647 144.873 40.5483 144.878 40.9804 145.452C41.3054 145.884 41.297 146.576 40.9619 146.999C40.6268 147.421 40.0049 147.523 39.573 147.226" stroke="white" stroke-width="0.947" stroke-linecap="round" stroke-linejoin="round"/>
<path d="M37.6534 146.546C37.355 147.12 37.6606 147.889 38.1565 148.26C38.6524 148.632 39.277 148.707 39.8735 148.772C41.2859 148.926 42.7571 149.072 44.0858 148.522C44.837 148.211 45.5112 147.688 46.2838 147.45C47.6227 147.037 49.0348 147.529 50.375 147.936C53.9832 149.033 57.7424 149.523 61.4831 149.385" stroke="white" stroke-width="0.947" stroke-linecap="round" stroke-linejoin="round"/>
<path d="M42.2339 151.639C48.5903 150.397 52.6558 149.682 59.0088 150.946C63.1686 151.774 67.3274 153.671 71.4817 152.81" stroke="white" stroke-width="0.947" stroke-linecap="round" stroke-linejoin="round"/>
<path d="M50.6489 154.262C57.4845 152.94 62.8496 153.142 69.6598 154.615C72.0533 155.133 74.6286 155.802 76.8494 154.69" stroke="white" stroke-width="0.947" stroke-linecap="round" stroke-linejoin="round"/>
<path d="M60.1602 157.38C64.2786 156.295 66.8508 156.46 71.0216 157.266C73.3811 157.721 75.6991 158.478 78.0877 158.679C80.4762 158.88 83.0265 158.456 84.8935 156.802" stroke="white" stroke-width="0.947" stroke-linecap="round" stroke-linejoin="round"/>
<path d="M72.2139 161.353C75.5451 161.114 75.9447 161.434 79.2759 161.195C81.3955 161.044 83.5288 160.892 85.6384 161.163C87.748 161.434 89.8552 162.155 91.5337 163.589C91.6791 163.714 91.8345 163.874 91.8268 164.077C91.8149 164.387 91.4579 164.507 91.1769 164.533C89.1728 164.721 87.1317 164.415 85.2456 163.645C85.0492 163.565 84.8482 163.475 84.7028 163.309C84.5573 163.143 84.4827 162.88 84.5805 162.676C84.7251 162.374 85.1121 162.379 85.4188 162.427C86.0391 162.523 86.6595 162.618 87.2799 162.714" stroke="white" stroke-width="0.947" stroke-linecap="round" stroke-linejoin="round"/>
<path d="M86.1074 165.83C88.6212 166.011 89.1056 166.16 91.6195 166.341C92.4359 166.4 93.3799 166.403 93.9123 165.719C94.3398 165.169 94.3329 164.32 94.0338 163.675C93.7348 163.03 93.1961 162.56 92.6309 162.191C92.0656 161.821 91.4585 161.531 90.9126 161.128C89.9093 160.387 89.1419 159.266 88.7716 157.999L89.3739 157.704" stroke="white" stroke-width="0.947" stroke-linecap="round" stroke-linejoin="round"/>
<path d="M93.8608 168.401C98.746 167.902 99.8573 169.018 104.691 169.942C105.262 170.051 105.861 170.167 106.408 169.959C106.955 169.75 107.407 169.088 107.215 168.486C107.083 168.072 106.705 167.823 106.345 167.635C104.904 166.88 103.321 166.531 101.803 165.99C100.286 165.449 98.7654 164.662 97.7854 163.275C97.6162 163.035 97.4591 162.759 97.467 162.455C97.4746 162.152 97.7197 161.843 97.9899 161.902" stroke="white" stroke-width="0.947" stroke-linecap="round" stroke-linejoin="round"/>
<path d="M105.978 172.235C106.65 171.968 107.384 171.983 108.099 172.001C108.814 172.019 109.478 172.746 110.149 172.475C110.821 172.203 110.395 170.956 110.466 170.172C110.538 169.375 109.337 168.997 108.892 168.363C108.003 167.095 107.113 165.827 106.224 164.559" stroke="white" stroke-width="0.947" stroke-linecap="round" stroke-linejoin="round"/>
<path d="M111.54 166.798C112.521 168.855 113.743 170.773 115.163 172.492C117.727 175.595 120.943 178.039 124.486 179.577" stroke="white" stroke-width="0.947" stroke-linecap="round" stroke-linejoin="round"/>
<path d="M117.385 167.578C119.297 170.285 122.081 172.226 125.119 172.972" stroke="white" stroke-width="0.947" stroke-linecap="round" stroke-linejoin="round"/>
<path d="M9.20166 136.352C12.9584 137.444 14.2801 137.761 18.1616 137.577C21.5672 137.415 24.893 136.442 28.1868 135.475" stroke="white" stroke-width="0.947" stroke-linecap="round" stroke-linejoin="round"/>
<path d="M11.4038 141.303C18.1382 142.955 23.0101 140.006 29.9048 140.285C34.7929 140.484 39.7162 142.301 44.4889 141.12" stroke="white" stroke-width="0.947" stroke-linecap="round" stroke-linejoin="round"/>
<path d="M30.7661 143.419C34.7409 143.636 38.7554 142.922 42.4669 141.34" stroke="white" stroke-width="0.947" stroke-linecap="round" stroke-linejoin="round"/>
<path d="M183.492 128.381L145.958 117.057L124.047 110.449L94.7673 101.614L52.1259 88.75L5.82438 74.7801C0.955646 83.8408 2.94464 96.4914 2.94464 111.291C2.94464 114.009 3.28064 116.893 3.87147 119.86C4.67428 123.909 5.95292 128.116 7.4954 132.275L117.708 169.161L141.757 177.208L167.801 185.926H167.805C167.952 185.702 168.094 185.476 168.234 185.25C168.36 185.046 168.486 184.84 168.61 184.634C168.734 184.427 168.856 184.221 168.976 184.013C169.095 183.804 169.212 183.595 169.33 183.384C169.447 183.175 169.56 182.964 169.672 182.753C169.883 182.358 170.088 181.961 170.287 181.562C170.3 181.535 170.315 181.508 170.329 181.481L170.327 181.481C175.633 170.798 176.598 159.104 176.598 159.104C181.588 134.816 177.389 154.013 183.492 128.381Z" fill="#DBD2DB"/>
<path d="M146.949 155.074C146.62 142.401 146.288 129.73 145.958 117.057L124.048 110.449L94.7683 101.614L52.1266 88.7499C41.8231 92.3846 31.7474 96.8116 22.0011 101.989C19.737 103.192 17.1457 105.05 17.2857 107.813C17.3849 109.783 18.8913 111.279 20.3436 112.431C29.2512 119.51 40.671 122.637 51.5495 120.978C58.5132 119.914 65.1207 117.005 71.6446 114.121C78.7211 110.99 85.7973 107.86 92.8738 104.732C91.3313 106.282 89.7595 107.87 88.7472 109.885C87.7347 111.897 87.3581 114.444 88.3007 116.498C90.0213 120.25 94.7435 120.426 98.5456 120.073C105.02 119.475 111.492 118.874 117.966 118.272C120.799 118.011 123.843 117.798 126.29 119.393C128.736 120.988 129.961 125.157 127.886 127.301C126.357 128.881 123.9 128.612 121.944 127.78C119.987 126.948 118.135 125.651 116.045 125.457C113.956 125.263 111.503 126.799 111.575 129.107C111.652 131.547 114.202 132.769 116.284 133.599C118.365 134.426 120.796 136.245 120.24 138.605C119.669 141.03 116.654 141.238 114.399 140.92C103.766 139.425 93.1354 137.929 82.5026 136.433C80.3784 136.135 78.1799 135.842 76.1343 136.538C74.0914 137.236 72.2397 139.211 72.2623 141.571C72.2824 143.574 73.6471 145.325 75.2776 146.212C75.5843 146.379 75.8977 146.52 76.2179 146.639C77.6048 147.161 79.1112 147.295 80.586 147.38C88.6728 147.852 97.3229 147.355 104.219 152.033C107.123 154.003 109.476 156.748 111.582 159.732C112.595 161.166 113.551 162.654 114.487 164.137C115.544 165.814 116.6 167.513 117.709 169.158V169.16L141.757 177.208C143.119 175.792 144.209 174.025 145.016 172.109C145.447 171.096 145.794 170.037 146.06 168.969C147.183 164.475 147.071 159.735 146.949 155.074Z" fill="#CFD5E8"/>
<path d="M95.2023 105.565L93.8296 122.007L108.614 122.964L109.081 106.882L95.2023 105.565Z" fill="white"/>
<path d="M72.5439 136.737L74.7228 150.742L106.911 151.843L102.166 138.987L72.5439 136.737Z" fill="white"/>
<path d="M91.8789 120.963C91.8789 120.963 81.4818 125.111 80.1601 125.524C78.8382 125.937 73.3804 120.364 73.2857 120.311C72.6931 119.807 72.6024 118.812 73.2857 118.351C73.2857 118.351 79.6554 123.356 79.7962 123.356C79.9366 123.356 90.8486 119.022 91.5201 118.712C91.5882 118.68 91.6554 118.637 91.7197 118.585L91.8789 120.963Z" fill="#6F212C"/>
<path d="M80.003 125.111C79.5592 125.111 78.1682 124.482 73.8382 120.264C73.6161 120.048 73.55 119.983 73.5108 119.953C73.3069 119.771 73.1888 119.499 73.2016 119.237C73.2064 119.14 73.2314 119.018 73.3083 118.903C79.5321 123.791 79.6372 123.791 79.7957 123.791C80.0614 123.791 89.9236 119.859 91.7552 119.116L91.8532 120.589C90.1836 121.254 81.2246 124.74 80.0524 125.106C80.047 125.108 80.0321 125.111 80.003 125.111Z" fill="white"/>
<path d="M102.922 121.45L104.671 136.828H106.394L104.814 121.476L102.922 121.45Z" fill="#F5F5F5"/>
<path d="M112.914 121.587L105.903 121.491L104.815 121.476L106.395 136.828H106.513H111.146H111.634L113.258 121.591L112.914 121.587Z" fill="white"/>
<path d="M113.288 121.45C113.288 122.172 110.968 122.757 108.105 122.757C105.243 122.757 102.922 122.172 102.922 121.45C102.922 120.728 105.243 120.142 108.105 120.142C110.968 120.142 113.288 120.728 113.288 121.45Z" fill="#C5CDDB"/>
<path d="M108.107 122.323C105.343 122.323 103.629 121.785 103.341 121.45C103.629 121.115 105.343 120.577 108.107 120.577C110.871 120.577 112.585 121.115 112.873 121.45C112.585 121.785 110.871 122.323 108.107 122.323Z" fill="#102040"/>
<path d="M91.7196 118.583V118.585C91.6551 118.637 91.5879 118.68 91.5196 118.712C90.8482 119.022 79.9365 123.356 79.7958 123.356C79.6553 123.356 73.2852 118.351 73.2852 118.351L83.3077 113.81C83.3077 113.81 90.27 117.947 91.5196 117.426C92.6417 116.959 92.2897 118.12 91.7196 118.583Z" fill="#EB475C"/>
<path d="M56.5356 61.12L63.1072 51.8573L69.2598 51.3107L73.8475 44.2719L72.5204 43.1057L75.424 42.022L76.3139 45.7434L75.0495 44.6435L70.6004 52.9107L64.0437 53.4781L58.7986 62.7157L56.5356 61.12Z" fill="white"/>
<path d="M11.0908 70.7205L51.1793 62.1542L59.0469 92.4976L21.7687 104.779L11.0908 70.7205Z" fill="#FFEBEB"/>
<path d="M82.7807 102.805L51.3641 117.452C50.7672 117.73 50.0936 117.733 49.4949 117.46L23.0811 105.399L59.703 94.1491L82.7807 102.805Z" fill="#FFEBEB"/>
<path d="M50.4221 115.346C50.3802 115.346 50.3394 115.337 50.3006 115.32L29.5132 105.828L59.6423 96.5731L76.8831 103.04L50.5457 115.319C50.5065 115.337 50.4648 115.346 50.4221 115.346Z" fill="#425273"/>
<path d="M35.6802 107.117L62.0627 98.4712" stroke="#BEBDB9" stroke-width="0.947" stroke-linecap="round" stroke-linejoin="round"/>
<path d="M38.7666 108.604L64.5427 99.5728" stroke="#BEBDB9" stroke-width="0.947" stroke-linecap="round" stroke-linejoin="round"/>
<path d="M41.856 110.09L67.3854 101.04" stroke="#BEBDB9" stroke-width="0.947" stroke-linecap="round" stroke-linejoin="round"/>
<path d="M44.9443 111.576L70.4456 102.189" stroke="#BEBDB9" stroke-width="0.947" stroke-linecap="round" stroke-linejoin="round"/>
<path d="M48.7607 113.062L73.8486 103.311" stroke="#BEBDB9" stroke-width="0.947" stroke-linecap="round" stroke-linejoin="round"/>
<path d="M35.0703 105.906L51.3996 112.947" stroke="#BEBDB9" stroke-width="0.947" stroke-linecap="round" stroke-linejoin="round"/>
<path d="M38.7251 104.751L55.0542 111.793" stroke="#BEBDB9" stroke-width="0.947" stroke-linecap="round" stroke-linejoin="round"/>
<path d="M42.377 103.597L58.7063 110.638" stroke="#BEBDB9" stroke-width="0.947" stroke-linecap="round" stroke-linejoin="round"/>
<path d="M45.7334 102.189L62.0627 109.23" stroke="#BEBDB9" stroke-width="0.947" stroke-linecap="round" stroke-linejoin="round"/>
<path d="M49.4468 100.76L65.7761 107.801" stroke="#BEBDB9" stroke-width="0.947" stroke-linecap="round" stroke-linejoin="round"/>
<path d="M52.9316 99.5728L69.261 106.614" stroke="#BEBDB9" stroke-width="0.947" stroke-linecap="round" stroke-linejoin="round"/>
<path d="M55.5371 98.1183L71.8664 105.16" stroke="#BEBDB9" stroke-width="0.947" stroke-linecap="round" stroke-linejoin="round"/>
<path d="M82.7819 102.806C83.4803 103.639 83.4878 104.736 82.7819 106.108L51.3654 120.753C50.7685 121.032 50.0951 121.034 49.4964 120.761L23.0823 108.7C22.1458 107.592 22.3722 106.102 23.0823 105.399L49.4964 117.46C50.0951 117.733 50.7685 117.731 51.3654 117.452L82.7819 102.806Z" fill="#425273"/>
<path d="M11.0927 70.7205C11.0927 70.7205 10.4349 73.0357 10.8109 74.2133C11.1866 75.3907 20.0847 104.212 20.1314 104.65C20.1783 105.089 21.7704 104.779 21.7704 104.779" fill="#425273"/>
<path d="M13.3398 71.959L50.2904 64.0118L57.2216 91.5688L22.8468 102.354L13.3398 71.959Z" fill="#425273"/>
<path d="M50.0086 64.5152L13.8608 72.2894L14.6907 74.9428L50.6226 66.9564L50.0086 64.5152Z" fill="#562557"/>
<path d="M50.6223 66.9564L14.6904 74.9428L22.7948 100.854L56.5361 90.4679L50.6223 66.9564Z" fill="white"/>
<path d="M22.7939 100.854L23.0973 101.823L56.7366 91.2689L56.5353 90.4677L22.7939 100.854Z" fill="#562557"/>
<path d="M29.2314 101.766L27.0372 102.454L24.1128 93.1018L26.3737 92.4804L29.2314 101.766Z" fill="#FFB013"/>
<path d="M34.7174 99.0331L32.6713 99.6299L28.6548 86.623L30.7931 86.0004L34.7174 99.0331Z" fill="#FFB013"/>
<path d="M45.2371 99.0475L43.3006 99.654L39.5664 86.1613L41.5852 85.6463L45.2371 99.0475Z" fill="#FFB013"/>
<path d="M50.8388 100.259L48.9785 100.842L43.917 81.8049L45.8886 81.3507L50.8388 100.259Z" fill="#FFB013"/>
<path d="M54.412 93.4798L52.6235 94.0401L46.9644 71.8905L48.8767 71.4788L54.412 93.4798Z" fill="#FFB013"/>
<path d="M40.0895 99.4201L38.0728 100.052L33.7793 85.1523L35.8921 84.6234L40.0895 99.4201Z" fill="#FFB013"/>
<path d="M135.957 23.8568H121.224C116.925 23.8568 113.44 27.697 113.44 32.4338V32.5247C113.44 36.9929 116.541 40.6614 120.501 41.0637C120.26 42.082 119.951 43.3339 119.666 44.4713C119.428 45.4236 120.453 46.1401 121.134 45.4978L125.795 41.1019H135.957C140.256 41.1019 143.741 37.2617 143.741 32.5247V32.4338C143.741 27.697 140.256 23.8568 135.957 23.8568Z" fill="white"/>
<g opacity="0.170186">
<path d="M122.875 31.9856C122.875 31.1575 122.266 30.4862 121.515 30.4862C120.763 30.4862 120.154 31.1575 120.154 31.9856C120.154 32.8136 120.763 33.4849 121.515 33.4849C122.266 33.4849 122.875 32.8136 122.875 31.9856Z" fill="#FFDE6F"/>
</g>
<g opacity="0.882314">
<path d="M130.46 31.9856C130.46 31.1575 129.851 30.4862 129.1 30.4862C128.348 30.4862 127.739 31.1575 127.739 31.9856C127.739 32.8136 128.348 33.4849 129.1 33.4849C129.851 33.4849 130.46 32.8136 130.46 31.9856Z" fill="#FFDE6F"/>
</g>
<g opacity="0.170186">
<path d="M138.211 31.9856C138.211 31.1575 137.602 30.4862 136.85 30.4862C136.099 30.4862 135.49 31.1575 135.49 31.9856C135.49 32.8136 136.099 33.4849 136.85 33.4849C137.602 33.4849 138.211 32.8136 138.211 31.9856Z" fill="#FFDE6F"/>
</g>
<path d="M63.1227 97.8754L63.3479 100.343L63.8068 101.153C63.8068 101.153 73.4679 104.958 77.0426 105.183C80.6175 105.407 90.4519 105.029 94.7407 96.2334C95.293 95.1041 95.9395 94.0592 96.1988 93.1124C96.0397 92.0024 96.0657 91.8791 95.9205 90.7318C95.8632 90.2797 95.622 88.8929 95.5785 88.3685C95.3316 89.4264 94.9378 90.1603 94.4998 91.1368C88.2588 104.319 74.4384 102.934 63.1227 97.8754Z" fill="#D13349"/>
<path d="M96.567 68.6899C94.0487 70.6299 90.037 75.1048 89.2224 80.5939C87.9835 88.9415 86.3891 90.598 81.2522 92.9194C76.2834 95.1648 64.096 94.3185 64.096 94.3185L65.0987 99.2572C75.9938 104.045 89.9106 105.466 95.4713 92.5101C95.8905 91.59 96.1947 90.6219 96.4299 89.6247C96.3307 88.4802 96.5737 84.1041 96.4655 83.1032L96.567 68.6899Z" fill="#E8465A"/>
<path d="M42.4913 92.2236L58.6383 103.885C58.6383 103.885 59.121 103.972 58.7521 103.339C53.1851 99.1351 42.7219 91.5603 42.7219 91.5603C42.7219 91.5603 42.2559 92.0534 42.4913 92.2236Z" fill="#102040"/>
<path d="M42.779 92.8185C42.779 92.8185 40.6225 91.1852 40.5884 91.2065C40.5542 91.2279 40.2047 91.5275 40.7258 91.9999C41.247 92.4726 42.6799 93.2875 42.6799 93.2875L42.779 92.8185Z" fill="#EE5568"/>
<path d="M48.0474 97.2013C48.0417 97.2759 48.0412 97.3407 48.048 97.3908C48.1323 98.0045 49.0539 100.102 50.2329 101.904C51.4117 103.706 52.6376 102.845 54.6703 102.496C56.703 102.147 61.1715 102.986 61.1715 102.986C61.1715 102.986 60.9174 101.618 60.5339 100.101C60.2283 99.959 59.9132 99.8598 59.5814 99.8381C55.7674 99.6945 51.4371 102.766 48.0474 97.2013Z" fill="#DB6767"/>
<path d="M59.4358 96.5853C59.4358 96.5853 54.5032 92.5442 53.2207 92.6338C51.9382 92.7233 50.3501 93.3354 49.8534 93.9614C49.3974 94.5362 48.6044 96.758 48.5425 97.5912C51.9186 103.132 56.2298 100.076 60.0273 100.219C60.3575 100.241 60.6714 100.339 60.9758 100.481C60.5614 98.8423 59.9958 97.0285 59.4358 96.5853Z" fill="#FB9490"/>
<path d="M52.2337 96.8141C51.9215 96.5 51.4611 96.4028 50.9574 96.4261C49.6211 96.4876 47.9783 97.4013 47.9783 97.4013C47.2005 98.0854 48.9324 101.586 50.3781 103.036C50.6973 103.356 51.0028 103.578 51.2642 103.646C52.7082 104.019 53.1526 102.709 53.1526 102.709C53.8604 102.205 54.2576 100.653 54.3157 100.056C54.3733 99.4591 53.3734 97.961 52.2337 96.8141Z" fill="#FB9490"/>
<path d="M52.5239 93.5666C52.5239 93.5666 48.6194 94.4456 48.0044 95.0646C49.4008 96.7418 50.9532 95.7064 52.5872 95.5239" fill="#FB9490"/>
<path d="M47.9546 94.9976C47.8031 95.1484 47.7372 95.3155 47.8138 95.4983C48.195 96.4078 48.8623 97.0445 49.6562 97.1011C50.4499 97.1575 52.9863 96.1533 53.1536 95.9643L52.4588 95.4585C50.8536 95.6308 49.3313 96.6325 47.9546 94.9976Z" fill="#DB6767"/>
<path d="M59.0642 94.5045C60.2212 97.088 61.0387 99.8417 61.552 102.747L64.4112 103.12C63.8517 99.7665 62.8592 96.9442 61.5202 94.5481L59.0642 94.5045Z" fill="white"/>
<path d="M127.086 94.0715C127.26 102.126 125.356 107.634 124.046 110.449L94.7661 101.614C94.7526 101.194 94.7436 100.757 94.7368 100.31C98.5412 101.798 102.605 102.022 106.668 102.7C106.962 102.7 107.401 103.023 107.695 103.023C114.151 104.801 121.487 101.083 121.633 93.0005C121.633 92.8393 122.22 92.8393 122.22 92.6778C122.073 91.8703 122.368 91.2244 122.662 90.4145C124.258 84.345 125.377 78.2731 126.276 72.1788C128.256 77.0856 126.894 85.0034 127.086 94.0715Z" fill="#D13349"/>
<path d="M107.696 103.023C114.151 104.801 121.487 101.083 121.634 93.0015C121.634 92.8397 122.22 92.8397 122.22 92.678C122.074 91.8698 122.367 91.2234 122.66 90.4152C124.257 84.3448 125.376 78.2743 126.277 72.1781C126.248 72.107 126.222 72.0342 126.192 71.9644C125.504 70.3689 124.444 69.1063 122.832 68.2435C121.785 67.6818 120.623 67.2619 119.413 66.9506C113.052 65.3116 105.318 66.6959 105.318 66.6959C105.318 66.6959 101.802 67.0492 98.5024 69.1426C98.4984 69.1441 98.4959 69.1456 98.4932 69.1483L95.2431 86.2009C95.1166 87.7104 95.0145 89.2261 94.9351 90.7175C94.8812 91.7297 94.8379 92.7299 94.805 93.7103C94.7576 95.109 94.7301 96.4652 94.7236 97.7524C94.7186 98.6421 94.7236 99.496 94.7364 100.309C98.5403 101.798 102.604 102.021 106.668 102.7C106.962 102.7 107.402 103.023 107.696 103.023Z" fill="#E8465A"/>
<path d="M108.901 73.4036C108.901 73.4036 103.935 89.7943 107.326 105.403" stroke="#99112B" stroke-width="0.947" stroke-linecap="round" stroke-linejoin="round"/>
<path d="M109.205 73.4037C109.205 73.4037 111.094 71.1853 112.78 73.4042C114.466 75.6232 114.45 74.9517 114.45 74.9517C116.106 71.6874 117.614 68.53 117.799 66.3338C117.799 66.3338 117.003 64.7599 115.317 65.534C114.731 69.4559 109.65 70.5396 109.205 72.6554C108.924 73.3778 109.205 73.4037 109.205 73.4037Z" fill="white"/>
<path d="M105.177 66.4825C105.177 66.4825 104.661 69.241 106.972 70.3418C108.626 71.3739 108.751 73.4036 108.751 73.4036C108.751 73.4036 108.424 73.6789 108.049 73.0941C107.674 72.5092 107.245 71.5912 105.107 72.2449C102.968 72.8985 103.001 74.2747 103.001 74.2747C103.001 74.2747 102.133 67.5466 102.765 66.9017C103.397 66.2565 105.177 66.4825 105.177 66.4825Z" fill="white"/>
<path d="M122.834 68.2435C122.834 68.2435 125.176 68.2435 129.485 72.387C134.045 75.2016 134.085 84.7063 135.091 93.1528C135.31 95.003 135.576 96.8027 135.947 98.4707C138.008 107.748 132.763 115.617 129.719 116.407C126.675 117.199 104.944 116.407 104.944 116.407C104.436 116.362 103.999 115.872 103.67 115.158C102.717 113.098 102.658 109.174 104.336 108.753C104.336 108.753 124.708 107.978 125.551 103.956C125.872 102.423 125.554 96.8757 125.038 90.5941" fill="#EE5163"/>
<path d="M129.718 116.407C126.674 117.199 104.944 116.407 104.944 116.407C104.435 116.362 103.999 115.872 103.669 115.158C110.4 115.256 129.766 115.261 130.796 112.081C132.045 108.23 132.794 96.3482 131.608 92.588C133.134 92.5085 134.281 92.7997 135.09 93.1527C135.309 95.0031 135.576 96.8026 135.946 98.4706C138.008 107.748 132.763 115.617 129.718 116.407Z" fill="#D13349"/>
<path d="M103.351 111.109C103.351 111.109 103.476 109.407 104.257 109.166C105.038 108.925 106.708 110.215 106.817 112.486C106.926 114.756 106.166 115.96 105.349 116.115C104.533 116.27 103.289 114.98 103.351 111.109Z" fill="#D13349"/>
<path d="M98.7379 115.087C96.9388 115.582 95.1397 116.924 93.2583 116.485C93.991 117.397 94.78 117.991 95.4683 117.629C97.2011 116.717 98.5278 115.461 99.6361 115.41C100.745 115.358 101.619 115.977 103.164 114.842C104.218 114.894 104.593 115.461 105.225 115.487C106.091 115.332 106.337 115.278 106.337 115.278C106.458 114.923 106.554 114.578 106.627 114.243C105.796 114.195 104.984 114.062 104.256 113.928C102.417 113.639 100.577 114.652 98.7379 115.087Z" fill="#DB6767"/>
<path d="M105.09 109.323C105.09 109.323 104.833 109.539 104.186 109.597C103.712 109.64 103.03 109.597 102.085 109.323C99.8474 108.673 98.1277 106.792 96.666 107.67C95.7714 108.206 93.6126 109.445 92.186 110.566C91.2808 111.277 90.6704 111.941 90.8641 112.348C91.1653 112.981 92.1472 115.101 93.2594 116.486C95.1406 116.925 96.9395 115.582 98.7386 115.087C100.578 114.653 102.418 113.639 104.257 113.929C104.985 114.062 105.797 114.195 106.628 114.243C107.073 112.194 106.611 110.533 105.09 109.323Z" fill="#FB9490"/>
<path d="M113.387 60.2557C113.309 59.659 113.251 59.0603 113.221 58.4712C113.061 55.339 113.851 44.5297 108.075 44.4253C102.298 44.3196 99.1993 46.0999 99.1193 48.9244C99.1001 49.614 99.2026 50.9555 99.4622 52.5654C100.161 56.8835 102 63.1432 105.701 64.0326L105.697 64.0342C105.948 65.442 104.736 67.6156 104.736 67.6156C104.736 67.6156 108.397 73.4558 109.337 73.5171C111.071 73.6304 115.889 68.4387 115.698 66.4372C115.005 65.1547 113.729 62.8365 113.387 60.2557Z" fill="#FB9490"/>
<path d="M101.396 48.4678C101.396 48.4678 99.5252 50.0855 99.2953 51.652C98.9589 52.9745 97.9614 51.5508 97.5167 50.2934C97.0717 49.0359 97.3434 47.6956 97.3434 47.6956L101.396 48.4678Z" fill="#102040"/>
<path d="M95.2591 42.2112C95.2591 42.2112 96.0602 50.8141 101.112 49.5626C102.825 50.3431 105.076 50.1272 105.47 49.2392C106.318 50.634 109.142 52.6638 110.159 52.0468C110.714 50.4159 112.701 49.8526 113.062 52.1018C113.185 54.3902 112.464 55.8126 111.845 56.035C112.212 57.4736 112.587 59.0175 113.971 58.923C115.019 58.3406 115.061 57.3885 115.061 57.3885C115.061 57.3885 116.518 57.2571 116.532 55.2126C116.547 53.1683 115.104 51.0087 115.154 49.4922C115.203 47.9757 116.069 45.1059 114.271 43.5162C112.473 41.9265 111.686 41.9052 110.979 42.6224C110.003 40.666 108.001 38.7275 105.418 39.8654C103.322 39.6907 101.838 41.4436 99.3944 41.4865C96.8557 41.9187 96.1897 42.1243 95.2591 42.2112Z" fill="#102040"/>
<path d="M104.886 66.9823C104.886 66.9823 112.351 67.9847 111.495 60.9192C109.371 64.8918 105.454 63.9181 105.454 63.9181C105.515 64.8036 105.073 65.6473 104.886 66.9823Z" fill="#DB6767"/>
<path d="M144.042 98.356L142.775 94.1596L142.638 93.7059L138.544 80.1503L124.236 78.4917C124.236 78.4917 124.295 79.4025 124.473 80.8086C124.488 80.9341 124.505 81.0636 124.523 81.1961C125.24 86.5488 127.577 97.8069 134.418 95.6354C134.418 95.6354 134.419 95.6399 134.421 95.6473C134.496 95.8746 135.618 99.3547 135.937 102.971C136.051 104.265 136.062 105.578 135.886 106.765C138.773 108.644 145.769 104.219 145.769 104.219L144.042 98.356Z" fill="#FB9490"/>
<path d="M135.069 98.2759C134.597 96.4558 134.405 95.7964 134.33 95.5693C136.332 94.1687 136.234 93.7975 137.091 93.3295C137.411 96.1113 135.924 96.6776 135.069 98.2759Z" fill="#DB6767"/>
<path d="M115.903 127.709C116.144 128.333 116.421 128.812 116.704 128.884C117.561 129.1 119.216 129.394 120.311 129.964C121.404 130.534 122.867 132.929 123.117 132.86C123.226 132.83 123.757 131.688 124.317 130.419C123.106 129.381 121.655 128.804 120.267 128.092C118.914 127.514 117.27 128.43 115.903 127.709Z" fill="#DB6767"/>
<path d="M125.657 127.077C125.54 126.868 123.386 121.697 121.936 121.025C120.486 120.354 118.665 119.782 117.726 120.331C116.787 120.88 115.148 124 115.072 124.416C115.023 124.69 115.345 126.46 115.811 127.711C115.82 127.736 115.83 127.761 115.84 127.786C117.198 128.502 118.831 127.593 120.175 128.166C121.553 128.873 122.995 129.447 124.198 130.478C124.276 130.303 124.353 130.125 124.43 129.948C125.06 128.506 125.657 127.077 125.657 127.077Z" fill="#FB9490"/>
<path d="M154.755 117.269C154.755 117.269 161.46 138.231 161.025 140.815C160.59 143.399 153.864 144.894 153.864 144.894L154.755 117.269Z" fill="#FFB013"/>
<path d="M123.497 174.695C123.497 174.695 120.297 175.511 115.032 177.002C114.994 177.058 114.954 177.114 114.918 177.171C114.109 178.333 113.187 179.055 112.383 180.071C111.303 181.668 110.48 183.268 109.646 185.159C109.508 185.45 108.99 185.592 108.719 186.027C107.476 188.645 106.234 191.263 105.114 194.029C104.832 194.772 104.425 195.971 104.202 196.751C111.894 198.971 117.213 200.033 123.401 200.496L123.497 174.695Z" fill="#FFB013"/>
<path d="M108.477 185.895C108.75 185.457 109.273 185.315 109.413 185.022C110.254 183.12 111.086 181.511 112.176 179.905C112.988 178.884 113.919 178.157 114.736 176.989C114.772 176.931 114.812 176.875 114.851 176.818C111.599 177.736 107.568 178.906 103.016 180.299C96.705 182.232 91.9162 186.811 89.1438 190.159C93.9629 192.95 98.9506 195 103.915 196.655C104.139 195.87 104.552 194.69 104.837 193.942C105.967 191.161 107.222 188.528 108.477 185.895Z" fill="#FFDE6F"/>
<path d="M156.687 132.439C156.679 129.702 156.7 128.091 156.7 128.091C156.7 128.091 152.132 101.818 149.919 100.558C148.691 99.8586 145.199 100.764 142.082 101.956C139.119 103.089 136.494 104.481 136.476 105L132.315 124.652L131.344 128.573L129.273 136.935C129.273 136.935 131.507 147.23 129.077 154.996C127.73 159.298 123.296 167.497 118.975 177.048C115.88 183.889 112.757 191.662 110.956 198.955C115.147 200.038 119.336 200.623 123.433 200.949C127.025 201.237 130.533 201.385 133.925 201.179C140.305 200.792 146.219 199.939 151.438 198.065C155.961 196.34 159.245 194.007 162.157 190.988C157.128 176.15 156.721 144.208 156.687 132.439Z" fill="#FFDE6F"/>
<path d="M83.6972 106.684C85.4963 107.564 83.9547 110.647 84.706 112.429C85.0185 113.335 85.5434 113.947 86.1629 114.438C88.0117 113.549 89.1171 111.727 89.1171 111.727C89.1171 111.727 90.1235 106.055 89.4473 104.993C88.771 103.932 87.8399 103.781 87.6689 103.74C87.4979 103.7 84.8867 102.781 83.8512 103.264C83.4399 103.455 82.6432 103.749 81.8767 104.109C81.3571 104.354 80.5763 105.119 80.2141 105.413C81.1924 106.182 82.6023 106.149 83.6972 106.684Z" fill="#FB9490"/>
<path d="M85.0051 112.084C84.2407 110.271 85.7793 107.092 83.9509 106.196C82.8382 105.65 81.7379 105.626 80.3902 105.063C79.9327 105.435 79.6051 105.753 79.8524 106.166C80.5925 107.403 82.4211 107.438 83.2592 107.893C83.5099 109.59 82.3711 113.489 84.6622 114.656C85.2578 114.617 85.8074 114.458 86.3063 114.231C86.3395 114.216 86.3718 114.2 86.4043 114.184C85.7746 113.684 85.3231 113.006 85.0051 112.084Z" fill="#DB6767"/>
<path d="M100.3 135.072C94.5813 133.956 89.0342 119.544 86.294 115.125C85.974 115.753 85.8621 116.237 85.8621 116.237C85.8621 116.237 89.8691 135.212 102.419 138.861C110.864 141.316 124.937 136.167 134.886 124.44C114.083 142.026 106.582 136.299 100.3 135.072Z" fill="#FFB013"/>
<path d="M136.38 101.669C136.38 101.669 130.012 103.201 122.031 113.408C114.372 123.204 107.37 135.378 91.0132 114.03C87.962 113.655 86.5082 115.443 85.8807 116.665C88.1125 121.129 93.8312 134.824 99.3499 135.884C105.411 137.049 111.781 140.966 126.166 130.696C128.163 129.245 132.364 125.951 132.834 125.397" fill="#FFDE6F"/>
<path d="M134.968 82.9896C134.968 82.9896 129.86 82.9691 126.544 80.9694C125.2 80.1581 124.297 83.5665 123.621 79.0765C122.787 73.5336 125.639 67.9114 132.902 68.3245C140.165 68.7374 145.284 76.5275 147.196 86.6915C149.108 96.8555 155.038 102.137 156.329 104.983C157.621 107.828 163.97 126.63 161.57 128.627C159.169 130.624 153.298 128.306 152.22 125.223C151.142 122.14 150.359 108.774 147.464 105.76C144.568 102.746 141.266 102.453 140.281 98.7019C139.295 94.9507 140.258 87.8721 138.52 87.7617C139.11 86.5038 139.202 83.9966 138.034 82.3442C137.086 81.0034 135.69 81.1621 134.968 82.9896Z" fill="#102040"/>
<path d="M145.377 89.8551C145.377 89.8551 148.482 90.3205 149.432 88.5184C150.41 89.5876 148.518 90.567 147.553 90.4621C146.587 90.3573 145.402 90.9219 145.377 89.8551Z" fill="white"/>
<defs>
<linearGradient id="paint0_linear_294_2085" x1="189.796" y1="105.392" x2="-0.984619" y2="105.802" gradientUnits="userSpaceOnUse">
<stop stop-color="#529BF7"/>
<stop offset="0.5" stop-color="#5DA7F9"/>
<stop offset="1" stop-color="#68B2FC"/>
</linearGradient>
<linearGradient id="paint1_linear_294_2085" x1="-1.17628" y1="90.6286" x2="195.92" y2="91.8568" gradientUnits="userSpaceOnUse">
<stop stop-color="#4085F0"/>
<stop offset="0.5" stop-color="#3471DD"/>
<stop offset="1" stop-color="#275DC9"/>
</linearGradient>
<linearGradient id="paint2_linear_294_2085" x1="167.259" y1="23.1314" x2="182.143" y2="37.0918" gradientUnits="userSpaceOnUse">
<stop stop-color="#529BF7"/>
<stop offset="0.5" stop-color="#5DA7F9"/>
<stop offset="1" stop-color="#68B2FC"/>
</linearGradient>
<linearGradient id="paint3_linear_294_2085" x1="21.7972" y1="180.554" x2="43.8034" y2="198.31" gradientUnits="userSpaceOnUse">
<stop stop-color="#529BF7"/>
<stop offset="0.5" stop-color="#5DA7F9"/>
<stop offset="1" stop-color="#68B2FC"/>
</linearGradient>
<linearGradient id="paint4_linear_294_2085" x1="17.3388" y1="40.2968" x2="26.2528" y2="48.5003" gradientUnits="userSpaceOnUse">
<stop stop-color="#4085F0"/>
<stop offset="0.5" stop-color="#3471DD"/>
<stop offset="1" stop-color="#275DC9"/>
</linearGradient>
</defs>
</svg>
