<svg width="798" height="617" viewBox="0 0 798 617" fill="none" xmlns="http://www.w3.org/2000/svg">
<path d="M797 617C797 541.889 743.529 550.894 706.86 550.894C661.023 550.894 347.997 629.789 261.213 514.069C244.101 493.696 208.165 458.675 213.543 400" stroke="#5E28B8" stroke-width="2" stroke-dasharray="12 12"/>
<path d="M120.718 40.3343C116.308 43.4168 112.071 46.8032 108.058 50.4871C98.7715 59.0086 96.1703 73.4315 88.4262 83.6543C81.0088 93.4466 69.1993 97.6089 57.8781 100.267C46.5573 102.926 34.7163 104.69 24.829 111.323C11.1248 120.515 3.33082 137.921 0.887027 155.393C-1.55631 172.865 1.93987 192.328 0.864155 209.967C-0.602759 234.029 11.635 256.351 24.6496 275.74C37.6634 295.129 52.3458 314.42 57.0883 337.962C60.3274 354.042 58.9872 372.122 67.8111 385.416C76.7499 398.884 93.5943 402.973 108.692 401.692C123.789 400.412 138.363 394.854 153.434 393.253C173.632 391.108 193.716 396.109 213.756 401.109C235.73 406.592 257.652 412.076 279.614 408.137C318.146 401.225 349.908 362.266 352.029 319.312C369.97 297.822 383.044 270.178 385.221 241.077C387.398 211.976 380.528 182.145 366.023 157.707C376.355 141.778 374.463 121.212 366.336 104.696C357.321 86.3754 341.121 75.4579 326.241 63.5499C294.74 38.3406 261.633 20.4497 222.521 16.5113C216.576 15.9124 210.571 15.6019 204.551 15.6019C175.234 15.6019 145.563 22.9711 120.718 40.3343Z" fill="url(#paint0_linear_1_7936)"/>
<path d="M203.225 0.314547C169.094 3.76954 115.435 22.2105 108.12 68.7002C102.316 105.57 62.6266 122.154 46.4502 127.439C42.2307 128.817 39.6093 129.428 39.6093 129.428C-3.15133 144.923 5.97092 180.209 5.97092 225.359C5.97092 230.865 6.64672 236.713 7.83086 242.733L345.594 367.768C356.354 346.092 358.311 322.369 358.311 322.369C358.311 322.369 365.696 286.432 377.016 240.558C378.854 233.111 380.796 225.402 382.826 217.542C397.365 161.271 348.049 107.963 320.396 95.0849C292.745 82.2066 271.229 75.8062 270.373 49.1069C269.573 24.0473 241.188 0.00150945 209.48 1.87017e-06C207.406 -0.000505783 205.321 0.102332 203.225 0.314547Z" fill="url(#paint1_linear_1_7936)"/>
<path d="M340.47 60.0395C340.47 68.8353 346.941 75.9655 354.924 75.9655C362.906 75.9655 369.377 68.8353 369.377 60.0395C369.377 51.2432 362.906 44.1129 354.924 44.1129C346.941 44.1129 340.47 51.2432 340.47 60.0395Z" fill="url(#paint2_linear_1_7936)"/>
<path d="M44.1865 387.513C44.1865 399.79 53.2182 409.742 64.3591 409.742C75.5006 409.742 84.5322 399.79 84.5322 387.513C84.5322 375.237 75.5006 365.284 64.3591 365.284C53.2182 365.284 44.1865 375.237 44.1865 387.513Z" fill="url(#paint3_linear_1_7936)"/>
<path d="M35.1133 89.827C35.1133 94.8804 38.8309 98.9766 43.4165 98.9766C48.0021 98.9766 51.7197 94.8804 51.7197 89.827C51.7197 84.774 48.0021 80.6773 43.4165 80.6773C38.8309 80.6773 35.1133 84.774 35.1133 89.827Z" fill="url(#paint4_linear_1_7936)"/>
<path d="M330.667 238.994C330.874 235.937 332.355 233.105 334.573 231.528C337.162 229.687 340.463 229.599 343.572 230.01C346.681 230.422 349.788 231.28 352.89 231.141C355.991 231.002 359.215 229.65 360.765 226.627C362.27 223.692 361.901 219.878 362.849 216.621C363.775 213.44 366.027 210.88 368.798 209.861C371.568 208.843 374.8 209.385 377.334 211.294C379.412 212.86 381.263 215.377 383.684 215.434C386.021 215.49 387.739 213.204 389.838 212.145C393.529 210.281 398.584 213.016 399.901 217.589C401.219 222.161 398.48 227.463 394.447 228.144C393.003 228.388 391.509 228.115 390.043 228.182C388.576 228.249 387.018 228.751 386.218 230.129C385.358 231.61 385.613 233.62 385.362 235.407C384.886 238.78 382.471 241.397 379.667 242.413C376.863 243.43 373.74 243.04 370.839 242.041C368.038 241.076 364.952 239.567 362.421 241.009C360.988 241.826 360.071 243.438 359.051 244.847C356.037 249.009 351.628 251.767 346.879 252.457C339.308 253.557 329.945 249.661 330.667 238.994Z" fill="#127754"/>
<path d="M335.785 247.446C335.785 247.446 375.03 222.356 393.052 221.581" stroke="#3CBD87" stroke-width="0.947" stroke-linecap="round" stroke-linejoin="round"/>
<path d="M349.631 244.985L343.76 242.371" stroke="#3CBD87" stroke-width="0.947" stroke-linecap="round" stroke-linejoin="round"/>
<path d="M372.092 222.347L370.817 228.657" stroke="#3CBD87" stroke-width="0.947" stroke-linecap="round" stroke-linejoin="round"/>
<path d="M379.444 235.635L364.54 231.215" stroke="#3CBD87" stroke-width="0.947" stroke-linecap="round" stroke-linejoin="round"/>
<path d="M392.702 218.454L388.281 222.41" stroke="#3CBD87" stroke-width="0.947" stroke-linecap="round" stroke-linejoin="round"/>
<path d="M299.714 202.048C299.851 195.289 302.946 188.317 308.496 186.368C312.625 184.919 317.167 186.437 321.503 187.465C325.841 188.494 330.782 188.86 334.014 185.655C336.928 182.765 337.552 177.81 337.402 173.265C337.252 168.72 336.518 164.065 337.422 159.701C338.327 155.338 341.558 151.264 345.505 151.795C351.195 152.561 354.403 161.843 360.102 161.991C363.88 162.088 366.406 158.098 369.224 155.382C375.618 149.22 386.142 149.456 392.911 155.913C396.327 159.171 398.805 163.957 398.969 168.93C399.134 173.902 396.697 178.887 392.705 180.557C390.139 181.63 387.257 181.318 384.501 181.578C381.745 181.839 378.774 182.949 377.59 185.764C376.136 189.224 377.99 193.382 378.765 197.249C379.948 203.151 378.361 209.522 374.704 213.563C371.046 217.603 365.436 219.182 360.338 217.604C356.635 216.459 353.343 213.825 349.69 212.448C346.038 211.071 341.444 211.38 339.483 214.977C337.268 219.039 339.601 224.512 339.545 229.417C339.473 235.808 334.915 241.168 329.527 242.475C324.139 243.781 318.258 241.536 313.692 237.587C304.626 229.742 299.46 214.584 299.714 202.048Z" fill="#339E7D"/>
<path d="M306.026 236.295C306.026 236.295 341.791 179.789 378.549 171.514" stroke="#10663E" stroke-width="0.947" stroke-linecap="round" stroke-linejoin="round"/>
<path d="M331.039 222.185L317.589 219.136" stroke="#10663E" stroke-width="0.947" stroke-linecap="round" stroke-linejoin="round"/>
<path d="M323.235 197.402L326.379 209.327" stroke="#10663E" stroke-width="0.947" stroke-linecap="round" stroke-linejoin="round"/>
<path d="M360.533 200.04L339.476 195.724" stroke="#10663E" stroke-width="0.947" stroke-linecap="round" stroke-linejoin="round"/>
<path d="M349.978 168.81L351.869 185.779" stroke="#10663E" stroke-width="0.947" stroke-linecap="round" stroke-linejoin="round"/>
<path d="M376.628 178.466L366.974 176.159" stroke="#10663E" stroke-width="0.947" stroke-linecap="round" stroke-linejoin="round"/>
<path d="M381.288 162.225L376.139 172.05" stroke="#10663E" stroke-width="0.947" stroke-linecap="round" stroke-linejoin="round"/>
<path d="M112.507 281.932L7.8335 243.183C12.9645 269.278 27.6899 298.642 38.8318 317.722C39.5108 318.884 40.177 320.01 40.8258 321.093C73.8832 376.236 108.027 332.064 148.695 363.475C159.217 372.396 170.059 379.74 181.013 385.7C195.692 393.688 210.57 399.186 225.139 402.653C234.022 404.768 242.787 406.125 251.326 406.83C273.165 408.637 293.506 406.175 310.423 401.169C319.248 398.56 326.472 393.653 332.379 387.513C337.832 381.849 342.161 375.138 345.597 368.22L112.507 281.932Z" fill="#102040"/>
<path d="M340.471 377.237C338.599 380.116 334.657 384.928 332.378 387.513L23.1295 287.351C20.3036 281.209 17.6004 274.826 15.2092 268.384L340.471 377.237Z" stroke="white" stroke-width="0.947" stroke-linecap="round" stroke-linejoin="round"/>
<path d="M340.471 377.237C338.599 380.116 334.657 384.928 332.378 387.513L23.1295 287.351C20.3036 281.209 17.6004 274.826 15.2092 268.384L340.471 377.237Z" fill="#562557"/>
<path d="M49.967 296.066C60.968 295.347 68.3085 294.754 79.3099 294.035C80.6812 293.945 82.2712 293.954 83.1479 295.119C83.8072 295.995 83.7903 297.401 83.1104 298.258C82.4305 299.115 81.1685 299.321 80.2923 298.718" stroke="white" stroke-width="0.947" stroke-linecap="round" stroke-linejoin="round"/>
<path d="M76.3973 297.34C75.792 298.503 76.412 300.064 77.4181 300.817C78.4243 301.571 79.6917 301.724 80.9019 301.856C83.7676 302.169 86.7527 302.465 89.4486 301.349C90.9727 300.718 92.3408 299.656 93.9084 299.173C96.6249 298.335 99.4901 299.334 102.209 300.161C109.53 302.385 117.158 303.379 124.747 303.1" stroke="white" stroke-width="0.947" stroke-linecap="round" stroke-linejoin="round"/>
<path d="M85.6914 307.673C98.5885 305.154 106.837 303.702 119.727 306.267C128.167 307.946 136.606 311.795 145.035 310.049" stroke="white" stroke-width="0.947" stroke-linecap="round" stroke-linejoin="round"/>
<path d="M102.765 312.996C116.635 310.312 127.52 310.723 141.338 313.712C146.195 314.762 151.42 316.119 155.926 313.863" stroke="white" stroke-width="0.947" stroke-linecap="round" stroke-linejoin="round"/>
<path d="M122.063 319.321C130.419 317.121 135.638 317.455 144.101 319.09C148.888 320.014 153.591 321.549 158.438 321.957C163.284 322.365 168.458 321.504 172.247 318.148" stroke="white" stroke-width="0.947" stroke-linecap="round" stroke-linejoin="round"/>
<path d="M146.52 327.382C153.279 326.897 154.09 327.548 160.849 327.063C165.149 326.755 169.478 326.447 173.758 326.997C178.039 327.547 182.314 329.01 185.72 331.92C186.015 332.173 186.33 332.497 186.314 332.908C186.29 333.539 185.566 333.782 184.996 333.836C180.929 334.217 176.788 333.596 172.961 332.033C172.563 331.87 172.155 331.688 171.86 331.351C171.565 331.015 171.413 330.48 171.612 330.066C171.905 329.455 172.69 329.465 173.313 329.561C174.571 329.755 175.83 329.95 177.089 330.144" stroke="white" stroke-width="0.947" stroke-linecap="round" stroke-linejoin="round"/>
<path d="M174.71 336.465C179.811 336.833 180.794 337.136 185.894 337.504C187.551 337.623 189.466 337.629 190.546 336.241C191.414 335.125 191.4 333.403 190.793 332.094C190.186 330.785 189.093 329.832 187.947 329.082C186.799 328.332 185.568 327.743 184.46 326.925C182.424 325.422 180.867 323.147 180.116 320.577L181.338 319.979" stroke="white" stroke-width="0.947" stroke-linecap="round" stroke-linejoin="round"/>
<path d="M190.441 341.683C200.353 340.669 202.608 342.935 212.416 344.809C213.573 345.03 214.789 345.266 215.899 344.843C217.01 344.42 217.926 343.076 217.537 341.856C217.268 341.015 216.502 340.51 215.771 340.128C212.848 338.597 209.636 337.888 206.556 336.79C203.477 335.693 200.392 334.096 198.404 331.281C198.061 330.796 197.742 330.234 197.758 329.619C197.773 329.004 198.271 328.377 198.819 328.497" stroke="white" stroke-width="0.947" stroke-linecap="round" stroke-linejoin="round"/>
<path d="M215.026 349.462C216.391 348.919 217.88 348.951 219.331 348.987C220.782 349.023 222.129 350.5 223.49 349.948C224.853 349.396 223.988 346.867 224.132 345.275C224.279 343.659 221.842 342.891 220.94 341.607C219.135 339.033 217.331 336.459 215.527 333.886" stroke="white" stroke-width="0.947" stroke-linecap="round" stroke-linejoin="round"/>
<path d="M226.312 338.43C228.303 342.605 230.782 346.496 233.663 349.983C238.865 356.279 245.391 361.239 252.58 364.359" stroke="white" stroke-width="0.947" stroke-linecap="round" stroke-linejoin="round"/>
<path d="M238.171 340.013C242.051 345.505 247.7 349.444 253.864 350.957" stroke="white" stroke-width="0.947" stroke-linecap="round" stroke-linejoin="round"/>
<path d="M18.6694 276.655C26.2918 278.871 28.9735 279.515 36.849 279.141C43.7589 278.813 50.5069 276.839 57.19 274.876" stroke="white" stroke-width="0.947" stroke-linecap="round" stroke-linejoin="round"/>
<path d="M23.1375 286.701C36.8014 290.053 46.6864 284.069 60.6756 284.636C70.5935 285.039 80.5829 288.727 90.2665 286.329" stroke="white" stroke-width="0.947" stroke-linecap="round" stroke-linejoin="round"/>
<path d="M62.4238 290.995C70.4887 291.435 78.634 289.987 86.1645 286.776" stroke="white" stroke-width="0.947" stroke-linecap="round" stroke-linejoin="round"/>
<path d="M372.301 260.484L296.146 237.507L251.689 224.099L192.281 206.174L105.762 180.072L11.8171 151.727C1.93854 170.111 5.97417 195.779 5.97417 225.808C5.97417 231.322 6.65592 237.175 7.85471 243.194C9.4836 251.41 12.0779 259.944 15.2076 268.383L238.828 343.224L287.621 359.551L340.464 377.24H340.473C340.771 376.786 341.059 376.328 341.343 375.869C341.598 375.455 341.855 375.037 342.107 374.618C342.358 374.2 342.605 373.782 342.848 373.358C343.091 372.935 343.328 372.511 343.566 372.083C343.804 371.66 344.033 371.231 344.262 370.803C344.69 370.001 345.105 369.195 345.508 368.386C345.536 368.331 345.566 368.277 345.593 368.222L345.591 368.221C356.356 346.546 358.313 322.819 358.313 322.819C368.439 273.539 359.919 312.49 372.301 260.484Z" fill="#DBD2DB"/>
<path d="M298.156 314.642C297.488 288.929 296.815 263.22 296.147 237.507L251.691 224.099L192.283 206.173L105.764 180.072C84.8583 187.447 64.4148 196.429 44.6398 206.935C40.0459 209.375 34.7882 213.145 35.0723 218.75C35.2736 222.747 38.3301 225.782 41.2767 228.121C59.3501 242.483 82.5206 248.829 104.593 245.462C118.722 243.304 132.129 237.402 145.366 231.549C159.724 225.198 174.081 218.846 188.439 212.5C185.31 215.645 182.12 218.866 180.066 222.954C178.012 227.038 177.248 232.204 179.161 236.373C182.652 243.985 192.233 244.343 199.947 243.627C213.083 242.412 226.215 241.192 239.351 239.972C245.099 239.443 251.275 239.01 256.24 242.246C261.204 245.482 263.689 253.941 259.479 258.291C256.376 261.496 251.39 260.952 247.423 259.264C243.451 257.575 239.694 254.943 235.453 254.551C231.215 254.157 226.237 257.272 226.384 261.955C226.539 266.906 231.715 269.386 235.938 271.069C240.161 272.748 245.094 276.438 243.964 281.227C242.806 286.147 236.688 286.57 232.113 285.924C210.539 282.89 188.97 279.855 167.396 276.821C163.086 276.216 158.626 275.621 154.475 277.033C150.33 278.449 146.573 282.456 146.619 287.245C146.66 291.308 149.429 294.862 152.737 296.662C153.359 297 153.995 297.286 154.645 297.529C157.459 298.587 160.515 298.859 163.508 299.03C179.915 299.989 197.466 298.981 211.459 308.472C217.352 312.469 222.125 318.039 226.398 324.094C228.453 327.003 230.392 330.022 232.292 333.031C234.437 336.434 236.578 339.881 238.83 343.219V343.224L287.623 359.551C290.387 356.678 292.597 353.094 294.235 349.207C295.109 347.15 295.814 345.003 296.354 342.836C298.632 333.717 298.404 324.099 298.156 314.642Z" fill="#CFD5E8"/>
<path d="M193.163 214.189L190.378 247.55L220.375 249.491L221.322 216.863L193.163 214.189Z" fill="white"/>
<path d="M147.189 277.438L151.61 305.853L216.921 308.086L207.293 282.002L147.189 277.438Z" fill="white"/>
<path d="M186.42 245.432C186.42 245.432 165.324 253.848 162.643 254.686C159.961 255.523 148.887 244.217 148.695 244.108C147.492 243.086 147.308 241.067 148.695 240.133C148.695 240.133 161.619 250.288 161.904 250.288C162.189 250.288 184.329 241.493 185.692 240.864C185.83 240.8 185.967 240.712 186.097 240.606L186.42 245.432Z" fill="#6F212C"/>
<path d="M162.324 253.849C161.423 253.849 158.601 252.571 149.816 244.013C149.365 243.575 149.231 243.444 149.151 243.383C148.738 243.014 148.498 242.462 148.524 241.93C148.534 241.734 148.585 241.486 148.741 241.252C161.369 251.17 161.582 251.17 161.903 251.17C162.442 251.17 182.453 243.191 186.169 241.685L186.368 244.672C182.98 246.022 164.803 253.096 162.424 253.838C162.413 253.841 162.383 253.849 162.324 253.849Z" fill="white"/>
<path d="M208.827 246.42L212.375 277.622H215.871L212.666 246.473L208.827 246.42Z" fill="#F5F5F5"/>
<path d="M229.1 246.697L214.876 246.502L212.669 246.472L215.874 277.621H216.113H225.514H226.504L229.799 246.707L229.1 246.697Z" fill="white"/>
<path d="M229.859 246.42C229.859 247.884 225.151 249.073 219.343 249.073C213.535 249.073 208.827 247.884 208.827 246.42C208.827 244.955 213.535 243.767 219.343 243.767C225.151 243.767 229.859 244.955 229.859 246.42Z" fill="#C5CDDB"/>
<path d="M219.347 248.191C213.739 248.191 210.26 247.099 209.676 246.42C210.26 245.74 213.739 244.648 219.347 244.648C224.954 244.648 228.433 245.74 229.017 246.42C228.433 247.099 224.954 248.191 219.347 248.191Z" fill="#102040"/>
<path d="M186.097 240.603V240.606C185.966 240.712 185.83 240.8 185.691 240.865C184.329 241.493 162.19 250.288 161.904 250.288C161.619 250.288 148.694 240.133 148.694 240.133L169.03 230.918C169.03 230.918 183.156 239.313 185.691 238.256C187.968 237.307 187.254 239.664 186.097 240.603Z" fill="#EB475C"/>
<path d="M114.71 124.011L128.043 105.218L140.527 104.109L149.835 89.8268L147.142 87.4607L153.034 85.2618L154.839 92.8125L152.274 90.5809L143.247 107.355L129.944 108.506L119.301 127.249L114.71 124.011Z" fill="white"/>
<path d="M22.5027 143.491L103.842 126.11L119.805 187.676L44.1678 212.596L22.5027 143.491Z" fill="#FFEBEB"/>
<path d="M167.96 208.59L104.216 238.308C103.005 238.873 101.639 238.879 100.424 238.324L46.8306 213.852L121.136 191.027L167.96 208.59Z" fill="#FFEBEB"/>
<path d="M102.305 234.036C102.22 234.036 102.137 234.018 102.059 233.982L59.8813 214.723L121.013 195.945L155.994 209.066L102.556 233.98C102.476 234.017 102.392 234.036 102.305 234.036Z" fill="#425273"/>
<path d="M72.3938 217.339L125.923 199.796" stroke="#BEBDB9" stroke-width="0.947" stroke-linecap="round" stroke-linejoin="round"/>
<path d="M78.6562 220.355L130.956 202.031" stroke="#BEBDB9" stroke-width="0.947" stroke-linecap="round" stroke-linejoin="round"/>
<path d="M84.9243 223.37L136.723 205.009" stroke="#BEBDB9" stroke-width="0.947" stroke-linecap="round" stroke-linejoin="round"/>
<path d="M91.1907 226.385L142.932 207.339" stroke="#BEBDB9" stroke-width="0.947" stroke-linecap="round" stroke-linejoin="round"/>
<path d="M98.9336 229.401L149.836 209.616" stroke="#BEBDB9" stroke-width="0.947" stroke-linecap="round" stroke-linejoin="round"/>
<path d="M71.1567 214.882L104.289 229.168" stroke="#BEBDB9" stroke-width="0.947" stroke-linecap="round" stroke-linejoin="round"/>
<path d="M78.5715 212.538L111.703 226.826" stroke="#BEBDB9" stroke-width="0.947" stroke-linecap="round" stroke-linejoin="round"/>
<path d="M85.9812 210.196L119.113 224.483" stroke="#BEBDB9" stroke-width="0.947" stroke-linecap="round" stroke-linejoin="round"/>
<path d="M92.792 207.339L125.924 221.627" stroke="#BEBDB9" stroke-width="0.947" stroke-linecap="round" stroke-linejoin="round"/>
<path d="M100.326 204.439L133.458 218.727" stroke="#BEBDB9" stroke-width="0.947" stroke-linecap="round" stroke-linejoin="round"/>
<path d="M107.397 202.031L140.529 216.318" stroke="#BEBDB9" stroke-width="0.947" stroke-linecap="round" stroke-linejoin="round"/>
<path d="M112.683 199.08L145.815 213.367" stroke="#BEBDB9" stroke-width="0.947" stroke-linecap="round" stroke-linejoin="round"/>
<path d="M167.962 208.591C169.379 210.281 169.394 212.508 167.962 215.292L104.218 245.006C103.007 245.571 101.641 245.576 100.426 245.021L46.8325 220.55C44.9323 218.302 45.3917 215.28 46.8325 213.852L100.426 238.324C101.641 238.879 103.007 238.873 104.218 238.309L167.962 208.591Z" fill="#425273"/>
<path d="M22.5063 143.491C22.5063 143.491 21.1717 148.188 21.9344 150.577C22.6967 152.966 40.7508 211.444 40.8455 212.334C40.9407 213.224 44.171 212.595 44.171 212.595" fill="#425273"/>
<path d="M27.0654 146.004L102.037 129.879L116.101 185.791L46.355 207.675L27.0654 146.004Z" fill="#425273"/>
<path d="M101.465 130.9L28.1223 146.674L29.8061 152.058L102.711 135.853L101.465 130.9Z" fill="#562557"/>
<path d="M102.711 135.853L29.8059 152.058L46.2495 204.63L114.71 183.558L102.711 135.853Z" fill="white"/>
<path d="M46.248 204.63L46.8635 206.598L115.117 185.183L114.709 183.557L46.248 204.63Z" fill="#562557"/>
<path d="M59.3094 206.482L54.8574 207.878L48.9238 188.902L53.5113 187.641L59.3094 206.482Z" fill="#FFB013"/>
<path d="M70.4408 200.937L66.2894 202.147L58.1399 175.757L62.4784 174.493L70.4408 200.937Z" fill="#FFB013"/>
<path d="M91.7842 200.966L87.8552 202.196L80.2786 174.82L84.3746 173.775L91.7842 200.966Z" fill="#FFB013"/>
<path d="M103.151 203.424L99.3765 204.607L89.1067 165.981L93.1071 165.059L103.151 203.424Z" fill="#FFB013"/>
<path d="M110.4 189.669L106.772 190.806L95.2893 145.865L99.1694 145.029L110.4 189.669Z" fill="#FFB013"/>
<path d="M81.3401 201.722L77.2482 203.004L68.5369 172.773L72.8237 171.699L81.3401 201.722Z" fill="#FFB013"/>
<path d="M275.855 48.4051H245.961C237.239 48.4051 230.167 56.1967 230.167 65.8076V65.9921C230.167 75.0581 236.459 82.5014 244.493 83.3175C244.005 85.3837 243.378 87.9238 242.801 90.2315C242.318 92.1637 244.396 93.6174 245.778 92.3144L255.236 83.3951H275.855C284.577 83.3951 291.648 75.6035 291.648 65.9921V65.8076C291.648 56.1967 284.577 48.4051 275.855 48.4051Z" fill="white"/>
<g opacity="0.170186">
<path d="M249.311 64.8982C249.311 63.2181 248.076 61.856 246.551 61.856C245.026 61.856 243.791 63.2181 243.791 64.8982C243.791 66.5783 245.026 67.9403 246.551 67.9403C248.076 67.9403 249.311 66.5783 249.311 64.8982Z" fill="#FFDE6F"/>
</g>
<g opacity="0.882314">
<path d="M264.702 64.8982C264.702 63.2181 263.466 61.856 261.941 61.856C260.417 61.856 259.181 63.2181 259.181 64.8982C259.181 66.5783 260.417 67.9403 261.941 67.9403C263.466 67.9403 264.702 66.5783 264.702 64.8982Z" fill="#FFDE6F"/>
</g>
<g opacity="0.170186">
<path d="M280.428 64.8982C280.428 63.2181 279.192 61.856 277.667 61.856C276.143 61.856 274.907 63.2181 274.907 64.8982C274.907 66.5783 276.143 67.9403 277.667 67.9403C279.192 67.9403 280.428 66.5783 280.428 64.8982Z" fill="#FFDE6F"/>
</g>
<path d="M127.136 199.897L127.256 204.531L128.096 206.018C128.096 206.018 147.654 212.393 155.057 212.522C162.461 212.65 182.97 211.125 193.133 194.192C194.441 192.018 195.934 189.995 196.607 188.189C196.433 186.11 196.504 185.875 196.364 183.725C196.309 182.877 196.003 180.283 195.987 179.298C195.324 181.313 194.401 182.729 193.352 184.605C178.509 209.968 149.958 208.499 127.136 199.897Z" fill="#D13349"/>
<path d="M200.224 139.371C194.551 143.376 185.306 152.462 182.737 163.254C178.831 179.667 175.174 183.04 163.85 188.015C152.897 192.827 126.989 192.218 126.989 192.218L128.386 201.78C150.938 210.198 180.454 211.781 194.288 185.996C195.322 184.163 196.118 182.246 196.771 180.278C196.732 178.05 197.912 169.481 197.831 167.535L200.224 139.371Z" fill="#E8465A"/>
<path d="M86.1706 188.403L118.895 209.529C118.895 209.529 119.928 209.624 119.257 208.39C108.013 200.731 86.8115 187.005 86.8115 187.005C86.8115 187.005 85.6936 188.095 86.1706 188.403Z" fill="#102040"/>
<path d="M86.8355 188.138C86.8355 188.138 82.5072 185.171 82.429 185.22C82.3504 185.269 81.5308 185.941 82.5605 186.817C83.5905 187.693 86.5229 189.113 86.5229 189.113L86.8355 188.138Z" fill="#EE5568"/>
<path d="M97.5193 198.816C97.4869 198.961 97.4684 199.086 97.4693 199.181C97.4831 200.348 98.8846 204.21 100.917 207.454C102.949 210.697 105.804 208.802 110.245 207.736C114.687 206.67 124.014 207.42 124.014 207.42C124.014 207.42 123.842 204.834 123.434 201.985C122.819 201.771 122.172 201.64 121.468 201.663C113.352 202.125 103.258 208.881 97.5193 198.816Z" fill="#DB6767"/>
<path d="M121.42 195.032C121.42 195.032 111.938 188.183 109.162 188.606C106.387 189.028 102.813 190.52 101.577 191.826C100.442 193.025 98.1351 197.472 97.7755 199.094C103.509 209.143 113.591 202.399 121.698 201.939C122.401 201.917 123.048 202.045 123.662 202.26C123.219 199.174 122.5 195.78 121.42 195.032Z" fill="#FB9490"/>
<path d="M107.015 196.447C106.415 195.89 105.427 195.79 104.311 195.936C101.351 196.324 97.4782 198.453 97.4782 198.453C95.5752 199.958 98.4194 206.518 101.202 209.091C101.817 209.659 102.428 210.035 102.985 210.117C106.062 210.567 107.405 207.894 107.405 207.894C109.104 206.757 110.409 203.617 110.702 202.428C110.995 201.239 109.208 198.483 107.015 196.447Z" fill="#FB9490"/>
<path d="M106.99 189.801C106.99 189.801 98.7752 192.117 97.3619 193.361C99.8047 196.177 103.241 194.001 106.633 193.371" fill="#FB9490"/>
<path d="M97.3395 193.309C96.986 193.619 96.806 193.943 96.9179 194.269C97.4745 195.895 98.6958 196.959 100.329 196.917C101.963 196.875 107.488 194.53 107.884 194.146L106.572 193.332C103.195 193.952 99.7759 196.103 97.3395 193.309Z" fill="#DB6767"/>
<path d="M120.142 192.235C122.169 197.273 123.35 202.727 123.772 208.553L130.413 208.73C130.004 201.997 128.43 196.438 125.923 191.821L120.142 192.235Z" fill="white"/>
<path d="M257.855 190.869C258.207 207.212 254.345 218.387 251.687 224.099L192.278 206.173C192.251 205.322 192.232 204.434 192.219 203.527C199.938 206.547 208.183 207 216.428 208.376C217.023 208.376 217.915 209.031 218.51 209.031C231.61 212.64 246.494 205.095 246.791 188.696C246.791 188.369 247.981 188.369 247.981 188.042C247.683 186.403 248.283 185.093 248.878 183.449C252.117 171.135 254.387 158.815 256.212 146.45C260.23 156.405 257.466 172.47 257.855 190.869Z" fill="#D13349"/>
<path d="M218.511 209.032C231.61 212.639 246.494 205.096 246.791 188.698C246.791 188.37 247.982 188.37 247.982 188.042C247.684 186.402 248.28 185.091 248.875 183.451C252.115 171.134 254.385 158.817 256.213 146.448C256.155 146.304 256.1 146.156 256.04 146.014C254.645 142.777 252.494 140.215 249.223 138.465C247.098 137.325 244.742 136.473 242.286 135.842C229.381 132.516 213.687 135.325 213.687 135.325C213.687 135.325 206.553 136.042 199.859 140.289C199.851 140.292 199.846 140.295 199.84 140.301L193.246 174.9C192.989 177.963 192.782 181.038 192.621 184.064C192.511 186.118 192.424 188.147 192.357 190.136C192.261 192.974 192.205 195.726 192.192 198.338C192.182 200.143 192.192 201.876 192.218 203.526C199.936 206.545 208.181 206.999 216.427 208.376C217.023 208.376 217.916 209.032 218.511 209.032Z" fill="#E8465A"/>
<path d="M220.957 148.935C220.957 148.935 210.881 182.191 217.762 213.862" stroke="#99112B" stroke-width="0.947" stroke-linecap="round" stroke-linejoin="round"/>
<path d="M221.574 148.935C221.574 148.935 225.408 144.434 228.828 148.936C232.249 153.438 232.217 152.076 232.217 152.076C235.575 145.452 238.635 139.046 239.011 134.59C239.011 134.59 237.395 131.397 233.975 132.967C232.787 140.925 222.477 143.124 221.574 147.416C221.004 148.882 221.574 148.935 221.574 148.935Z" fill="white"/>
<path d="M213.402 134.892C213.402 134.892 212.355 140.489 217.043 142.722C220.401 144.816 220.654 148.935 220.654 148.935C220.654 148.935 219.989 149.493 219.229 148.307C218.468 147.12 217.598 145.257 213.259 146.584C208.92 147.91 208.986 150.702 208.986 150.702C208.986 150.702 207.224 137.051 208.507 135.742C209.79 134.433 213.402 134.892 213.402 134.892Z" fill="white"/>
<path d="M249.228 138.465C249.228 138.465 253.979 138.465 262.723 146.872C271.974 152.583 272.057 171.868 274.096 189.005C274.541 192.759 275.082 196.411 275.833 199.795C280.016 218.618 269.374 234.584 263.197 236.188C257.02 237.795 212.929 236.188 212.929 236.188C211.897 236.097 211.013 235.101 210.344 233.653C208.41 229.473 208.291 221.512 211.695 220.657C211.695 220.657 253.03 219.086 254.741 210.926C255.392 207.815 254.747 196.559 253.699 183.814" fill="#EE5163"/>
<path d="M263.196 236.188C257.019 237.795 212.928 236.188 212.928 236.188C211.896 236.097 211.011 235.101 210.342 233.653C223.999 233.853 263.292 233.862 265.382 227.411C267.917 219.597 269.437 195.489 267.029 187.86C270.127 187.698 272.454 188.289 274.094 189.005C274.539 192.76 275.08 196.411 275.832 199.795C280.015 218.619 269.372 234.584 263.196 236.188Z" fill="#D13349"/>
<path d="M209.698 225.439C209.698 225.439 209.951 221.984 211.535 221.495C213.119 221.006 216.507 223.624 216.729 228.231C216.951 232.838 215.408 235.281 213.752 235.595C212.096 235.91 209.571 233.292 209.698 225.439Z" fill="#D13349"/>
<path d="M200.337 233.509C196.687 234.515 193.037 237.237 189.219 236.346C190.706 238.197 192.307 239.401 193.703 238.666C197.219 236.817 199.911 234.269 202.16 234.164C204.409 234.06 206.183 235.316 209.318 233.013C211.456 233.117 212.216 234.269 213.499 234.321C215.257 234.007 215.756 233.898 215.756 233.898C216.001 233.176 216.196 232.477 216.344 231.797C214.657 231.699 213.011 231.43 211.534 231.159C207.802 230.572 204.07 232.628 200.337 233.509Z" fill="#DB6767"/>
<path d="M213.224 221.814C213.224 221.814 212.703 222.253 211.39 222.371C210.429 222.457 209.045 222.371 207.128 221.814C202.588 220.495 199.099 216.679 196.133 218.46C194.318 219.549 189.938 222.061 187.043 224.336C185.207 225.779 183.968 227.126 184.361 227.952C184.972 229.236 186.964 233.537 189.221 236.347C193.038 237.238 196.688 234.515 200.338 233.509C204.071 232.628 207.803 230.572 211.535 231.159C213.012 231.43 214.659 231.699 216.345 231.797C217.25 227.64 216.312 224.269 213.224 221.814Z" fill="#FB9490"/>
<path d="M230.556 122.068C230.423 120.868 230.336 119.663 230.307 118.476C230.149 112.168 232.458 90.3587 220.186 90.3172C207.913 90.2733 201.222 93.9522 200.888 99.6472C200.807 101.038 200.946 103.738 201.404 106.976C202.638 115.658 206.182 128.221 213.997 129.905L213.989 129.909C214.441 132.739 211.738 137.155 211.738 137.155C211.738 137.155 219.18 148.819 221.173 148.915C224.853 149.093 235.397 138.488 235.108 134.459C233.71 131.895 231.131 127.26 230.556 122.068Z" fill="#FB9490"/>
<path d="M205.93 98.318C205.93 98.318 201.931 101.615 201.359 104.762C200.579 107.423 198.581 104.598 197.726 102.09C196.871 99.5819 197.517 96.8871 197.517 96.8871L205.93 98.318Z" fill="#102040"/>
<path d="M193.142 86.1499C193.142 86.1499 194.306 103.344 204.889 100.694C208.409 102.207 213.105 101.71 213.977 99.9211C215.66 102.688 221.417 106.669 223.567 105.405C224.819 102.125 228.984 100.941 229.605 105.431C229.726 110.008 228.143 112.875 226.841 113.338C227.523 116.207 228.212 119.286 231.096 119.057C233.311 117.861 233.455 115.954 233.455 115.954C233.455 115.954 236.493 115.649 236.642 111.557C236.792 107.466 233.916 103.185 234.109 100.149C234.301 97.1122 236.27 91.344 232.623 88.2143C228.975 85.0847 227.339 85.0647 225.826 86.5203C223.909 82.6332 219.856 78.8111 214.417 81.1628C210.066 80.8736 206.876 84.4244 201.789 84.5806C196.481 85.5186 195.084 85.9493 193.142 86.1499Z" fill="#102040"/>
<path d="M212.483 135.908C212.483 135.908 227.917 137.696 226.553 123.604C221.913 131.603 213.841 129.77 213.841 129.77C213.915 131.537 212.948 133.235 212.483 135.908Z" fill="#DB6767"/>
<path d="M292.714 199.1L290.334 190.726L290.076 189.821L282.384 162.769L252.073 159.987C252.073 159.987 252.129 161.812 252.402 164.628C252.426 164.879 252.453 165.138 252.48 165.404C253.605 176.12 257.732 198.627 272.446 194.007C272.446 194.007 272.449 194.016 272.453 194.031C272.595 194.484 274.721 201.427 275.128 208.673C275.274 211.266 275.199 213.9 274.735 216.289C280.735 219.951 295.948 210.801 295.948 210.801L292.714 199.1Z" fill="#FB9490"/>
<path d="M273.786 199.381C272.914 195.741 272.552 194.424 272.41 193.97C276.791 191.079 276.609 190.337 278.476 189.364C278.951 194.941 275.732 196.136 273.786 199.381Z" fill="#DB6767"/>
<path d="M235.017 259.119C235.529 260.375 236.11 261.34 236.692 261.488C238.451 261.934 241.846 262.547 244.103 263.706C246.356 264.864 249.42 269.689 249.93 269.555C250.153 269.496 251.206 267.212 252.314 264.674C249.805 262.574 246.818 261.397 243.959 259.949C241.173 258.771 237.836 260.584 235.017 259.119Z" fill="#DB6767"/>
<path d="M255.155 257.887C254.909 257.464 250.324 247.014 247.322 245.638C244.32 244.266 240.559 243.089 238.645 244.182C236.73 245.276 233.451 251.538 233.306 252.377C233.213 252.927 233.928 256.499 234.924 259.025C234.945 259.076 234.965 259.127 234.986 259.178C237.801 260.639 241.132 258.829 243.914 260.005C246.769 261.448 249.75 262.624 252.256 264.718C252.409 264.366 252.564 264.01 252.717 263.655C253.97 260.758 255.155 257.887 255.155 257.887Z" fill="#FB9490"/>
<path d="M313.285 237.937C313.285 237.937 328.171 280.497 327.32 285.727C326.469 290.955 312.187 293.887 312.187 293.887L313.285 237.937Z" fill="#FFB013"/>
<path d="M250.544 354.714C250.544 354.714 243.955 356.315 233.117 359.251C233.04 359.364 232.96 359.476 232.886 359.592C231.25 361.926 229.365 363.371 227.734 365.41C225.55 368.62 223.895 371.838 222.229 375.645C221.952 376.23 220.886 376.508 220.338 377.384C217.848 382.653 215.358 387.921 213.126 393.488C212.566 394.986 211.759 397.4 211.322 398.972C227.285 403.562 238.308 405.781 251.11 406.802L250.544 354.714Z" fill="#FFB013"/>
<path d="M220.222 377.284C220.771 376.406 221.839 376.127 222.117 375.54C223.787 371.725 225.445 368.501 227.634 365.284C229.27 363.241 231.159 361.793 232.799 359.454C232.872 359.338 232.953 359.226 233.03 359.112C226.386 360.912 218.15 363.21 208.854 365.949C195.964 369.748 186.275 378.894 180.686 385.592C190.656 391.274 200.949 395.469 211.182 398.867C211.619 397.292 212.432 394.922 212.993 393.421C215.23 387.842 217.726 382.563 220.222 377.284Z" fill="#FFDE6F"/>
<path d="M318.395 269.104C318.298 263.569 318.294 260.31 318.294 260.31C318.294 260.31 307.998 207.113 303.348 204.532C300.77 203.101 293.52 204.882 287.059 207.249C280.918 209.498 275.49 212.275 275.468 213.325L267.378 253.008L265.47 260.926L261.403 277.806C261.403 277.806 266.362 298.657 261.528 314.329C258.849 323.01 249.851 339.529 241.129 358.782C234.882 372.572 228.605 388.249 225.067 402.971C233.833 405.221 242.579 406.464 251.127 407.181C258.62 407.814 265.934 408.164 272.995 407.795C286.28 407.103 298.579 405.462 309.397 401.746C318.772 398.321 325.545 393.651 331.525 387.586C320.606 357.507 318.813 292.905 318.395 269.104Z" fill="#FFDE6F"/>
<path d="M169.492 216.345C173.412 218.367 170.767 224.199 172.667 227.831C173.489 229.667 174.698 230.958 176.083 232.026C179.777 230.568 181.745 227.154 181.745 227.154C181.745 227.154 182.79 216.134 181.181 213.932C179.572 211.732 177.6 211.285 177.235 211.178C176.871 211.071 171.249 208.841 169.177 209.627C168.354 209.939 166.745 210.391 165.212 210.978C164.173 211.377 162.685 212.759 161.984 213.283C164.169 214.954 167.106 215.114 169.492 216.345Z" fill="#FB9490"/>
<path d="M172.946 227.533C171.036 223.879 173.628 217.923 169.692 215.888C167.296 214.65 165.021 214.428 162.138 213.118C161.262 213.772 160.644 214.34 161.23 215.184C162.984 217.712 166.763 218.068 168.576 219.087C169.404 222.436 167.769 229.857 172.709 232.493C173.931 232.511 175.036 232.287 176.024 231.924C176.09 231.9 176.153 231.873 176.217 231.848C174.827 230.774 173.771 229.38 172.946 227.533Z" fill="#DB6767"/>
<path d="M205.013 272.053C193.143 269.018 179.239 240.405 172.855 231.47C172.315 232.629 172.174 233.545 172.174 233.545C172.174 233.545 183.753 270.707 210.014 279.678C227.687 285.714 255.479 277.976 273.675 256.931C234.382 287.579 218.049 275.387 205.013 272.053Z" fill="#FFB013"/>
<path d="M275.658 210.963C275.658 210.963 262.603 212.968 247.793 231.866C233.579 250.005 221.187 272.949 182.935 228.111C176.473 226.88 173.762 230.181 172.676 232.497C178.185 241.682 192.723 269.677 204.481 272.66C217.395 275.937 231.471 284.706 259.685 266.711C263.596 264.164 271.782 258.327 272.661 257.306" fill="#FFDE6F"/>
<path d="M274.329 169.168C274.329 169.168 263.169 169.413 256.13 165.587C253.275 164.034 250.949 170.922 249.937 161.953C248.688 150.879 255.502 139.441 271.331 139.864C287.161 140.286 297.541 155.627 300.667 175.911C303.794 196.194 316.208 206.458 318.735 212.094C321.263 217.73 333.193 255.095 327.741 259.235C322.288 263.376 309.699 259.052 307.661 252.928C305.624 246.803 305.296 220.034 299.28 214.149C293.265 208.264 286.08 207.862 284.314 200.392C282.547 192.922 285.385 178.667 281.597 178.543C283.016 175.986 283.477 170.952 281.095 167.702C279.164 165.065 276.096 165.462 274.329 169.168Z" fill="#102040"/>
<path d="M294.858 182.394C294.858 182.394 301.224 183.124 303.363 179.612C305.278 181.614 301.274 183.595 299.291 183.445C297.307 183.295 294.804 184.442 294.858 182.394Z" fill="white"/>
<defs>
<linearGradient id="paint0_linear_1_7936" x1="385.093" y1="213.839" x2="-1.99778" y2="214.67" gradientUnits="userSpaceOnUse">
<stop stop-color="#529BF7"/>
<stop offset="0.5" stop-color="#5DA7F9"/>
<stop offset="1" stop-color="#68B2FC"/>
</linearGradient>
<linearGradient id="paint1_linear_1_7936" x1="-2.3863" y1="183.884" x2="397.519" y2="186.376" gradientUnits="userSpaceOnUse">
<stop stop-color="#4085F0"/>
<stop offset="0.5" stop-color="#3471DD"/>
<stop offset="1" stop-color="#275DC9"/>
</linearGradient>
<linearGradient id="paint2_linear_1_7936" x1="339.367" y1="46.9333" x2="369.566" y2="75.2587" gradientUnits="userSpaceOnUse">
<stop stop-color="#529BF7"/>
<stop offset="0.5" stop-color="#5DA7F9"/>
<stop offset="1" stop-color="#68B2FC"/>
</linearGradient>
<linearGradient id="paint3_linear_1_7936" x1="44.2268" y1="366.341" x2="88.877" y2="402.367" gradientUnits="userSpaceOnUse">
<stop stop-color="#529BF7"/>
<stop offset="0.5" stop-color="#5DA7F9"/>
<stop offset="1" stop-color="#68B2FC"/>
</linearGradient>
<linearGradient id="paint4_linear_1_7936" x1="35.1805" y1="81.7616" x2="53.2669" y2="98.4065" gradientUnits="userSpaceOnUse">
<stop stop-color="#4085F0"/>
<stop offset="0.5" stop-color="#3471DD"/>
<stop offset="1" stop-color="#275DC9"/>
</linearGradient>
</defs>
</svg>
