<svg width="605" height="563" viewBox="0 0 605 563" fill="none" xmlns="http://www.w3.org/2000/svg">
<path d="M328.949 516.391C155.784 556.49 39.715 376.3 35.0624 191.827C28.841 -24.5014 240.299 45.0814 372.348 37.3996C503.188 29.9091 590.207 140.063 580.005 287.191C566.823 462.895 462.681 486.519 328.949 516.391Z" fill="url(#paint0_linear_1_8299)" fill-opacity="0.2"/>
<path d="M255.003 30.4563C405.118 -21.224 524.921 127.771 546.144 290.935C571.711 482.204 377.418 440.179 260.825 459.283C145.287 478.105 57.7801 388.518 53.2126 257.09C48.6451 100.041 138.971 69.3971 255.003 30.4563Z" fill="url(#paint1_linear_1_8299)" fill-opacity="0.2"/>
<path d="M287.937 469.908L157.901 369.308L344.221 239.273C344.221 239.273 232.572 175.112 206.599 160.187M351.813 459.155L456.789 120.235C456.789 120.235 488.609 293.42 495.104 328.766M331.282 430.445L355.543 240.89L451.614 118.941C451.614 118.941 247.334 150.084 207.819 156.109M358.454 472.819L491.077 328.551L141.728 364.133C141.728 364.133 187.897 203.545 198.909 165.242M292.466 449.853C292.466 449.853 212.218 192.321 202.257 160.354" stroke="#0995BE" stroke-width="2" stroke-linecap="round" stroke-linejoin="round" stroke-dasharray="2 10"/>
<path d="M389.732 562.784C364.325 562.784 342.267 560.978 321.114 559.173C299.96 557.367 279.714 555.561 257.913 555.561C249.42 555.561 240.687 555.837 231.575 556.491C220.482 557.29 208.964 557.636 197.936 557.636C143.779 557.636 101.537 549.294 180.63 545.186C273.195 540.38 390.275 538.047 446.533 538.047C448.136 538.047 449.693 538.048 451.196 538.052C514.107 538.21 503.511 556.65 423.26 561.722C411.39 562.472 400.273 562.784 389.732 562.784Z" fill="#D9E8FA" fill-opacity="0.5"/>
<path d="M314.273 510.766C314.273 510.766 252.206 467.656 225.951 492.514C204.987 512.362 242.2 535.681 289.804 529.41C323.312 524.997 327.111 531.408 332.98 531.268C376.656 527.923 435.504 514.855 406.865 494.326C367.852 466.361 341.461 496.009 327.868 503.388C314.273 510.766 314.273 510.766 314.273 510.766Z" fill="#111033"/>
<path d="M352.121 437.286C352.121 437.286 371.319 472.868 371.346 476.449M273.381 438.256C273.381 438.256 253.326 473.838 253.297 477.419" stroke="#506ED1" stroke-width="28.56" stroke-linecap="round" stroke-linejoin="round"/>
<path d="M306.506 409.396C304.044 409.784 265.785 426.475 265.316 433.465C264.847 440.455 275.797 497.174 296.978 504.553C318.157 511.933 341.851 504.553 341.851 504.553C341.851 504.553 366.708 443.187 359.328 431.536C351.948 419.883 318.547 409.396 318.547 409.396H306.506Z" fill="#5C7BE0"/>
<path d="M253.27 477.249C255.177 483.023 283.581 478.956 300.131 476.417" stroke="#4362C2" stroke-width="28.56" stroke-linecap="round" stroke-linejoin="round"/>
<path d="M371.345 476.412C370.756 482.433 343.339 484.881 327.329 486.143" stroke="#4462C2" stroke-width="28.56" stroke-linecap="round" stroke-linejoin="round"/>
<path d="M313.237 431.536C308.181 431.536 304.044 427.398 304.044 422.343V391.401C304.044 386.346 308.181 382.208 313.237 382.208C318.293 382.208 322.43 386.346 322.43 391.401V422.343C322.43 427.398 318.293 431.536 313.237 431.536ZM313.237 382.208C308.181 382.208 304.044 386.346 304.044 391.401V416.702C309.464 421.23 314.711 418.857 322.43 412.878V391.401C322.43 386.346 318.293 382.208 313.237 382.208Z" fill="#F68637"/>
<path d="M313.237 382.208C308.181 382.208 304.044 386.346 304.044 391.401V416.702C309.464 421.23 314.711 418.857 322.43 412.878V391.401C322.43 386.346 318.293 382.208 313.237 382.208Z" fill="#E86B1B"/>
<path d="M332.057 391.521C330.735 394.692 328.391 396.545 326.819 395.661C325.249 394.778 325.046 391.493 326.368 388.324C327.689 385.154 330.034 383.3 331.605 384.184C333.177 385.067 333.379 388.352 332.057 391.521ZM296.369 390.335C298.28 393.036 298.819 396.401 297.572 397.855C296.324 399.31 293.764 398.3 291.85 395.602C289.939 392.903 289.4 389.536 290.648 388.082C291.895 386.628 294.456 387.636 296.369 390.335ZM328.101 391.558C328.778 402.787 322.263 412.309 313.551 412.826C304.838 413.344 297.227 404.662 296.55 393.433C295.873 382.203 302.386 372.682 311.099 372.165C319.811 371.647 327.424 380.329 328.101 391.558ZM305.563 364.136C301.864 365.504 297.499 370.407 297.507 375.773C297.522 384.999 307.056 393.749 313.929 390.892C307.429 385.117 319.915 392.924 323.682 389.719C320.431 387.648 319.761 384.142 325.671 386C329.762 387.286 329.589 375.583 329.206 373.249C327.887 365.214 315.941 360.297 305.563 364.136ZM303.169 385.757C303.169 385.757 311.878 385.835 315.538 385.22C319.196 384.605 318.166 379.376 321.289 379.788C324.414 380.199 324.28 387.844 325.654 390.865C326.296 392.276 325.267 410.633 320.249 406.609C318.692 405.36 316.764 404.948 313.054 405.163C312.604 405.189 314.153 413.191 314.019 413.761C313.676 415.215 327.594 410.502 327.723 404.615C327.951 394.182 329.266 385.519 329.264 379.552C329.261 373.586 326.411 369.817 321.501 367.485C316.591 365.152 306.912 364.772 304.899 365.011C302.887 365.249 301.801 367.759 296.591 369.441C291.379 371.125 290.53 377.797 291.947 381.531C292.938 384.142 294.295 389.431 295.059 393.792C295.387 395.667 297.181 403.471 297.52 404.922C298.645 409.748 301.355 414.462 314.069 414.088C315.976 414.032 313.982 405.718 312.908 405.591C311.04 405.369 309.432 405.403 307.829 406.915C302.258 412.172 299.344 397.427 298.524 395.721C296.752 392.032 300.154 383.191 303.169 385.757Z" fill="#F68637"/>
<path d="M305.562 364.138C301.863 365.506 297.499 370.408 297.507 375.774C297.522 384.999 307.055 393.749 313.928 390.892C307.429 385.118 319.914 392.924 323.681 389.72C320.43 387.648 319.76 384.143 325.67 386C329.761 387.287 329.588 375.584 329.205 373.25C327.886 365.215 315.941 360.299 305.562 364.138ZM303.169 385.758C303.169 385.758 311.877 385.836 315.537 385.221C319.195 384.606 318.165 379.377 321.288 379.789C324.413 380.2 324.279 387.844 325.653 390.865C326.295 392.277 325.265 410.632 320.248 406.608C318.691 405.36 316.763 404.947 313.054 405.163C312.603 405.189 314.152 413.19 314.018 413.76C313.676 415.214 327.593 410.501 327.722 404.614C327.95 394.182 329.265 385.52 329.262 379.553C329.26 373.587 326.41 369.819 321.5 367.487C316.591 365.153 306.912 364.773 304.899 365.013C302.887 365.25 301.801 367.76 296.591 369.442C291.38 371.126 290.53 377.798 291.947 381.532C292.938 384.143 294.295 389.431 295.059 393.792C295.387 395.667 297.182 403.471 297.52 404.921C298.645 409.747 301.355 414.462 314.069 414.087C315.975 414.031 313.981 405.718 312.908 405.59C311.039 405.368 309.432 405.402 307.829 406.915C302.258 412.171 299.344 397.427 298.524 395.721C296.752 392.032 300.154 383.192 303.169 385.758Z" fill="#070C3E"/>
<path d="M331.362 530.411C331.362 530.411 339.907 523.973 351.17 525.138C362.434 526.303 372.145 528.759 362.434 531.802C352.725 534.847 342.626 535.235 337.965 534.847C333.304 534.46 331.362 530.411 331.362 530.411ZM322.43 528.616C322.055 528.551 282.037 518.535 273.104 525.915C264.17 533.293 303.01 533.42 310.002 531.802C316.992 530.186 322.43 528.616 322.43 528.616Z" fill="#0D0E24"/>
<path d="M345.248 512.442L282.802 509.202C280.286 509.071 278.229 507.216 277.939 504.814L272.679 461.318C272.311 458.277 274.878 455.659 278.063 455.825L355.567 459.846C358.753 460.012 361.03 462.88 360.345 465.866L350.546 508.582C350.004 510.94 347.764 512.573 345.248 512.442ZM345.248 512.442L282.802 509.202C280.286 509.071 278.226 507.28 277.931 504.963L272.589 463.021C272.216 460.09 274.777 457.571 277.962 457.737L355.467 461.758C358.652 461.924 360.934 464.693 360.255 467.57L350.538 508.731C350.001 511.005 347.764 512.573 345.248 512.442ZM316.238 482.757C319.731 480.296 321.069 483.416 321.003 485.253C320.936 487.09 318.682 488.499 315.969 488.399C313.256 488.299 311.11 486.728 311.177 484.891C311.244 483.054 312.932 480.254 316.238 482.757Z" fill="#A1A1A1"/>
<path d="M345.248 512.442L282.802 509.202C280.286 509.071 278.226 507.28 277.931 504.963L272.589 463.02C272.216 460.088 274.777 457.57 277.962 457.735L355.467 461.757C358.652 461.922 360.935 464.692 360.256 467.569L350.538 508.731C350.001 511.004 347.764 512.572 345.248 512.442ZM316.238 482.756C319.731 480.295 321.069 483.415 321.003 485.252C320.936 487.089 318.682 488.498 315.969 488.398C313.256 488.298 311.11 486.728 311.177 484.89C311.244 483.053 312.932 480.253 316.238 482.756Z" fill="#CACACA"/>
<path d="M316.238 482.758C319.731 480.297 321.07 483.417 321.003 485.253C320.936 487.09 318.683 488.498 315.969 488.399C313.256 488.299 311.11 486.728 311.177 484.892C311.244 483.055 312.932 480.255 316.238 482.758Z" fill="#FAFAFA"/>
<path d="M199.301 362.679C199.301 394.202 173.746 419.756 142.223 419.756C110.7 419.756 85.1459 394.202 85.1459 362.679C85.1459 331.156 110.7 305.601 142.223 305.601C173.746 305.601 199.301 331.156 199.301 362.679Z" fill="#F8FCFF"/>
<path d="M162.23 365.072C162.23 365.072 165.17 360.102 166.579 358.777C167.986 357.451 172.741 354.883 173.462 354.867C174.695 354.841 169.229 358.529 169.229 358.529C169.229 358.529 169.974 363.333 169.312 365.072C168.649 366.811 161.692 369.13 161.692 369.13L162.23 365.072ZM169.965 358.082C169.965 358.082 171.754 359.747 173.99 358.671C176.227 357.595 184.391 351.823 184.143 350.416C183.894 349.008 180.079 348.671 180.079 348.671C180.079 348.671 168.259 358.015 169.965 358.082ZM172.116 357.864C170.585 357.62 175.623 353.613 177.27 351.956C178.918 350.3 179.98 349.526 179.98 349.526C179.98 349.526 182.796 349.869 182.796 350.416C182.796 350.963 174.72 357.412 174.72 357.412C174.72 357.412 172.807 357.975 172.116 357.864Z" fill="#F68637"/>
<path d="M169.966 358.082C169.966 358.082 171.755 359.747 173.991 358.671C176.227 357.595 184.392 351.823 184.143 350.416C183.895 349.008 180.079 348.671 180.079 348.671C180.079 348.671 168.26 358.015 169.966 358.082ZM172.117 357.864C170.586 357.62 175.624 353.613 177.271 351.956C178.918 350.3 179.981 349.526 179.981 349.526C179.981 349.526 182.797 349.869 182.797 350.416C182.797 350.963 174.721 357.412 174.721 357.412C174.721 357.412 172.808 357.975 172.117 357.864Z" fill="#0F75BB"/>
<path d="M172.117 357.864C170.586 357.62 175.624 353.613 177.271 351.956C178.918 350.3 179.98 349.526 179.98 349.526C179.98 349.526 182.797 349.869 182.797 350.416C182.797 350.963 174.721 357.412 174.721 357.412C174.721 357.412 172.807 357.975 172.117 357.864Z" fill="#FEBF2F"/>
<path d="M156.764 370.287C156.764 370.287 161.568 363.081 162.644 363.58C163.721 364.076 166.62 370.287 166.62 370.287C166.62 370.287 158.172 379.067 158.172 377.41C158.172 375.754 156.764 370.287 156.764 370.287Z" fill="#0F75BB"/>
<path d="M143.48 331.698C143.48 331.698 138.51 349.256 135.197 356.543C132.113 363.329 151.313 358.063 149.394 355.304C147.63 352.768 146.793 351.189 146.793 349.919C146.793 347.267 149.999 336.003 149.999 336.003L143.48 331.698ZM146.808 350.214C146.798 350.113 146.793 350.015 146.793 349.919C146.793 347.267 149.999 336.003 149.999 336.003L143.48 331.698C143.48 331.698 142.326 335.773 140.76 340.813C142.785 346.861 144.68 348.924 146.808 350.214ZM159.886 340.266C158.682 345.722 154.912 349.604 150.555 348.537C147.359 347.754 142.448 343.285 144.022 336.764C145.335 331.332 149.754 327.665 154.135 328.633C158.515 329.598 161.09 334.808 159.886 340.266Z" fill="#F68637"/>
<path d="M146.808 350.214C146.798 350.113 146.793 350.015 146.793 349.919C146.793 347.267 149.999 336.003 149.999 336.003L143.48 331.698C143.48 331.698 142.326 335.773 140.76 340.813C142.785 346.861 144.68 348.924 146.808 350.214ZM159.886 340.266C158.682 345.722 154.912 349.604 150.555 348.537C147.36 347.754 142.448 343.285 144.023 336.764C145.335 331.332 149.754 327.665 154.135 328.633C158.516 329.598 161.09 334.808 159.886 340.266Z" fill="#E86B1B"/>
<path d="M159.886 340.266C158.682 345.722 154.912 349.604 150.555 348.537C147.36 347.754 142.448 343.285 144.023 336.764C145.335 331.332 149.754 327.665 154.135 328.633C158.516 329.598 161.09 334.808 159.886 340.266Z" fill="#F68637"/>
<path d="M134.645 347.268C134.728 345.905 152.424 352.901 152.535 354.225C152.645 355.551 153.689 360.495 155.155 363.158C155.52 363.821 169.06 371.897 169.754 414.926C166.226 417.556 128.559 436.289 129.974 421.99C131.538 406.185 131.138 376.015 131.478 373.454C132.438 366.212 134.424 350.912 134.645 347.268Z" fill="#927AFC"/>
<path d="M172.737 368.241C173.564 366.094 174.404 364.443 175.653 363.554C180.162 360.348 183.865 353.18 182.232 352.898C180.599 352.615 173.99 358.671 173.99 358.671C173.99 358.671 175.71 356.316 175.3 356.12C174.889 355.923 171.559 358.341 171.043 361.196C170.845 362.291 169.782 364.897 168.243 367.93C165.771 372.805 171.443 371.601 172.737 368.241Z" fill="#F68637"/>
<path d="M138.115 361.259C130.099 363.254 133.766 387.46 140.523 401.816C147.281 416.173 159.981 403.77 164.729 400.252C166.532 398.917 167.72 397.564 168.501 396.399C166.977 387.833 164.363 378.642 161.137 372.175C153.572 381.055 149.974 358.307 138.115 361.259Z" fill="#0F75BB"/>
<path d="M140.523 359.52C130.443 360.531 135.963 385.693 143.333 395.852C150.704 406.012 161.195 396.183 164.508 390.331C167.821 384.478 174.53 374.526 174.53 368.052C174.53 366.836 172.045 366.588 169.064 366.809C166.256 367.017 153.572 384.478 153.572 384.478C153.572 384.478 149.337 358.638 140.523 359.52Z" fill="#927AFC"/>
<path d="M155.87 323.322C166.392 324.043 165.049 340.348 165.049 340.348C165.049 340.348 156.372 340.6 153.784 339.848C151.196 339.098 148.562 337.071 148.562 337.071C148.562 337.071 146.97 343.248 142.621 343.592C138.272 343.936 138.272 343.936 138.272 343.936C138.272 343.936 135.403 332.213 137.672 326.925C142.375 315.964 151.767 321.451 155.87 323.322Z" fill="#070C3E"/>
<path d="M144.393 339.112C145.016 340.713 146.49 341.637 147.685 341.172C148.88 340.708 149.344 339.032 148.721 337.429C148.098 335.826 146.625 334.904 145.429 335.368C144.234 335.833 143.77 337.509 144.393 339.112Z" fill="#F68637"/>
<path d="M111.675 388.023C108.844 388.023 104.391 386.867 104.19 386.815C103.968 386.757 103.828 386.538 103.867 386.311C103.907 386.087 104.114 385.929 104.341 385.949C104.401 385.954 110.385 386.465 112.724 384.623C115.677 382.295 114.027 378.489 111.293 372.184C110.139 369.521 108.83 366.503 107.628 363.012C105.35 356.397 107.797 351.85 110.252 349.2C115.404 343.639 125.443 341.244 134.121 343.51C134.357 343.572 134.498 343.813 134.437 344.048C134.375 344.284 134.134 344.425 133.898 344.364C133.696 344.311 133.492 344.26 133.288 344.213C122.247 344.398 115.124 346.961 112.115 351.829C109.484 356.087 110.026 362.156 113.727 369.863C117.338 377.386 118.308 382.677 116.608 385.59C115.764 387.036 114.254 387.871 112.241 388.005C112.062 388.018 111.873 388.023 111.675 388.023ZM108.428 386.809C109.76 387.032 111.162 387.193 112.183 387.125C113.914 387.009 115.146 386.344 115.845 385.145C116.906 383.328 117.262 379.266 112.931 370.246C109.091 362.248 108.564 355.897 111.365 351.365C114.083 346.965 119.875 344.351 128.611 343.568C121.734 343.25 114.826 345.561 110.899 349.8C107.614 353.347 106.772 357.815 108.463 362.726C109.654 366.182 110.955 369.184 112.104 371.834C114.906 378.297 116.758 382.567 113.27 385.315C112.087 386.248 110.182 386.65 108.428 386.809ZM139.197 337.236V341.802C139.197 341.886 139.164 341.963 139.107 342.021L135.378 345.842C135.311 345.911 135.279 346.007 135.291 346.101C135.381 346.795 135.713 349.948 135.271 356.189C134.811 362.668 123.584 365.619 129.251 377.154C134.917 388.688 128.277 401.259 114.369 401.466C101.911 401.65 103.373 388.791 103.813 386.106C103.851 385.88 104.108 385.77 104.298 385.898C105.863 386.943 112.134 390.851 116.887 386.702C122.054 382.192 118.25 377.33 112.995 365.146C104.678 345.863 129.667 343.826 133.169 343.443C135.653 343.172 137.645 339.328 138.593 337.112C138.728 336.797 139.197 336.893 139.197 337.236Z" fill="#070C3E"/>
<path d="M198.402 327.514C198.402 333.691 193.395 338.698 187.218 338.698C181.041 338.698 176.034 333.691 176.034 327.514C176.034 321.338 181.041 316.33 187.218 316.33C193.395 316.33 198.402 321.338 198.402 327.514ZM186.968 320.146C188.418 319.947 189.669 323.548 189.568 324.698C189.469 325.848 192.269 324.548 193.619 325.547C194.97 326.548 194.57 331.75 193.619 332.099C192.669 332.449 188.837 332.5 187.602 331.849C186.368 331.199 185.534 331.321 185.534 331.321L184.899 325.881C184.899 325.881 185.668 325.648 186.518 324.898C187.368 324.148 186.968 320.146 186.968 320.146ZM180.517 332.899C180.867 333.199 184.217 334.075 184.417 332.074C184.617 330.074 183.88 325.899 183.88 325.899C183.88 325.899 181.468 325.759 180.517 326.247C180.15 326.434 180.167 332.599 180.517 332.899Z" fill="#364996"/>
<path d="M186.967 320.147C188.418 319.947 189.668 323.548 189.568 324.699C189.468 325.848 192.268 324.549 193.619 325.548C194.969 326.548 194.569 331.75 193.619 332.1C192.669 332.449 188.836 332.5 187.602 331.849C186.367 331.199 185.534 331.321 185.534 331.321L184.898 325.881C184.898 325.881 185.667 325.648 186.517 324.898C187.367 324.148 186.967 320.147 186.967 320.147ZM180.516 332.899C180.866 333.199 184.217 334.075 184.417 332.074C184.617 330.074 183.879 325.899 183.879 325.899C183.879 325.899 181.468 325.759 180.516 326.247C180.149 326.434 180.166 332.599 180.516 332.899Z" fill="#FEFEFE"/>
<path d="M557.221 329.583C557.221 364.699 528.754 393.167 493.638 393.167C458.52 393.167 430.052 364.699 430.052 329.583C430.052 294.466 458.52 265.998 493.638 265.998C528.754 265.998 557.221 294.466 557.221 329.583Z" fill="#F8FDFF"/>
<path d="M483.126 332.214C483.126 332.214 480.9 334.287 478.118 332.947C475.333 331.607 465.173 324.426 465.481 322.674C465.791 320.922 470.539 320.502 470.539 320.502C470.539 320.502 485.249 332.132 483.126 332.214ZM480.449 331.944C482.354 331.639 476.085 326.652 474.035 324.591C471.984 322.53 470.662 321.568 470.662 321.568C470.662 321.568 467.157 321.994 467.157 322.674C467.157 323.354 477.208 331.38 477.208 331.38C477.208 331.38 479.588 332.081 480.449 331.944Z" fill="#1B257F"/>
<path d="M480.449 331.943C482.355 331.639 476.086 326.652 474.035 324.591C471.985 322.529 470.662 321.567 470.662 321.567C470.662 321.567 467.157 321.994 467.157 322.674C467.157 323.354 477.209 331.38 477.209 331.38C477.209 331.38 479.589 332.081 480.449 331.943Z" fill="#FEBF2F"/>
<path d="M492.752 340.914C492.752 340.914 489.093 334.729 487.341 333.08C485.588 331.431 479.672 328.234 478.775 328.214C477.239 328.181 483.072 332.447 483.072 332.447C483.072 332.447 481.454 333.708 481.215 333.507C477.168 330.088 483.576 339.958 483.939 340.914C484.763 343.078 493.422 345.964 493.422 345.964L492.752 340.914Z" fill="#F68637"/>
<path d="M499.555 347.405C499.555 347.405 493.578 338.437 492.237 339.056C490.897 339.674 487.288 347.405 487.288 347.405C487.288 347.405 497.804 358.331 497.804 356.27C497.804 354.208 499.555 347.405 499.555 347.405Z" fill="#949B2F"/>
<path d="M516.088 299.379C516.088 299.379 522.273 321.231 526.395 330.302C530.52 339.373 505.144 333.747 507.523 330.455C510.544 326.273 511.966 323.902 511.966 322.056C511.966 318.758 507.975 304.739 507.975 304.739L516.088 299.379ZM511.946 322.424C511.958 322.299 511.966 322.176 511.966 322.056C511.966 318.758 507.975 304.739 507.975 304.739L516.088 299.379C516.088 299.379 517.525 304.452 519.474 310.724C516.954 318.252 514.594 320.818 511.946 322.424Z" fill="#F68637"/>
<path d="M511.945 322.424C511.958 322.299 511.965 322.176 511.965 322.056C511.965 318.758 507.975 304.739 507.975 304.739L516.088 299.379C516.088 299.379 517.524 304.452 519.473 310.724C516.954 318.252 514.594 320.818 511.945 322.424Z" fill="#E86B1B"/>
<path d="M527.084 318.757C526.98 317.06 504.956 325.766 504.818 327.415C504.682 329.064 503.381 335.217 501.557 338.531C501.173 339.229 484.608 359.442 483.306 393.919C489.444 396.795 515.337 392.921 531.537 382.744C532.157 372.704 531.457 354.607 531.025 351.346C529.83 342.332 527.357 323.292 527.084 318.757Z" fill="#B8C741"/>
<path d="M493.337 310.078C495.051 317.848 500.418 323.374 506.622 321.854C511.17 320.74 518.164 314.377 515.922 305.094C514.054 297.359 507.761 292.14 501.525 293.516C495.288 294.892 491.622 302.307 493.337 310.078ZM480.195 346.255C478.983 342.903 477.864 340.317 476.047 339.025C470.437 335.036 465.827 326.114 467.86 325.762C469.892 325.411 478.118 332.947 478.118 332.947C478.118 332.947 475.977 330.017 476.488 329.773C476.998 329.528 481.143 332.536 481.786 336.089C482.055 337.582 483.616 341.33 485.832 345.562C488.89 351.404 481.645 350.265 480.195 346.255Z" fill="#F68637"/>
<path d="M522.765 336.168C532.74 338.651 528.177 368.776 519.767 386.643C511.357 404.508 495.552 389.074 489.644 384.697C487.399 383.035 485.921 381.351 484.948 379.901C486.845 369.239 490.098 357.803 494.114 349.754C503.528 360.805 508.006 332.493 522.765 336.168ZM519.767 334.005C532.313 335.263 525.442 366.577 516.269 379.221C507.096 391.865 494.042 379.633 489.917 372.349C485.794 365.065 477.446 352.68 477.446 344.622C477.446 343.11 480.538 342.801 484.249 343.076C487.743 343.335 503.528 365.065 503.528 365.065C503.528 365.065 508.799 332.906 519.767 334.005Z" fill="#949B2F"/>
<path d="M519.767 334.005C532.313 335.263 525.442 366.577 516.269 379.221C507.096 391.865 494.042 379.633 489.917 372.349C485.794 365.065 477.446 352.68 477.446 344.622C477.446 343.11 480.538 342.801 484.249 343.076C487.743 343.335 503.528 365.065 503.528 365.065C503.528 365.065 508.799 332.906 519.767 334.005Z" fill="#B8C741"/>
<path d="M489.506 293.874C481.835 297.103 486.43 307.318 490.475 307.701C494.518 308.084 499.195 300.627 501.597 300.374C503.997 300.121 501.112 304.545 503.249 305.556C505.388 306.567 507.383 308.247 508.006 310.901C508.627 313.555 510.337 319.332 507.546 319.585C504.756 319.838 501.722 316.805 499.827 316.678C497.931 316.552 496.284 317.1 496.284 317.1C496.284 317.1 501.099 323.756 504.635 324.135C508.169 324.514 512.025 319.347 514.773 314.979C517.521 310.612 516.355 307.701 516.355 307.701C516.355 307.701 519.164 310.864 520.934 310.612C522.703 310.359 518.28 307.831 518.153 300.374C518.026 292.917 514.741 288.999 510.696 288.999C506.653 288.999 507.158 286.941 500.981 287.104C495.415 287.25 491.305 293.116 489.506 293.874ZM507.585 307.089C507.469 308.332 507.841 309.468 508.495 310.151C508.51 310.166 508.525 310.181 508.54 310.196C508.596 310.252 508.655 310.305 508.715 310.355C508.715 310.355 508.715 310.355 508.715 310.355C508.716 310.355 508.716 310.355 508.716 310.356C508.721 310.359 508.725 310.363 508.73 310.367C508.977 310.566 509.256 310.706 509.557 310.773C509.634 310.79 509.713 310.803 509.793 310.81C509.821 310.813 509.849 310.815 509.877 310.816C511.242 310.881 512.472 309.446 512.648 307.559C512.827 305.634 511.838 303.968 510.44 303.838C509.041 303.708 507.764 305.164 507.585 307.089Z" fill="#070C3E"/>
<path d="M507.585 307.089C507.469 308.333 507.841 309.468 508.495 310.151C508.51 310.166 508.525 310.181 508.54 310.196C508.596 310.252 508.655 310.305 508.715 310.355C508.715 310.355 508.715 310.355 508.715 310.355C508.716 310.355 508.716 310.356 508.716 310.356C508.721 310.359 508.725 310.363 508.73 310.367C508.977 310.566 509.256 310.706 509.557 310.773C509.635 310.79 509.713 310.803 509.793 310.81C509.821 310.813 509.849 310.815 509.877 310.816C511.242 310.881 512.472 309.446 512.648 307.559C512.827 305.634 511.838 303.968 510.44 303.838C509.041 303.708 507.764 305.164 507.585 307.089Z" fill="#F68637"/>
<path d="M281.254 244.416C281.254 278.699 309.047 306.492 343.329 306.492C377.612 306.492 405.404 278.699 405.404 244.416C405.404 210.133 377.612 182.342 343.329 182.342C309.046 182.342 281.254 210.133 281.254 244.416Z" fill="#F8FDFF"/>
<path d="M351.788 200.426L365.691 257.828C365.691 257.828 326.642 254.111 323.477 245.99C320.76 239.022 323.204 218.83 323.292 214.055C323.307 213.259 323.669 212.546 324.14 211.904C327.314 207.584 327.85 206.66 331.69 202.491C336.509 197.26 342.977 192.58 351.788 200.426ZM326.781 250.653H326.758C325.357 250.581 324.178 249.936 323.249 248.733C321.119 245.972 320.293 240.237 320.794 231.687C321.284 223.371 322.85 215.388 323.32 213.138C323.37 212.899 323.604 212.745 323.841 212.796C324.08 212.846 324.233 213.08 324.184 213.317C322.041 223.608 319.579 242.532 323.948 248.193C324.722 249.197 325.656 249.713 326.803 249.771C327.046 249.783 327.234 249.99 327.221 250.235C327.209 250.47 327.015 250.653 326.781 250.653ZM348.484 198.086C365.416 207.446 355.091 239.107 376.565 250.396C382.516 253.522 400.793 269.391 388.818 290.315C380.983 304.002 357.569 301.053 349.861 288.938C342.151 276.825 348.484 198.086 348.484 198.086ZM393.542 270.108C393.325 270.108 393.134 269.947 393.105 269.726C393.091 269.621 391.591 259.161 381.284 252.602C376.377 249.481 372.31 246.619 368.356 240.661C364.099 234.249 360.362 224.65 356.592 210.45C356.529 210.214 356.67 209.973 356.906 209.91C357.139 209.848 357.382 209.988 357.445 210.223C365.24 239.585 371.83 245.541 381.759 251.858C387.322 255.399 390.347 260.027 391.904 263.288C393.596 266.826 393.966 269.497 393.98 269.608C394.013 269.851 393.843 270.072 393.602 270.104C393.582 270.108 393.562 270.108 393.542 270.108ZM393.172 261.909C393.026 261.909 392.883 261.837 392.799 261.703C390.41 257.92 387.369 254.819 383.76 252.486C377.237 248.267 372.669 244.528 368.618 237.895C364.851 231.723 361.407 223.016 355.643 208.157C355.556 207.93 355.668 207.675 355.895 207.586C356.121 207.497 356.378 207.609 356.467 207.838C367.988 237.542 370.296 242.728 384.238 251.745C387.956 254.149 391.087 257.341 393.546 261.232C393.676 261.438 393.614 261.71 393.408 261.84C393.335 261.888 393.254 261.909 393.172 261.909Z" fill="#1A1943"/>
<path d="M353.299 234.435L348.756 243.726C348.756 243.726 365.479 256.528 367.338 266.231C369.196 275.937 367.751 294.932 367.751 294.932C367.751 294.932 344.626 305.255 347.104 306.081C349.582 306.907 376.837 306.081 378.487 304.016C380.139 301.951 380.965 288.945 380.346 272.633C379.726 256.321 376.011 238.152 371.674 236.913C367.338 235.674 354.949 239.804 353.299 234.435ZM349.069 217.844C349.069 217.844 340.773 222.105 342.119 225.242C343.463 228.381 344.584 237.127 344.36 240.714C344.137 244.3 347.948 246.992 350.638 246.094C353.328 245.197 354.002 240.938 354.002 240.938C354.002 240.938 354.899 229.952 349.069 217.844ZM347.517 236.087C343.18 242.695 331.824 241.869 327.903 247.237C323.979 252.606 316.206 281.079 316.206 281.079L307.047 252.193C307.047 252.193 300.015 251.012 302.3 255.908C306.361 264.619 307.875 292.724 312.281 296.716C317.179 301.156 322.053 297.542 324.805 289.771C327.466 282.252 334.096 266.027 338.846 259.832C343.593 253.638 348.756 243.726 348.756 243.726L347.517 236.087Z" fill="#F68637"/>
<path d="M366.305 236.914C357.633 247.031 340.704 246.618 336.987 245.379C333.27 244.139 333.27 244.139 333.27 244.139C333.27 244.139 330.378 243.107 327.902 245.998C325.424 248.889 319.436 267.058 318.405 271.188C317.372 275.318 316.125 280.918 316.125 280.918C316.125 280.918 320.149 287.447 320.149 292.817C320.149 298.184 318.269 298.231 318.269 298.231C318.269 298.231 323.772 296.997 325.011 293.693C326.25 290.389 337.4 260.452 337.4 260.452L368.163 261.071L367.75 294.932C367.75 294.932 370.435 292.454 374.152 294.932C377.867 297.41 379.106 303.191 378.487 304.017C377.867 304.843 379.726 304.843 379.726 304.223C379.726 303.604 383.236 288.533 380.758 263.756C378.28 238.979 373.532 236.294 370.848 236.088C368.163 235.881 366.305 236.914 366.305 236.914Z" fill="#7992C4"/>
<path d="M318.338 282.882C320.126 283.433 323.155 289.764 323.155 289.764C323.155 289.764 330.038 274.76 332.103 253.974L334.559 268.076C331.168 277.182 325.845 291.471 325.011 293.693C323.877 296.715 319.309 297.975 318.682 298.117C318.852 298.059 319.231 297.829 319.544 296.923C319.726 296.758 320.76 296.274 320.952 296.097C322.604 294.583 321.916 291.003 320.814 287.013C319.715 283.02 316.548 282.332 318.338 282.882ZM366.684 261.04L370.096 245.44C373.812 250.671 374.225 268.567 372.71 280.817C371.469 290.865 369.611 293.472 368.336 294.519C367.959 294.742 367.751 294.932 367.751 294.932L368.164 261.071L366.684 261.04Z" fill="#657EB7"/>
<path d="M376.565 245.302C370.234 262.371 373.398 265.813 365.067 285.848C360.412 297.037 351.44 305.462 351.44 305.462C351.44 305.462 344.212 307.32 335.128 306.701C326.044 306.081 319.392 305.456 319.392 305.456C319.392 305.456 328.935 299.682 329.348 295.758C329.761 291.834 331.552 276.274 329.212 265.262C327.384 256.662 334.921 248.063 334.921 248.063L347.516 247.443L376.565 245.302Z" fill="#7992C4"/>
<path d="M334.606 298.519C335.074 298.519 336.019 298.408 337.608 298.162C345.593 296.923 354.126 287.561 357.843 281.506C361.561 275.448 365.169 272.347 365.415 271.456C365.712 270.38 365.508 269.974 364.866 269.974C363.129 269.974 358.175 272.956 351.237 273.658C348.476 273.939 345.622 274.01 343.091 274.01C341.8 274.01 340.591 273.992 339.523 273.974C338.456 273.954 337.526 273.936 336.793 273.936C334.749 273.936 334.211 274.079 336.371 274.76C341.6 276.412 355.916 273.934 353.302 279.165C350.223 285.32 346.589 291.278 341.325 294.858C338.57 296.733 332.722 298.519 334.606 298.519Z" fill="#6F88BF"/>
<path d="M344.383 239.141C344.3 235.02 343.294 227.988 342.119 225.242C341.155 222.994 345.138 220.17 347.477 218.748L349.453 218.665C349.754 219.321 350.037 219.973 350.301 220.619C352.388 234.325 346.142 239.987 343.16 241.127C341.874 241.618 340.434 241.674 339.202 241.561C341.041 240.907 342.834 240.163 344.383 239.141Z" fill="#E86B1B"/>
<path d="M348.165 245.257C348.884 245.257 349.628 245.17 350.368 244.991C352.096 244.569 356.215 242.969 357.173 237.221C357.197 237.086 357.104 236.957 356.967 236.933C356.831 236.912 356.702 237.002 356.679 237.14C355.771 242.592 351.88 244.107 350.25 244.503C347.717 245.121 345.033 244.552 344.004 243.179C343.178 242.08 343.676 239.736 343.68 239.712C343.71 239.576 343.623 239.444 343.489 239.413C343.354 239.384 343.221 239.469 343.191 239.605C343.169 239.71 342.642 242.199 343.604 243.48C344.453 244.612 346.205 245.257 348.165 245.257Z" fill="#F4CF3B"/>
<path d="M328.736 223.23C330.136 230.626 333.371 236.593 338.846 235.468C344.32 234.343 350.075 226.532 348.559 219.158C347.044 211.785 341.38 206.719 335.906 207.844C330.431 208.968 326.87 213.376 328.736 223.23Z" fill="#F68637"/>
<path d="M308.839 258.562C308.013 255.811 309.297 252.323 309.297 252.323L305.627 252.782L308.839 258.562Z" fill="#F68637"/>
<path d="M304.805 253.867H315.048C315.67 253.867 316.117 253.267 315.938 252.673L309.473 230.992C309.355 230.599 308.993 230.329 308.581 230.329H298.34C297.718 230.329 297.271 230.928 297.448 231.524L303.915 253.204C304.033 253.597 304.395 253.867 304.805 253.867ZM303.52 253.867H313.764C314.385 253.867 314.831 253.267 314.653 252.673L308.188 230.992C308.071 230.599 307.708 230.329 307.297 230.329H297.055C296.432 230.329 295.987 230.928 296.164 231.524L302.631 253.204C302.747 253.597 303.109 253.867 303.52 253.867ZM310.936 238.152C312.029 242.087 312.764 245.318 312.578 245.369C312.393 245.422 311.357 242.273 310.266 238.339C309.174 234.404 308.438 231.173 308.623 231.122C308.81 231.071 309.844 234.218 310.936 238.152Z" fill="#4C63AC"/>
<path d="M303.52 253.867H313.764C314.385 253.867 314.831 253.267 314.653 252.673L308.188 230.992C308.07 230.599 307.708 230.329 307.297 230.329H297.055C296.432 230.329 295.986 230.928 296.164 231.524L302.631 253.204C302.746 253.597 303.109 253.867 303.52 253.867ZM310.936 238.152C312.028 242.087 312.764 245.318 312.577 245.369C312.392 245.422 311.356 242.273 310.266 238.339C309.173 234.404 308.438 231.173 308.623 231.122C308.809 231.071 309.844 234.218 310.936 238.152Z" fill="#233384"/>
<path d="M310.937 238.152C312.029 242.087 312.764 245.318 312.578 245.369C312.393 245.422 311.357 242.273 310.266 238.339C309.174 234.405 308.439 231.173 308.624 231.122C308.81 231.071 309.844 234.218 310.937 238.152Z" fill="#A2B8D8"/>
<path d="M303.975 260.306C303.673 256.731 300.575 253.379 299.398 252.311C299.039 251.986 298.836 251.524 298.842 251.041C298.858 249.26 298.938 245.052 299.307 244.561C299.776 243.935 300.948 235.881 301.495 236.192C302.042 236.506 301.34 243.543 301.34 243.543C301.34 243.543 302.669 242.918 303.372 242.605C304.077 242.293 306.97 245.5 306.97 245.5C306.97 245.5 308.326 248.927 304.618 247.46C300.213 245.715 303.517 250.579 306.453 253.698C308.873 256.27 306.814 256.839 306.814 256.839L304.859 256.76L303.975 260.306Z" fill="#F68637"/>
<path d="M305.087 263.141C305.413 263.141 305.781 263.091 306.152 262.975C307.11 262.676 308.782 261.714 309.224 258.622C309.244 258.484 309.148 258.357 309.012 258.337C308.876 258.317 308.748 258.413 308.728 258.551C308.358 261.138 307.114 262.102 306.136 262.453C305.319 262.746 304.623 262.627 304.438 262.533C304.424 262.451 304.368 262.379 304.286 262.346C304.158 262.295 304.011 262.357 303.96 262.486C303.911 262.609 303.94 262.745 304.038 262.85C304.201 263.027 304.596 263.141 305.087 263.141ZM305.475 262.255C305.777 262.255 306.094 262.234 306.395 262.188C308.174 261.931 309.367 261.027 309.668 259.709C309.699 259.573 309.614 259.439 309.48 259.408C309.346 259.379 309.21 259.462 309.179 259.596C308.905 260.799 307.829 261.328 306.974 261.56C305.697 261.906 304.458 261.719 304.301 261.549C304.232 261.429 304.083 261.391 303.964 261.46C303.842 261.527 303.804 261.685 303.871 261.806C304.045 262.116 304.721 262.255 305.475 262.255Z" fill="#F4CF3B"/>
<path d="M335.06 226.715C335.157 226.715 335.255 226.707 335.354 226.691C336.855 226.461 337.764 224.529 337.422 222.294C337.08 220.059 335.632 218.487 334.133 218.717C332.63 218.948 331.721 220.879 332.063 223.114C332.384 225.204 333.667 226.715 335.06 226.715ZM328.869 227.119C328.918 227.119 328.968 227.116 329.019 227.108C330.02 226.955 330.547 225.331 330.24 223.331C329.934 221.333 328.946 219.941 327.945 220.093C326.942 220.247 326.418 221.87 326.724 223.87C326.861 224.771 327.154 225.598 327.548 226.198C327.943 226.798 328.406 227.119 328.869 227.119ZM350.29 215.556L336.8 219.411C336.565 219.478 350.524 215.491 350.29 215.556Z" stroke="white" stroke-width="1.96"/>
<path d="M327.285 211.852C348.163 224.148 349.31 215.89 349.31 215.89L348.071 204.143L335.683 204.831L327.285 211.852ZM347.694 218.62C347.209 220.698 347.872 222.63 349.176 222.935C350.48 223.239 351.931 221.801 352.417 219.723C352.902 217.644 352.239 215.711 350.935 215.406C349.631 215.102 348.18 216.54 347.694 218.62ZM349.125 221.35C349.125 221.804 349.493 222.172 349.948 222.172C350.401 222.172 350.768 221.804 350.768 221.35C350.768 220.895 350.401 220.527 349.948 220.527C349.493 220.527 349.125 220.895 349.125 221.35Z" fill="#1A1943"/>
<path d="M347.694 218.62C347.209 220.698 347.872 222.63 349.176 222.935C350.48 223.239 351.931 221.801 352.417 219.723C352.902 217.643 352.239 215.711 350.935 215.406C349.631 215.102 348.18 216.54 347.694 218.62ZM349.125 221.35C349.125 221.804 349.493 222.172 349.948 222.172C350.401 222.172 350.768 221.804 350.768 221.35C350.768 220.895 350.401 220.527 349.948 220.527C349.493 220.527 349.125 220.895 349.125 221.35Z" fill="#F68637"/>
<path d="M349.125 221.349C349.125 221.804 349.493 222.172 349.948 222.172C350.401 222.172 350.768 221.804 350.768 221.349C350.768 220.895 350.401 220.527 349.948 220.527C349.493 220.527 349.125 220.895 349.125 221.349Z" fill="#F4CF3B"/>
<path d="M489.298 125.014C489.298 150.149 468.923 170.523 443.788 170.523C418.655 170.523 398.278 150.149 398.278 125.014C398.278 99.8804 418.655 79.5039 443.788 79.5039C468.923 79.5039 489.298 99.8804 489.298 125.014Z" fill="#F8FDFF"/>
<path d="M436.622 103.329C433.153 110.265 436.024 118.252 442.846 121.074C449.711 123.914 457.22 122.3 460.688 115.366C464.155 108.43 461.58 100.114 454.935 96.7902C448.289 93.4663 440.089 96.3953 436.622 103.329ZM455.314 121.99C454.968 121.99 454.769 121.938 454.743 121.931C454.51 121.864 454.374 121.619 454.439 121.385C454.506 121.152 454.751 121.016 454.984 121.081C454.995 121.085 456.591 121.46 458.98 119.339C461.679 116.944 463.567 111.504 460.772 103.42C460.692 103.19 460.813 102.94 461.043 102.86C461.273 102.78 461.525 102.902 461.605 103.132C465.302 113.823 460.98 118.744 459.567 119.998C457.631 121.715 456.097 121.99 455.314 121.99Z" fill="#1A1943"/>
<path d="M444.712 130.318C440.765 131.203 435.78 142.171 433.34 149.198C431.098 155.653 427.439 163.521 424.74 166.938C424.475 167.274 446.319 174.498 446.109 170.856C445.383 158.269 444.712 130.318 444.712 130.318ZM431.657 169.571C432.48 166.236 432.795 154.462 435.918 142.661C438.497 136.808 441.872 130.955 444.712 130.318C444.712 130.318 444.812 134.473 444.977 140.3C444.163 149.918 442.929 162.901 442.159 170.859C441.897 173.57 430.705 173.438 431.657 169.571ZM459.223 127.887C459.223 127.887 471.78 134.904 474.707 136.395C476.856 137.49 474.749 148.107 470.734 161.48C469.278 166.329 453.878 173.284 437.406 170.86C437.738 167.317 437.86 162.861 437.048 157.365C434.902 142.834 443.595 130.29 444.712 130.318C445.828 130.347 453.117 127.887 453.117 127.887H459.223ZM457.222 169.429C460.274 166.42 458.604 160.797 458.716 158.11C458.847 154.987 464.181 144.776 474.198 137.034L475.117 137.447C475.477 141.039 473.233 152.309 470.628 162.814C468.072 173.124 456.726 169.917 457.222 169.429ZM475.693 137.217C477.358 142.542 479.216 148.065 481.004 153.272C482.794 158.483 479.488 157.592 477.264 159.442C473.638 162.459 469.398 165.925 468.881 164.167C468.156 161.701 467.356 158.176 466.902 153.616C465.926 143.811 474.546 133.549 475.693 137.217Z" fill="#B0C9E1"/>
<path d="M431.657 169.571C432.48 166.236 432.795 154.462 435.918 142.661C438.497 136.808 441.872 130.955 444.712 130.318C444.712 130.318 444.812 134.473 444.977 140.3C444.163 149.918 442.929 162.901 442.159 170.859C441.897 173.57 430.704 173.438 431.657 169.571ZM459.223 127.887C459.223 127.887 471.78 134.904 474.707 136.395C476.855 137.49 474.749 148.107 470.734 161.48C469.278 166.329 453.878 173.284 437.406 170.86C437.738 167.317 437.86 162.861 437.048 157.365C434.901 142.834 443.594 130.29 444.712 130.318C445.828 130.347 453.117 127.887 453.117 127.887H459.223ZM457.221 169.429C460.274 166.42 458.604 160.797 458.716 158.11C458.846 154.987 464.181 144.776 474.198 137.034L475.116 137.447C475.477 141.039 473.233 152.309 470.628 162.814C468.071 173.124 456.726 169.917 457.221 169.429ZM475.692 137.217C477.358 142.542 479.215 148.065 481.004 153.272C482.794 158.483 479.488 157.592 477.264 159.442C473.638 162.459 469.398 165.925 468.881 164.167C468.155 161.701 467.356 158.176 466.902 153.616C465.925 143.811 474.546 133.549 475.692 137.217Z" fill="#9BB3D5"/>
<path d="M459.223 127.887C459.223 127.887 471.78 134.904 474.707 136.395C476.855 137.49 474.749 148.107 470.734 161.48C469.278 166.329 453.878 173.284 437.406 170.86C437.738 167.317 437.86 162.861 437.048 157.365C434.902 142.834 443.594 130.29 444.712 130.318C445.828 130.347 453.117 127.887 453.117 127.887H459.223ZM457.221 169.429C460.274 166.42 458.604 160.797 458.716 158.11C458.846 154.987 464.181 144.776 474.198 137.034L475.116 137.447C475.477 141.039 473.233 152.309 470.628 162.814C468.071 173.124 456.726 169.917 457.221 169.429ZM475.692 137.217C477.358 142.542 479.215 148.065 481.004 153.272C482.794 158.483 479.488 157.592 477.264 159.442C473.638 162.459 469.398 165.925 468.881 164.167C468.155 161.701 467.356 158.176 466.902 153.616C465.925 143.811 474.546 133.549 475.692 137.217Z" fill="#B0C9E1"/>
<path d="M457.221 169.428C460.274 166.42 458.604 160.797 458.716 158.11C458.846 154.987 464.181 144.776 474.198 137.034L475.116 137.447C475.477 141.039 473.233 152.308 470.628 162.814C468.071 173.124 456.726 169.917 457.221 169.428ZM475.692 137.217C477.358 142.542 479.215 148.065 481.004 153.272C482.794 158.482 479.488 157.592 477.264 159.442C473.638 162.459 469.398 165.925 468.881 164.167C468.155 161.701 467.356 158.176 466.902 153.616C465.925 143.81 474.546 133.549 475.692 137.217Z" fill="#9BB3D5"/>
<path d="M475.692 137.217C477.358 142.542 479.215 148.065 481.004 153.272C482.794 158.482 479.488 157.592 477.264 159.442C473.638 162.459 469.398 165.925 468.881 164.167C468.155 161.701 467.356 158.176 466.902 153.616C465.925 143.81 474.546 133.549 475.692 137.217Z" fill="#B0C9E1"/>
<path d="M454.625 111.082L459.496 128.888C459.496 128.888 451.264 141.738 449.001 140.597C446.737 139.456 450.265 130.151 450.265 128.888C450.265 127.624 446.737 114.578 446.737 114.578L454.625 111.082ZM450.097 129.794C450.202 129.374 450.265 129.057 450.265 128.888C450.265 127.624 446.737 114.578 446.737 114.578L454.625 111.082L456.238 116.975C454.828 123.061 452.287 127.115 450.097 129.794Z" fill="#F68637"/>
<path d="M450.097 129.794C450.202 129.374 450.265 129.057 450.265 128.888C450.265 127.624 446.737 114.578 446.737 114.578L454.625 111.082L456.238 116.975C454.828 123.061 452.287 127.115 450.097 129.794Z" fill="#E86B1B"/>
<path d="M436.394 110.787C435.464 115.951 439.554 123.616 444.139 125.36C448.723 127.103 450.769 122.959 452.997 117.101C455.225 111.243 453.314 105.081 448.729 103.336C444.143 101.594 437.502 104.619 436.394 110.787ZM451.91 113.692C451.267 115.498 451.825 117.346 453.156 117.819C454.488 118.293 456.087 117.214 456.73 115.409C457.373 113.604 456.815 111.758 455.484 111.283C454.153 110.809 452.553 111.888 451.91 113.692Z" fill="#F68637"/>
<path d="M436.339 104.302C437.9 116.417 452.62 114.857 452.62 114.857C452.62 114.857 455.656 110.865 457.023 112.959C458.389 115.051 455.127 100.676 446.68 100.221C443.905 100.072 436.339 104.302 436.339 104.302ZM451.301 99.1793C451.301 103.309 454.87 106.659 459.273 106.659C463.677 106.659 467.247 103.309 467.247 99.1793C467.247 95.0475 463.677 91.6982 459.273 91.6982C454.87 91.6982 451.301 95.0475 451.301 99.1793Z" fill="#1A1943"/>
<path d="M286.4 426.569C286.4 434.601 279.891 441.113 271.856 441.113C263.828 441.113 257.312 434.601 257.312 426.569C257.312 418.536 263.828 412.025 271.856 412.025C279.891 412.025 286.4 418.536 286.4 426.569ZM278.365 419.669C278.365 421.354 276.999 422.72 275.314 422.72C273.63 422.72 272.263 421.354 272.263 419.669C272.263 417.984 273.63 416.618 275.314 416.618C276.999 416.618 278.365 417.984 278.365 419.669ZM278.365 433.398C278.365 435.083 276.999 436.449 275.314 436.449C273.63 436.449 272.263 435.083 272.263 433.398C272.263 431.713 273.63 430.347 275.314 430.347C276.999 430.347 278.365 431.713 278.365 433.398ZM266.924 426.767C266.924 428.452 265.558 429.818 263.873 429.818C262.188 429.818 260.822 428.452 260.822 426.767C260.822 425.082 262.188 423.716 263.873 423.716C265.558 423.716 266.924 425.082 266.924 426.767ZM275.314 434.009C275.21 434.009 275.105 433.982 275.009 433.926L263.567 427.295C263.381 427.187 263.265 426.99 263.262 426.776C263.259 426.562 263.369 426.361 263.551 426.248L274.992 419.15C275.279 418.973 275.655 419.061 275.832 419.347C276.011 419.633 275.922 420.01 275.636 420.187L265.059 426.749L275.62 432.87C275.912 433.039 276.011 433.413 275.842 433.704C275.729 433.9 275.524 434.009 275.314 434.009Z" fill="#A1D7DA"/>
<path d="M278.365 419.668C278.365 421.353 277 422.719 275.314 422.719C273.63 422.719 272.263 421.353 272.263 419.668C272.263 417.983 273.63 416.617 275.314 416.617C277 416.617 278.365 417.983 278.365 419.668ZM278.365 433.398C278.365 435.083 277 436.449 275.314 436.449C273.63 436.449 272.263 435.083 272.263 433.398C272.263 431.713 273.63 430.347 275.314 430.347C277 430.347 278.365 431.713 278.365 433.398ZM266.924 426.766C266.924 428.451 265.559 429.817 263.873 429.817C262.189 429.817 260.822 428.451 260.822 426.766C260.822 425.081 262.189 423.715 263.873 423.715C265.559 423.715 266.924 425.081 266.924 426.766ZM275.314 434.008C275.211 434.008 275.105 433.982 275.009 433.926L263.568 427.294C263.382 427.187 263.266 426.99 263.263 426.775C263.26 426.561 263.37 426.361 263.551 426.248L274.992 419.15C275.279 418.972 275.656 419.06 275.833 419.347C276.011 419.633 275.923 420.009 275.636 420.187L265.06 426.749L275.621 432.87C275.912 433.039 276.011 433.412 275.842 433.704C275.729 433.899 275.525 434.008 275.314 434.008Z" fill="white"/>
<path d="M375.505 450.246C375.505 458.76 368.603 465.661 360.089 465.661C351.575 465.661 344.674 458.76 344.674 450.246C344.674 441.733 351.575 434.831 360.089 434.831C368.603 434.831 375.505 441.733 375.505 450.246ZM352.735 458.416C350.459 444.795 360.885 444.459 360.885 444.459V440.423L369.147 448.684L361.187 456.644V452.026C361.187 452.026 357.186 452.194 355.673 454.38C354.159 456.566 352.735 458.416 352.735 458.416Z" fill="#B8C741"/>
<path d="M352.735 458.416C350.459 444.795 360.885 444.458 360.885 444.458V440.423L369.146 448.684L361.187 456.644V452.026C361.187 452.026 357.186 452.194 355.672 454.38C354.159 456.566 352.735 458.416 352.735 458.416Z" fill="#FEFEFE"/>
<path d="M306.181 213.82C307.621 213.82 308.815 212.642 308.833 211.202L309.07 192.436C309.089 190.996 307.926 189.819 306.486 189.819H261.318C259.878 189.819 258.684 190.996 258.666 192.436L258.429 211.202C258.411 212.642 259.574 213.82 261.014 213.82H306.181ZM284.714 212.729C284.734 222.621 289.351 225.675 289.351 225.675C289.351 225.675 287.386 220.002 289.022 217.238C290.656 214.475 293.289 213.311 293.289 213.311L284.714 212.729Z" fill="#A8C2DD"/>
<path d="M303.961 211.856H263.285C262.037 211.856 261.03 210.836 261.047 209.588L261.242 194.05C261.259 192.802 262.293 191.782 263.539 191.782H304.214C305.462 191.782 306.469 192.802 306.453 194.05L306.257 209.588C306.241 210.836 305.207 211.856 303.961 211.856Z" fill="#FEFEFE"/>
<path d="M288.27 198.618H266.146C265.749 198.618 265.43 198.294 265.434 197.899L265.436 197.74C265.441 197.343 265.769 197.019 266.166 197.019H288.29C288.687 197.019 289.007 197.343 289.002 197.74L289 197.899C288.995 198.294 288.667 198.618 288.27 198.618ZM288.228 201.964H266.102C265.707 201.964 265.387 201.64 265.392 201.245L265.394 201.085C265.399 200.689 265.727 200.364 266.124 200.364H288.248C288.645 200.364 288.964 200.689 288.96 201.085L288.957 201.245C288.953 201.64 288.623 201.964 288.228 201.964ZM288.18 205.746H266.055C265.658 205.746 265.34 205.422 265.343 205.027L265.347 204.866C265.35 204.471 265.68 204.147 266.075 204.147H288.201C288.596 204.147 288.917 204.471 288.911 204.866L288.91 205.027C288.904 205.422 288.576 205.746 288.18 205.746ZM298.921 207.056H295.72C294.28 207.056 293.117 205.878 293.136 204.438L293.219 197.892C293.237 196.452 294.431 195.272 295.869 195.272H299.07C300.51 195.272 301.673 196.452 301.655 197.892L301.573 204.438C301.555 205.878 300.361 207.056 298.921 207.056Z" fill="#A8C2DD"/>
<path d="M454.759 308.78C454.759 317.294 447.857 324.197 439.343 324.197C430.829 324.197 423.927 317.294 423.927 308.78C423.927 300.267 430.829 293.366 439.343 293.366C447.857 293.366 454.759 300.267 454.759 308.78ZM439.192 303.362C439.192 303.362 433.809 298.614 430 303.176C424.768 309.438 439.192 317.402 439.192 317.402C439.192 317.402 453.876 309.182 448.74 302.85C444.856 298.058 439.192 303.362 439.192 303.362Z" fill="#FA4D4C"/>
<path d="M439.192 303.363C439.192 303.363 433.809 298.615 430 303.176C424.768 309.438 439.192 317.402 439.192 317.402C439.192 317.402 453.876 309.182 448.74 302.85C444.856 298.058 439.192 303.363 439.192 303.363Z" fill="#FEFEFE"/>
<g clip-path="url(#clip0_1_8299)">
<rect x="117" y="87" width="137.67" height="137.67" rx="68.835" fill="#F8FDFF"/>
<path d="M156.293 148.088C165.398 154.664 184.959 157.531 191.198 157.868C197.437 158.205 187.735 175.405 187.735 175.405C187.735 175.405 170.963 177.429 163.037 175.405C155.112 173.382 156.293 148.088 156.293 148.088Z" fill="#DC241F"/>
<path d="M188.502 119.639C194.145 114.281 204.519 121.111 205.497 125.652C208.013 137.334 209.127 149.413 206.065 154.158C203.003 158.904 177.786 160.246 176.07 160.205C173.762 160.149 172.416 152.326 176.932 147.198C181.448 142.069 183.459 132.826 184.286 128.09C185.281 122.394 187.599 120.497 188.502 119.639Z" fill="#423353"/>
<path d="M208.542 151.274L208.504 151.271C208.355 151.25 208.251 151.113 208.272 150.965C209.595 141.418 207.826 130.496 203.869 123.787C203.793 123.658 203.836 123.491 203.965 123.415C204.094 123.339 204.261 123.382 204.337 123.511C208.352 130.318 210.149 141.381 208.81 151.039C208.792 151.175 208.675 151.274 208.542 151.274Z" fill="#423353"/>
<path d="M210.172 145.024L210.155 145.023C210.005 145.014 209.891 144.885 209.901 144.735C210.441 136.09 206.136 125.256 202.211 122.05C202.094 121.955 202.077 121.784 202.172 121.667C202.267 121.551 202.438 121.534 202.555 121.629C206.577 124.915 210.993 135.97 210.443 144.769C210.434 144.913 210.314 145.024 210.172 145.024Z" fill="#423353"/>
<path d="M176.848 153.783C174.926 167.395 173.071 193.026 167.506 199.266C161.942 205.505 158.844 220.385 158.844 220.385C158.844 220.385 176.828 210.563 184.188 186.418C186.497 178.843 180.863 161.156 179.496 159.47C178.13 157.784 176.848 153.783 176.848 153.783Z" fill="#83BFC4"/>
<path d="M215.818 191.172C214.706 192.521 211.728 199.06 210.218 199.06C205.075 199.06 204.696 201.077 201.906 202.554C198.323 204.451 199.081 207.36 199.334 207.528C199.587 207.697 207.212 206.361 209.772 204.694C211.897 203.309 213.407 202.554 214.443 201.036C215.48 199.519 221.346 195.134 221.346 195.134L215.818 191.172Z" fill="#F68637"/>
<path d="M210.614 150.791C215.818 153.934 216.773 156.857 221.888 165.737C227.003 174.618 227.902 177.822 229.926 181.026C231.95 184.23 232.623 187.94 228.352 191.987C224.272 195.852 222.366 197.43 220.127 196.826C218.618 196.419 217.426 192.024 215.329 192.821C213.232 193.617 216.942 187.434 218.853 185.691C219.894 184.742 220.314 184.815 219.977 184.382C219.64 183.949 213.232 179.171 207.892 172.258C202.552 165.344 210.614 150.791 210.614 150.791Z" fill="#9AD8E0"/>
<path d="M226.947 184.005C224.415 182.868 221.251 183.03 218.928 183.471C219.525 183.973 219.902 184.286 219.977 184.382C220.314 184.815 219.894 184.742 218.853 185.691C218.484 186.028 218.048 186.53 217.6 187.115C219.37 186.176 221.31 185.333 222.9 185.101C226.947 184.511 227.2 185.607 229.307 186.956C231.415 188.305 231.078 185.86 226.947 184.005Z" fill="#83BFC4"/>
<path d="M215.846 155.495C214.453 153.591 212.968 152.213 210.614 150.791C210.614 150.791 202.552 165.344 207.892 172.258C209.587 174.452 211.389 176.431 213.071 178.124C213.181 173.466 213.67 163.054 215.846 155.495Z" fill="#83BFC4"/>
<path d="M190.814 145.98C183.844 147.554 178.22 149.61 176.781 153.653C176.083 155.615 180.125 187.996 184.172 191.593C191.983 198.536 204.857 192.043 204.857 192.043C204.857 192.043 210.703 177.485 213.022 153.047C213.626 150.842 199.686 146.514 197.437 146.064C195.189 145.615 190.814 145.98 190.814 145.98Z" fill="#9AD8E0"/>
<path d="M193.98 152.304C191.615 152.304 189.68 150.369 189.68 148.004V131.984C189.68 129.619 191.615 127.684 193.98 127.684C196.345 127.684 198.28 129.619 198.28 131.984V148.004C198.28 150.369 196.345 152.304 193.98 152.304Z" fill="#F68637"/>
<path d="M193.98 127.684C191.615 127.684 189.68 129.619 189.68 131.984V139.236C192.466 143.232 195.724 145.701 198.28 147.17V131.984C198.28 129.619 196.345 127.684 193.98 127.684Z" fill="#E86B1B"/>
<path d="M204.929 129.837C206.273 135.567 203.984 141.004 199.817 141.982C195.649 142.96 191.181 139.107 189.837 133.377C188.493 127.647 190.782 122.209 194.949 121.232C199.117 120.254 203.585 124.107 204.929 129.837Z" fill="#F68637"/>
<path d="M189.992 211.015L183.151 214.477L189.992 211.015Z" fill="#F68637"/>
<path d="M193.981 216.222L184.969 218.308C184.969 218.308 193.391 239.258 193.981 216.222Z" fill="#E86B1B"/>
<path d="M179.116 177.831C181.346 190.93 180.007 192.701 176.883 203.576C173.758 214.452 173.716 243.285 173.716 243.285C173.716 243.285 182.189 246.827 198.587 245.309C214.984 243.791 217.261 242.021 217.261 242.021C217.261 242.021 215.397 213.946 213.041 205.6C210.685 197.253 207 191.545 206.819 186.179C206.638 180.813 179.116 177.831 179.116 177.831Z" fill="#9AD8E0"/>
<path d="M149.472 137.305C146.808 133.564 144.133 123.383 146.511 122.343C148.889 121.302 148.295 119.668 150.673 116.621C153.051 113.574 162.637 112.385 165.461 117.512C168.285 122.64 169.496 123.16 169.596 125.91C169.697 128.659 162.934 135.496 162.934 135.496L149.472 137.305Z" fill="#423353"/>
<path d="M212.286 197.033C211.509 198.197 210.767 199.06 210.218 199.06C205.075 199.06 204.696 201.077 201.906 202.554C198.323 204.451 199.081 207.36 199.334 207.528C199.587 207.697 207.212 206.361 209.772 204.694C211.897 203.309 213.407 202.554 214.443 201.036C214.642 200.746 215.017 200.351 215.493 199.902C214.339 199.048 213.266 198.084 212.286 197.033Z" fill="#F68637"/>
<path d="M151.234 124.143C151.234 124.143 149.547 144.902 145.838 147.17C142.128 149.437 135.046 157.868 136.057 176.079C137.069 194.291 138.418 202.146 139.767 209.179C141.116 216.212 166.41 211.927 169.108 209.179C171.806 206.432 174.841 181.307 169.108 168.576C163.375 155.845 156.967 148.649 156.292 145.502C155.618 142.354 160.002 129.708 160.002 129.708L151.234 124.143Z" fill="#F68637"/>
<path d="M156.224 144.822C156.139 140.852 160.002 129.708 160.002 129.708L151.234 124.144C151.234 124.144 150.866 128.669 150.097 133.724C151.234 140.753 153.51 143.451 156.224 144.822Z" fill="#E86B1B"/>
<path d="M167.244 129.975C168.088 136.073 165.988 140.847 161.598 141.455C157.207 142.064 152.189 138.275 151.344 132.177C150.499 126.079 153.373 120.643 157.764 120.035C162.155 119.426 166.399 123.877 167.244 129.975Z" fill="#F68637"/>
<path d="M215.382 153.315C217.964 154.92 219.932 158.936 218.802 162.196C217.672 165.456 216.106 161.273 214.385 158.88C212.665 156.487 213.451 152.115 215.382 153.315Z" fill="#F68637"/>
<path d="M169.458 196.951C167.688 218.246 147.521 238.693 147.521 238.693L150.097 194.8L169.458 196.951Z" fill="#364996"/>
<path d="M169.458 196.951L150.097 194.8L147.521 238.693C147.521 238.693 162.886 247.401 169.713 223.874C169.125 213.542 168.885 203.844 169.458 196.951Z" fill="#233384"/>
<path d="M168.7 204.082C159.594 234.938 132.703 246.661 134.049 230.639C135.566 212.564 138.118 199.357 138.118 199.357L168.7 204.082Z" fill="#364996"/>
<path d="M169.108 168.576C166.029 161.738 162.756 156.5 160.281 152.625C159.189 152.472 157.805 152.334 156.234 152.303C153.624 152.252 149.08 148.904 146.37 146.704C146.198 146.9 146.02 147.058 145.838 147.17C142.128 149.437 135.046 157.868 136.058 176.08C137.069 194.291 133.247 200.51 134.596 207.542C135.945 214.575 166.41 211.927 169.108 209.179C171.806 206.432 174.841 181.308 169.108 168.576Z" fill="#FA4D4C"/>
<path d="M145.388 142.805L142.65 150.027L160.002 157.081L162.006 155.361C162.006 155.361 159.328 151.461 160.002 149.1C160.677 146.739 161.464 146.064 160.002 145.502C158.541 144.941 153.344 144.041 150.097 142.805C146.85 141.568 145.952 141.317 145.388 142.805Z" fill="#FA4D4C"/>
<path d="M172.367 190.128C172.022 184.707 170.927 172.613 169.108 168.576C168.438 167.088 167.759 165.68 167.081 164.342L164.892 163.392C164.892 163.392 152.751 153.699 144.826 155.507C136.901 157.315 136.563 186.839 141.116 190.075C145.669 193.312 147.521 184.659 164.359 187.345C167.101 187.782 170.121 190.342 172.367 190.128Z" fill="#DC241F"/>
<path d="M200.745 198.838C201.117 199.111 201.644 199.031 201.917 198.66L237.688 150.076C237.961 149.704 237.882 149.177 237.51 148.904C237.139 148.63 236.612 148.711 236.338 149.082L200.568 197.666C200.294 198.037 200.374 198.565 200.745 198.838Z" fill="#364996"/>
<path d="M239.743 150.791H233.779C232.787 150.791 231.973 149.978 231.973 148.984C231.973 147.991 232.787 147.178 233.779 147.178H239.743C240.737 147.178 241.549 147.991 241.549 148.984C241.549 149.978 240.737 150.791 239.743 150.791Z" fill="#233384"/>
<path d="M237.982 132.964L243.726 133.934C244.811 134.117 245.43 135.277 244.977 136.28L239.411 148.633C239.052 149.427 238.146 149.816 237.324 149.529L232.267 147.76C231.352 147.44 230.897 146.414 231.274 145.521L236.154 133.967C236.458 133.25 237.214 132.835 237.982 132.964Z" fill="#423353"/>
<path d="M237.632 133.955L242.385 134.808C243.284 134.969 243.795 135.992 243.422 136.876L238.815 147.759C238.518 148.458 237.77 148.801 237.089 148.548L232.904 146.99C232.147 146.708 231.772 145.804 232.084 145.017L236.121 134.838C236.371 134.206 236.996 133.841 237.632 133.955Z" fill="#364996"/>
<path d="M233.974 132.841C233.933 132.841 233.889 132.831 233.849 132.81L227.487 129.49C227.355 129.421 227.303 129.257 227.372 129.124C227.442 128.99 227.606 128.939 227.739 129.008L234.101 132.328C234.233 132.398 234.286 132.562 234.215 132.695C234.168 132.788 234.072 132.841 233.974 132.841Z" fill="#FECC16"/>
<path d="M235.154 131.504C235.071 131.504 234.989 131.465 234.935 131.393L230.45 125.284C230.361 125.163 230.386 124.993 230.508 124.904C230.629 124.816 230.797 124.842 230.888 124.963L235.373 131.071C235.462 131.192 235.437 131.362 235.315 131.451C235.266 131.487 235.21 131.504 235.154 131.504Z" fill="#FECC16"/>
<path d="M225.741 139.585C225.626 139.585 225.52 139.511 225.483 139.395C225.437 139.253 225.516 139.1 225.659 139.054L233.437 136.571C233.58 136.525 233.732 136.604 233.779 136.747C233.825 136.89 233.745 137.043 233.602 137.089L225.824 139.572C225.797 139.58 225.769 139.585 225.741 139.585Z" fill="#FECC16"/>
<path d="M233.919 135.159L233.881 135.156C227.957 134.309 224.715 133.796 224.246 133.631C224.105 133.582 224.031 133.427 224.08 133.285C224.13 133.143 224.285 133.069 224.427 133.119C224.672 133.205 226.236 133.515 233.957 134.618C234.105 134.64 234.208 134.777 234.189 134.926C234.169 135.061 234.053 135.159 233.919 135.159Z" fill="#FECC16"/>
<path d="M232.084 145.016C231.772 145.803 232.147 146.707 232.904 146.989L233.412 147.178L240.608 143.519L243.422 136.875C243.55 136.568 243.572 136.244 243.509 135.945L232.482 144.011L232.084 145.016Z" fill="#435CA8"/>
<path d="M233.607 147.251L237.089 148.547C237.77 148.801 238.518 148.458 238.815 147.758L240.021 144.908C237.955 145.621 235.216 146.644 233.607 147.251Z" fill="#435CA8"/>
<path d="M202.614 176.305L212.226 175.865C212.226 175.865 217.142 169.755 219.128 171C221.115 172.244 224.556 170.027 224.535 172.244C224.514 174.461 221.725 180.226 218.39 180.817C215.055 181.408 207.427 180.817 207.427 180.817L202.614 176.305Z" fill="#F68637"/>
<path d="M147.62 153.784C153.25 154.179 172.409 171.01 181.121 177.296C193.091 175.348 207.427 175.496 207.427 175.496C207.427 175.496 210.407 181.112 210.218 181.556C210.03 181.999 190.797 188.675 179.435 188.207C168.072 187.739 162.834 184.173 154.163 183.138C148.517 182.464 145.772 184.807 142.65 181.556C139.528 178.304 138.427 161.616 140.133 158.251C141.839 154.887 145.204 153.614 147.62 153.784Z" fill="#FA4D4C"/>
<path d="M149.472 137.306C152.451 135.834 150.971 132.973 151.231 131.077C151.491 129.18 150.662 127.661 151.374 127.788C152.085 127.916 151.925 135.069 152.823 135.023C153.72 134.976 153.387 129.625 154.334 129.477C155.281 129.328 155.652 127.997 154.909 125.653C154.166 123.309 154.761 121.228 156.767 123.086C158.773 124.944 163.232 129.254 165.833 128.66C168.434 128.065 168.286 125.39 168.063 125.093C167.84 124.795 161.151 117.29 161.151 117.29L147.924 124.87L147.552 131.781L149.472 137.306Z" fill="#423353"/>
<path d="M151.847 129.19C152.025 130.987 152.085 133.712 152.242 134.104C151.063 134.584 149.555 133.618 148.873 131.946C148.191 130.274 148.254 128.08 149.447 127.637C150.19 127.361 151.639 127.098 151.847 129.19Z" fill="#F68637"/>
<path d="M204.203 125.155C202.327 131.226 191.873 131.31 191.367 132.996C190.861 134.682 190.737 141.233 189.207 145.404C186.762 152.069 185.665 154.271 182.261 155.283C178.858 156.294 177.425 150.655 177.425 150.655C177.425 150.655 183.526 142.608 183.863 142.439C184.2 142.27 187.411 121.698 187.411 121.698C187.411 121.698 195.582 120.199 196.004 119.979C196.425 119.759 202.327 122.373 202.327 122.373L204.203 125.155Z" fill="#423353"/>
</g>
<defs>
<linearGradient id="paint0_linear_1_8299" x1="499.825" y1="224.333" x2="119.02" y2="251.472" gradientUnits="userSpaceOnUse">
<stop stop-color="#8BF2F6"/>
<stop offset="0.5" stop-color="#8BF2F6"/>
<stop offset="1" stop-color="#8BF2F6"/>
</linearGradient>
<linearGradient id="paint1_linear_1_8299" x1="130.264" y1="305.37" x2="466.039" y2="245.879" gradientUnits="userSpaceOnUse">
<stop stop-color="#5E28B8"/>
<stop offset="0.5" stop-color="#5E28B8"/>
<stop offset="1" stop-color="#5E28B8"/>
</linearGradient>
<clipPath id="clip0_1_8299">
<rect x="117" y="87" width="137.67" height="137.67" rx="68.835" fill="white"/>
</clipPath>
</defs>
</svg>
