<svg width="166" height="60" viewBox="0 0 166 60" fill="none" xmlns="http://www.w3.org/2000/svg">
<path d="M80 19.1562H86.7969C89.7448 19.1562 91.9688 19.5833 93.4688 20.4375C94.9688 21.2917 95.7188 22.7656 95.7188 24.8594C95.7188 25.7344 95.5625 26.526 95.25 27.2344C94.9479 27.9323 94.5052 28.5104 93.9219 28.9688C93.3385 29.4167 92.6198 29.7188 91.7656 29.875V30.0312C92.651 30.1875 93.4375 30.4635 94.125 30.8594C94.8229 31.2552 95.3698 31.8229 95.7656 32.5625C96.1719 33.3021 96.375 34.2604 96.375 35.4375C96.375 36.8333 96.0417 38.0208 95.375 39C94.7188 39.9792 93.776 40.724 92.5469 41.2344C91.3281 41.7448 89.8802 42 88.2031 42H80V19.1562ZM83.75 28.5781H87.3438C89.0417 28.5781 90.2188 28.3021 90.875 27.75C91.5312 27.1979 91.8594 26.3906 91.8594 25.3281C91.8594 24.2448 91.4688 23.4635 90.6875 22.9844C89.9167 22.5052 88.6875 22.2656 87 22.2656H83.75V28.5781ZM83.75 31.6094V38.8594H87.7031C89.4531 38.8594 90.6823 38.5208 91.3906 37.8438C92.099 37.1667 92.4531 36.25 92.4531 35.0938C92.4531 34.3854 92.2917 33.7708 91.9688 33.25C91.6562 32.7292 91.1406 32.3281 90.4219 32.0469C89.7031 31.7552 88.7344 31.6094 87.5156 31.6094H83.75ZM115.797 24.7031V42H112.906L112.406 39.6719H112.203C111.839 40.2656 111.375 40.7604 110.812 41.1562C110.25 41.5417 109.625 41.8281 108.938 42.0156C108.25 42.2135 107.526 42.3125 106.766 42.3125C105.464 42.3125 104.349 42.0938 103.422 41.6562C102.505 41.2083 101.802 40.5208 101.312 39.5938C100.823 38.6667 100.578 37.4688 100.578 36V24.7031H104.266V35.3125C104.266 36.6562 104.536 37.6615 105.078 38.3281C105.63 38.9948 106.484 39.3281 107.641 39.3281C108.755 39.3281 109.641 39.099 110.297 38.6406C110.953 38.1823 111.417 37.5052 111.688 36.6094C111.969 35.7135 112.109 34.6146 112.109 33.3125V24.7031H115.797ZM124.734 17.6875V23.5469C124.734 24.224 124.714 24.8906 124.672 25.5469C124.641 26.1927 124.609 26.6979 124.578 27.0625H124.734C125.203 26.3125 125.854 25.6823 126.688 25.1719C127.531 24.651 128.609 24.3906 129.922 24.3906C131.974 24.3906 133.625 25.1458 134.875 26.6562C136.125 28.1562 136.75 30.3802 136.75 33.3281C136.75 35.2865 136.464 36.9323 135.891 38.2656C135.318 39.599 134.51 40.6094 133.469 41.2969C132.438 41.974 131.224 42.3125 129.828 42.3125C128.516 42.3125 127.453 42.0729 126.641 41.5938C125.839 41.1042 125.208 40.5365 124.75 39.8906H124.484L123.812 42H121.062V17.6875H124.734ZM128.953 27.375C127.911 27.375 127.083 27.5833 126.469 28C125.865 28.4167 125.427 29.0417 125.156 29.875C124.885 30.6979 124.745 31.7448 124.734 33.0156V33.3438C124.734 35.2708 125.036 36.7448 125.641 37.7656C126.255 38.7865 127.37 39.2969 128.984 39.2969C130.266 39.2969 131.25 38.7812 131.938 37.75C132.625 36.7083 132.969 35.2188 132.969 33.2812C132.969 31.3229 132.625 29.849 131.938 28.8594C131.26 27.8698 130.266 27.375 128.953 27.375ZM144.688 42H141V17.6875H144.688V42ZM156.828 24.375C158.37 24.375 159.693 24.6927 160.797 25.3281C161.901 25.9635 162.75 26.8646 163.344 28.0312C163.938 29.1979 164.234 30.5938 164.234 32.2188V34.1875H152.688C152.729 35.8646 153.177 37.1562 154.031 38.0625C154.896 38.9688 156.104 39.4219 157.656 39.4219C158.76 39.4219 159.75 39.3177 160.625 39.1094C161.51 38.8906 162.422 38.5729 163.359 38.1562V41.1406C162.495 41.5469 161.615 41.8438 160.719 42.0312C159.823 42.2188 158.75 42.3125 157.5 42.3125C155.802 42.3125 154.307 41.9844 153.016 41.3281C151.734 40.6615 150.729 39.6719 150 38.3594C149.281 37.0469 148.922 35.4167 148.922 33.4688C148.922 31.5312 149.25 29.8854 149.906 28.5312C150.562 27.1771 151.484 26.1458 152.672 25.4375C153.859 24.7292 155.245 24.375 156.828 24.375ZM156.828 27.1406C155.672 27.1406 154.734 27.5156 154.016 28.2656C153.307 29.0156 152.891 30.1146 152.766 31.5625H160.641C160.63 30.6979 160.484 29.9323 160.203 29.2656C159.932 28.599 159.516 28.0781 158.953 27.7031C158.401 27.3281 157.693 27.1406 156.828 27.1406Z" fill="white"/>
<g clip-path="url(#clip0_9_51)">
<path d="M51 0H9C4.02944 0 0 4.02944 0 9V51C0 55.9706 4.02944 60 9 60H51C55.9706 60 60 55.9706 60 51V9C60 4.02944 55.9706 0 51 0Z" fill="white"/>
<path d="M46.6321 27.1932C46.6321 22.7729 44.8761 18.5336 41.7505 15.408C38.6249 12.2823 34.3856 10.5264 29.9653 10.5264C25.545 10.5264 21.3057 12.2823 18.1801 15.408C15.0545 18.5336 13.2985 22.7729 13.2985 27.1932H7.71851C7.71851 39.4992 17.6941 49.476 30.0001 49.476C42.3061 49.476 52.2805 39.4992 52.2805 27.1932H46.6321ZM29.9665 38.6292C27.7047 38.6292 25.4936 37.9585 23.613 36.7019C21.7324 35.4452 20.2666 33.6592 19.401 31.5695C18.5355 29.4799 18.309 27.1805 18.7502 24.9621C19.1915 22.7437 20.2807 20.706 21.88 19.1067C23.4794 17.5073 25.5171 16.4182 27.7355 15.9769C29.9538 15.5356 32.2532 15.7621 34.3429 16.6277C36.4325 17.4932 38.2186 18.959 39.4752 20.8397C40.7318 22.7203 41.4025 24.9313 41.4025 27.1932C41.4025 28.695 41.1067 30.1821 40.532 31.5695C39.9573 32.957 39.1149 34.2177 38.053 35.2796C36.991 36.3416 35.7304 37.1839 34.3429 37.7587C32.9554 38.3334 31.4683 38.6292 29.9665 38.6292Z" fill="#652CD0"/>
</g>
<defs>
<clipPath id="clip0_9_51">
<rect width="60" height="60" fill="white"/>
</clipPath>
</defs>
</svg>
