<svg width="228" height="160" viewBox="0 0 228 160" fill="none" xmlns="http://www.w3.org/2000/svg">
<path d="M27.0372 152.105H219.163C235.088 138.842 226.892 98.9335 213.591 90.8431C199.273 82.1346 222.009 52.0165 199.953 42.241C185.552 35.8583 162.649 42.815 165.73 25.7383C170.001 2.05788 120.068 -4.00967 83.2814 2.37394C43.5099 9.27484 79.829 43.2049 36.092 50.041C13.6023 53.5558 17.948 83.6306 20.0454 89.8459C21.8717 95.2584 33.955 103.844 17.1621 115.668C-7.46324 133.005 26.4568 151.786 27.0372 152.105Z" fill="#C6963C"/>
<path d="M8.45305 149.838C14.6499 155.579 23.2589 157.417 31.7069 157.417H192.815C204.534 157.417 217.014 153.129 219.017 141.583C221.981 124.495 215.023 101.843 205.382 95.9602C191.064 87.2241 213.8 57.0104 191.744 47.2038C177.343 40.8008 154.44 47.7797 157.521 30.6488C161.792 6.89315 111.859 0.80634 75.0724 7.21021C35.301 14.133 71.62 48.1708 27.883 55.0286C5.39336 58.5546 9.73905 88.7249 11.8364 94.9598C13.6627 100.39 25.746 109.003 8.95307 120.864C-6.11148 131.504 0.73394 142.685 8.45305 149.838Z" fill="#F7BC4B"/>
<path d="M83.9185 86.3051C83.9122 87.5953 83.5667 88.8048 82.9667 89.8487C82.8909 89.9808 82.821 90.1238 82.7578 90.2763C81.4311 93.4635 83.8432 96.9691 87.2952 96.9854L104.273 97.0661L104.354 80.0882C104.37 76.6362 107.875 74.2241 111.062 75.5504C111.215 75.614 111.358 75.6835 111.49 75.7593C112.534 76.3592 113.744 76.7048 115.034 76.7111C119.124 76.7305 122.432 73.3367 122.26 69.2045C122.105 65.4651 119.048 62.4404 115.308 62.3181C113.977 62.2748 112.724 62.5933 111.639 63.1829C111.504 63.2565 111.358 63.3237 111.202 63.385C107.951 64.6707 104.438 62.1864 104.455 58.6898L104.535 41.8585L65.8503 41.6753C56.725 41.632 49.2919 48.9943 49.2486 58.12L49.0654 96.8045L65.9865 96.8843C69.4556 96.901 71.916 93.4071 70.624 90.1874C70.5627 90.0336 70.495 89.8893 70.421 89.7562C69.784 88.6085 69.452 87.2687 69.5341 85.8463C69.7452 82.1814 72.7375 79.2347 76.4051 79.0791C80.5401 78.9036 83.9379 82.2139 83.9185 86.3051Z" fill="#339E7D"/>
<path d="M119.291 77.0206C118 77.0206 116.79 76.6804 115.743 76.0859C115.611 76.0105 115.467 75.9415 115.314 75.8788C112.121 74.5674 108.626 76.9967 108.626 80.4491V97.4266H125.604C129.056 97.4266 131.485 100.921 130.174 104.114C130.111 104.267 130.043 104.411 129.967 104.543C129.372 105.59 129.032 106.8 129.032 108.091C129.032 112.18 132.442 115.473 136.573 115.281C140.311 115.108 143.322 112.037 143.426 108.297C143.463 106.966 143.139 105.715 142.544 104.632C142.47 104.497 142.402 104.352 142.34 104.196C141.039 100.951 143.507 97.4266 147.004 97.4266H163.835V58.7416C163.835 49.6164 156.437 42.218 147.311 42.218H108.626V59.1395C108.626 62.6086 112.132 65.0528 115.345 63.7459C115.499 63.6832 115.643 63.6151 115.776 63.5406C116.921 62.8978 118.259 62.559 119.682 62.6339C123.347 62.8279 126.308 65.8066 126.481 69.4733C126.676 73.6074 123.382 77.0206 119.291 77.0206Z" fill="#5142AD"/>
<path d="M138.587 23.5922C138.72 23.6016 139.079 23.7347 139.58 24.7544C140.22 26.0563 141.095 29.9586 141.095 29.9586L138.103 30.9717L137.747 30.1517L137.308 23.9102C137.308 23.9102 138.551 23.5897 138.587 23.5922Z" fill="#DE5A44"/>
<path d="M134.628 23.0273C135.474 23.0282 137.568 23.2754 138.541 23.5858C138.541 23.5858 139.255 29.7246 137.898 34.3888C137.594 35.4331 138.149 38.7168 138.149 38.7168L129.377 38.6009C129.377 38.6009 130.416 30.6621 130.025 29.3795C129.634 28.097 129.624 23.6277 129.624 23.6277C129.624 23.6277 129.684 23.6183 131.595 23.288C132.486 23.1342 133.724 23.0259 134.628 23.0273Z" fill="#F47B60"/>
<path d="M133.32 50.1674C133.32 50.1674 133.514 52.4072 133.871 53.0275C134.227 53.6478 133.852 54.702 133.833 54.8468C133.814 54.9916 133.083 55.1983 131.918 55.0742C130.754 54.9501 130.772 54.6813 130.866 54.2473C130.96 53.8129 131.579 53.2548 131.617 52.8411C131.655 52.4279 131.261 50.9392 131.261 50.9392L133.32 50.1674Z" fill="#F7A896"/>
<path d="M137.159 36.8677C137.159 36.8677 143.215 36.5316 144.567 37.3504C145.919 38.1692 143.606 42.1882 143.606 42.1882C143.606 42.1882 139.393 41.9947 131.139 42.471C129.185 42.5838 129.017 37.3747 129.382 36.9439C129.748 36.5126 137.159 36.8677 137.159 36.8677Z" fill="#E19C48"/>
<path d="M131.805 55.2634C130.603 55.1645 130.737 54.572 130.823 54.1227C130.877 53.8417 131.213 53.5033 131.411 53.1863C131.52 53.269 131.697 53.4159 132.221 53.5572C132.766 53.7039 133.499 53.3705 133.967 53.1612C134.15 53.7831 134.177 54.5817 134.164 54.7033C134.148 54.8526 133.007 55.3624 131.805 55.2634Z" fill="#DE5A44"/>
<path d="M132.677 41.2633C132.874 43.0993 133.853 52.2384 133.853 52.2384L131.067 52.5164C131.067 52.5164 127.935 40.5433 128.154 38.7287C128.372 36.914 129.655 36.7913 129.655 36.7913C129.655 36.7913 132.152 36.4035 132.677 41.2633Z" fill="#F7CE85"/>
<path d="M129.485 24.3129C130.297 23.9857 130.875 31.3638 131.059 34.4017C132.514 34.5067 135.042 34.3077 135.671 34.2452C135.966 34.2156 136.644 33.9489 136.938 33.9035C137.239 33.8566 137.512 33.8293 137.661 33.8519C137.716 33.8601 139.244 34.4426 139.377 34.5752C139.542 34.7396 139.986 35.154 139.917 35.3394C139.848 35.5247 139.07 34.8479 139.07 34.8479L138.692 34.6476C139.167 35.0893 140.065 35.6643 139.943 35.8843C139.824 36.0992 139.012 35.5131 138.434 35.1145C138.932 35.543 139.556 36.3164 139.419 36.4424C139.297 36.5554 138.586 35.6605 137.844 35.4152C137.569 35.3243 137.303 35.6005 137.09 35.6381C136.933 35.6658 136.69 35.7226 136.535 35.6825L135.733 35.4757C135.462 35.5065 135.459 35.6672 135.186 35.7324C134.869 35.8077 134.349 35.8915 133.946 36.0004C131.626 36.6263 130.854 36.9097 130.139 36.9264C127.975 36.9768 127.564 25.0863 129.485 24.3129Z" fill="#F7A896"/>
<path d="M128.095 31.286C127.867 28.1751 127.798 24.3353 129.528 23.6386C130.211 23.3637 131.462 24.8887 131.397 31.2701C130.466 31.3695 129.1 31.4641 128.095 31.286Z" fill="#DE5A44"/>
<path d="M142.016 52.0389C142.016 52.0389 141.811 52.8274 142.27 53.3198C142.728 53.8127 144.554 54.2301 144.804 54.4972C145.054 54.7639 145.048 55.0018 145.048 55.0018L139.982 55.105L139.964 53.5744L140.145 52.4655L142.016 52.0389Z" fill="#F7A896"/>
<path d="M142.633 53.6247C142.633 53.6247 141.332 54.1511 140.704 53.8394C140.075 53.5277 140.094 53.4415 139.912 53.5575C139.73 53.6738 139.665 55.1075 139.665 55.1075L145.36 55.2749C145.756 55.2659 145.956 54.974 145.634 54.7241C145.414 54.5526 145.158 54.438 145.014 54.355C144.568 54.0997 142.633 53.6247 142.633 53.6247Z" fill="#DE5A44"/>
<path d="M141.508 38.3498C141.88 37.5169 142.744 36.4241 144.326 37.0319C145.834 37.6122 146.271 39.1162 145.837 40.6775C145.403 42.2388 142.519 51.425 142.441 52.6799L139.965 52.7555C139.965 52.7555 140.241 45.5302 140.31 43.784C140.376 42.1034 140.865 39.7912 141.508 38.3498Z" fill="#F7CE85"/>
<path d="M145.563 29.9087H137.281C137.062 29.9087 136.864 30.0418 136.781 30.2453L134.231 36.4856H129.665C129.537 36.4856 129.434 36.5898 129.434 36.7179C129.434 36.8461 129.537 36.9498 129.665 36.9498H142.66C143.017 36.9498 143.342 36.7387 143.488 36.4116L146.055 30.6729C146.216 30.3143 145.955 29.9087 145.563 29.9087Z" fill="black"/>
<path d="M141.104 33.5429C141.048 33.823 140.804 34.0107 140.56 33.9615C140.315 33.9124 140.162 33.6453 140.218 33.3652C140.274 33.085 140.517 32.8973 140.762 32.9465C141.007 32.9957 141.16 33.2628 141.104 33.5429Z" fill="white"/>
<path d="M136.805 15.5877C136.557 15.4979 136.313 15.3968 136.079 15.277C135.814 15.1412 135.47 14.9813 135.251 14.9422C134.791 14.8599 133.997 14.8883 133.546 15.3536C132.987 15.9326 132.027 15.4241 132.148 18.5316C132.285 22.0488 134.248 21.7104 134.296 21.652C134.345 21.5936 136.092 19.4469 136.092 19.4469C136.092 19.4469 136.653 20.7568 136.654 20.7094C136.655 20.6634 139.778 16.6688 136.805 15.5877Z" fill="#1A383F"/>
<path d="M135.169 21.9324L135.308 23.1916C135.308 23.1916 135.642 25.0086 135.148 25.3452C134.654 25.6822 133.135 23.0876 133.135 23.0876L133.378 19.9117L135.169 21.9324Z" fill="#F7A896"/>
<path d="M133.299 20.9413C133.674 22.0355 134.614 22.725 135.287 23.0001L135.169 21.9323L133.378 19.9121L133.299 20.9413Z" fill="#F47B60"/>
<path d="M135.2 16.4933C136.234 16.352 137.137 17.2017 137.087 18.2316C137.065 18.6796 137.015 19.238 136.907 19.8383C136.649 21.2815 135.63 22.5332 134.979 22.4039C134.328 22.2742 132.713 20.9851 133.052 18.9306C133.262 17.6621 134.116 16.642 135.2 16.4933Z" fill="#F7A896"/>
<path d="M133.5 19.1871C133.438 19.5042 133.177 19.72 132.918 19.6682C132.66 19.6169 132.501 19.318 132.563 19.0009C132.627 18.6834 132.887 18.4681 133.145 18.5194C133.404 18.5711 133.563 18.8701 133.5 19.1871Z" fill="#F7A896"/>
<path d="M133.145 18.5193C133.145 18.5193 133.93 18.7344 134.235 18.2332C134.541 17.7324 135.616 16.6607 136.938 17.1472C138.26 17.6337 135.791 16.0137 135.685 16.0112C135.578 16.0086 134.299 15.969 134.299 15.969C134.299 15.969 133.293 16.7567 133.255 16.8451C133.217 16.9331 132.91 17.8982 132.91 17.8982L133.145 18.5193Z" fill="#1A383F"/>
<path d="M134.537 20.7916L135.968 21.1012C135.968 21.1012 135.818 21.6391 135.185 21.5215C134.413 21.378 134.537 20.7916 134.537 20.7916Z" fill="white"/>
<path d="M76.1766 22.1388C76.6065 21.1186 77.0431 20.0966 78.1477 19.584C79.0415 19.1692 79.9728 19.332 80.7621 19.9317C82.9996 21.631 81.0342 23.4816 83.5749 26.6954C84.3641 27.6943 85.3216 28.5028 85.7919 29.6708C86.4504 31.3057 85.6532 32.0859 84.3777 32.8612C78.2761 36.5718 75.1235 28.8776 75.2465 27.122C75.338 25.8159 75.9001 22.7956 76.1766 22.1388Z" fill="#1F4163"/>
<path d="M69.1334 41.7298C69.3917 41.7015 70.0349 41.2857 70.2567 41.2557C70.4286 41.2323 70.7994 41.1945 70.9573 41.1782C71.1836 40.47 72.3476 36.6038 72.5116 35.4622C72.6897 34.2256 73.826 28.892 73.826 28.892L76.0813 29.4147C76.0813 29.4147 74.9382 33.5046 74.5812 35.4972C74.2742 37.2087 72.1988 40.9906 71.9391 41.3878C71.9381 41.3977 71.9377 41.4072 71.9363 41.4175C71.8707 42.0236 71.5875 41.8068 71.5875 41.8068L71.1058 41.9056C71.1058 41.9056 69.4146 41.9867 69.3027 42.022C69.1913 42.0573 68.875 41.7581 69.1334 41.7298Z" fill="#F7A896"/>
<path d="M75.8783 25.8214C74.2527 26.3208 73.2116 30.6704 73.2116 30.6704C73.2116 30.6704 75.7165 31.4482 76.3743 31.097C76.3743 31.097 77.2028 27.8629 77.4625 27.9841L75.8783 25.8214Z" fill="#719CD0"/>
<path d="M63.2258 49.5268C62.7133 50.8183 62.4384 52.0661 62.4131 52.2173C62.4011 52.2898 62.4981 52.6445 62.4875 52.7202C61.4781 54.0537 60.0522 54.3269 58.8326 54.3944C59.463 53.7977 60.3834 53.2375 60.4301 53.046C60.5047 52.7417 60.9004 51.3865 61.1138 49.5039C61.8662 49.866 62.3847 49.596 63.2258 49.5268Z" fill="#F7A896"/>
<path d="M77.3175 35.058L79.458 41.1998C79.458 41.1998 75.9576 41.8378 74.6489 42.0703C73.3402 42.3023 66.033 42.5798 65.8473 42.7082C65.7096 42.8035 64.1731 47.6749 63.4836 50.3619C62.718 50.5258 61.4101 50.3166 60.7149 50.0727C61.1133 46.2246 62.5075 40.1324 62.9462 39.4709C63.6611 38.3932 77.3175 35.058 77.3175 35.058Z" fill="#306D5B"/>
<path d="M68.6486 52.1953C68.3755 53.5578 68.3282 54.8346 68.3304 54.9877C68.3313 55.0612 68.4908 55.3927 68.4935 55.469C67.7389 56.9621 66.3848 57.4861 65.1966 57.7704C65.7097 57.0706 66.5152 56.3543 66.5272 56.1579C66.5459 55.8452 66.6928 54.4412 66.5662 52.5506C67.3713 52.7721 67.8334 52.414 68.6486 52.1953Z" fill="#F7A896"/>
<path d="M79.842 35.3796L80.6722 36.8294C81.9363 39.0364 80.9241 41.8508 78.5443 42.7479C78.5312 42.7527 78.5185 42.7576 78.5062 42.7624C77.2625 43.231 70.1312 44.845 69.9722 45.0054C69.8537 45.1247 69.2376 50.1955 69.0532 52.9638C68.3308 53.2654 67.0068 53.2997 66.2788 53.1871C65.9639 49.3314 66.2154 43.0868 66.5251 42.3558C67.0301 41.1651 79.842 35.3796 79.842 35.3796Z" fill="#3C8572"/>
<path d="M68.2719 55.0749C68.4768 54.8807 69.0818 56.0822 69.2362 56.3402C69.4098 56.6309 69.3385 56.8344 69.3118 56.8758C69.2415 56.9844 65.4194 58.8555 64.5157 58.94C64.4305 58.9479 64.2884 58.8836 64.2545 58.8484C63.9296 58.5131 65.7089 56.3581 66.452 56.1138C66.9324 55.9561 67.3502 55.9484 68.2719 55.0749Z" fill="#1F4163"/>
<path d="M62.3035 52.2707C62.5337 52.1076 62.9627 53.3827 63.0787 53.6606C63.2095 53.9729 63.1098 54.1639 63.0775 54.2013C62.9928 54.2989 58.943 55.6082 58.0363 55.5637C57.9507 55.5597 57.8197 55.4758 57.7906 55.4356C57.5165 55.0576 59.584 53.1771 60.3545 53.0414C60.8528 52.9533 61.2669 53.0044 62.3035 52.2707Z" fill="#1F4163"/>
<path d="M77.3732 25.8252C77.3317 25.8252 77.2718 25.8102 77.2111 25.7907C76.9126 25.7342 76.2597 25.6499 75.7488 25.8592C75.1274 26.1145 74.1454 28.5444 74.1783 31.0486C74.1976 31.4313 74.2178 31.7744 74.2349 32.0137C74.3733 33.9062 74.8815 37.4597 74.9107 37.4789C75.6441 37.961 80.115 36.1618 80.4252 35.7601C80.7349 35.3584 80.9624 30.445 81.1137 30.2014L81.4474 25.9287C80.9323 25.7699 78.1649 25.8274 77.3732 25.8252Z" fill="#A0C4F9"/>
<path d="M79.2273 24.2826C79.2273 24.2826 78.9115 25.7605 78.9581 26.3462C79.0042 26.9323 78.692 28.8123 77.4538 28.7949C76.2156 28.7771 77.2647 26.3936 77.3921 25.8226C77.5199 25.2515 77.5814 23.4772 77.5814 23.4772L79.2273 24.2826Z" fill="#F7A896"/>
<path d="M77.5386 24.3671C77.5673 23.8822 77.5814 23.4773 77.5814 23.4773L79.2268 24.2826C79.2268 24.2826 79.1624 24.5846 79.0959 24.97C78.3665 25.1022 77.8448 24.8229 77.5386 24.3671Z" fill="#F47B60"/>
<path d="M79.912 20.2016C79.912 20.2016 80.5452 20.5689 80.7642 21.3423C80.9835 22.1163 80.6789 24.0962 79.0171 24.5436C77.3554 24.9909 76.6697 23.4053 77.0337 22.1828C77.3974 20.9607 78.1678 19.4188 79.912 20.2016Z" fill="#F7A896"/>
<path d="M76.8356 21.7029C76.8618 22.0336 77.0392 22.2893 77.2317 22.274C77.4242 22.2587 77.5591 21.9784 77.5333 21.6481C77.5072 21.3173 77.3294 21.0612 77.1369 21.0765C76.9444 21.0918 76.8095 21.3721 76.8356 21.7029Z" fill="#F7A896"/>
<path d="M79.7197 20.0981C79.7197 20.0981 79.9768 22.3184 80.6854 22.7318C81.3935 23.1451 81.0752 24.1217 81.0752 24.1217C81.0752 24.1217 81.768 21.8533 81.2159 21.1099C80.6639 20.3666 79.7197 20.0981 79.7197 20.0981Z" fill="#1F4163"/>
<path d="M80.2549 23.0408C80.0554 23.3257 80.0493 23.6658 80.2417 23.8008C80.4345 23.9358 80.7522 23.8142 80.9521 23.5297C81.1516 23.2447 81.1576 22.9047 80.9649 22.7697C80.7725 22.6347 80.4544 22.7558 80.2549 23.0408Z" fill="#F7A896"/>
<path d="M77.8422 23.2416L79.0007 23.5575C79.0007 23.5575 78.8529 23.9973 78.3391 23.8733C77.7126 23.7223 77.8422 23.2416 77.8422 23.2416Z" fill="white"/>
<path d="M83.1781 41.8741C83.2342 41.8744 88.2063 41.8951 88.2063 41.8951C88.2063 41.8951 86.0681 43.2622 86.0257 43.2599C85.9838 43.2576 84.4213 42.54 84.3515 42.5362C84.2812 42.5324 83.1781 41.8741 83.1781 41.8741Z" fill="#59C2A9"/>
<path d="M88.3044 41.8267C88.2852 41.7733 88.2388 41.7711 88.1915 41.7684C87.731 41.7414 87.2712 41.7072 86.8163 41.6257C86.7404 41.6123 86.6656 41.5931 86.5965 41.5631C86.4708 41.5086 86.3454 41.5064 86.2158 41.5384C86.1459 41.5558 86.0754 41.5579 86.0037 41.5554C85.7719 41.5479 85.1172 41.3042 84.7794 41.2351C84.7022 41.2194 84.6425 41.159 84.6253 41.0823C84.3285 39.7516 83.6957 36.7673 83.6303 35.7902C83.547 34.5404 82.8449 28.896 82.8449 28.896L80.5238 29.4736C80.5238 29.4736 81.3545 33.6481 81.5596 35.6667C81.7182 37.2259 83.1772 40.5657 83.637 41.5273C83.8547 42.2393 84.3876 42.2742 84.5112 42.2926C84.5817 42.3036 84.6457 42.3402 84.6906 42.3956C84.7722 42.4959 84.8658 42.5838 84.9743 42.6564C85.0545 42.7105 85.1153 42.779 85.1672 42.859C85.261 43.0047 85.3438 43.1569 85.4261 43.3091C85.481 43.4099 85.5401 43.4427 85.626 43.4221C85.7183 43.3995 85.7635 43.333 85.7648 43.2216C85.7672 43.0574 85.7187 42.9067 85.6401 42.7636C85.5663 42.6302 85.5743 42.5537 85.6679 42.4354C85.7217 42.3674 85.7768 42.3022 85.8465 42.2487C85.9171 42.1942 85.9909 42.1535 86.0843 42.1692C86.2486 42.2149 86.4145 42.2534 86.584 42.2767L86.7225 42.3095C86.727 42.3106 86.7978 42.3274 86.7978 42.3274C86.8095 42.3309 87.054 42.3654 87.1374 42.3677C87.2051 42.3696 87.3141 42.3772 87.4068 42.3844C87.4906 42.3908 87.6695 42.3516 87.6758 42.3518C87.7575 42.3523 87.8309 42.3246 87.8934 42.2718C87.9188 42.2499 87.9439 42.2253 87.9323 42.1871C87.9216 42.1516 87.8945 42.136 87.859 42.1286C87.8039 42.1171 87.519 42.0739 87.5225 42.0618C87.6072 42.0642 87.8735 42.0659 87.9583 42.066C88.0729 42.0661 88.1733 42.0278 88.2546 41.9458C88.2867 41.9128 88.3237 41.8805 88.3044 41.8267Z" fill="#F7A896"/>
<path d="M81.4919 25.9238C82.6323 25.7379 83.4779 30.8414 83.4779 30.8414C83.4779 30.8414 80.9387 31.5009 80.2982 31.1192C80.2982 31.1192 79.6227 27.8498 79.3577 27.9586L81.4919 25.9238Z" fill="#A0C4F9"/>
<path d="M160.287 124.208C161.212 124.34 161.16 124.491 161.279 124.505C161.42 124.521 163.067 123.654 163.067 123.654C163.067 123.654 167.943 121.13 168.201 120.984L171.667 116.447L174.429 117.657C174.429 117.657 170.525 122.486 170.276 122.7C170.027 122.914 163.018 125.523 162.41 125.774C162.41 125.774 161.802 126.352 161.408 126.701C161.015 127.05 160.482 127.195 160.355 127.275C160.337 127.287 159.9 127.529 159.278 127.677C158.743 127.804 159.184 127.43 159.184 127.43C159.184 127.43 160.127 127.01 160.079 126.939C160.042 126.883 159.541 127.144 158.95 127.291C158.798 127.329 158.648 127.366 158.51 127.399C158.147 127.484 157.984 127.279 158.347 127.127C158.475 127.073 158.691 126.989 158.853 126.952C159.029 126.912 159.175 126.817 159.317 126.76C159.599 126.646 159.805 126.567 159.794 126.557C159.778 126.545 159.817 126.482 159.655 126.517C159.459 126.559 159.067 126.743 158.774 126.782C158.608 126.804 158.263 126.872 158.263 126.872C158.263 126.872 157.654 126.942 157.648 126.856C157.635 126.67 158.01 126.558 158.241 126.558C158.385 126.481 158.749 126.42 158.749 126.42C158.749 126.42 159.451 126.127 159.408 126.023C159.391 125.982 158.964 126.054 158.51 126.094C158.029 126.136 157.681 126.143 157.653 126.05C157.61 125.904 157.992 125.84 157.992 125.84C157.992 125.84 158.328 125.784 158.438 125.757C158.567 125.725 158.945 125.599 158.945 125.599C158.945 125.599 160.238 125.096 160.19 125C160.141 124.905 159.922 124.708 159.83 124.71C159.738 124.712 159.575 124.807 159.484 124.81C159.392 124.812 159.194 124.798 159.178 124.682C159.162 124.567 159.667 124.318 159.667 124.318C159.667 124.318 160.02 124.17 160.287 124.208Z" fill="#F8A897"/>
<path d="M169.245 119.238C169.245 119.238 170.138 120.036 170.509 120.298C170.817 120.515 172.317 121.222 172.317 121.222C172.317 121.222 173.783 118.934 174.423 117.787C175.2 116.396 175.728 114.333 175.541 114.279C175.016 114.127 174.296 114.037 173.635 114.348C171.344 115.423 169.245 119.238 169.245 119.238Z" fill="#3F5B8F"/>
<path d="M161.171 125.376C160.778 125.449 160.373 125.386 160.188 125.03C160.161 125.459 160.816 125.653 161.171 125.376Z" fill="#FE8D66"/>
<path d="M183.805 154.029C183.805 154.029 183.903 155.771 183.904 155.775C183.94 155.996 184.083 156.542 184.083 156.743C184.083 157.498 180.731 156.102 181.482 155.767C181.55 155.737 181.906 155.508 181.928 155.251C181.963 154.855 182.051 154.053 182.051 154.053L183.805 154.029Z" fill="#F7A896"/>
<path d="M181.45 155.775C181.45 155.775 182.237 156.006 182.64 156.063C183.042 156.121 183.574 155.635 183.859 155.766C184.173 155.911 184.16 157.212 184.16 157.212C184.16 157.212 179.941 157.583 178.755 157.2C178.284 157.048 179.842 156.313 181.45 155.775Z" fill="#F7CE85"/>
<path d="M189.386 153.938C189.386 153.938 189.484 155.681 189.484 155.684C189.52 155.905 189.663 156.452 189.663 156.653C189.663 157.408 186.312 156.011 187.063 155.677C187.131 155.646 187.592 155.246 187.615 154.989C187.649 154.593 187.631 153.963 187.631 153.963L189.386 153.938Z" fill="#F7A896"/>
<path d="M187.071 155.67C187.071 155.67 187.857 155.901 188.26 155.959C188.663 156.016 189.194 155.53 189.48 155.661C189.793 155.806 189.806 157.108 189.806 157.108C189.806 157.108 185.617 157.28 184.376 157.095C183.887 157.022 185.462 156.208 187.071 155.67Z" fill="#F7CE85"/>
<path d="M188.392 126.27C188.392 126.27 188.96 129.208 188.728 131.437C188.497 133.665 188.479 141.58 188.479 141.58L189.546 154.24L187.266 154.293C187.266 154.293 184.781 141.635 184.827 141.96C184.874 142.285 183.995 133.047 183.995 133.047L186.957 125.992L188.392 126.27Z" fill="#3F5B8F"/>
<path d="M187.597 124.372C187.597 124.372 190.17 127.082 189.213 130.042C188.828 131.231 185.243 142.589 185.196 143.518C185.15 144.446 183.983 154.708 183.983 154.708L181.547 154.635L181.02 143.225L181.716 127.853L183.195 125.261L187.597 124.372Z" fill="#4F75B9"/>
<path d="M171.934 115.602C172.773 114.658 174.601 113.314 174.601 113.314C174.601 113.314 175.69 112.377 176.135 112.222C176.79 111.993 177.91 111.386 179.543 113.841C180.712 115.597 188.079 124.688 189.284 124.99L181.438 128.781C181.216 126.985 177.318 123.607 176.757 122.976C175.502 121.566 171.14 116.495 171.934 115.602Z" fill="#F47B60"/>
<path d="M172.255 111.796L174.723 113.196C174.723 113.196 174.821 115.285 174.028 115.839C173.363 116.303 172.836 115.217 172.836 115.217C172.836 115.217 171.909 113.968 171.212 113.585C170.515 113.202 172.255 111.796 172.255 111.796Z" fill="#F7A896"/>
<path d="M172.679 112.71C172.593 113.148 172.388 113.781 172.065 114.305C171.791 114.017 171.485 113.734 171.212 113.585C170.891 113.408 171.088 113.014 171.394 112.64C171.827 112.176 172.255 111.796 172.255 111.796L172.73 112.065C172.763 112.243 172.708 112.565 172.679 112.71Z" fill="#F47B60"/>
<path d="M170.929 108.222C170.97 108.171 173.017 110.648 172.785 111.826C172.553 113.005 171.351 114.094 170.502 113.811C169.562 113.498 167.782 110.573 168.385 109.132C168.989 107.691 170.929 108.222 170.929 108.222Z" fill="#F7A896"/>
<path d="M168.715 107.462C169.585 106.962 171.014 106.803 172.091 107.347C173.416 108.018 173.739 109.745 173.342 110.807C172.945 111.869 173.425 112.46 173.425 112.46L172.722 112.062C172.722 112.062 172.305 111.432 172.245 110.926C172.185 110.42 171.447 110.52 171.083 110.295C170.803 110.122 170.44 109.552 169.986 109.26C169.986 109.26 168.852 109.137 168.3 109.457C167.358 110.003 167.468 108.179 168.715 107.462Z" fill="#1F4163"/>
<path d="M171.655 110.71C171.653 111.085 171.835 111.391 172.061 111.391C172.287 111.392 172.471 111.088 172.472 110.712C172.473 110.336 172.291 110.031 172.066 110.03C171.84 110.029 171.656 110.334 171.655 110.71Z" fill="#F7A896"/>
<path d="M169.623 112.845L170.677 112.034C170.677 112.034 170.965 112.46 170.511 112.83C169.959 113.282 169.623 112.845 169.623 112.845Z" fill="white"/>
<path d="M166.826 128.39C167.098 128.004 167.222 127.443 167.596 127.018C167.722 126.876 167.922 126.716 168.148 126.557C169.937 125.541 174.596 122.924 174.779 122.718C174.995 122.474 178.219 117.271 178.219 117.271L175.393 116.593L172.559 121.449C172.326 121.629 167.886 124.823 167.886 124.823C167.886 124.823 167.003 125.494 166.521 125.808C166.278 125.946 166.042 126.034 165.836 126.103C165.577 126.189 165.082 126.428 164.982 126.514C164.865 126.614 164.631 126.828 164.492 126.959C164.353 127.09 164.184 127.238 164.119 127.316C164.079 127.364 163.957 127.428 163.867 127.471C163.733 127.536 163.748 127.733 163.89 127.775C164.024 127.815 164.207 127.733 164.321 127.681C164.641 127.536 165.035 127.137 165.055 127.187C165.075 127.236 164.669 128.097 164.629 128.198C164.589 128.3 164.122 129.302 164.096 129.526C164.07 129.751 164.205 129.804 164.306 129.724C164.394 129.654 165.141 128.317 165.141 128.317C165.141 128.317 165.236 128.147 165.272 128.245C165.306 128.344 164.631 129.559 164.564 129.759C164.497 129.959 164.546 130.125 164.732 130.056C164.96 129.974 165.601 128.632 165.601 128.632C165.601 128.632 165.684 128.465 165.739 128.525C165.794 128.584 165.202 129.608 165.193 129.727C165.185 129.846 165.291 129.964 165.449 129.867C165.634 129.752 166.197 128.549 166.197 128.549C166.197 128.549 166.265 128.47 166.285 128.527C166.306 128.583 165.864 129.493 165.894 129.627C165.919 129.739 166.021 129.719 166.021 129.719C166.246 129.721 166.554 128.777 166.826 128.39Z" fill="#F8A897"/>
<path d="M177.426 120.018C177.426 120.018 176.504 119.721 175.913 119.448C175.517 119.265 173.789 118.398 173.789 118.398C173.789 118.398 174.546 115.254 175.054 114.125C176.918 109.979 179.012 112.85 179.294 113.518C179.928 115.013 177.426 120.018 177.426 120.018Z" fill="#3F5B8F"/>
<path d="M130.869 112.716C130.864 111.426 131.199 110.214 131.79 109.165C131.865 109.032 131.933 108.888 131.995 108.735C133.294 105.537 130.852 102.052 127.4 102.065L110.422 102.132L110.488 119.109C110.501 122.562 107.017 125.004 103.818 123.705C103.665 123.643 103.522 123.575 103.389 123.5C102.34 122.909 101.128 122.574 99.8376 122.579C95.7488 122.595 92.4689 126.017 92.6763 130.148C92.8638 133.885 95.9464 136.884 99.6878 136.974C101.018 137.006 102.269 136.676 103.349 136.077C103.483 136.003 103.629 135.934 103.784 135.871C107.024 134.557 110.558 137.011 110.571 140.508L110.637 157.339L149.322 157.189C158.448 157.153 165.817 149.727 165.781 140.601L165.63 101.917L148.709 101.982C145.24 101.996 142.809 105.511 144.129 108.719C144.192 108.872 144.261 109.016 144.336 109.149C144.983 110.291 145.326 111.628 145.257 113.051C145.077 116.717 142.11 119.69 138.444 119.877C134.311 120.088 130.885 116.808 130.869 112.716Z" fill="#E8465A"/>
<path d="M51.5161 115.536C50.3036 112.113 48.8047 112.2 48.8047 112.2L50.1787 119.514C50.8763 119.307 51.7806 118.859 52.4771 118.646C52.2208 117.561 51.8148 116.378 51.5161 115.536Z" fill="#F7CE85"/>
<path d="M57.7032 127.011L53.4033 124.039C53.4033 124.039 52.8469 121.105 52.1645 118.51C51.4735 118.741 50.8671 119.32 50.1749 119.544L51.5065 125.365L57.0787 127.916L58.708 129.819L58.9625 127.775L57.7032 127.011Z" fill="#F49185"/>
<path d="M39.5171 151.814C39.5171 151.814 39.2609 153.596 38.8197 154.172C38.6717 154.365 38.4011 154.609 38.2238 154.958C37.9472 155.501 38.1002 156.31 38.3041 156.755C38.4087 156.983 38.2964 156.983 38.535 157.057C39.2401 157.274 39.9908 156.907 40.2913 156.23C40.4591 155.852 40.6061 155.347 40.6359 154.711C40.7112 153.093 41.2133 152.27 41.2133 152.27L39.5171 151.814Z" fill="#F7A896"/>
<path d="M47.234 152.629C47.234 152.629 47.3923 154.639 47.2637 155.292C47.1952 155.642 46.8117 156.362 46.9876 156.691C47.1631 157.021 47.3643 157.103 47.3643 157.103L51.9193 157.176C52.1674 157.18 52.0032 157.02 51.8034 156.873C51.4758 156.631 51.2115 156.472 50.1658 155.965C50.0972 155.932 49.8491 155.773 49.7593 155.719C49.5324 155.58 49.3041 155.361 49.1079 155.142C48.7808 154.777 48.7524 153.007 48.7524 153.007L47.234 152.629Z" fill="#F7A896"/>
<path d="M50.7944 125.914C50.7944 125.914 51.3682 129.177 50.9916 131.317C50.6149 133.456 48.8068 153.286 48.8068 153.286L46.7984 153.399C46.7984 153.399 46.377 145.116 46.4524 143.964C46.5273 142.812 47.1241 140.884 47.1241 140.884L46.9238 134.196L49.4586 125.411L50.7944 125.914Z" fill="#3F5B8F"/>
<path d="M44.8899 125.227C44.8899 125.227 43.3082 127.613 42.9315 129.588C42.5549 131.563 43.2081 137.632 42.4836 140.22C42.0911 141.621 40.6056 143.784 40.3796 145.595C40.1535 147.405 39.2671 152.146 39.2671 152.146L41.275 152.545L45.941 140.703L49.6018 129.999L50.5388 124.487L44.8899 125.227Z" fill="#4F75B9"/>
<path d="M40.4284 155.874C39.334 156.074 38.6059 155.432 38.2269 154.952C37.949 155.496 37.8133 156.308 38.0181 156.755C38.1981 157.149 38.7245 157.138 39.1391 157.153C39.5776 157.169 39.9173 156.925 40.1347 156.543C40.2362 156.364 40.3409 156.142 40.4284 155.874Z" fill="#F47B60"/>
<path d="M49.7598 155.718C48.5553 156.028 47.6648 155.817 47.1663 155.616C47.0382 155.981 46.8677 156.439 46.9579 156.702C47.0689 157.026 47.2263 157.099 47.3653 157.103C48.4655 157.131 51.3956 157.171 52.2347 157.182C52.3519 157.183 52.4165 157.046 52.3411 156.956C52.1332 156.707 49.8496 155.773 49.7598 155.718Z" fill="#F47B60"/>
<path d="M51.1809 109.201C51.2615 107.877 51.0933 106.565 50.5271 105.32C50.0401 104.249 48.7958 103.622 47.6497 103.598C44.0113 103.522 43.4542 108.34 41.1016 110.157C40.3827 110.712 39.5825 111.16 38.9007 111.761C36.3836 113.978 37.4149 118.194 39.6464 120.225C41.1947 121.635 43.656 122.467 45.6188 121.428C46.6438 120.885 47.4317 119.965 47.9998 118.951C48.8064 117.512 49.3409 115.844 49.9247 114.306C50.5461 112.668 51.0737 110.96 51.1809 109.201Z" fill="#1F4163"/>
<path d="M46.5141 111.614C46.5141 111.614 44.4234 111.431 43.5733 112.315C42.7231 113.2 45.2175 120.422 45.3406 121.577C45.4636 122.733 44.4721 125.772 44.4721 125.772C44.4721 125.772 49.3664 126.882 50.7944 125.984C50.7944 125.984 51.1434 117.706 51.0124 116.88C50.8815 116.054 49.707 112.678 49.4136 112.342C49.1202 112.006 46.5141 111.614 46.5141 111.614Z" fill="#F7CE85"/>
<path d="M47.1871 108.836C47.1871 108.836 47.1763 108.898 47.1569 109.003C47.0635 109.508 46.704 111.182 46.4608 111.642C46.1676 112.198 47.4664 113.973 48.7164 113.756C49.0882 113.691 48.4011 112.126 48.4345 111.96C48.4976 111.643 48.5829 111.209 48.6709 110.766C48.72 110.515 48.7701 110.261 48.8175 110.023C48.951 109.344 49.0602 108.789 49.0602 108.789L47.1871 108.836Z" fill="#F7A896"/>
<path d="M47.1569 109.003C47.1763 108.898 47.1867 108.837 47.1867 108.837L49.0602 108.79C49.0602 108.79 48.951 109.345 48.8175 110.023C48.7706 110.26 48.7209 110.512 48.6718 110.762C48.3826 110.719 48.0803 110.578 47.7772 110.312C47.447 110.023 47.2304 109.674 47.0996 109.303C47.1226 109.184 47.1425 109.082 47.1569 109.003Z" fill="#F47B60"/>
<path d="M48.4467 104.569C48.4467 104.569 47.5643 104.467 47.0113 105.184C46.4577 105.902 45.8613 108.12 47.2359 109.326C48.6105 110.532 49.9684 109.167 50.1696 107.72C50.3707 106.272 50.4492 104.517 48.4467 104.569Z" fill="#F7A896"/>
<path d="M50.5766 107.698C50.4124 108.017 50.1372 108.195 49.9613 108.093C49.7858 107.992 49.7763 107.65 49.9405 107.331C50.1047 107.011 50.3799 106.834 50.5558 106.935C50.7313 107.037 50.7408 107.378 50.5766 107.698Z" fill="#F7A896"/>
<path d="M46.7446 107.069C46.8132 107.443 46.6747 107.787 46.436 107.836C46.197 107.886 45.9479 107.622 45.8794 107.247C45.8108 106.872 45.9493 106.529 46.1879 106.48C46.4266 106.431 46.676 106.695 46.7446 107.069Z" fill="#F7A896"/>
<path d="M48.1221 108.367L49.1872 108.415C49.1872 108.415 49.1439 108.819 48.6752 108.811C48.1036 108.801 48.1221 108.367 48.1221 108.367Z" fill="white"/>
<path d="M53.9345 116.884C54.0047 116.666 52.9519 116.517 52.8912 116.3C52.8301 116.084 54.2088 116.034 54.2534 115.841C54.336 115.486 52.7403 115.803 52.768 115.637C52.7956 115.472 54.4252 115.063 54.2416 114.784C54.0576 114.506 52.5954 115.384 52.5457 115.193C52.4964 115.002 53.9785 114.498 53.9418 114.078C53.9219 113.853 51.5171 115.259 51.2318 115.144C50.9461 115.028 51.5075 113.956 51.2787 113.804C51.0499 113.652 50.4589 115.976 50.3056 116.056C50.1528 116.137 46.9042 118.095 45.7392 118.422C45.5878 118.034 45.267 117.511 45.1328 117.143C44.4864 117.627 44.0036 117.873 43.3356 118.316C43.8567 119.537 44.5884 120.868 44.9349 121.015C45.9889 121.461 49.9424 118.02 50.7337 117.428C51.5259 116.836 51.9913 117.011 52.5318 116.817C53.0722 116.622 53.8644 117.101 53.9345 116.884Z" fill="#F7A896"/>
<path d="M43.1981 118.88C43.1981 118.88 42.2949 114.892 42.4519 113.735C42.6085 112.578 43.9835 111.5 44.9362 111.9C45.8886 112.3 46.3207 117.867 46.3207 117.867L43.1981 118.88Z" fill="#F7CE85"/>
<path d="M48.5467 104.333C48.5467 104.333 47.3675 106.442 46.5239 106.539C45.6799 106.637 45.5693 107.758 45.5693 107.758C45.5693 107.758 45.8707 105.175 46.7062 104.677C47.5412 104.179 48.5467 104.333 48.5467 104.333Z" fill="#1F4163"/>
<path d="M110.221 120.555C110.266 120.748 110.293 120.812 110.357 120.943C110.763 121.786 111.746 123.012 111.746 123.012L112.651 121.234C112.651 121.234 112.55 120.655 112.365 119.826C111.574 119.988 110.824 120.066 110.221 120.555Z" fill="#F8A897"/>
<path d="M114.926 119.186C114.926 119.186 110.331 120.934 110.187 120.89C110.094 120.862 108.465 117.847 108.565 115.082C108.611 113.805 110.004 112.326 111.47 112.694C112.208 112.879 112.188 113.086 113.22 114.734C114.253 116.383 114.926 119.186 114.926 119.186Z" fill="#1F4163"/>
<path d="M118.687 153.956C118.687 153.956 118.58 155.73 118.579 155.733C118.54 155.959 118.385 156.515 118.385 156.719C118.385 157.488 122.035 156.066 121.217 155.726C121.143 155.695 120.755 155.462 120.731 155.2C120.693 154.797 120.598 153.981 120.598 153.981L118.687 153.956Z" fill="#F7A896"/>
<path d="M121.208 155.718C121.208 155.718 120.351 155.953 119.912 156.012C119.473 156.071 118.894 155.576 118.584 155.71C118.242 155.857 118.255 157.182 118.255 157.182C118.255 157.182 122.851 157.559 124.144 157.169C124.656 157.014 122.96 156.266 121.208 155.718Z" fill="#DE5A44"/>
<path d="M111.218 153.956C111.218 153.956 111.111 155.73 111.11 155.733C111.071 155.959 110.916 156.515 110.916 156.719C110.916 157.488 114.567 156.066 113.749 155.726C113.675 155.695 113.172 155.288 113.147 155.026C113.11 154.623 113.13 153.981 113.13 153.981L111.218 153.956Z" fill="#F7A896"/>
<path d="M113.739 155.718C113.739 155.718 112.882 155.954 112.443 156.013C112.004 156.071 111.426 155.576 111.115 155.71C110.773 155.857 110.76 157.182 110.76 157.182C110.76 157.182 115.377 157.622 116.675 157.169C117.179 156.993 115.492 156.266 113.739 155.718Z" fill="#DE5A44"/>
<path d="M112.297 121.605L115.849 117.361C115.866 117.323 115.901 117.245 115.955 117.126C116.151 116.692 116.559 115.791 116.923 114.892L116.927 114.882C117.044 114.566 117.282 114.019 117.513 113.49C117.77 112.9 118.087 112.17 118.106 112.043C118.099 112.021 118.087 111.98 118.071 111.927C117.977 111.612 117.875 110.873 117.843 110.553C117.823 110.349 117.825 109.857 118.064 109.876C118.44 109.905 118.223 110.379 118.373 110.698C118.452 110.499 118.612 110.104 118.712 109.7L118.848 108.751C118.866 108.68 118.83 108.146 119.094 108.167L119.107 108.168C119.342 108.204 119.294 108.764 119.319 109.719C119.358 109.612 119.4 109.483 119.433 109.364C119.435 109.299 119.504 109.018 119.551 108.87C119.524 108.603 119.584 108.188 119.862 108.249C120.001 108.28 119.945 108.86 119.945 108.86C119.937 108.94 119.881 109.553 119.877 109.675C119.921 109.471 120.102 108.601 120.322 108.618C120.505 108.632 120.502 108.87 120.483 109.056C120.472 109.167 120.284 110.111 120.269 110.221C120.366 110.083 120.533 109.252 120.619 109.258C120.975 109.286 120.754 110.469 120.599 110.77C120.584 110.801 120.566 110.862 120.546 110.933C120.485 111.142 120.383 111.492 120.171 111.797C119.918 112.163 119.562 112.748 119.508 112.838C119.458 113.025 119.299 113.701 119.097 114.551C119.011 114.915 118.916 115.313 118.818 115.727L118.815 115.726C118.795 115.815 118.706 116.098 118.37 117.158C117.908 118.609 117.867 118.67 117.85 118.696C117.679 118.951 113.859 123.378 113.697 123.566L113.602 123.677L112.297 121.605Z" fill="#F7A896"/>
<path d="M119.069 111.591C119.069 111.591 118.86 110.906 118.397 110.869C118.397 110.869 118.663 110.795 118.871 110.988C119.08 111.181 119.069 111.591 119.069 111.591Z" fill="#F47B60"/>
<path d="M111.984 109.769L111.457 112.366C111.457 112.366 112.978 113.7 113.908 113.473C114.688 113.282 114.204 112.251 114.204 112.251C114.204 112.251 113.853 110.838 114.01 110.111C114.168 109.385 111.984 109.769 111.984 109.769Z" fill="#F7A896"/>
<path d="M112.247 110.572C112.634 110.776 113.404 111.064 114.009 111.152C113.966 110.783 113.95 110.395 114.011 110.111C114.084 109.776 113.658 109.677 113.178 109.668C112.548 109.695 111.984 109.769 111.984 109.769L111.883 110.268C111.997 110.399 112.118 110.505 112.247 110.572Z" fill="#FE8D66"/>
<path d="M110.125 106.667C110.06 106.665 110.622 109.616 111.665 110.164C112.708 110.713 114.307 110.519 114.638 109.745C115.005 108.889 113.932 105.857 112.451 105.413C110.971 104.97 110.125 106.667 110.125 106.667Z" fill="#F7A896"/>
<path d="M111.474 104.035C110.602 104.489 110.18 105.2 110.036 105.492C109.629 105.664 109.128 106.053 108.849 107.147C108.505 108.492 109.474 109.582 110.534 109.943C111.595 110.304 111.731 111.022 111.731 111.022L111.886 110.262C111.886 110.262 111.675 109.585 111.33 109.237C110.985 108.888 111.536 108.425 111.599 108.031C111.649 107.727 111.449 107.124 111.52 106.626C111.52 106.626 112.155 105.747 112.753 105.549C113.773 105.211 112.592 103.453 111.474 104.035Z" fill="#1F4163"/>
<path d="M111.733 108.545C111.858 108.889 111.786 109.221 111.573 109.288C111.361 109.355 111.087 109.131 110.962 108.788C110.838 108.445 110.909 108.112 111.122 108.045C111.335 107.978 111.608 108.202 111.733 108.545Z" fill="#F7A896"/>
<path d="M115.487 122.239L121.6 120.786C121.6 120.786 120.769 119.065 120.517 119.083C120.266 119.101 115.979 121.351 115.979 121.351L115.678 122.083L115.487 122.239Z" fill="#F8A897"/>
<path d="M112.045 125.988C112.045 125.988 111.426 128.979 111.678 131.248C111.93 133.515 111.95 141.572 111.95 141.572L110.988 154.462L113.271 154.512C113.271 154.512 115.978 141.628 115.928 141.958C115.877 142.289 116.835 132.887 116.835 132.887L113.608 125.705L112.045 125.988Z" fill="#244F5D"/>
<path d="M112.65 125.846C112.65 125.846 112.246 128.54 112.751 129.721C113.255 130.902 117.076 142.492 117.126 143.437C117.176 144.382 118.447 154.826 118.447 154.826L121.101 154.752L121.676 143.139L120.474 128.544L119.306 124.855L112.65 125.846Z" fill="#1F4163"/>
<path d="M111.456 112.401C111.456 112.401 112.102 112.843 112.713 112.806C113.325 112.768 114.199 112.22 114.199 112.22L114.087 111.811C114.087 111.811 112.512 111.551 112.472 111.575C112.432 111.6 111.456 112.401 111.456 112.401Z" fill="#F7A896"/>
<path d="M118.26 118.988C118.26 118.988 120.584 121.224 121.647 120.856C122.709 120.489 123.16 119.201 120.594 117.286C118.298 115.572 118.26 118.988 118.26 118.988Z" fill="#F8A897"/>
<path d="M119.846 121.671C119.534 119.769 117.121 113.822 116.94 112.732C116.852 112.201 115.491 112.163 114.192 112.207C112.82 112.254 111.455 112.401 111.455 112.401C111.455 112.401 110.239 112.577 109.695 113.067C109.152 113.557 108.983 114.938 109.7 117.578C110.266 119.662 110.995 120.815 111.338 122.332C111.404 122.84 111.459 123.341 111.533 123.926C111.627 126.186 111.431 129.166 111.431 129.166C111.431 129.166 118.009 130.663 120.519 128.631C120.519 128.631 120.166 123.62 119.846 121.671Z" fill="#3F5B8F"/>
<path d="M121.555 117.715C121.555 117.715 118.892 119.766 118.741 119.761C118.644 119.758 115.133 116.99 114.375 114.787C113.956 113.569 114.965 112.255 116.065 112.297C116.828 112.325 117.16 112.533 118.629 113.859C120.098 115.184 121.555 117.715 121.555 117.715Z" fill="#4F75B9"/>
<path d="M95.2311 122.22C96.5217 122.22 97.7316 122.561 98.7787 123.155C98.9109 123.231 99.0548 123.299 99.2072 123.362C102.401 124.674 105.896 122.245 105.896 118.792V101.815H88.9172C85.4652 101.815 83.0364 98.3207 84.3478 95.1277C84.4105 94.9743 84.4795 94.8304 84.5548 94.6982C85.1499 93.6512 85.4891 92.4408 85.4891 91.1502C85.4891 87.0612 82.08 83.7685 77.9486 83.9597C74.2102 84.133 71.1999 87.2037 71.0952 90.9444C71.0582 92.2752 71.3826 93.5271 71.9772 94.6093C72.0516 94.7442 72.1193 94.8895 72.1815 95.0451C73.4825 98.2905 71.0149 101.815 67.5183 101.815H50.6865V140.5C50.6865 149.625 58.0844 157.023 67.2097 157.023H105.896V140.102C105.896 136.633 102.389 134.188 99.1761 135.495C99.0227 135.558 98.8784 135.626 98.7457 135.701C97.6008 136.343 96.2628 136.682 94.8399 136.607C91.1746 136.413 88.2139 133.435 88.0411 129.768C87.8458 125.634 91.1399 122.22 95.2311 122.22Z" fill="#40D790"/>
</svg>
